%TF.GenerationSoftware,KiCad,Pcbnew,7.0.10*%
%TF.CreationDate,2025-01-22T21:10:17-07:00*%
%TF.ProjectId,HIVA,48495641-2e6b-4696-9361-645f70636258,rev?*%
%TF.SameCoordinates,Original*%
%TF.FileFunction,Copper,L1,Top*%
%TF.FilePolarity,Positive*%
%FSLAX46Y46*%
G04 Gerber Fmt 4.6, Leading zero omitted, Abs format (unit mm)*
G04 Created by KiCad (PCBNEW 7.0.10) date 2025-01-22 21:10:17*
%MOMM*%
%LPD*%
G01*
G04 APERTURE LIST*
%TA.AperFunction,ComponentPad*%
%ADD10C,1.600000*%
%TD*%
%TA.AperFunction,ComponentPad*%
%ADD11O,1.600000X1.600000*%
%TD*%
%TA.AperFunction,ComponentPad*%
%ADD12C,1.500000*%
%TD*%
%TA.AperFunction,ComponentPad*%
%ADD13C,1.800000*%
%TD*%
%TA.AperFunction,ComponentPad*%
%ADD14R,1.800000X1.800000*%
%TD*%
%TA.AperFunction,ComponentPad*%
%ADD15R,1.500000X1.500000*%
%TD*%
%TA.AperFunction,Conductor*%
%ADD16C,0.300000*%
%TD*%
%TA.AperFunction,Conductor*%
%ADD17C,0.500000*%
%TD*%
G04 APERTURE END LIST*
D10*
%TO.P,R3,1*%
%TO.N,/LED_G*%
X41934032Y-40364609D03*
D11*
%TO.P,R3,2*%
%TO.N,Net-(A1-PadD3)*%
X41934032Y-47984609D03*
%TD*%
D10*
%TO.P,R2,1*%
%TO.N,/LED_B*%
X48030032Y-40364609D03*
D11*
%TO.P,R2,2*%
%TO.N,Net-(A1-PadD4)*%
X48030032Y-47984609D03*
%TD*%
D10*
%TO.P,R1,1*%
%TO.N,/LED_R*%
X54126032Y-40364609D03*
D11*
%TO.P,R1,2*%
%TO.N,Net-(A1-PadD5)*%
X54126032Y-47984609D03*
%TD*%
D12*
%TO.P,L1,1,Anode*%
%TO.N,/+5V*%
X3834032Y-53572609D03*
%TO.P,L1,2,Cathode*%
%TO.N,GND*%
X3834032Y-56112609D03*
%TO.P,L1,3,Vcc*%
%TO.N,/+5V*%
X11962032Y-52937609D03*
%TO.P,L1,4,Output*%
%TO.N,/Lightgate*%
X11962032Y-54842609D03*
%TO.P,L1,5,Ground*%
%TO.N,GND*%
X11962032Y-56747609D03*
%TD*%
%TO.P,U1,1,VCC*%
%TO.N,/+5V*%
X37108032Y-19536609D03*
%TO.P,U1,2,TRIG*%
%TO.N,/Trig*%
X37108032Y-22076609D03*
%TO.P,U1,3,ECHO*%
%TO.N,/Echo*%
X37108032Y-24616609D03*
%TO.P,U1,4,GND*%
%TO.N,GND*%
X37108032Y-27156609D03*
%TD*%
D13*
%TO.P,A1,3V3,3V3*%
%TO.N,unconnected-(A1-Pad3V3)*%
X65532000Y-3048000D03*
%TO.P,A1,5V,5V*%
%TO.N,/+5V*%
X62992000Y-3048000D03*
D14*
%TO.P,A1,A0*%
%TO.N,N/C*%
X50292000Y-3048000D03*
D13*
%TO.P,A1,A1*%
X47752000Y-3048000D03*
%TO.P,A1,A2*%
X45212000Y-3048000D03*
%TO.P,A1,A3*%
X42672000Y-3048000D03*
%TO.P,A1,A4*%
X40132000Y-3048000D03*
%TO.P,A1,A4-SDA*%
X79756000Y-51308000D03*
%TO.P,A1,A5*%
X37592000Y-3048000D03*
%TO.P,A1,A5-SCL*%
X82296000Y-51308000D03*
%TO.P,A1,AREF,AREF*%
%TO.N,unconnected-(A1-PadAREF)*%
X77216000Y-51308000D03*
D14*
%TO.P,A1,D0,D0*%
%TO.N,unconnected-(A1-PadD0)*%
X37592000Y-51308000D03*
D13*
%TO.P,A1,D1,D1*%
%TO.N,unconnected-(A1-PadD1)*%
X40132000Y-51308000D03*
%TO.P,A1,D2,D2*%
%TO.N,unconnected-(A1-PadD2)*%
X42672000Y-51308000D03*
%TO.P,A1,D3,D3*%
%TO.N,Net-(A1-PadD3)*%
X45212000Y-51308000D03*
%TO.P,A1,D4,D4*%
%TO.N,Net-(A1-PadD4)*%
X47752000Y-51308000D03*
%TO.P,A1,D5,D5*%
%TO.N,Net-(A1-PadD5)*%
X50292000Y-51308000D03*
%TO.P,A1,D6,D6*%
%TO.N,/Servo*%
X52832000Y-51308000D03*
%TO.P,A1,D7,D7*%
%TO.N,/Lightgate*%
X55372000Y-51308000D03*
D14*
%TO.P,A1,D8,D8*%
%TO.N,unconnected-(A1-PadD8)*%
X59436000Y-51308000D03*
D13*
%TO.P,A1,D9,D9*%
%TO.N,unconnected-(A1-PadD9)*%
X61976000Y-51308000D03*
%TO.P,A1,D10,D10*%
%TO.N,/Buzzer*%
X64516000Y-51308000D03*
%TO.P,A1,D11,D11*%
%TO.N,/Echo*%
X67056000Y-51308000D03*
%TO.P,A1,D12,D12*%
%TO.N,/Trig*%
X69596000Y-51308000D03*
%TO.P,A1,D13,D13*%
%TO.N,unconnected-(A1-PadD13)*%
X72136000Y-51308000D03*
%TO.P,A1,GND_1,GND_1*%
%TO.N,GND*%
X57912000Y-3048000D03*
%TO.P,A1,GND_2,GND_2*%
%TO.N,unconnected-(A1-PadGND_2)*%
X60452000Y-3048000D03*
%TO.P,A1,GND_3,GND_3*%
%TO.N,unconnected-(A1-PadGND_3)*%
X74676000Y-51308000D03*
%TO.P,A1,IOREF,IOREF*%
%TO.N,unconnected-(A1-PadIOREF)*%
X70612000Y-3048000D03*
D14*
%TO.P,A1,P1,P1*%
%TO.N,unconnected-(A1-PadP1)*%
X73152000Y-3048000D03*
D13*
%TO.P,A1,RST,RST*%
%TO.N,unconnected-(A1-PadRST)*%
X68072000Y-3048000D03*
%TO.P,A1,VIN,VIN*%
%TO.N,unconnected-(A1-PadVIN)*%
X55372000Y-3048000D03*
%TD*%
D15*
%TO.P,D1,1*%
%TO.N,/LED_R*%
X47014032Y-35284609D03*
D12*
%TO.P,D1,2*%
%TO.N,GND*%
X44982032Y-35284609D03*
%TO.P,D1,3*%
%TO.N,/LED_B*%
X42950032Y-35284609D03*
%TO.P,D1,4*%
%TO.N,/LED_G*%
X40918032Y-35284609D03*
%TD*%
D14*
%TO.P,Buzzer1,1,Pin_1*%
%TO.N,GND*%
X42716032Y-28909609D03*
D13*
%TO.P,Buzzer1,2,Pin_2*%
%TO.N,/Buzzer*%
X45256032Y-28909609D03*
%TD*%
D14*
%TO.P,J1,1,Pin_1*%
%TO.N,GND*%
X23646032Y-54588609D03*
D13*
%TO.P,J1,2,Pin_2*%
%TO.N,/+5V*%
X26186032Y-54588609D03*
%TO.P,J1,3,Pin_3*%
%TO.N,/Servo*%
X28726032Y-54588609D03*
%TD*%
D16*
%TO.N,/LED_B*%
X44728032Y-38078609D02*
X42950032Y-36300609D01*
X42950032Y-36300609D02*
X42950032Y-35284609D01*
X47268032Y-38078609D02*
X44728032Y-38078609D01*
X48030032Y-38840609D02*
X47268032Y-38078609D01*
X48030032Y-40364609D02*
X48030032Y-38840609D01*
%TO.N,Net-(A1-PadD5)*%
X51840032Y-49254609D02*
X50292000Y-50802641D01*
X53110032Y-49254609D02*
X51840032Y-49254609D01*
X54126032Y-48238609D02*
X53110032Y-49254609D01*
X54126032Y-47984609D02*
X54126032Y-48238609D01*
X50292000Y-50802641D02*
X50292000Y-51308000D01*
%TO.N,Net-(A1-PadD3)*%
X43204032Y-49254609D02*
X41934032Y-47984609D01*
X44220032Y-49254609D02*
X43204032Y-49254609D01*
X45212000Y-50246577D02*
X44220032Y-49254609D01*
X45212000Y-51308000D02*
X45212000Y-50246577D01*
%TO.N,Net-(A1-PadD4)*%
X47776032Y-51283968D02*
X47752000Y-51308000D01*
X47776032Y-48238609D02*
X47776032Y-51283968D01*
X48030032Y-47984609D02*
X47776032Y-48238609D01*
%TO.N,/LED_G*%
X40918032Y-39348609D02*
X40918032Y-35284609D01*
X41934032Y-40364609D02*
X40918032Y-39348609D01*
%TO.N,/LED_R*%
X49046032Y-35284609D02*
X47014032Y-35284609D01*
X54126032Y-40364609D02*
X49046032Y-35284609D01*
%TO.N,/Buzzer*%
X64516000Y-36276577D02*
X64516000Y-51308000D01*
X57149032Y-28909609D02*
X64516000Y-36276577D01*
X45256032Y-28909609D02*
X57149032Y-28909609D01*
%TO.N,/Echo*%
X67056000Y-29926577D02*
X67056000Y-51308000D01*
X61746032Y-24616609D02*
X67056000Y-29926577D01*
X37108032Y-24616609D02*
X61746032Y-24616609D01*
%TO.N,/Trig*%
X69596000Y-28656577D02*
X69596000Y-51308000D01*
X37108032Y-22076609D02*
X63016032Y-22076609D01*
X63016032Y-22076609D02*
X69596000Y-28656577D01*
D17*
%TO.N,/+5V*%
X26186032Y-53572609D02*
X25551032Y-52937609D01*
X26186032Y-54588609D02*
X26186032Y-53572609D01*
X4469032Y-52937609D02*
X3834032Y-53572609D01*
X62992000Y-3048000D02*
X62992000Y-4828641D01*
X37108032Y-19536609D02*
X11962032Y-44682609D01*
X48284032Y-19536609D02*
X37108032Y-19536609D01*
X11962032Y-52937609D02*
X4469032Y-52937609D01*
X62992000Y-4828641D02*
X48284032Y-19536609D01*
X11962032Y-44682609D02*
X11962032Y-52937609D01*
X25551032Y-52937609D02*
X11962032Y-52937609D01*
D16*
%TO.N,/Servo*%
X52832000Y-52834641D02*
X52832000Y-51308000D01*
X51078032Y-54588609D02*
X52832000Y-52834641D01*
X28726032Y-54588609D02*
X51078032Y-54588609D01*
%TO.N,/Lightgate*%
X55372000Y-51308000D02*
X55372000Y-53088641D01*
X13486032Y-54842609D02*
X11962032Y-54842609D01*
X55372000Y-53088641D02*
X51840032Y-56620609D01*
X15264032Y-56620609D02*
X13486032Y-54842609D01*
X51840032Y-56620609D02*
X15264032Y-56620609D01*
%TD*%
M02*
