%TF.GenerationSoftware,KiCad,Pcbnew,7.0.10*%
%TF.CreationDate,2025-01-22T21:10:17-07:00*%
%TF.ProjectId,HIVA,48495641-2e6b-4696-9361-645f70636258,rev?*%
%TF.SameCoordinates,Original*%
%TF.FileFunction,Copper,L2,Bot*%
%TF.FilePolarity,Positive*%
%FSLAX46Y46*%
G04 Gerber Fmt 4.6, Leading zero omitted, Abs format (unit mm)*
G04 Created by KiCad (PCBNEW 7.0.10) date 2025-01-22 21:10:17*
%MOMM*%
%LPD*%
G01*
G04 APERTURE LIST*
%TA.AperFunction,ComponentPad*%
%ADD10C,1.600000*%
%TD*%
%TA.AperFunction,ComponentPad*%
%ADD11O,1.600000X1.600000*%
%TD*%
%TA.AperFunction,ComponentPad*%
%ADD12C,1.500000*%
%TD*%
%TA.AperFunction,ComponentPad*%
%ADD13C,1.800000*%
%TD*%
%TA.AperFunction,ComponentPad*%
%ADD14R,1.800000X1.800000*%
%TD*%
%TA.AperFunction,ComponentPad*%
%ADD15R,1.500000X1.500000*%
%TD*%
G04 APERTURE END LIST*
D10*
%TO.P,R3,1*%
%TO.N,/LED_G*%
X41934032Y-40364609D03*
D11*
%TO.P,R3,2*%
%TO.N,Net-(A1-PadD3)*%
X41934032Y-47984609D03*
%TD*%
D10*
%TO.P,R2,1*%
%TO.N,/LED_B*%
X48030032Y-40364609D03*
D11*
%TO.P,R2,2*%
%TO.N,Net-(A1-PadD4)*%
X48030032Y-47984609D03*
%TD*%
D10*
%TO.P,R1,1*%
%TO.N,/LED_R*%
X54126032Y-40364609D03*
D11*
%TO.P,R1,2*%
%TO.N,Net-(A1-PadD5)*%
X54126032Y-47984609D03*
%TD*%
D12*
%TO.P,L1,1,Anode*%
%TO.N,/+5V*%
X3834032Y-53572609D03*
%TO.P,L1,2,Cathode*%
%TO.N,GND*%
X3834032Y-56112609D03*
%TO.P,L1,3,Vcc*%
%TO.N,/+5V*%
X11962032Y-52937609D03*
%TO.P,L1,4,Output*%
%TO.N,/Lightgate*%
X11962032Y-54842609D03*
%TO.P,L1,5,Ground*%
%TO.N,GND*%
X11962032Y-56747609D03*
%TD*%
%TO.P,U1,1,VCC*%
%TO.N,/+5V*%
X37108032Y-19536609D03*
%TO.P,U1,2,TRIG*%
%TO.N,/Trig*%
X37108032Y-22076609D03*
%TO.P,U1,3,ECHO*%
%TO.N,/Echo*%
X37108032Y-24616609D03*
%TO.P,U1,4,GND*%
%TO.N,GND*%
X37108032Y-27156609D03*
%TD*%
D13*
%TO.P,A1,3V3,3V3*%
%TO.N,unconnected-(A1-Pad3V3)*%
X65532000Y-3048000D03*
%TO.P,A1,5V,5V*%
%TO.N,/+5V*%
X62992000Y-3048000D03*
D14*
%TO.P,A1,A0*%
%TO.N,N/C*%
X50292000Y-3048000D03*
D13*
%TO.P,A1,A1*%
X47752000Y-3048000D03*
%TO.P,A1,A2*%
X45212000Y-3048000D03*
%TO.P,A1,A3*%
X42672000Y-3048000D03*
%TO.P,A1,A4*%
X40132000Y-3048000D03*
%TO.P,A1,A4-SDA*%
X79756000Y-51308000D03*
%TO.P,A1,A5*%
X37592000Y-3048000D03*
%TO.P,A1,A5-SCL*%
X82296000Y-51308000D03*
%TO.P,A1,AREF,AREF*%
%TO.N,unconnected-(A1-PadAREF)*%
X77216000Y-51308000D03*
D14*
%TO.P,A1,D0,D0*%
%TO.N,unconnected-(A1-PadD0)*%
X37592000Y-51308000D03*
D13*
%TO.P,A1,D1,D1*%
%TO.N,unconnected-(A1-PadD1)*%
X40132000Y-51308000D03*
%TO.P,A1,D2,D2*%
%TO.N,unconnected-(A1-PadD2)*%
X42672000Y-51308000D03*
%TO.P,A1,D3,D3*%
%TO.N,Net-(A1-PadD3)*%
X45212000Y-51308000D03*
%TO.P,A1,D4,D4*%
%TO.N,Net-(A1-PadD4)*%
X47752000Y-51308000D03*
%TO.P,A1,D5,D5*%
%TO.N,Net-(A1-PadD5)*%
X50292000Y-51308000D03*
%TO.P,A1,D6,D6*%
%TO.N,/Servo*%
X52832000Y-51308000D03*
%TO.P,A1,D7,D7*%
%TO.N,/Lightgate*%
X55372000Y-51308000D03*
D14*
%TO.P,A1,D8,D8*%
%TO.N,unconnected-(A1-PadD8)*%
X59436000Y-51308000D03*
D13*
%TO.P,A1,D9,D9*%
%TO.N,unconnected-(A1-PadD9)*%
X61976000Y-51308000D03*
%TO.P,A1,D10,D10*%
%TO.N,/Buzzer*%
X64516000Y-51308000D03*
%TO.P,A1,D11,D11*%
%TO.N,/Echo*%
X67056000Y-51308000D03*
%TO.P,A1,D12,D12*%
%TO.N,/Trig*%
X69596000Y-51308000D03*
%TO.P,A1,D13,D13*%
%TO.N,unconnected-(A1-PadD13)*%
X72136000Y-51308000D03*
%TO.P,A1,GND_1,GND_1*%
%TO.N,GND*%
X57912000Y-3048000D03*
%TO.P,A1,GND_2,GND_2*%
%TO.N,unconnected-(A1-PadGND_2)*%
X60452000Y-3048000D03*
%TO.P,A1,GND_3,GND_3*%
%TO.N,unconnected-(A1-PadGND_3)*%
X74676000Y-51308000D03*
%TO.P,A1,IOREF,IOREF*%
%TO.N,unconnected-(A1-PadIOREF)*%
X70612000Y-3048000D03*
D14*
%TO.P,A1,P1,P1*%
%TO.N,unconnected-(A1-PadP1)*%
X73152000Y-3048000D03*
D13*
%TO.P,A1,RST,RST*%
%TO.N,unconnected-(A1-PadRST)*%
X68072000Y-3048000D03*
%TO.P,A1,VIN,VIN*%
%TO.N,unconnected-(A1-PadVIN)*%
X55372000Y-3048000D03*
%TD*%
D15*
%TO.P,D1,1*%
%TO.N,/LED_R*%
X47014032Y-35284609D03*
D12*
%TO.P,D1,2*%
%TO.N,GND*%
X44982032Y-35284609D03*
%TO.P,D1,3*%
%TO.N,/LED_B*%
X42950032Y-35284609D03*
%TO.P,D1,4*%
%TO.N,/LED_G*%
X40918032Y-35284609D03*
%TD*%
D14*
%TO.P,Buzzer1,1,Pin_1*%
%TO.N,GND*%
X42716032Y-28909609D03*
D13*
%TO.P,Buzzer1,2,Pin_2*%
%TO.N,/Buzzer*%
X45256032Y-28909609D03*
%TD*%
D14*
%TO.P,J1,1,Pin_1*%
%TO.N,GND*%
X23646032Y-54588609D03*
D13*
%TO.P,J1,2,Pin_2*%
%TO.N,/+5V*%
X26186032Y-54588609D03*
%TO.P,J1,3,Pin_3*%
%TO.N,/Servo*%
X28726032Y-54588609D03*
%TD*%
%TA.AperFunction,Conductor*%
%TO.N,GND*%
G36*
X45458165Y-35258250D02*
G01*
X45453181Y-35327942D01*
X45424680Y-35372289D01*
X45423270Y-35373698D01*
X45435842Y-35318617D01*
X45427047Y-35201263D01*
X45458165Y-35258250D01*
G37*
%TD.AperFunction*%
%TA.AperFunction,Conductor*%
G36*
X101342539Y-220185D02*
G01*
X101388294Y-272989D01*
X101399500Y-324500D01*
X101399500Y-60635500D01*
X101379815Y-60702539D01*
X101327011Y-60748294D01*
X101275500Y-60759500D01*
X324500Y-60759500D01*
X257461Y-60739815D01*
X211706Y-60687011D01*
X200500Y-60635500D01*
X200500Y-57856870D01*
X11383099Y-57856870D01*
X11532872Y-57926710D01*
X11532881Y-57926714D01*
X11744137Y-57983319D01*
X11744147Y-57983321D01*
X11962031Y-58002384D01*
X11962033Y-58002384D01*
X12179916Y-57983321D01*
X12179926Y-57983319D01*
X12391182Y-57926714D01*
X12391191Y-57926710D01*
X12540964Y-57856870D01*
X11962033Y-57277939D01*
X11962032Y-57277939D01*
X11383099Y-57856870D01*
X200500Y-57856870D01*
X200500Y-57221870D01*
X3255099Y-57221870D01*
X3404872Y-57291710D01*
X3404881Y-57291714D01*
X3616137Y-57348319D01*
X3616147Y-57348321D01*
X3834031Y-57367384D01*
X3834033Y-57367384D01*
X4051916Y-57348321D01*
X4051926Y-57348319D01*
X4263182Y-57291714D01*
X4263191Y-57291710D01*
X4412964Y-57221870D01*
X3938703Y-56747609D01*
X10707257Y-56747609D01*
X10726319Y-56965493D01*
X10726321Y-56965503D01*
X10782926Y-57176759D01*
X10782931Y-57176773D01*
X10852768Y-57326541D01*
X10852769Y-57326541D01*
X11400307Y-56779004D01*
X11583146Y-56779004D01*
X11613869Y-56900328D01*
X11682321Y-57005101D01*
X11781084Y-57081972D01*
X11899456Y-57122609D01*
X11993105Y-57122609D01*
X12085478Y-57107195D01*
X12195546Y-57047628D01*
X12280310Y-56955550D01*
X12330583Y-56840939D01*
X12338317Y-56747609D01*
X12492362Y-56747609D01*
X13071293Y-57326540D01*
X13141133Y-57176768D01*
X13141137Y-57176759D01*
X13197742Y-56965503D01*
X13197744Y-56965493D01*
X13216807Y-56747609D01*
X13216807Y-56747608D01*
X13197744Y-56529724D01*
X13197742Y-56529714D01*
X13141137Y-56318458D01*
X13141133Y-56318449D01*
X13071293Y-56168676D01*
X12492362Y-56747608D01*
X12492362Y-56747609D01*
X12338317Y-56747609D01*
X12340918Y-56716214D01*
X12310195Y-56594890D01*
X12241743Y-56490117D01*
X12142980Y-56413246D01*
X12024608Y-56372609D01*
X11930959Y-56372609D01*
X11838586Y-56388023D01*
X11728518Y-56447590D01*
X11643754Y-56539668D01*
X11593481Y-56654279D01*
X11583146Y-56779004D01*
X11400307Y-56779004D01*
X11431702Y-56747609D01*
X10852768Y-56168675D01*
X10782927Y-56318456D01*
X10726321Y-56529714D01*
X10726319Y-56529724D01*
X10707257Y-56747608D01*
X10707257Y-56747609D01*
X3938703Y-56747609D01*
X3834033Y-56642939D01*
X3834032Y-56642939D01*
X3255099Y-57221870D01*
X200500Y-57221870D01*
X200500Y-56112609D01*
X2579257Y-56112609D01*
X2598319Y-56330493D01*
X2598321Y-56330503D01*
X2654926Y-56541759D01*
X2654931Y-56541773D01*
X2724768Y-56691541D01*
X2724769Y-56691541D01*
X3272307Y-56144004D01*
X3455146Y-56144004D01*
X3485869Y-56265328D01*
X3554321Y-56370101D01*
X3653084Y-56446972D01*
X3771456Y-56487609D01*
X3865105Y-56487609D01*
X3957478Y-56472195D01*
X4067546Y-56412628D01*
X4152310Y-56320550D01*
X4202583Y-56205939D01*
X4210317Y-56112609D01*
X4364362Y-56112609D01*
X4943293Y-56691540D01*
X5013133Y-56541768D01*
X5013137Y-56541759D01*
X5069742Y-56330503D01*
X5069744Y-56330493D01*
X5088807Y-56112609D01*
X5088807Y-56112608D01*
X5069744Y-55894724D01*
X5069742Y-55894714D01*
X5013137Y-55683458D01*
X5013133Y-55683449D01*
X4943293Y-55533676D01*
X4364362Y-56112608D01*
X4364362Y-56112609D01*
X4210317Y-56112609D01*
X4212918Y-56081214D01*
X4182195Y-55959890D01*
X4113743Y-55855117D01*
X4014980Y-55778246D01*
X3896608Y-55737609D01*
X3802959Y-55737609D01*
X3710586Y-55753023D01*
X3600518Y-55812590D01*
X3515754Y-55904668D01*
X3465481Y-56019279D01*
X3455146Y-56144004D01*
X3272307Y-56144004D01*
X3303702Y-56112609D01*
X2724768Y-55533675D01*
X2654927Y-55683456D01*
X2598321Y-55894714D01*
X2598319Y-55894724D01*
X2579257Y-56112608D01*
X2579257Y-56112609D01*
X200500Y-56112609D01*
X200500Y-53572609D01*
X2578755Y-53572609D01*
X2592127Y-53725461D01*
X2597825Y-53790584D01*
X2597825Y-53790588D01*
X2654454Y-54001931D01*
X2654456Y-54001935D01*
X2654457Y-54001939D01*
X2700693Y-54101093D01*
X2746929Y-54200247D01*
X2757238Y-54214970D01*
X2872434Y-54379486D01*
X3027155Y-54534207D01*
X3206393Y-54659711D01*
X3358207Y-54730503D01*
X3410646Y-54776674D01*
X3429798Y-54843867D01*
X3409583Y-54910749D01*
X3358206Y-54955266D01*
X3255099Y-55003344D01*
X3255098Y-55003345D01*
X3834032Y-55582279D01*
X3834033Y-55582279D01*
X4412964Y-55003346D01*
X4309856Y-54955266D01*
X4257417Y-54909094D01*
X4238468Y-54842611D01*
X10706755Y-54842611D01*
X10712716Y-54910749D01*
X10724453Y-55044909D01*
X10725825Y-55060584D01*
X10725825Y-55060588D01*
X10782454Y-55271931D01*
X10782456Y-55271935D01*
X10782457Y-55271939D01*
X10825475Y-55364192D01*
X10874929Y-55470247D01*
X10874930Y-55470248D01*
X11000434Y-55649486D01*
X11155155Y-55804207D01*
X11334393Y-55929711D01*
X11532702Y-56022184D01*
X11744055Y-56078816D01*
X11786231Y-56082505D01*
X11851299Y-56107956D01*
X11863105Y-56118352D01*
X11962031Y-56217278D01*
X12060957Y-56118352D01*
X12122280Y-56084867D01*
X12137822Y-56082506D01*
X12180009Y-56078816D01*
X12391362Y-56022184D01*
X12589671Y-55929711D01*
X12768909Y-55804207D01*
X12923630Y-55649486D01*
X13049134Y-55470248D01*
X13141607Y-55271939D01*
X13198239Y-55060586D01*
X13206723Y-54963609D01*
X22246032Y-54963609D01*
X22246032Y-55536453D01*
X22252433Y-55595981D01*
X22252435Y-55595988D01*
X22302677Y-55730695D01*
X22302681Y-55730702D01*
X22388841Y-55845796D01*
X22388844Y-55845799D01*
X22503938Y-55931959D01*
X22503945Y-55931963D01*
X22638652Y-55982205D01*
X22638659Y-55982207D01*
X22698187Y-55988608D01*
X22698204Y-55988609D01*
X23271032Y-55988609D01*
X23271032Y-54963609D01*
X22246032Y-54963609D01*
X13206723Y-54963609D01*
X13217309Y-54842609D01*
X13215323Y-54819914D01*
X13213601Y-54800227D01*
X13198239Y-54624632D01*
X13179474Y-54554601D01*
X23192222Y-54554601D01*
X23202359Y-54689874D01*
X23251919Y-54816150D01*
X23336497Y-54922208D01*
X23448579Y-54998625D01*
X23578205Y-55038609D01*
X23679756Y-55038609D01*
X23780170Y-55023474D01*
X23902389Y-54964616D01*
X24001830Y-54872349D01*
X24021032Y-54839090D01*
X24021032Y-55988609D01*
X24593860Y-55988609D01*
X24593876Y-55988608D01*
X24653404Y-55982207D01*
X24653411Y-55982205D01*
X24788118Y-55931963D01*
X24788125Y-55931959D01*
X24903219Y-55845799D01*
X24903222Y-55845796D01*
X24989382Y-55730702D01*
X24989387Y-55730693D01*
X25018107Y-55653690D01*
X25059977Y-55597756D01*
X25125441Y-55573338D01*
X25193714Y-55588189D01*
X25225516Y-55613037D01*
X25234248Y-55622522D01*
X25234251Y-55622524D01*
X25234254Y-55622527D01*
X25417397Y-55765073D01*
X25417403Y-55765077D01*
X25417406Y-55765079D01*
X25621529Y-55875545D01*
X25735519Y-55914677D01*
X25841047Y-55950906D01*
X25841049Y-55950906D01*
X25841051Y-55950907D01*
X26069983Y-55989109D01*
X26069984Y-55989109D01*
X26302080Y-55989109D01*
X26302081Y-55989109D01*
X26531013Y-55950907D01*
X26750535Y-55875545D01*
X26954658Y-55765079D01*
X27137816Y-55622522D01*
X27295011Y-55451762D01*
X27352223Y-55364191D01*
X27405369Y-55318835D01*
X27474600Y-55309411D01*
X27537936Y-55338913D01*
X27559841Y-55364192D01*
X27617048Y-55451756D01*
X27617051Y-55451760D01*
X27617053Y-55451762D01*
X27774248Y-55622522D01*
X27774251Y-55622524D01*
X27774254Y-55622527D01*
X27957397Y-55765073D01*
X27957403Y-55765077D01*
X27957406Y-55765079D01*
X28161529Y-55875545D01*
X28275519Y-55914677D01*
X28381047Y-55950906D01*
X28381049Y-55950906D01*
X28381051Y-55950907D01*
X28609983Y-55989109D01*
X28609984Y-55989109D01*
X28842080Y-55989109D01*
X28842081Y-55989109D01*
X29071013Y-55950907D01*
X29290535Y-55875545D01*
X29494658Y-55765079D01*
X29677816Y-55622522D01*
X29835011Y-55451762D01*
X29961956Y-55257458D01*
X30055189Y-55044909D01*
X30112166Y-54819914D01*
X30117556Y-54754869D01*
X30131332Y-54588615D01*
X30131332Y-54588602D01*
X30112167Y-54357311D01*
X30112165Y-54357300D01*
X30055189Y-54132308D01*
X29961956Y-53919760D01*
X29835015Y-53725461D01*
X29835012Y-53725458D01*
X29835011Y-53725456D01*
X29677816Y-53554696D01*
X29677811Y-53554692D01*
X29677809Y-53554690D01*
X29494666Y-53412144D01*
X29494660Y-53412140D01*
X29290536Y-53301673D01*
X29290527Y-53301670D01*
X29071016Y-53226311D01*
X28883436Y-53195010D01*
X28842081Y-53188109D01*
X28609983Y-53188109D01*
X28568628Y-53195010D01*
X28381047Y-53226311D01*
X28161536Y-53301670D01*
X28161527Y-53301673D01*
X27957403Y-53412140D01*
X27957397Y-53412144D01*
X27774254Y-53554690D01*
X27774251Y-53554693D01*
X27774248Y-53554695D01*
X27774248Y-53554696D01*
X27764535Y-53565247D01*
X27617048Y-53725461D01*
X27559841Y-53813025D01*
X27506694Y-53858382D01*
X27437463Y-53867806D01*
X27374127Y-53838304D01*
X27352223Y-53813025D01*
X27295015Y-53725461D01*
X27295012Y-53725458D01*
X27295011Y-53725456D01*
X27137816Y-53554696D01*
X27137811Y-53554692D01*
X27137809Y-53554690D01*
X26954666Y-53412144D01*
X26954660Y-53412140D01*
X26750536Y-53301673D01*
X26750527Y-53301670D01*
X26531016Y-53226311D01*
X26343436Y-53195010D01*
X26302081Y-53188109D01*
X26069983Y-53188109D01*
X26028628Y-53195010D01*
X25841047Y-53226311D01*
X25621536Y-53301670D01*
X25621527Y-53301673D01*
X25417403Y-53412140D01*
X25417397Y-53412144D01*
X25234254Y-53554690D01*
X25234247Y-53554696D01*
X25225516Y-53564181D01*
X25165627Y-53600170D01*
X25095789Y-53598067D01*
X25038175Y-53558541D01*
X25018107Y-53523527D01*
X24989387Y-53446524D01*
X24989382Y-53446515D01*
X24903222Y-53331421D01*
X24903219Y-53331418D01*
X24788125Y-53245258D01*
X24788118Y-53245254D01*
X24653411Y-53195012D01*
X24653404Y-53195010D01*
X24593876Y-53188609D01*
X24021032Y-53188609D01*
X24021032Y-54337100D01*
X23955567Y-54255010D01*
X23843485Y-54178593D01*
X23713859Y-54138609D01*
X23612308Y-54138609D01*
X23511894Y-54153744D01*
X23389675Y-54212602D01*
X23290234Y-54304869D01*
X23222407Y-54422349D01*
X23192222Y-54554601D01*
X13179474Y-54554601D01*
X13141607Y-54413279D01*
X13049134Y-54214971D01*
X13049132Y-54214968D01*
X13049131Y-54214966D01*
X13048181Y-54213609D01*
X22246032Y-54213609D01*
X23271032Y-54213609D01*
X23271032Y-53188609D01*
X22698187Y-53188609D01*
X22638659Y-53195010D01*
X22638652Y-53195012D01*
X22503945Y-53245254D01*
X22503938Y-53245258D01*
X22388844Y-53331418D01*
X22388841Y-53331421D01*
X22302681Y-53446515D01*
X22302677Y-53446522D01*
X22252435Y-53581229D01*
X22252433Y-53581236D01*
X22246032Y-53640764D01*
X22246032Y-54213609D01*
X13048181Y-54213609D01*
X12923629Y-54035730D01*
X12865688Y-53977789D01*
X12832203Y-53916466D01*
X12837187Y-53846774D01*
X12865684Y-53802431D01*
X12923630Y-53744486D01*
X13049134Y-53565248D01*
X13141607Y-53366939D01*
X13198239Y-53155586D01*
X13217309Y-52937609D01*
X13198239Y-52719632D01*
X13141607Y-52508279D01*
X13049134Y-52309971D01*
X13049132Y-52309968D01*
X13049131Y-52309966D01*
X13011253Y-52255870D01*
X36191500Y-52255870D01*
X36191501Y-52255876D01*
X36197908Y-52315483D01*
X36248202Y-52450328D01*
X36248206Y-52450335D01*
X36334452Y-52565544D01*
X36334455Y-52565547D01*
X36449664Y-52651793D01*
X36449671Y-52651797D01*
X36584517Y-52702091D01*
X36584516Y-52702091D01*
X36591444Y-52702835D01*
X36644127Y-52708500D01*
X38539872Y-52708499D01*
X38599483Y-52702091D01*
X38734331Y-52651796D01*
X38849546Y-52565546D01*
X38935796Y-52450331D01*
X38957166Y-52393035D01*
X38964455Y-52373493D01*
X39006326Y-52317559D01*
X39071790Y-52293141D01*
X39140063Y-52307992D01*
X39171866Y-52332843D01*
X39175143Y-52336402D01*
X39180215Y-52341912D01*
X39180222Y-52341918D01*
X39363365Y-52484464D01*
X39363371Y-52484468D01*
X39363374Y-52484470D01*
X39567497Y-52594936D01*
X39614325Y-52611012D01*
X39787015Y-52670297D01*
X39787017Y-52670297D01*
X39787019Y-52670298D01*
X40015951Y-52708500D01*
X40015952Y-52708500D01*
X40248048Y-52708500D01*
X40248049Y-52708500D01*
X40476981Y-52670298D01*
X40696503Y-52594936D01*
X40900626Y-52484470D01*
X41083784Y-52341913D01*
X41240979Y-52171153D01*
X41298191Y-52083582D01*
X41351337Y-52038226D01*
X41420568Y-52028802D01*
X41483904Y-52058304D01*
X41505809Y-52083583D01*
X41563016Y-52171147D01*
X41563019Y-52171151D01*
X41563021Y-52171153D01*
X41720216Y-52341913D01*
X41720219Y-52341915D01*
X41720222Y-52341918D01*
X41903365Y-52484464D01*
X41903371Y-52484468D01*
X41903374Y-52484470D01*
X42107497Y-52594936D01*
X42154325Y-52611012D01*
X42327015Y-52670297D01*
X42327017Y-52670297D01*
X42327019Y-52670298D01*
X42555951Y-52708500D01*
X42555952Y-52708500D01*
X42788048Y-52708500D01*
X42788049Y-52708500D01*
X43016981Y-52670298D01*
X43236503Y-52594936D01*
X43440626Y-52484470D01*
X43623784Y-52341913D01*
X43780979Y-52171153D01*
X43838191Y-52083582D01*
X43891337Y-52038226D01*
X43960568Y-52028802D01*
X44023904Y-52058304D01*
X44045809Y-52083583D01*
X44103016Y-52171147D01*
X44103019Y-52171151D01*
X44103021Y-52171153D01*
X44260216Y-52341913D01*
X44260219Y-52341915D01*
X44260222Y-52341918D01*
X44443365Y-52484464D01*
X44443371Y-52484468D01*
X44443374Y-52484470D01*
X44647497Y-52594936D01*
X44694325Y-52611012D01*
X44867015Y-52670297D01*
X44867017Y-52670297D01*
X44867019Y-52670298D01*
X45095951Y-52708500D01*
X45095952Y-52708500D01*
X45328048Y-52708500D01*
X45328049Y-52708500D01*
X45556981Y-52670298D01*
X45776503Y-52594936D01*
X45980626Y-52484470D01*
X46163784Y-52341913D01*
X46320979Y-52171153D01*
X46378191Y-52083582D01*
X46431337Y-52038226D01*
X46500568Y-52028802D01*
X46563904Y-52058304D01*
X46585809Y-52083583D01*
X46643016Y-52171147D01*
X46643019Y-52171151D01*
X46643021Y-52171153D01*
X46800216Y-52341913D01*
X46800219Y-52341915D01*
X46800222Y-52341918D01*
X46983365Y-52484464D01*
X46983371Y-52484468D01*
X46983374Y-52484470D01*
X47187497Y-52594936D01*
X47234325Y-52611012D01*
X47407015Y-52670297D01*
X47407017Y-52670297D01*
X47407019Y-52670298D01*
X47635951Y-52708500D01*
X47635952Y-52708500D01*
X47868048Y-52708500D01*
X47868049Y-52708500D01*
X48096981Y-52670298D01*
X48316503Y-52594936D01*
X48520626Y-52484470D01*
X48703784Y-52341913D01*
X48860979Y-52171153D01*
X48918191Y-52083582D01*
X48971337Y-52038226D01*
X49040568Y-52028802D01*
X49103904Y-52058304D01*
X49125809Y-52083583D01*
X49183016Y-52171147D01*
X49183019Y-52171151D01*
X49183021Y-52171153D01*
X49340216Y-52341913D01*
X49340219Y-52341915D01*
X49340222Y-52341918D01*
X49523365Y-52484464D01*
X49523371Y-52484468D01*
X49523374Y-52484470D01*
X49727497Y-52594936D01*
X49774325Y-52611012D01*
X49947015Y-52670297D01*
X49947017Y-52670297D01*
X49947019Y-52670298D01*
X50175951Y-52708500D01*
X50175952Y-52708500D01*
X50408048Y-52708500D01*
X50408049Y-52708500D01*
X50636981Y-52670298D01*
X50856503Y-52594936D01*
X51060626Y-52484470D01*
X51243784Y-52341913D01*
X51400979Y-52171153D01*
X51458191Y-52083582D01*
X51511337Y-52038226D01*
X51580568Y-52028802D01*
X51643904Y-52058304D01*
X51665809Y-52083583D01*
X51723016Y-52171147D01*
X51723019Y-52171151D01*
X51723021Y-52171153D01*
X51880216Y-52341913D01*
X51880219Y-52341915D01*
X51880222Y-52341918D01*
X52063365Y-52484464D01*
X52063371Y-52484468D01*
X52063374Y-52484470D01*
X52267497Y-52594936D01*
X52314325Y-52611012D01*
X52487015Y-52670297D01*
X52487017Y-52670297D01*
X52487019Y-52670298D01*
X52715951Y-52708500D01*
X52715952Y-52708500D01*
X52948048Y-52708500D01*
X52948049Y-52708500D01*
X53176981Y-52670298D01*
X53396503Y-52594936D01*
X53600626Y-52484470D01*
X53783784Y-52341913D01*
X53940979Y-52171153D01*
X53998191Y-52083582D01*
X54051337Y-52038226D01*
X54120568Y-52028802D01*
X54183904Y-52058304D01*
X54205809Y-52083583D01*
X54263016Y-52171147D01*
X54263019Y-52171151D01*
X54263021Y-52171153D01*
X54420216Y-52341913D01*
X54420219Y-52341915D01*
X54420222Y-52341918D01*
X54603365Y-52484464D01*
X54603371Y-52484468D01*
X54603374Y-52484470D01*
X54807497Y-52594936D01*
X54854325Y-52611012D01*
X55027015Y-52670297D01*
X55027017Y-52670297D01*
X55027019Y-52670298D01*
X55255951Y-52708500D01*
X55255952Y-52708500D01*
X55488048Y-52708500D01*
X55488049Y-52708500D01*
X55716981Y-52670298D01*
X55936503Y-52594936D01*
X56140626Y-52484470D01*
X56323784Y-52341913D01*
X56402992Y-52255870D01*
X58035500Y-52255870D01*
X58035501Y-52255876D01*
X58041908Y-52315483D01*
X58092202Y-52450328D01*
X58092206Y-52450335D01*
X58178452Y-52565544D01*
X58178455Y-52565547D01*
X58293664Y-52651793D01*
X58293671Y-52651797D01*
X58428517Y-52702091D01*
X58428516Y-52702091D01*
X58435444Y-52702835D01*
X58488127Y-52708500D01*
X60383872Y-52708499D01*
X60443483Y-52702091D01*
X60578331Y-52651796D01*
X60693546Y-52565546D01*
X60779796Y-52450331D01*
X60801166Y-52393035D01*
X60808455Y-52373493D01*
X60850326Y-52317559D01*
X60915790Y-52293141D01*
X60984063Y-52307992D01*
X61015866Y-52332843D01*
X61019143Y-52336402D01*
X61024215Y-52341912D01*
X61024222Y-52341918D01*
X61207365Y-52484464D01*
X61207371Y-52484468D01*
X61207374Y-52484470D01*
X61411497Y-52594936D01*
X61458325Y-52611012D01*
X61631015Y-52670297D01*
X61631017Y-52670297D01*
X61631019Y-52670298D01*
X61859951Y-52708500D01*
X61859952Y-52708500D01*
X62092048Y-52708500D01*
X62092049Y-52708500D01*
X62320981Y-52670298D01*
X62540503Y-52594936D01*
X62744626Y-52484470D01*
X62927784Y-52341913D01*
X63084979Y-52171153D01*
X63142191Y-52083582D01*
X63195337Y-52038226D01*
X63264568Y-52028802D01*
X63327904Y-52058304D01*
X63349809Y-52083583D01*
X63407016Y-52171147D01*
X63407019Y-52171151D01*
X63407021Y-52171153D01*
X63564216Y-52341913D01*
X63564219Y-52341915D01*
X63564222Y-52341918D01*
X63747365Y-52484464D01*
X63747371Y-52484468D01*
X63747374Y-52484470D01*
X63951497Y-52594936D01*
X63998325Y-52611012D01*
X64171015Y-52670297D01*
X64171017Y-52670297D01*
X64171019Y-52670298D01*
X64399951Y-52708500D01*
X64399952Y-52708500D01*
X64632048Y-52708500D01*
X64632049Y-52708500D01*
X64860981Y-52670298D01*
X65080503Y-52594936D01*
X65284626Y-52484470D01*
X65467784Y-52341913D01*
X65624979Y-52171153D01*
X65682191Y-52083582D01*
X65735337Y-52038226D01*
X65804568Y-52028802D01*
X65867904Y-52058304D01*
X65889809Y-52083583D01*
X65947016Y-52171147D01*
X65947019Y-52171151D01*
X65947021Y-52171153D01*
X66104216Y-52341913D01*
X66104219Y-52341915D01*
X66104222Y-52341918D01*
X66287365Y-52484464D01*
X66287371Y-52484468D01*
X66287374Y-52484470D01*
X66491497Y-52594936D01*
X66538325Y-52611012D01*
X66711015Y-52670297D01*
X66711017Y-52670297D01*
X66711019Y-52670298D01*
X66939951Y-52708500D01*
X66939952Y-52708500D01*
X67172048Y-52708500D01*
X67172049Y-52708500D01*
X67400981Y-52670298D01*
X67620503Y-52594936D01*
X67824626Y-52484470D01*
X68007784Y-52341913D01*
X68164979Y-52171153D01*
X68222191Y-52083582D01*
X68275337Y-52038226D01*
X68344568Y-52028802D01*
X68407904Y-52058304D01*
X68429809Y-52083583D01*
X68487016Y-52171147D01*
X68487019Y-52171151D01*
X68487021Y-52171153D01*
X68644216Y-52341913D01*
X68644219Y-52341915D01*
X68644222Y-52341918D01*
X68827365Y-52484464D01*
X68827371Y-52484468D01*
X68827374Y-52484470D01*
X69031497Y-52594936D01*
X69078325Y-52611012D01*
X69251015Y-52670297D01*
X69251017Y-52670297D01*
X69251019Y-52670298D01*
X69479951Y-52708500D01*
X69479952Y-52708500D01*
X69712048Y-52708500D01*
X69712049Y-52708500D01*
X69940981Y-52670298D01*
X70160503Y-52594936D01*
X70364626Y-52484470D01*
X70547784Y-52341913D01*
X70704979Y-52171153D01*
X70762191Y-52083582D01*
X70815337Y-52038226D01*
X70884568Y-52028802D01*
X70947904Y-52058304D01*
X70969809Y-52083583D01*
X71027016Y-52171147D01*
X71027019Y-52171151D01*
X71027021Y-52171153D01*
X71184216Y-52341913D01*
X71184219Y-52341915D01*
X71184222Y-52341918D01*
X71367365Y-52484464D01*
X71367371Y-52484468D01*
X71367374Y-52484470D01*
X71571497Y-52594936D01*
X71618325Y-52611012D01*
X71791015Y-52670297D01*
X71791017Y-52670297D01*
X71791019Y-52670298D01*
X72019951Y-52708500D01*
X72019952Y-52708500D01*
X72252048Y-52708500D01*
X72252049Y-52708500D01*
X72480981Y-52670298D01*
X72700503Y-52594936D01*
X72904626Y-52484470D01*
X73087784Y-52341913D01*
X73244979Y-52171153D01*
X73302191Y-52083582D01*
X73355337Y-52038226D01*
X73424568Y-52028802D01*
X73487904Y-52058304D01*
X73509809Y-52083583D01*
X73567016Y-52171147D01*
X73567019Y-52171151D01*
X73567021Y-52171153D01*
X73724216Y-52341913D01*
X73724219Y-52341915D01*
X73724222Y-52341918D01*
X73907365Y-52484464D01*
X73907371Y-52484468D01*
X73907374Y-52484470D01*
X74111497Y-52594936D01*
X74158325Y-52611012D01*
X74331015Y-52670297D01*
X74331017Y-52670297D01*
X74331019Y-52670298D01*
X74559951Y-52708500D01*
X74559952Y-52708500D01*
X74792048Y-52708500D01*
X74792049Y-52708500D01*
X75020981Y-52670298D01*
X75240503Y-52594936D01*
X75444626Y-52484470D01*
X75627784Y-52341913D01*
X75784979Y-52171153D01*
X75842191Y-52083582D01*
X75895337Y-52038226D01*
X75964568Y-52028802D01*
X76027904Y-52058304D01*
X76049809Y-52083583D01*
X76107016Y-52171147D01*
X76107019Y-52171151D01*
X76107021Y-52171153D01*
X76264216Y-52341913D01*
X76264219Y-52341915D01*
X76264222Y-52341918D01*
X76447365Y-52484464D01*
X76447371Y-52484468D01*
X76447374Y-52484470D01*
X76651497Y-52594936D01*
X76698325Y-52611012D01*
X76871015Y-52670297D01*
X76871017Y-52670297D01*
X76871019Y-52670298D01*
X77099951Y-52708500D01*
X77099952Y-52708500D01*
X77332048Y-52708500D01*
X77332049Y-52708500D01*
X77560981Y-52670298D01*
X77780503Y-52594936D01*
X77984626Y-52484470D01*
X78167784Y-52341913D01*
X78324979Y-52171153D01*
X78382191Y-52083582D01*
X78435337Y-52038226D01*
X78504568Y-52028802D01*
X78567904Y-52058304D01*
X78589809Y-52083583D01*
X78647016Y-52171147D01*
X78647019Y-52171151D01*
X78647021Y-52171153D01*
X78804216Y-52341913D01*
X78804219Y-52341915D01*
X78804222Y-52341918D01*
X78987365Y-52484464D01*
X78987371Y-52484468D01*
X78987374Y-52484470D01*
X79191497Y-52594936D01*
X79238325Y-52611012D01*
X79411015Y-52670297D01*
X79411017Y-52670297D01*
X79411019Y-52670298D01*
X79639951Y-52708500D01*
X79639952Y-52708500D01*
X79872048Y-52708500D01*
X79872049Y-52708500D01*
X80100981Y-52670298D01*
X80320503Y-52594936D01*
X80524626Y-52484470D01*
X80707784Y-52341913D01*
X80864979Y-52171153D01*
X80922191Y-52083582D01*
X80975337Y-52038226D01*
X81044568Y-52028802D01*
X81107904Y-52058304D01*
X81129809Y-52083583D01*
X81187016Y-52171147D01*
X81187019Y-52171151D01*
X81187021Y-52171153D01*
X81344216Y-52341913D01*
X81344219Y-52341915D01*
X81344222Y-52341918D01*
X81527365Y-52484464D01*
X81527371Y-52484468D01*
X81527374Y-52484470D01*
X81731497Y-52594936D01*
X81778325Y-52611012D01*
X81951015Y-52670297D01*
X81951017Y-52670297D01*
X81951019Y-52670298D01*
X82179951Y-52708500D01*
X82179952Y-52708500D01*
X82412048Y-52708500D01*
X82412049Y-52708500D01*
X82640981Y-52670298D01*
X82860503Y-52594936D01*
X83064626Y-52484470D01*
X83247784Y-52341913D01*
X83404979Y-52171153D01*
X83531924Y-51976849D01*
X83625157Y-51764300D01*
X83682134Y-51539305D01*
X83695685Y-51375765D01*
X83695685Y-51375763D01*
X83997787Y-51375763D01*
X84027413Y-51645013D01*
X84027415Y-51645024D01*
X84081136Y-51850509D01*
X84095928Y-51907088D01*
X84201870Y-52156390D01*
X84342979Y-52387605D01*
X84342986Y-52387615D01*
X84516253Y-52595819D01*
X84516259Y-52595824D01*
X84642013Y-52708499D01*
X84717998Y-52776582D01*
X84943910Y-52926044D01*
X85189176Y-53041020D01*
X85189183Y-53041022D01*
X85189185Y-53041023D01*
X85448557Y-53119057D01*
X85448564Y-53119058D01*
X85448569Y-53119060D01*
X85716561Y-53158500D01*
X85716566Y-53158500D01*
X85919629Y-53158500D01*
X85919631Y-53158500D01*
X85919636Y-53158499D01*
X85919648Y-53158499D01*
X85959417Y-53155588D01*
X86122156Y-53143677D01*
X86234758Y-53118593D01*
X86386546Y-53084782D01*
X86386548Y-53084781D01*
X86386553Y-53084780D01*
X86639558Y-52988014D01*
X86875777Y-52855441D01*
X87090177Y-52689888D01*
X87278186Y-52494881D01*
X87435799Y-52274579D01*
X87533997Y-52083583D01*
X87559649Y-52033690D01*
X87559651Y-52033684D01*
X87559656Y-52033675D01*
X87647118Y-51777305D01*
X87696319Y-51510933D01*
X87706212Y-51240235D01*
X87676586Y-50970982D01*
X87608072Y-50708912D01*
X87502130Y-50459610D01*
X87361018Y-50228390D01*
X87308823Y-50165671D01*
X87187746Y-50020180D01*
X87187740Y-50020175D01*
X86986002Y-49839418D01*
X86760092Y-49689957D01*
X86760090Y-49689956D01*
X86514824Y-49574980D01*
X86514819Y-49574978D01*
X86514814Y-49574976D01*
X86255442Y-49496942D01*
X86255428Y-49496939D01*
X86139791Y-49479921D01*
X85987439Y-49457500D01*
X85784369Y-49457500D01*
X85784351Y-49457500D01*
X85581844Y-49472323D01*
X85581831Y-49472325D01*
X85317453Y-49531217D01*
X85317446Y-49531220D01*
X85064439Y-49627987D01*
X84828226Y-49760557D01*
X84613822Y-49926112D01*
X84425822Y-50121109D01*
X84425816Y-50121116D01*
X84268202Y-50341419D01*
X84268199Y-50341424D01*
X84144350Y-50582309D01*
X84144343Y-50582327D01*
X84056884Y-50838685D01*
X84056881Y-50838699D01*
X84007681Y-51105068D01*
X84007680Y-51105075D01*
X83997787Y-51375763D01*
X83695685Y-51375763D01*
X83701300Y-51308006D01*
X83701300Y-51307993D01*
X83682135Y-51076702D01*
X83682133Y-51076691D01*
X83625157Y-50851699D01*
X83531924Y-50639151D01*
X83404983Y-50444852D01*
X83404980Y-50444849D01*
X83404979Y-50444847D01*
X83247784Y-50274087D01*
X83247779Y-50274083D01*
X83247777Y-50274081D01*
X83064634Y-50131535D01*
X83064628Y-50131531D01*
X82860504Y-50021064D01*
X82860495Y-50021061D01*
X82640984Y-49945702D01*
X82450450Y-49913908D01*
X82412049Y-49907500D01*
X82179951Y-49907500D01*
X82141550Y-49913908D01*
X81951015Y-49945702D01*
X81731504Y-50021061D01*
X81731495Y-50021064D01*
X81527371Y-50131531D01*
X81527365Y-50131535D01*
X81344222Y-50274081D01*
X81344219Y-50274084D01*
X81187016Y-50444852D01*
X81129809Y-50532416D01*
X81076662Y-50577773D01*
X81007431Y-50587197D01*
X80944095Y-50557695D01*
X80922191Y-50532416D01*
X80864983Y-50444852D01*
X80864980Y-50444849D01*
X80864979Y-50444847D01*
X80707784Y-50274087D01*
X80707779Y-50274083D01*
X80707777Y-50274081D01*
X80524634Y-50131535D01*
X80524628Y-50131531D01*
X80320504Y-50021064D01*
X80320495Y-50021061D01*
X80100984Y-49945702D01*
X79910450Y-49913908D01*
X79872049Y-49907500D01*
X79639951Y-49907500D01*
X79601550Y-49913908D01*
X79411015Y-49945702D01*
X79191504Y-50021061D01*
X79191495Y-50021064D01*
X78987371Y-50131531D01*
X78987365Y-50131535D01*
X78804222Y-50274081D01*
X78804219Y-50274084D01*
X78647016Y-50444852D01*
X78589809Y-50532416D01*
X78536662Y-50577773D01*
X78467431Y-50587197D01*
X78404095Y-50557695D01*
X78382191Y-50532416D01*
X78324983Y-50444852D01*
X78324980Y-50444849D01*
X78324979Y-50444847D01*
X78167784Y-50274087D01*
X78167779Y-50274083D01*
X78167777Y-50274081D01*
X77984634Y-50131535D01*
X77984628Y-50131531D01*
X77780504Y-50021064D01*
X77780495Y-50021061D01*
X77560984Y-49945702D01*
X77370450Y-49913908D01*
X77332049Y-49907500D01*
X77099951Y-49907500D01*
X77061550Y-49913908D01*
X76871015Y-49945702D01*
X76651504Y-50021061D01*
X76651495Y-50021064D01*
X76447371Y-50131531D01*
X76447365Y-50131535D01*
X76264222Y-50274081D01*
X76264219Y-50274084D01*
X76107016Y-50444852D01*
X76049809Y-50532416D01*
X75996662Y-50577773D01*
X75927431Y-50587197D01*
X75864095Y-50557695D01*
X75842191Y-50532416D01*
X75784983Y-50444852D01*
X75784980Y-50444849D01*
X75784979Y-50444847D01*
X75627784Y-50274087D01*
X75627779Y-50274083D01*
X75627777Y-50274081D01*
X75444634Y-50131535D01*
X75444628Y-50131531D01*
X75240504Y-50021064D01*
X75240495Y-50021061D01*
X75020984Y-49945702D01*
X74830450Y-49913908D01*
X74792049Y-49907500D01*
X74559951Y-49907500D01*
X74521550Y-49913908D01*
X74331015Y-49945702D01*
X74111504Y-50021061D01*
X74111495Y-50021064D01*
X73907371Y-50131531D01*
X73907365Y-50131535D01*
X73724222Y-50274081D01*
X73724219Y-50274084D01*
X73567016Y-50444852D01*
X73509809Y-50532416D01*
X73456662Y-50577773D01*
X73387431Y-50587197D01*
X73324095Y-50557695D01*
X73302191Y-50532416D01*
X73244983Y-50444852D01*
X73244980Y-50444849D01*
X73244979Y-50444847D01*
X73087784Y-50274087D01*
X73087779Y-50274083D01*
X73087777Y-50274081D01*
X72904634Y-50131535D01*
X72904628Y-50131531D01*
X72700504Y-50021064D01*
X72700495Y-50021061D01*
X72480984Y-49945702D01*
X72290450Y-49913908D01*
X72252049Y-49907500D01*
X72019951Y-49907500D01*
X71981550Y-49913908D01*
X71791015Y-49945702D01*
X71571504Y-50021061D01*
X71571495Y-50021064D01*
X71367371Y-50131531D01*
X71367365Y-50131535D01*
X71184222Y-50274081D01*
X71184219Y-50274084D01*
X71027016Y-50444852D01*
X70969809Y-50532416D01*
X70916662Y-50577773D01*
X70847431Y-50587197D01*
X70784095Y-50557695D01*
X70762191Y-50532416D01*
X70704983Y-50444852D01*
X70704980Y-50444849D01*
X70704979Y-50444847D01*
X70547784Y-50274087D01*
X70547779Y-50274083D01*
X70547777Y-50274081D01*
X70364634Y-50131535D01*
X70364628Y-50131531D01*
X70160504Y-50021064D01*
X70160495Y-50021061D01*
X69940984Y-49945702D01*
X69750450Y-49913908D01*
X69712049Y-49907500D01*
X69479951Y-49907500D01*
X69441550Y-49913908D01*
X69251015Y-49945702D01*
X69031504Y-50021061D01*
X69031495Y-50021064D01*
X68827371Y-50131531D01*
X68827365Y-50131535D01*
X68644222Y-50274081D01*
X68644219Y-50274084D01*
X68487016Y-50444852D01*
X68429809Y-50532416D01*
X68376662Y-50577773D01*
X68307431Y-50587197D01*
X68244095Y-50557695D01*
X68222191Y-50532416D01*
X68164983Y-50444852D01*
X68164980Y-50444849D01*
X68164979Y-50444847D01*
X68007784Y-50274087D01*
X68007779Y-50274083D01*
X68007777Y-50274081D01*
X67824634Y-50131535D01*
X67824628Y-50131531D01*
X67620504Y-50021064D01*
X67620495Y-50021061D01*
X67400984Y-49945702D01*
X67210450Y-49913908D01*
X67172049Y-49907500D01*
X66939951Y-49907500D01*
X66901550Y-49913908D01*
X66711015Y-49945702D01*
X66491504Y-50021061D01*
X66491495Y-50021064D01*
X66287371Y-50131531D01*
X66287365Y-50131535D01*
X66104222Y-50274081D01*
X66104219Y-50274084D01*
X65947016Y-50444852D01*
X65889809Y-50532416D01*
X65836662Y-50577773D01*
X65767431Y-50587197D01*
X65704095Y-50557695D01*
X65682191Y-50532416D01*
X65624983Y-50444852D01*
X65624980Y-50444849D01*
X65624979Y-50444847D01*
X65467784Y-50274087D01*
X65467779Y-50274083D01*
X65467777Y-50274081D01*
X65284634Y-50131535D01*
X65284628Y-50131531D01*
X65080504Y-50021064D01*
X65080495Y-50021061D01*
X64860984Y-49945702D01*
X64670450Y-49913908D01*
X64632049Y-49907500D01*
X64399951Y-49907500D01*
X64361550Y-49913908D01*
X64171015Y-49945702D01*
X63951504Y-50021061D01*
X63951495Y-50021064D01*
X63747371Y-50131531D01*
X63747365Y-50131535D01*
X63564222Y-50274081D01*
X63564219Y-50274084D01*
X63407016Y-50444852D01*
X63349809Y-50532416D01*
X63296662Y-50577773D01*
X63227431Y-50587197D01*
X63164095Y-50557695D01*
X63142191Y-50532416D01*
X63084983Y-50444852D01*
X63084980Y-50444849D01*
X63084979Y-50444847D01*
X62927784Y-50274087D01*
X62927779Y-50274083D01*
X62927777Y-50274081D01*
X62744634Y-50131535D01*
X62744628Y-50131531D01*
X62540504Y-50021064D01*
X62540495Y-50021061D01*
X62320984Y-49945702D01*
X62130450Y-49913908D01*
X62092049Y-49907500D01*
X61859951Y-49907500D01*
X61821550Y-49913908D01*
X61631015Y-49945702D01*
X61411504Y-50021061D01*
X61411495Y-50021064D01*
X61207371Y-50131531D01*
X61207365Y-50131535D01*
X61024222Y-50274081D01*
X61024218Y-50274085D01*
X61015866Y-50283158D01*
X60955979Y-50319148D01*
X60886141Y-50317047D01*
X60828525Y-50277522D01*
X60808455Y-50242507D01*
X60779797Y-50165671D01*
X60779793Y-50165664D01*
X60693547Y-50050455D01*
X60693544Y-50050452D01*
X60578335Y-49964206D01*
X60578328Y-49964202D01*
X60443482Y-49913908D01*
X60443483Y-49913908D01*
X60383883Y-49907501D01*
X60383881Y-49907500D01*
X60383873Y-49907500D01*
X60383864Y-49907500D01*
X58488129Y-49907500D01*
X58488123Y-49907501D01*
X58428516Y-49913908D01*
X58293671Y-49964202D01*
X58293664Y-49964206D01*
X58178455Y-50050452D01*
X58178452Y-50050455D01*
X58092206Y-50165664D01*
X58092202Y-50165671D01*
X58041908Y-50300517D01*
X58035501Y-50360116D01*
X58035500Y-50360135D01*
X58035500Y-52255870D01*
X56402992Y-52255870D01*
X56480979Y-52171153D01*
X56607924Y-51976849D01*
X56701157Y-51764300D01*
X56758134Y-51539305D01*
X56771685Y-51375765D01*
X56777300Y-51308006D01*
X56777300Y-51307993D01*
X56758135Y-51076702D01*
X56758133Y-51076691D01*
X56701157Y-50851699D01*
X56607924Y-50639151D01*
X56480983Y-50444852D01*
X56480980Y-50444849D01*
X56480979Y-50444847D01*
X56323784Y-50274087D01*
X56323779Y-50274083D01*
X56323777Y-50274081D01*
X56140634Y-50131535D01*
X56140628Y-50131531D01*
X55936504Y-50021064D01*
X55936495Y-50021061D01*
X55716984Y-49945702D01*
X55526450Y-49913908D01*
X55488049Y-49907500D01*
X55255951Y-49907500D01*
X55217550Y-49913908D01*
X55027015Y-49945702D01*
X54807504Y-50021061D01*
X54807495Y-50021064D01*
X54603371Y-50131531D01*
X54603365Y-50131535D01*
X54420222Y-50274081D01*
X54420219Y-50274084D01*
X54263016Y-50444852D01*
X54205809Y-50532416D01*
X54152662Y-50577773D01*
X54083431Y-50587197D01*
X54020095Y-50557695D01*
X53998191Y-50532416D01*
X53940983Y-50444852D01*
X53940980Y-50444849D01*
X53940979Y-50444847D01*
X53783784Y-50274087D01*
X53783779Y-50274083D01*
X53783777Y-50274081D01*
X53600634Y-50131535D01*
X53600628Y-50131531D01*
X53396504Y-50021064D01*
X53396495Y-50021061D01*
X53176984Y-49945702D01*
X52986450Y-49913908D01*
X52948049Y-49907500D01*
X52715951Y-49907500D01*
X52677550Y-49913908D01*
X52487015Y-49945702D01*
X52267504Y-50021061D01*
X52267495Y-50021064D01*
X52063371Y-50131531D01*
X52063365Y-50131535D01*
X51880222Y-50274081D01*
X51880219Y-50274084D01*
X51723016Y-50444852D01*
X51665809Y-50532416D01*
X51612662Y-50577773D01*
X51543431Y-50587197D01*
X51480095Y-50557695D01*
X51458191Y-50532416D01*
X51400983Y-50444852D01*
X51400980Y-50444849D01*
X51400979Y-50444847D01*
X51243784Y-50274087D01*
X51243779Y-50274083D01*
X51243777Y-50274081D01*
X51060634Y-50131535D01*
X51060628Y-50131531D01*
X50856504Y-50021064D01*
X50856495Y-50021061D01*
X50636984Y-49945702D01*
X50446450Y-49913908D01*
X50408049Y-49907500D01*
X50175951Y-49907500D01*
X50137550Y-49913908D01*
X49947015Y-49945702D01*
X49727504Y-50021061D01*
X49727495Y-50021064D01*
X49523371Y-50131531D01*
X49523365Y-50131535D01*
X49340222Y-50274081D01*
X49340219Y-50274084D01*
X49183016Y-50444852D01*
X49125809Y-50532416D01*
X49072662Y-50577773D01*
X49003431Y-50587197D01*
X48940095Y-50557695D01*
X48918191Y-50532416D01*
X48860983Y-50444852D01*
X48860980Y-50444849D01*
X48860979Y-50444847D01*
X48703784Y-50274087D01*
X48703779Y-50274083D01*
X48703777Y-50274081D01*
X48520634Y-50131535D01*
X48520628Y-50131531D01*
X48316504Y-50021064D01*
X48316495Y-50021061D01*
X48096984Y-49945702D01*
X47906450Y-49913908D01*
X47868049Y-49907500D01*
X47635951Y-49907500D01*
X47597550Y-49913908D01*
X47407015Y-49945702D01*
X47187504Y-50021061D01*
X47187495Y-50021064D01*
X46983371Y-50131531D01*
X46983365Y-50131535D01*
X46800222Y-50274081D01*
X46800219Y-50274084D01*
X46643016Y-50444852D01*
X46585809Y-50532416D01*
X46532662Y-50577773D01*
X46463431Y-50587197D01*
X46400095Y-50557695D01*
X46378191Y-50532416D01*
X46320983Y-50444852D01*
X46320980Y-50444849D01*
X46320979Y-50444847D01*
X46163784Y-50274087D01*
X46163779Y-50274083D01*
X46163777Y-50274081D01*
X45980634Y-50131535D01*
X45980628Y-50131531D01*
X45776504Y-50021064D01*
X45776495Y-50021061D01*
X45556984Y-49945702D01*
X45366450Y-49913908D01*
X45328049Y-49907500D01*
X45095951Y-49907500D01*
X45057550Y-49913908D01*
X44867015Y-49945702D01*
X44647504Y-50021061D01*
X44647495Y-50021064D01*
X44443371Y-50131531D01*
X44443365Y-50131535D01*
X44260222Y-50274081D01*
X44260219Y-50274084D01*
X44103016Y-50444852D01*
X44045809Y-50532416D01*
X43992662Y-50577773D01*
X43923431Y-50587197D01*
X43860095Y-50557695D01*
X43838191Y-50532416D01*
X43780983Y-50444852D01*
X43780980Y-50444849D01*
X43780979Y-50444847D01*
X43623784Y-50274087D01*
X43623779Y-50274083D01*
X43623777Y-50274081D01*
X43440634Y-50131535D01*
X43440628Y-50131531D01*
X43236504Y-50021064D01*
X43236495Y-50021061D01*
X43016984Y-49945702D01*
X42826450Y-49913908D01*
X42788049Y-49907500D01*
X42555951Y-49907500D01*
X42517550Y-49913908D01*
X42327015Y-49945702D01*
X42107504Y-50021061D01*
X42107495Y-50021064D01*
X41903371Y-50131531D01*
X41903365Y-50131535D01*
X41720222Y-50274081D01*
X41720219Y-50274084D01*
X41563016Y-50444852D01*
X41505809Y-50532416D01*
X41452662Y-50577773D01*
X41383431Y-50587197D01*
X41320095Y-50557695D01*
X41298191Y-50532416D01*
X41240983Y-50444852D01*
X41240980Y-50444849D01*
X41240979Y-50444847D01*
X41083784Y-50274087D01*
X41083779Y-50274083D01*
X41083777Y-50274081D01*
X40900634Y-50131535D01*
X40900628Y-50131531D01*
X40696504Y-50021064D01*
X40696495Y-50021061D01*
X40476984Y-49945702D01*
X40286450Y-49913908D01*
X40248049Y-49907500D01*
X40015951Y-49907500D01*
X39977550Y-49913908D01*
X39787015Y-49945702D01*
X39567504Y-50021061D01*
X39567495Y-50021064D01*
X39363371Y-50131531D01*
X39363365Y-50131535D01*
X39180222Y-50274081D01*
X39180218Y-50274085D01*
X39171866Y-50283158D01*
X39111979Y-50319148D01*
X39042141Y-50317047D01*
X38984525Y-50277522D01*
X38964455Y-50242507D01*
X38935797Y-50165671D01*
X38935793Y-50165664D01*
X38849547Y-50050455D01*
X38849544Y-50050452D01*
X38734335Y-49964206D01*
X38734328Y-49964202D01*
X38599482Y-49913908D01*
X38599483Y-49913908D01*
X38539883Y-49907501D01*
X38539881Y-49907500D01*
X38539873Y-49907500D01*
X38539864Y-49907500D01*
X36644129Y-49907500D01*
X36644123Y-49907501D01*
X36584516Y-49913908D01*
X36449671Y-49964202D01*
X36449664Y-49964206D01*
X36334455Y-50050452D01*
X36334452Y-50050455D01*
X36248206Y-50165664D01*
X36248202Y-50165671D01*
X36197908Y-50300517D01*
X36191501Y-50360116D01*
X36191500Y-50360135D01*
X36191500Y-52255870D01*
X13011253Y-52255870D01*
X12923631Y-52130733D01*
X12851202Y-52058304D01*
X12768909Y-51976011D01*
X12589671Y-51850507D01*
X12589672Y-51850507D01*
X12589670Y-51850506D01*
X12490516Y-51804270D01*
X12391362Y-51758034D01*
X12391358Y-51758033D01*
X12391354Y-51758031D01*
X12180009Y-51701402D01*
X11962034Y-51682332D01*
X11962030Y-51682332D01*
X11816714Y-51695045D01*
X11744055Y-51701402D01*
X11744052Y-51701402D01*
X11532709Y-51758031D01*
X11532700Y-51758035D01*
X11334393Y-51850507D01*
X11334389Y-51850509D01*
X11155153Y-51976011D01*
X11000434Y-52130730D01*
X10874932Y-52309966D01*
X10874930Y-52309970D01*
X10782458Y-52508277D01*
X10782454Y-52508286D01*
X10725825Y-52719629D01*
X10725825Y-52719633D01*
X10706755Y-52937606D01*
X10706755Y-52937611D01*
X10711165Y-52988014D01*
X10722629Y-53119060D01*
X10725825Y-53155584D01*
X10725825Y-53155588D01*
X10782454Y-53366931D01*
X10782456Y-53366935D01*
X10782457Y-53366939D01*
X10819564Y-53446515D01*
X10874929Y-53565247D01*
X10886120Y-53581229D01*
X11000434Y-53744486D01*
X11000438Y-53744490D01*
X11058375Y-53802427D01*
X11091860Y-53863750D01*
X11086876Y-53933442D01*
X11058376Y-53977789D01*
X11000432Y-54035733D01*
X10874932Y-54214966D01*
X10874930Y-54214970D01*
X10782458Y-54413277D01*
X10782454Y-54413286D01*
X10725825Y-54624629D01*
X10725825Y-54624633D01*
X10706755Y-54842606D01*
X10706755Y-54842611D01*
X4238468Y-54842611D01*
X4238265Y-54841900D01*
X4258481Y-54775019D01*
X4309854Y-54730504D01*
X4461671Y-54659711D01*
X4640909Y-54534207D01*
X4795630Y-54379486D01*
X4921134Y-54200248D01*
X5013607Y-54001939D01*
X5070239Y-53790586D01*
X5089309Y-53572609D01*
X5070239Y-53354632D01*
X5025619Y-53188109D01*
X5013609Y-53143286D01*
X5013608Y-53143285D01*
X5013607Y-53143279D01*
X4921134Y-52944971D01*
X4921132Y-52944968D01*
X4921131Y-52944966D01*
X4795631Y-52765733D01*
X4719785Y-52689887D01*
X4640909Y-52611011D01*
X4494190Y-52508277D01*
X4461670Y-52485506D01*
X4362516Y-52439270D01*
X4263362Y-52393034D01*
X4263358Y-52393033D01*
X4263354Y-52393031D01*
X4052009Y-52336402D01*
X3834034Y-52317332D01*
X3834030Y-52317332D01*
X3688714Y-52330045D01*
X3616055Y-52336402D01*
X3616052Y-52336402D01*
X3404709Y-52393031D01*
X3404700Y-52393035D01*
X3206393Y-52485507D01*
X3206389Y-52485509D01*
X3027153Y-52611011D01*
X2872434Y-52765730D01*
X2746932Y-52944966D01*
X2746930Y-52944970D01*
X2654458Y-53143277D01*
X2654454Y-53143286D01*
X2597825Y-53354629D01*
X2597825Y-53354633D01*
X2580323Y-53554690D01*
X2578755Y-53572609D01*
X200500Y-53572609D01*
X200500Y-47984610D01*
X40628564Y-47984610D01*
X40648396Y-48211295D01*
X40648398Y-48211306D01*
X40707290Y-48431097D01*
X40707293Y-48431106D01*
X40803463Y-48637341D01*
X40803464Y-48637343D01*
X40933986Y-48823750D01*
X41094890Y-48984654D01*
X41094893Y-48984656D01*
X41281298Y-49115177D01*
X41487536Y-49211348D01*
X41707340Y-49270244D01*
X41869262Y-49284410D01*
X41934030Y-49290077D01*
X41934032Y-49290077D01*
X41934034Y-49290077D01*
X41990705Y-49285118D01*
X42160724Y-49270244D01*
X42380528Y-49211348D01*
X42586766Y-49115177D01*
X42773171Y-48984656D01*
X42934079Y-48823748D01*
X43064600Y-48637343D01*
X43160771Y-48431105D01*
X43219667Y-48211301D01*
X43239500Y-47984610D01*
X46724564Y-47984610D01*
X46744396Y-48211295D01*
X46744398Y-48211306D01*
X46803290Y-48431097D01*
X46803293Y-48431106D01*
X46899463Y-48637341D01*
X46899464Y-48637343D01*
X47029986Y-48823750D01*
X47190890Y-48984654D01*
X47190893Y-48984656D01*
X47377298Y-49115177D01*
X47583536Y-49211348D01*
X47803340Y-49270244D01*
X47965262Y-49284410D01*
X48030030Y-49290077D01*
X48030032Y-49290077D01*
X48030034Y-49290077D01*
X48086705Y-49285118D01*
X48256724Y-49270244D01*
X48476528Y-49211348D01*
X48682766Y-49115177D01*
X48869171Y-48984656D01*
X49030079Y-48823748D01*
X49160600Y-48637343D01*
X49256771Y-48431105D01*
X49315667Y-48211301D01*
X49335500Y-47984610D01*
X52820564Y-47984610D01*
X52840396Y-48211295D01*
X52840398Y-48211306D01*
X52899290Y-48431097D01*
X52899293Y-48431106D01*
X52995463Y-48637341D01*
X52995464Y-48637343D01*
X53125986Y-48823750D01*
X53286890Y-48984654D01*
X53286893Y-48984656D01*
X53473298Y-49115177D01*
X53679536Y-49211348D01*
X53899340Y-49270244D01*
X54061262Y-49284410D01*
X54126030Y-49290077D01*
X54126032Y-49290077D01*
X54126034Y-49290077D01*
X54182705Y-49285118D01*
X54352724Y-49270244D01*
X54572528Y-49211348D01*
X54778766Y-49115177D01*
X54965171Y-48984656D01*
X55126079Y-48823748D01*
X55256600Y-48637343D01*
X55352771Y-48431105D01*
X55411667Y-48211301D01*
X55431500Y-47984609D01*
X55411667Y-47757917D01*
X55352771Y-47538113D01*
X55256600Y-47331875D01*
X55126079Y-47145470D01*
X55126077Y-47145467D01*
X54965173Y-46984563D01*
X54778766Y-46854041D01*
X54778764Y-46854040D01*
X54572529Y-46757870D01*
X54572520Y-46757867D01*
X54352729Y-46698975D01*
X54352725Y-46698974D01*
X54352724Y-46698974D01*
X54352723Y-46698973D01*
X54352718Y-46698973D01*
X54126034Y-46679141D01*
X54126030Y-46679141D01*
X53899345Y-46698973D01*
X53899334Y-46698975D01*
X53679543Y-46757867D01*
X53679534Y-46757870D01*
X53473299Y-46854040D01*
X53473297Y-46854041D01*
X53286890Y-46984563D01*
X53125986Y-47145467D01*
X52995464Y-47331874D01*
X52995463Y-47331876D01*
X52899293Y-47538111D01*
X52899290Y-47538120D01*
X52840398Y-47757911D01*
X52840396Y-47757922D01*
X52820564Y-47984607D01*
X52820564Y-47984610D01*
X49335500Y-47984610D01*
X49335500Y-47984609D01*
X49315667Y-47757917D01*
X49256771Y-47538113D01*
X49160600Y-47331875D01*
X49030079Y-47145470D01*
X49030077Y-47145467D01*
X48869173Y-46984563D01*
X48682766Y-46854041D01*
X48682764Y-46854040D01*
X48476529Y-46757870D01*
X48476520Y-46757867D01*
X48256729Y-46698975D01*
X48256725Y-46698974D01*
X48256724Y-46698974D01*
X48256723Y-46698973D01*
X48256718Y-46698973D01*
X48030034Y-46679141D01*
X48030030Y-46679141D01*
X47803345Y-46698973D01*
X47803334Y-46698975D01*
X47583543Y-46757867D01*
X47583534Y-46757870D01*
X47377299Y-46854040D01*
X47377297Y-46854041D01*
X47190890Y-46984563D01*
X47029986Y-47145467D01*
X46899464Y-47331874D01*
X46899463Y-47331876D01*
X46803293Y-47538111D01*
X46803290Y-47538120D01*
X46744398Y-47757911D01*
X46744396Y-47757922D01*
X46724564Y-47984607D01*
X46724564Y-47984610D01*
X43239500Y-47984610D01*
X43239500Y-47984609D01*
X43219667Y-47757917D01*
X43160771Y-47538113D01*
X43064600Y-47331875D01*
X42934079Y-47145470D01*
X42934077Y-47145467D01*
X42773173Y-46984563D01*
X42586766Y-46854041D01*
X42586764Y-46854040D01*
X42380529Y-46757870D01*
X42380520Y-46757867D01*
X42160729Y-46698975D01*
X42160725Y-46698974D01*
X42160724Y-46698974D01*
X42160723Y-46698973D01*
X42160718Y-46698973D01*
X41934034Y-46679141D01*
X41934030Y-46679141D01*
X41707345Y-46698973D01*
X41707334Y-46698975D01*
X41487543Y-46757867D01*
X41487534Y-46757870D01*
X41281299Y-46854040D01*
X41281297Y-46854041D01*
X41094890Y-46984563D01*
X40933986Y-47145467D01*
X40803464Y-47331874D01*
X40803463Y-47331876D01*
X40707293Y-47538111D01*
X40707290Y-47538120D01*
X40648398Y-47757911D01*
X40648396Y-47757922D01*
X40628564Y-47984607D01*
X40628564Y-47984610D01*
X200500Y-47984610D01*
X200500Y-40364610D01*
X40628564Y-40364610D01*
X40648396Y-40591295D01*
X40648398Y-40591306D01*
X40707290Y-40811097D01*
X40707293Y-40811106D01*
X40803463Y-41017341D01*
X40803464Y-41017343D01*
X40933986Y-41203750D01*
X41094890Y-41364654D01*
X41094893Y-41364656D01*
X41281298Y-41495177D01*
X41487536Y-41591348D01*
X41707340Y-41650244D01*
X41869262Y-41664410D01*
X41934030Y-41670077D01*
X41934032Y-41670077D01*
X41934034Y-41670077D01*
X41990705Y-41665118D01*
X42160724Y-41650244D01*
X42380528Y-41591348D01*
X42586766Y-41495177D01*
X42773171Y-41364656D01*
X42934079Y-41203748D01*
X43064600Y-41017343D01*
X43160771Y-40811105D01*
X43219667Y-40591301D01*
X43239500Y-40364610D01*
X46724564Y-40364610D01*
X46744396Y-40591295D01*
X46744398Y-40591306D01*
X46803290Y-40811097D01*
X46803293Y-40811106D01*
X46899463Y-41017341D01*
X46899464Y-41017343D01*
X47029986Y-41203750D01*
X47190890Y-41364654D01*
X47190893Y-41364656D01*
X47377298Y-41495177D01*
X47583536Y-41591348D01*
X47803340Y-41650244D01*
X47965262Y-41664410D01*
X48030030Y-41670077D01*
X48030032Y-41670077D01*
X48030034Y-41670077D01*
X48086705Y-41665118D01*
X48256724Y-41650244D01*
X48476528Y-41591348D01*
X48682766Y-41495177D01*
X48869171Y-41364656D01*
X49030079Y-41203748D01*
X49160600Y-41017343D01*
X49256771Y-40811105D01*
X49315667Y-40591301D01*
X49335500Y-40364610D01*
X52820564Y-40364610D01*
X52840396Y-40591295D01*
X52840398Y-40591306D01*
X52899290Y-40811097D01*
X52899293Y-40811106D01*
X52995463Y-41017341D01*
X52995464Y-41017343D01*
X53125986Y-41203750D01*
X53286890Y-41364654D01*
X53286893Y-41364656D01*
X53473298Y-41495177D01*
X53679536Y-41591348D01*
X53899340Y-41650244D01*
X54061262Y-41664410D01*
X54126030Y-41670077D01*
X54126032Y-41670077D01*
X54126034Y-41670077D01*
X54182705Y-41665118D01*
X54352724Y-41650244D01*
X54572528Y-41591348D01*
X54778766Y-41495177D01*
X54965171Y-41364656D01*
X55126079Y-41203748D01*
X55256600Y-41017343D01*
X55352771Y-40811105D01*
X55411667Y-40591301D01*
X55431500Y-40364609D01*
X55411667Y-40137917D01*
X55352771Y-39918113D01*
X55256600Y-39711875D01*
X55126079Y-39525470D01*
X55126077Y-39525467D01*
X54965173Y-39364563D01*
X54778766Y-39234041D01*
X54778764Y-39234040D01*
X54572529Y-39137870D01*
X54572520Y-39137867D01*
X54352729Y-39078975D01*
X54352725Y-39078974D01*
X54352724Y-39078974D01*
X54352723Y-39078973D01*
X54352718Y-39078973D01*
X54126034Y-39059141D01*
X54126030Y-39059141D01*
X53899345Y-39078973D01*
X53899334Y-39078975D01*
X53679543Y-39137867D01*
X53679534Y-39137870D01*
X53473299Y-39234040D01*
X53473297Y-39234041D01*
X53286890Y-39364563D01*
X53125986Y-39525467D01*
X52995464Y-39711874D01*
X52995463Y-39711876D01*
X52899293Y-39918111D01*
X52899290Y-39918120D01*
X52840398Y-40137911D01*
X52840396Y-40137922D01*
X52820564Y-40364607D01*
X52820564Y-40364610D01*
X49335500Y-40364610D01*
X49335500Y-40364609D01*
X49315667Y-40137917D01*
X49256771Y-39918113D01*
X49160600Y-39711875D01*
X49030079Y-39525470D01*
X49030077Y-39525467D01*
X48869173Y-39364563D01*
X48682766Y-39234041D01*
X48682764Y-39234040D01*
X48476529Y-39137870D01*
X48476520Y-39137867D01*
X48256729Y-39078975D01*
X48256725Y-39078974D01*
X48256724Y-39078974D01*
X48256723Y-39078973D01*
X48256718Y-39078973D01*
X48030034Y-39059141D01*
X48030030Y-39059141D01*
X47803345Y-39078973D01*
X47803334Y-39078975D01*
X47583543Y-39137867D01*
X47583534Y-39137870D01*
X47377299Y-39234040D01*
X47377297Y-39234041D01*
X47190890Y-39364563D01*
X47029986Y-39525467D01*
X46899464Y-39711874D01*
X46899463Y-39711876D01*
X46803293Y-39918111D01*
X46803290Y-39918120D01*
X46744398Y-40137911D01*
X46744396Y-40137922D01*
X46724564Y-40364607D01*
X46724564Y-40364610D01*
X43239500Y-40364610D01*
X43239500Y-40364609D01*
X43219667Y-40137917D01*
X43160771Y-39918113D01*
X43064600Y-39711875D01*
X42934079Y-39525470D01*
X42934077Y-39525467D01*
X42773173Y-39364563D01*
X42586766Y-39234041D01*
X42586764Y-39234040D01*
X42380529Y-39137870D01*
X42380520Y-39137867D01*
X42160729Y-39078975D01*
X42160725Y-39078974D01*
X42160724Y-39078974D01*
X42160723Y-39078973D01*
X42160718Y-39078973D01*
X41934034Y-39059141D01*
X41934030Y-39059141D01*
X41707345Y-39078973D01*
X41707334Y-39078975D01*
X41487543Y-39137867D01*
X41487534Y-39137870D01*
X41281299Y-39234040D01*
X41281297Y-39234041D01*
X41094890Y-39364563D01*
X40933986Y-39525467D01*
X40803464Y-39711874D01*
X40803463Y-39711876D01*
X40707293Y-39918111D01*
X40707290Y-39918120D01*
X40648398Y-40137911D01*
X40648396Y-40137922D01*
X40628564Y-40364607D01*
X40628564Y-40364610D01*
X200500Y-40364610D01*
X200500Y-36135763D01*
X33197787Y-36135763D01*
X33227413Y-36405013D01*
X33227415Y-36405024D01*
X33262673Y-36539886D01*
X33295928Y-36667088D01*
X33401870Y-36916390D01*
X33473998Y-37034575D01*
X33542979Y-37147605D01*
X33542986Y-37147615D01*
X33716253Y-37355819D01*
X33716259Y-37355824D01*
X33917998Y-37536582D01*
X34143910Y-37686044D01*
X34389176Y-37801020D01*
X34389183Y-37801022D01*
X34389185Y-37801023D01*
X34648557Y-37879057D01*
X34648564Y-37879058D01*
X34648569Y-37879060D01*
X34916561Y-37918500D01*
X34916566Y-37918500D01*
X35119629Y-37918500D01*
X35119631Y-37918500D01*
X35119636Y-37918499D01*
X35119648Y-37918499D01*
X35157191Y-37915750D01*
X35322156Y-37903677D01*
X35434758Y-37878593D01*
X35586546Y-37844782D01*
X35586548Y-37844781D01*
X35586553Y-37844780D01*
X35839558Y-37748014D01*
X36075777Y-37615441D01*
X36290177Y-37449888D01*
X36478186Y-37254881D01*
X36635799Y-37034579D01*
X36709787Y-36890669D01*
X36759649Y-36793690D01*
X36759651Y-36793684D01*
X36759656Y-36793675D01*
X36841486Y-36553812D01*
X36847115Y-36537314D01*
X36847115Y-36537313D01*
X36847118Y-36537305D01*
X36896319Y-36270933D01*
X36906212Y-36000235D01*
X36876586Y-35730982D01*
X36808072Y-35468912D01*
X36729752Y-35284611D01*
X39662755Y-35284611D01*
X39670426Y-35372289D01*
X39678879Y-35468917D01*
X39681825Y-35502584D01*
X39681825Y-35502588D01*
X39738454Y-35713931D01*
X39738456Y-35713935D01*
X39738457Y-35713939D01*
X39748096Y-35734609D01*
X39830929Y-35912247D01*
X39830930Y-35912248D01*
X39956434Y-36091486D01*
X40111155Y-36246207D01*
X40290393Y-36371711D01*
X40488702Y-36464184D01*
X40700055Y-36520816D01*
X40882958Y-36536817D01*
X40918030Y-36539886D01*
X40918032Y-36539886D01*
X40918034Y-36539886D01*
X40947591Y-36537300D01*
X41136009Y-36520816D01*
X41347362Y-36464184D01*
X41545671Y-36371711D01*
X41724909Y-36246207D01*
X41846351Y-36124765D01*
X41907674Y-36091280D01*
X41977366Y-36096264D01*
X42021713Y-36124765D01*
X42143155Y-36246207D01*
X42322393Y-36371711D01*
X42520702Y-36464184D01*
X42732055Y-36520816D01*
X42914958Y-36536817D01*
X42950030Y-36539886D01*
X42950032Y-36539886D01*
X42950034Y-36539886D01*
X42979591Y-36537300D01*
X43168009Y-36520816D01*
X43379362Y-36464184D01*
X43577671Y-36371711D01*
X43756909Y-36246207D01*
X43911630Y-36091486D01*
X44037134Y-35912248D01*
X44129607Y-35713939D01*
X44160259Y-35599542D01*
X44192351Y-35543957D01*
X44451701Y-35284608D01*
X44192351Y-35025258D01*
X44160258Y-34969671D01*
X44136528Y-34881109D01*
X44129610Y-34855288D01*
X44129608Y-34855284D01*
X44129607Y-34855279D01*
X44037134Y-34656971D01*
X44037132Y-34656968D01*
X44037131Y-34656966D01*
X43911631Y-34477733D01*
X43861023Y-34427125D01*
X43756909Y-34323011D01*
X43606224Y-34217500D01*
X43577670Y-34197506D01*
X43530145Y-34175345D01*
X44403098Y-34175345D01*
X45067938Y-34840185D01*
X45049859Y-34834609D01*
X44948308Y-34834609D01*
X44847894Y-34849744D01*
X44725675Y-34908602D01*
X44626234Y-35000869D01*
X44558407Y-35118349D01*
X44528222Y-35250601D01*
X44538359Y-35385874D01*
X44587919Y-35512150D01*
X44672497Y-35618208D01*
X44784579Y-35694625D01*
X44914205Y-35734609D01*
X45015756Y-35734609D01*
X45070631Y-35726337D01*
X44403099Y-36393870D01*
X44552872Y-36463710D01*
X44552881Y-36463714D01*
X44764137Y-36520319D01*
X44764147Y-36520321D01*
X44982031Y-36539384D01*
X44982033Y-36539384D01*
X45199916Y-36520321D01*
X45199926Y-36520319D01*
X45411182Y-36463714D01*
X45411191Y-36463710D01*
X45609420Y-36371275D01*
X45695665Y-36310885D01*
X45761871Y-36288557D01*
X45829639Y-36305566D01*
X45866054Y-36338146D01*
X45906486Y-36392155D01*
X45923662Y-36405013D01*
X46021696Y-36478402D01*
X46021703Y-36478406D01*
X46156549Y-36528700D01*
X46156548Y-36528700D01*
X46163476Y-36529444D01*
X46216159Y-36535109D01*
X47811904Y-36535108D01*
X47871515Y-36528700D01*
X48006363Y-36478405D01*
X48121578Y-36392155D01*
X48207828Y-36276940D01*
X48258123Y-36142092D01*
X48264532Y-36082482D01*
X48264531Y-34486737D01*
X48258123Y-34427126D01*
X48223753Y-34334976D01*
X48207829Y-34292280D01*
X48207825Y-34292273D01*
X48121579Y-34177064D01*
X48121576Y-34177061D01*
X48006367Y-34090815D01*
X48006360Y-34090811D01*
X47871514Y-34040517D01*
X47871515Y-34040517D01*
X47811915Y-34034110D01*
X47811913Y-34034109D01*
X47811905Y-34034109D01*
X47811896Y-34034109D01*
X46216161Y-34034109D01*
X46216155Y-34034110D01*
X46156548Y-34040517D01*
X46021703Y-34090811D01*
X46021696Y-34090815D01*
X45906487Y-34177061D01*
X45866056Y-34231070D01*
X45810122Y-34272940D01*
X45740430Y-34277924D01*
X45695666Y-34258333D01*
X45609419Y-34197942D01*
X45411191Y-34105507D01*
X45411182Y-34105503D01*
X45199926Y-34048898D01*
X45199916Y-34048896D01*
X44982033Y-34029834D01*
X44982031Y-34029834D01*
X44764147Y-34048896D01*
X44764137Y-34048898D01*
X44552879Y-34105504D01*
X44403098Y-34175345D01*
X43530145Y-34175345D01*
X43478516Y-34151270D01*
X43379362Y-34105034D01*
X43379358Y-34105033D01*
X43379354Y-34105031D01*
X43168009Y-34048402D01*
X42950034Y-34029332D01*
X42950030Y-34029332D01*
X42822183Y-34040517D01*
X42732055Y-34048402D01*
X42732052Y-34048402D01*
X42520709Y-34105031D01*
X42520700Y-34105035D01*
X42322393Y-34197507D01*
X42322389Y-34197509D01*
X42143156Y-34323009D01*
X42021712Y-34444453D01*
X41960389Y-34477937D01*
X41890697Y-34472953D01*
X41846350Y-34444452D01*
X41724913Y-34323015D01*
X41724909Y-34323011D01*
X41574224Y-34217500D01*
X41545670Y-34197506D01*
X41446516Y-34151270D01*
X41347362Y-34105034D01*
X41347358Y-34105033D01*
X41347354Y-34105031D01*
X41136009Y-34048402D01*
X40918034Y-34029332D01*
X40918030Y-34029332D01*
X40790183Y-34040517D01*
X40700055Y-34048402D01*
X40700052Y-34048402D01*
X40488709Y-34105031D01*
X40488700Y-34105035D01*
X40290393Y-34197507D01*
X40290389Y-34197509D01*
X40111153Y-34323011D01*
X39956434Y-34477730D01*
X39830932Y-34656966D01*
X39830930Y-34656970D01*
X39738458Y-34855277D01*
X39738454Y-34855286D01*
X39681825Y-35066629D01*
X39681825Y-35066633D01*
X39662755Y-35284606D01*
X39662755Y-35284611D01*
X36729752Y-35284611D01*
X36702130Y-35219610D01*
X36561018Y-34988390D01*
X36529910Y-34951010D01*
X36387746Y-34780180D01*
X36387740Y-34780175D01*
X36186002Y-34599418D01*
X35960092Y-34449957D01*
X35911387Y-34427125D01*
X35714824Y-34334980D01*
X35714819Y-34334978D01*
X35714814Y-34334976D01*
X35455442Y-34256942D01*
X35455428Y-34256939D01*
X35339791Y-34239921D01*
X35187439Y-34217500D01*
X34984369Y-34217500D01*
X34984351Y-34217500D01*
X34781844Y-34232323D01*
X34781831Y-34232325D01*
X34517453Y-34291217D01*
X34517446Y-34291220D01*
X34264439Y-34387987D01*
X34028226Y-34520557D01*
X33813822Y-34686112D01*
X33625822Y-34881109D01*
X33625816Y-34881116D01*
X33468202Y-35101419D01*
X33468199Y-35101424D01*
X33344350Y-35342309D01*
X33344343Y-35342327D01*
X33256884Y-35598685D01*
X33256881Y-35598699D01*
X33207681Y-35865068D01*
X33207680Y-35865075D01*
X33197787Y-36135763D01*
X200500Y-36135763D01*
X200500Y-29284609D01*
X41316032Y-29284609D01*
X41316032Y-29857453D01*
X41322433Y-29916981D01*
X41322435Y-29916988D01*
X41372677Y-30051695D01*
X41372681Y-30051702D01*
X41458841Y-30166796D01*
X41458844Y-30166799D01*
X41573938Y-30252959D01*
X41573945Y-30252963D01*
X41708652Y-30303205D01*
X41708659Y-30303207D01*
X41768187Y-30309608D01*
X41768204Y-30309609D01*
X42341032Y-30309609D01*
X42341032Y-29284609D01*
X41316032Y-29284609D01*
X200500Y-29284609D01*
X200500Y-28875601D01*
X42262222Y-28875601D01*
X42272359Y-29010874D01*
X42321919Y-29137150D01*
X42406497Y-29243208D01*
X42518579Y-29319625D01*
X42648205Y-29359609D01*
X42749756Y-29359609D01*
X42850170Y-29344474D01*
X42972389Y-29285616D01*
X43071830Y-29193349D01*
X43091032Y-29160090D01*
X43091032Y-30309609D01*
X43663860Y-30309609D01*
X43663876Y-30309608D01*
X43723404Y-30303207D01*
X43723411Y-30303205D01*
X43858118Y-30252963D01*
X43858125Y-30252959D01*
X43973219Y-30166799D01*
X43973222Y-30166796D01*
X44059382Y-30051702D01*
X44059387Y-30051693D01*
X44088107Y-29974690D01*
X44129977Y-29918756D01*
X44195441Y-29894338D01*
X44263714Y-29909189D01*
X44295516Y-29934037D01*
X44304248Y-29943522D01*
X44304251Y-29943524D01*
X44304254Y-29943527D01*
X44487397Y-30086073D01*
X44487403Y-30086077D01*
X44487406Y-30086079D01*
X44691529Y-30196545D01*
X44805519Y-30235677D01*
X44911047Y-30271906D01*
X44911049Y-30271906D01*
X44911051Y-30271907D01*
X45139983Y-30310109D01*
X45139984Y-30310109D01*
X45372080Y-30310109D01*
X45372081Y-30310109D01*
X45601013Y-30271907D01*
X45820535Y-30196545D01*
X46024658Y-30086079D01*
X46207816Y-29943522D01*
X46365011Y-29772762D01*
X46491956Y-29578458D01*
X46585189Y-29365909D01*
X46642166Y-29140914D01*
X46647556Y-29075869D01*
X46661332Y-28909615D01*
X46661332Y-28909602D01*
X46642167Y-28678311D01*
X46642165Y-28678300D01*
X46585189Y-28453308D01*
X46491956Y-28240760D01*
X46365015Y-28046461D01*
X46365012Y-28046458D01*
X46365011Y-28046456D01*
X46207816Y-27875696D01*
X46207811Y-27875692D01*
X46207809Y-27875690D01*
X46024666Y-27733144D01*
X46024660Y-27733140D01*
X45820536Y-27622673D01*
X45820527Y-27622670D01*
X45601016Y-27547311D01*
X45413436Y-27516010D01*
X45372081Y-27509109D01*
X45139983Y-27509109D01*
X45098628Y-27516010D01*
X44911047Y-27547311D01*
X44691536Y-27622670D01*
X44691527Y-27622673D01*
X44487403Y-27733140D01*
X44487397Y-27733144D01*
X44304254Y-27875690D01*
X44304247Y-27875696D01*
X44295516Y-27885181D01*
X44235627Y-27921170D01*
X44165789Y-27919067D01*
X44108175Y-27879541D01*
X44088107Y-27844527D01*
X44059387Y-27767524D01*
X44059382Y-27767515D01*
X43973222Y-27652421D01*
X43973219Y-27652418D01*
X43858125Y-27566258D01*
X43858118Y-27566254D01*
X43723411Y-27516012D01*
X43723404Y-27516010D01*
X43663876Y-27509609D01*
X43091032Y-27509609D01*
X43091032Y-28658100D01*
X43025567Y-28576010D01*
X42913485Y-28499593D01*
X42783859Y-28459609D01*
X42682308Y-28459609D01*
X42581894Y-28474744D01*
X42459675Y-28533602D01*
X42360234Y-28625869D01*
X42292407Y-28743349D01*
X42262222Y-28875601D01*
X200500Y-28875601D01*
X200500Y-28534609D01*
X41316032Y-28534609D01*
X42341032Y-28534609D01*
X42341032Y-27509609D01*
X41768187Y-27509609D01*
X41708659Y-27516010D01*
X41708652Y-27516012D01*
X41573945Y-27566254D01*
X41573938Y-27566258D01*
X41458844Y-27652418D01*
X41458841Y-27652421D01*
X41372681Y-27767515D01*
X41372677Y-27767522D01*
X41322435Y-27902229D01*
X41322433Y-27902236D01*
X41316032Y-27961764D01*
X41316032Y-28534609D01*
X200500Y-28534609D01*
X200500Y-28265870D01*
X36529099Y-28265870D01*
X36678872Y-28335710D01*
X36678881Y-28335714D01*
X36890137Y-28392319D01*
X36890147Y-28392321D01*
X37108031Y-28411384D01*
X37108033Y-28411384D01*
X37325916Y-28392321D01*
X37325926Y-28392319D01*
X37537182Y-28335714D01*
X37537191Y-28335710D01*
X37686964Y-28265870D01*
X37108033Y-27686939D01*
X37108032Y-27686939D01*
X36529099Y-28265870D01*
X200500Y-28265870D01*
X200500Y-27156609D01*
X35853257Y-27156609D01*
X35872319Y-27374493D01*
X35872321Y-27374503D01*
X35928926Y-27585759D01*
X35928931Y-27585773D01*
X35998768Y-27735541D01*
X35998769Y-27735541D01*
X36577702Y-27156609D01*
X36543694Y-27122601D01*
X36654222Y-27122601D01*
X36664359Y-27257874D01*
X36713919Y-27384150D01*
X36798497Y-27490208D01*
X36910579Y-27566625D01*
X37040205Y-27606609D01*
X37141756Y-27606609D01*
X37242170Y-27591474D01*
X37364389Y-27532616D01*
X37463830Y-27440349D01*
X37531657Y-27322869D01*
X37561842Y-27190617D01*
X37559294Y-27156609D01*
X37638362Y-27156609D01*
X38217293Y-27735540D01*
X38287133Y-27585768D01*
X38287137Y-27585759D01*
X38343742Y-27374503D01*
X38343744Y-27374493D01*
X38362807Y-27156609D01*
X38362807Y-27156608D01*
X38343744Y-26938724D01*
X38343742Y-26938714D01*
X38287137Y-26727458D01*
X38287133Y-26727449D01*
X38217293Y-26577676D01*
X37638362Y-27156608D01*
X37638362Y-27156609D01*
X37559294Y-27156609D01*
X37551705Y-27055344D01*
X37502145Y-26929068D01*
X37417567Y-26823010D01*
X37305485Y-26746593D01*
X37175859Y-26706609D01*
X37074308Y-26706609D01*
X36973894Y-26721744D01*
X36851675Y-26780602D01*
X36752234Y-26872869D01*
X36684407Y-26990349D01*
X36654222Y-27122601D01*
X36543694Y-27122601D01*
X35998768Y-26577675D01*
X35928927Y-26727456D01*
X35872321Y-26938714D01*
X35872319Y-26938724D01*
X35853257Y-27156608D01*
X35853257Y-27156609D01*
X200500Y-27156609D01*
X200500Y-24616611D01*
X35852755Y-24616611D01*
X35871825Y-24834584D01*
X35871825Y-24834588D01*
X35928454Y-25045931D01*
X35928456Y-25045935D01*
X35928457Y-25045939D01*
X35974693Y-25145093D01*
X36020929Y-25244247D01*
X36020930Y-25244248D01*
X36146434Y-25423486D01*
X36301155Y-25578207D01*
X36480393Y-25703711D01*
X36632207Y-25774503D01*
X36684646Y-25820674D01*
X36703798Y-25887867D01*
X36683583Y-25954749D01*
X36632206Y-25999266D01*
X36529099Y-26047344D01*
X36529098Y-26047345D01*
X37108032Y-26626279D01*
X37108033Y-26626279D01*
X37686964Y-26047346D01*
X37583856Y-25999266D01*
X37531417Y-25953094D01*
X37512265Y-25885900D01*
X37532481Y-25819019D01*
X37583854Y-25774504D01*
X37735671Y-25703711D01*
X37914909Y-25578207D01*
X38069630Y-25423486D01*
X38195134Y-25244248D01*
X38287607Y-25045939D01*
X38344239Y-24834586D01*
X38363309Y-24616609D01*
X38344239Y-24398632D01*
X38287607Y-24187279D01*
X38195134Y-23988971D01*
X38195132Y-23988968D01*
X38195131Y-23988966D01*
X38069631Y-23809733D01*
X38069628Y-23809730D01*
X37914909Y-23655011D01*
X37735671Y-23529507D01*
X37584446Y-23458990D01*
X37532009Y-23412819D01*
X37512857Y-23345625D01*
X37533073Y-23278744D01*
X37584446Y-23234227D01*
X37735671Y-23163711D01*
X37914909Y-23038207D01*
X38069630Y-22883486D01*
X38195134Y-22704248D01*
X38287607Y-22505939D01*
X38344239Y-22294586D01*
X38363309Y-22076609D01*
X38344239Y-21858632D01*
X38287607Y-21647279D01*
X38195134Y-21448971D01*
X38195132Y-21448968D01*
X38195131Y-21448966D01*
X38069631Y-21269733D01*
X38069628Y-21269730D01*
X37914909Y-21115011D01*
X37735671Y-20989507D01*
X37584446Y-20918990D01*
X37532009Y-20872819D01*
X37512857Y-20805625D01*
X37533073Y-20738744D01*
X37584446Y-20694227D01*
X37735671Y-20623711D01*
X37914909Y-20498207D01*
X38069630Y-20343486D01*
X38195134Y-20164248D01*
X38287607Y-19965939D01*
X38344239Y-19754586D01*
X38363309Y-19536609D01*
X38344239Y-19318632D01*
X38287607Y-19107279D01*
X38195134Y-18908971D01*
X38195132Y-18908968D01*
X38195131Y-18908966D01*
X38069631Y-18729733D01*
X38069628Y-18729730D01*
X37914909Y-18575011D01*
X37735671Y-18449507D01*
X37735672Y-18449507D01*
X37735670Y-18449506D01*
X37636516Y-18403270D01*
X37537362Y-18357034D01*
X37537358Y-18357033D01*
X37537354Y-18357031D01*
X37326009Y-18300402D01*
X37108034Y-18281332D01*
X37108030Y-18281332D01*
X36962714Y-18294045D01*
X36890055Y-18300402D01*
X36890052Y-18300402D01*
X36678709Y-18357031D01*
X36678700Y-18357035D01*
X36480393Y-18449507D01*
X36480389Y-18449509D01*
X36301153Y-18575011D01*
X36146434Y-18729730D01*
X36020932Y-18908966D01*
X36020930Y-18908970D01*
X35928458Y-19107277D01*
X35928454Y-19107286D01*
X35871825Y-19318629D01*
X35871825Y-19318633D01*
X35852755Y-19536606D01*
X35852755Y-19536611D01*
X35871825Y-19754584D01*
X35871825Y-19754588D01*
X35928454Y-19965931D01*
X35928456Y-19965935D01*
X35928457Y-19965939D01*
X35974693Y-20065093D01*
X36020929Y-20164247D01*
X36020930Y-20164248D01*
X36146434Y-20343486D01*
X36301155Y-20498207D01*
X36480392Y-20623710D01*
X36480393Y-20623711D01*
X36631615Y-20694227D01*
X36684054Y-20740399D01*
X36703206Y-20807593D01*
X36682990Y-20874474D01*
X36631615Y-20918991D01*
X36480393Y-20989507D01*
X36480389Y-20989509D01*
X36301153Y-21115011D01*
X36146434Y-21269730D01*
X36020932Y-21448966D01*
X36020930Y-21448970D01*
X35928458Y-21647277D01*
X35928454Y-21647286D01*
X35871825Y-21858629D01*
X35871825Y-21858633D01*
X35852755Y-22076606D01*
X35852755Y-22076611D01*
X35871825Y-22294584D01*
X35871825Y-22294588D01*
X35928454Y-22505931D01*
X35928456Y-22505935D01*
X35928457Y-22505939D01*
X35974693Y-22605093D01*
X36020929Y-22704247D01*
X36020930Y-22704248D01*
X36146434Y-22883486D01*
X36301155Y-23038207D01*
X36480392Y-23163710D01*
X36480393Y-23163711D01*
X36631615Y-23234227D01*
X36684054Y-23280399D01*
X36703206Y-23347593D01*
X36682990Y-23414474D01*
X36631615Y-23458991D01*
X36480393Y-23529507D01*
X36480389Y-23529509D01*
X36301153Y-23655011D01*
X36146434Y-23809730D01*
X36020932Y-23988966D01*
X36020930Y-23988970D01*
X35928458Y-24187277D01*
X35928454Y-24187286D01*
X35871825Y-24398629D01*
X35871825Y-24398633D01*
X35852755Y-24616606D01*
X35852755Y-24616611D01*
X200500Y-24616611D01*
X200500Y-8195763D01*
X33197787Y-8195763D01*
X33227413Y-8465013D01*
X33227415Y-8465024D01*
X33295926Y-8727082D01*
X33295928Y-8727088D01*
X33401870Y-8976390D01*
X33473998Y-9094575D01*
X33542979Y-9207605D01*
X33542986Y-9207615D01*
X33716253Y-9415819D01*
X33716259Y-9415824D01*
X33917998Y-9596582D01*
X34143910Y-9746044D01*
X34389176Y-9861020D01*
X34389183Y-9861022D01*
X34389185Y-9861023D01*
X34648557Y-9939057D01*
X34648564Y-9939058D01*
X34648569Y-9939060D01*
X34916561Y-9978500D01*
X34916566Y-9978500D01*
X35119629Y-9978500D01*
X35119631Y-9978500D01*
X35119636Y-9978499D01*
X35119648Y-9978499D01*
X35157191Y-9975750D01*
X35322156Y-9963677D01*
X35434758Y-9938593D01*
X35586546Y-9904782D01*
X35586548Y-9904781D01*
X35586553Y-9904780D01*
X35839558Y-9808014D01*
X36075777Y-9675441D01*
X36290177Y-9509888D01*
X36478186Y-9314881D01*
X36635799Y-9094579D01*
X36709787Y-8950669D01*
X36759649Y-8853690D01*
X36759651Y-8853684D01*
X36759656Y-8853675D01*
X36847118Y-8597305D01*
X36896319Y-8330933D01*
X36906212Y-8060235D01*
X36876586Y-7790982D01*
X36808072Y-7528912D01*
X36702130Y-7279610D01*
X36561018Y-7048390D01*
X36471747Y-6941119D01*
X36387746Y-6840180D01*
X36387740Y-6840175D01*
X36186002Y-6659418D01*
X35960092Y-6509957D01*
X35960090Y-6509956D01*
X35714824Y-6394980D01*
X35714819Y-6394978D01*
X35714814Y-6394976D01*
X35455442Y-6316942D01*
X35455428Y-6316939D01*
X35339791Y-6299921D01*
X35187439Y-6277500D01*
X34984369Y-6277500D01*
X34984351Y-6277500D01*
X34781844Y-6292323D01*
X34781831Y-6292325D01*
X34517453Y-6351217D01*
X34517446Y-6351220D01*
X34264439Y-6447987D01*
X34028226Y-6580557D01*
X33813822Y-6746112D01*
X33625822Y-6941109D01*
X33625816Y-6941116D01*
X33468202Y-7161419D01*
X33468199Y-7161424D01*
X33344350Y-7402309D01*
X33344343Y-7402327D01*
X33256884Y-7658685D01*
X33256881Y-7658699D01*
X33207681Y-7925068D01*
X33207680Y-7925075D01*
X33197787Y-8195763D01*
X200500Y-8195763D01*
X200500Y-3048006D01*
X36186700Y-3048006D01*
X36205864Y-3279297D01*
X36205866Y-3279308D01*
X36262842Y-3504300D01*
X36356075Y-3716848D01*
X36483016Y-3911147D01*
X36483018Y-3911149D01*
X36483021Y-3911153D01*
X36640216Y-4081913D01*
X36640219Y-4081915D01*
X36640222Y-4081918D01*
X36823365Y-4224464D01*
X36823371Y-4224468D01*
X36823374Y-4224470D01*
X36973185Y-4305544D01*
X37026652Y-4334479D01*
X37027497Y-4334936D01*
X37141487Y-4374068D01*
X37247015Y-4410297D01*
X37247017Y-4410297D01*
X37247019Y-4410298D01*
X37475951Y-4448500D01*
X37475952Y-4448500D01*
X37708048Y-4448500D01*
X37708049Y-4448500D01*
X37936981Y-4410298D01*
X38156503Y-4334936D01*
X38360626Y-4224470D01*
X38543784Y-4081913D01*
X38700979Y-3911153D01*
X38758191Y-3823582D01*
X38811337Y-3778226D01*
X38880568Y-3768802D01*
X38943904Y-3798304D01*
X38965809Y-3823583D01*
X39023016Y-3911147D01*
X39023018Y-3911149D01*
X39023021Y-3911153D01*
X39180216Y-4081913D01*
X39180219Y-4081915D01*
X39180222Y-4081918D01*
X39363365Y-4224464D01*
X39363371Y-4224468D01*
X39363374Y-4224470D01*
X39513185Y-4305544D01*
X39566652Y-4334479D01*
X39567497Y-4334936D01*
X39681487Y-4374068D01*
X39787015Y-4410297D01*
X39787017Y-4410297D01*
X39787019Y-4410298D01*
X40015951Y-4448500D01*
X40015952Y-4448500D01*
X40248048Y-4448500D01*
X40248049Y-4448500D01*
X40476981Y-4410298D01*
X40696503Y-4334936D01*
X40900626Y-4224470D01*
X41083784Y-4081913D01*
X41240979Y-3911153D01*
X41298191Y-3823582D01*
X41351337Y-3778226D01*
X41420568Y-3768802D01*
X41483904Y-3798304D01*
X41505809Y-3823583D01*
X41563016Y-3911147D01*
X41563018Y-3911149D01*
X41563021Y-3911153D01*
X41720216Y-4081913D01*
X41720219Y-4081915D01*
X41720222Y-4081918D01*
X41903365Y-4224464D01*
X41903371Y-4224468D01*
X41903374Y-4224470D01*
X42053185Y-4305544D01*
X42106652Y-4334479D01*
X42107497Y-4334936D01*
X42221487Y-4374068D01*
X42327015Y-4410297D01*
X42327017Y-4410297D01*
X42327019Y-4410298D01*
X42555951Y-4448500D01*
X42555952Y-4448500D01*
X42788048Y-4448500D01*
X42788049Y-4448500D01*
X43016981Y-4410298D01*
X43236503Y-4334936D01*
X43440626Y-4224470D01*
X43623784Y-4081913D01*
X43780979Y-3911153D01*
X43838191Y-3823582D01*
X43891337Y-3778226D01*
X43960568Y-3768802D01*
X44023904Y-3798304D01*
X44045809Y-3823583D01*
X44103016Y-3911147D01*
X44103018Y-3911149D01*
X44103021Y-3911153D01*
X44260216Y-4081913D01*
X44260219Y-4081915D01*
X44260222Y-4081918D01*
X44443365Y-4224464D01*
X44443371Y-4224468D01*
X44443374Y-4224470D01*
X44593185Y-4305544D01*
X44646652Y-4334479D01*
X44647497Y-4334936D01*
X44761487Y-4374068D01*
X44867015Y-4410297D01*
X44867017Y-4410297D01*
X44867019Y-4410298D01*
X45095951Y-4448500D01*
X45095952Y-4448500D01*
X45328048Y-4448500D01*
X45328049Y-4448500D01*
X45556981Y-4410298D01*
X45776503Y-4334936D01*
X45980626Y-4224470D01*
X46163784Y-4081913D01*
X46320979Y-3911153D01*
X46378191Y-3823582D01*
X46431337Y-3778226D01*
X46500568Y-3768802D01*
X46563904Y-3798304D01*
X46585809Y-3823583D01*
X46643016Y-3911147D01*
X46643018Y-3911149D01*
X46643021Y-3911153D01*
X46800216Y-4081913D01*
X46800219Y-4081915D01*
X46800222Y-4081918D01*
X46983365Y-4224464D01*
X46983371Y-4224468D01*
X46983374Y-4224470D01*
X47133185Y-4305544D01*
X47186652Y-4334479D01*
X47187497Y-4334936D01*
X47301487Y-4374068D01*
X47407015Y-4410297D01*
X47407017Y-4410297D01*
X47407019Y-4410298D01*
X47635951Y-4448500D01*
X47635952Y-4448500D01*
X47868048Y-4448500D01*
X47868049Y-4448500D01*
X48096981Y-4410298D01*
X48316503Y-4334936D01*
X48520626Y-4224470D01*
X48703784Y-4081913D01*
X48712130Y-4072846D01*
X48772010Y-4036854D01*
X48841849Y-4038949D01*
X48899468Y-4078469D01*
X48919544Y-4113491D01*
X48948203Y-4190330D01*
X48948206Y-4190335D01*
X49034452Y-4305544D01*
X49034455Y-4305547D01*
X49149664Y-4391793D01*
X49149671Y-4391797D01*
X49284517Y-4442091D01*
X49284516Y-4442091D01*
X49291444Y-4442835D01*
X49344127Y-4448500D01*
X51239872Y-4448499D01*
X51299483Y-4442091D01*
X51434331Y-4391796D01*
X51549546Y-4305546D01*
X51635796Y-4190331D01*
X51686091Y-4055483D01*
X51692500Y-3995873D01*
X51692500Y-3048006D01*
X53966700Y-3048006D01*
X53985864Y-3279297D01*
X53985866Y-3279308D01*
X54042842Y-3504300D01*
X54136075Y-3716848D01*
X54263016Y-3911147D01*
X54263018Y-3911149D01*
X54263021Y-3911153D01*
X54420216Y-4081913D01*
X54420219Y-4081915D01*
X54420222Y-4081918D01*
X54603365Y-4224464D01*
X54603371Y-4224468D01*
X54603374Y-4224470D01*
X54753185Y-4305544D01*
X54806652Y-4334479D01*
X54807497Y-4334936D01*
X54921487Y-4374068D01*
X55027015Y-4410297D01*
X55027017Y-4410297D01*
X55027019Y-4410298D01*
X55255951Y-4448500D01*
X55255952Y-4448500D01*
X55488048Y-4448500D01*
X55488049Y-4448500D01*
X55716981Y-4410298D01*
X55936503Y-4334936D01*
X56061834Y-4267110D01*
X57223218Y-4267110D01*
X57347698Y-4334476D01*
X57347706Y-4334479D01*
X57567139Y-4409811D01*
X57795993Y-4448000D01*
X58028007Y-4448000D01*
X58256860Y-4409811D01*
X58476293Y-4334479D01*
X58476311Y-4334472D01*
X58600780Y-4267112D01*
X58600780Y-4267110D01*
X57912001Y-3578330D01*
X57912000Y-3578330D01*
X57223218Y-4267110D01*
X56061834Y-4267110D01*
X56140626Y-4224470D01*
X56323784Y-4081913D01*
X56480979Y-3911153D01*
X56558447Y-3792578D01*
X56611593Y-3747222D01*
X56675048Y-3737062D01*
X56690957Y-3738712D01*
X57381670Y-3048000D01*
X57347662Y-3013992D01*
X57458190Y-3013992D01*
X57468327Y-3149265D01*
X57517887Y-3275541D01*
X57602465Y-3381599D01*
X57714547Y-3458016D01*
X57844173Y-3498000D01*
X57945724Y-3498000D01*
X58046138Y-3482865D01*
X58168357Y-3424007D01*
X58267798Y-3331740D01*
X58335625Y-3214260D01*
X58365810Y-3082008D01*
X58363262Y-3048000D01*
X58442330Y-3048000D01*
X59133041Y-3738711D01*
X59148952Y-3737061D01*
X59217665Y-3749726D01*
X59265552Y-3792578D01*
X59312498Y-3864435D01*
X59343021Y-3911153D01*
X59500216Y-4081913D01*
X59500219Y-4081915D01*
X59500222Y-4081918D01*
X59683365Y-4224464D01*
X59683371Y-4224468D01*
X59683374Y-4224470D01*
X59833185Y-4305544D01*
X59886652Y-4334479D01*
X59887497Y-4334936D01*
X60001487Y-4374068D01*
X60107015Y-4410297D01*
X60107017Y-4410297D01*
X60107019Y-4410298D01*
X60335951Y-4448500D01*
X60335952Y-4448500D01*
X60568048Y-4448500D01*
X60568049Y-4448500D01*
X60796981Y-4410298D01*
X61016503Y-4334936D01*
X61220626Y-4224470D01*
X61403784Y-4081913D01*
X61560979Y-3911153D01*
X61618191Y-3823582D01*
X61671337Y-3778226D01*
X61740568Y-3768802D01*
X61803904Y-3798304D01*
X61825809Y-3823583D01*
X61883016Y-3911147D01*
X61883018Y-3911149D01*
X61883021Y-3911153D01*
X62040216Y-4081913D01*
X62040219Y-4081915D01*
X62040222Y-4081918D01*
X62223365Y-4224464D01*
X62223371Y-4224468D01*
X62223374Y-4224470D01*
X62373185Y-4305544D01*
X62426652Y-4334479D01*
X62427497Y-4334936D01*
X62541487Y-4374068D01*
X62647015Y-4410297D01*
X62647017Y-4410297D01*
X62647019Y-4410298D01*
X62875951Y-4448500D01*
X62875952Y-4448500D01*
X63108048Y-4448500D01*
X63108049Y-4448500D01*
X63336981Y-4410298D01*
X63556503Y-4334936D01*
X63760626Y-4224470D01*
X63943784Y-4081913D01*
X64100979Y-3911153D01*
X64158191Y-3823582D01*
X64211337Y-3778226D01*
X64280568Y-3768802D01*
X64343904Y-3798304D01*
X64365809Y-3823583D01*
X64423016Y-3911147D01*
X64423018Y-3911149D01*
X64423021Y-3911153D01*
X64580216Y-4081913D01*
X64580219Y-4081915D01*
X64580222Y-4081918D01*
X64763365Y-4224464D01*
X64763371Y-4224468D01*
X64763374Y-4224470D01*
X64913185Y-4305544D01*
X64966652Y-4334479D01*
X64967497Y-4334936D01*
X65081487Y-4374068D01*
X65187015Y-4410297D01*
X65187017Y-4410297D01*
X65187019Y-4410298D01*
X65415951Y-4448500D01*
X65415952Y-4448500D01*
X65648048Y-4448500D01*
X65648049Y-4448500D01*
X65876981Y-4410298D01*
X66096503Y-4334936D01*
X66300626Y-4224470D01*
X66483784Y-4081913D01*
X66640979Y-3911153D01*
X66698191Y-3823582D01*
X66751337Y-3778226D01*
X66820568Y-3768802D01*
X66883904Y-3798304D01*
X66905809Y-3823583D01*
X66963016Y-3911147D01*
X66963018Y-3911149D01*
X66963021Y-3911153D01*
X67120216Y-4081913D01*
X67120219Y-4081915D01*
X67120222Y-4081918D01*
X67303365Y-4224464D01*
X67303371Y-4224468D01*
X67303374Y-4224470D01*
X67453185Y-4305544D01*
X67506652Y-4334479D01*
X67507497Y-4334936D01*
X67621487Y-4374068D01*
X67727015Y-4410297D01*
X67727017Y-4410297D01*
X67727019Y-4410298D01*
X67955951Y-4448500D01*
X67955952Y-4448500D01*
X68188048Y-4448500D01*
X68188049Y-4448500D01*
X68416981Y-4410298D01*
X68636503Y-4334936D01*
X68840626Y-4224470D01*
X69023784Y-4081913D01*
X69180979Y-3911153D01*
X69238191Y-3823582D01*
X69291337Y-3778226D01*
X69360568Y-3768802D01*
X69423904Y-3798304D01*
X69445809Y-3823583D01*
X69503016Y-3911147D01*
X69503018Y-3911149D01*
X69503021Y-3911153D01*
X69660216Y-4081913D01*
X69660219Y-4081915D01*
X69660222Y-4081918D01*
X69843365Y-4224464D01*
X69843371Y-4224468D01*
X69843374Y-4224470D01*
X69993185Y-4305544D01*
X70046652Y-4334479D01*
X70047497Y-4334936D01*
X70161487Y-4374068D01*
X70267015Y-4410297D01*
X70267017Y-4410297D01*
X70267019Y-4410298D01*
X70495951Y-4448500D01*
X70495952Y-4448500D01*
X70728048Y-4448500D01*
X70728049Y-4448500D01*
X70956981Y-4410298D01*
X71176503Y-4334936D01*
X71380626Y-4224470D01*
X71563784Y-4081913D01*
X71572130Y-4072846D01*
X71632010Y-4036854D01*
X71701849Y-4038949D01*
X71759468Y-4078469D01*
X71779544Y-4113491D01*
X71808203Y-4190330D01*
X71808206Y-4190335D01*
X71894452Y-4305544D01*
X71894455Y-4305547D01*
X72009664Y-4391793D01*
X72009671Y-4391797D01*
X72144517Y-4442091D01*
X72144516Y-4442091D01*
X72151444Y-4442835D01*
X72204127Y-4448500D01*
X74099872Y-4448499D01*
X74159483Y-4442091D01*
X74294331Y-4391796D01*
X74409546Y-4305546D01*
X74495796Y-4190331D01*
X74546091Y-4055483D01*
X74552500Y-3995873D01*
X74552500Y-3115763D01*
X85267787Y-3115763D01*
X85297413Y-3385013D01*
X85297415Y-3385024D01*
X85347952Y-3578330D01*
X85365928Y-3647088D01*
X85471870Y-3896390D01*
X85604365Y-4113491D01*
X85612979Y-4127605D01*
X85612986Y-4127615D01*
X85786253Y-4335819D01*
X85786259Y-4335824D01*
X85912013Y-4448499D01*
X85987998Y-4516582D01*
X86213910Y-4666044D01*
X86459176Y-4781020D01*
X86459183Y-4781022D01*
X86459185Y-4781023D01*
X86718557Y-4859057D01*
X86718564Y-4859058D01*
X86718569Y-4859060D01*
X86986561Y-4898500D01*
X86986566Y-4898500D01*
X87189629Y-4898500D01*
X87189631Y-4898500D01*
X87189636Y-4898499D01*
X87189648Y-4898499D01*
X87227191Y-4895750D01*
X87392156Y-4883677D01*
X87504758Y-4858593D01*
X87656546Y-4824782D01*
X87656548Y-4824781D01*
X87656553Y-4824780D01*
X87909558Y-4728014D01*
X88145777Y-4595441D01*
X88360177Y-4429888D01*
X88548186Y-4234881D01*
X88705799Y-4014579D01*
X88803997Y-3823583D01*
X88829649Y-3773690D01*
X88829651Y-3773684D01*
X88829656Y-3773675D01*
X88917118Y-3517305D01*
X88966319Y-3250933D01*
X88976212Y-2980235D01*
X88946586Y-2710982D01*
X88878072Y-2448912D01*
X88772130Y-2199610D01*
X88631018Y-1968390D01*
X88578823Y-1905671D01*
X88457746Y-1760180D01*
X88457740Y-1760175D01*
X88256002Y-1579418D01*
X88030092Y-1429957D01*
X88030090Y-1429956D01*
X87784824Y-1314980D01*
X87784819Y-1314978D01*
X87784814Y-1314976D01*
X87525442Y-1236942D01*
X87525428Y-1236939D01*
X87409791Y-1219921D01*
X87257439Y-1197500D01*
X87054369Y-1197500D01*
X87054351Y-1197500D01*
X86851844Y-1212323D01*
X86851831Y-1212325D01*
X86587453Y-1271217D01*
X86587446Y-1271220D01*
X86334439Y-1367987D01*
X86098226Y-1500557D01*
X85883822Y-1666112D01*
X85695822Y-1861109D01*
X85695816Y-1861116D01*
X85538202Y-2081419D01*
X85538199Y-2081424D01*
X85414350Y-2322309D01*
X85414343Y-2322327D01*
X85326884Y-2578685D01*
X85326881Y-2578699D01*
X85277681Y-2845068D01*
X85277680Y-2845075D01*
X85267787Y-3115763D01*
X74552500Y-3115763D01*
X74552499Y-2100128D01*
X74546091Y-2040517D01*
X74536233Y-2014087D01*
X74495797Y-1905671D01*
X74495793Y-1905664D01*
X74409547Y-1790455D01*
X74409544Y-1790452D01*
X74294335Y-1704206D01*
X74294328Y-1704202D01*
X74159482Y-1653908D01*
X74159483Y-1653908D01*
X74099883Y-1647501D01*
X74099881Y-1647500D01*
X74099873Y-1647500D01*
X74099864Y-1647500D01*
X72204129Y-1647500D01*
X72204123Y-1647501D01*
X72144516Y-1653908D01*
X72009671Y-1704202D01*
X72009664Y-1704206D01*
X71894455Y-1790452D01*
X71894452Y-1790455D01*
X71808206Y-1905664D01*
X71808203Y-1905670D01*
X71779544Y-1982508D01*
X71737672Y-2038441D01*
X71672208Y-2062858D01*
X71603935Y-2048006D01*
X71572135Y-2023158D01*
X71563784Y-2014087D01*
X71563778Y-2014082D01*
X71563777Y-2014081D01*
X71380634Y-1871535D01*
X71380628Y-1871531D01*
X71176504Y-1761064D01*
X71176495Y-1761061D01*
X70956984Y-1685702D01*
X70766450Y-1653908D01*
X70728049Y-1647500D01*
X70495951Y-1647500D01*
X70457550Y-1653908D01*
X70267015Y-1685702D01*
X70047504Y-1761061D01*
X70047495Y-1761064D01*
X69843371Y-1871531D01*
X69843365Y-1871535D01*
X69660222Y-2014081D01*
X69660219Y-2014084D01*
X69660216Y-2014086D01*
X69660216Y-2014087D01*
X69615319Y-2062858D01*
X69503016Y-2184852D01*
X69445809Y-2272416D01*
X69392662Y-2317773D01*
X69323431Y-2327197D01*
X69260095Y-2297695D01*
X69238191Y-2272416D01*
X69180983Y-2184852D01*
X69180980Y-2184849D01*
X69180979Y-2184847D01*
X69023784Y-2014087D01*
X69023779Y-2014083D01*
X69023777Y-2014081D01*
X68840634Y-1871535D01*
X68840628Y-1871531D01*
X68636504Y-1761064D01*
X68636495Y-1761061D01*
X68416984Y-1685702D01*
X68226450Y-1653908D01*
X68188049Y-1647500D01*
X67955951Y-1647500D01*
X67917550Y-1653908D01*
X67727015Y-1685702D01*
X67507504Y-1761061D01*
X67507495Y-1761064D01*
X67303371Y-1871531D01*
X67303365Y-1871535D01*
X67120222Y-2014081D01*
X67120219Y-2014084D01*
X67120216Y-2014086D01*
X67120216Y-2014087D01*
X67075319Y-2062858D01*
X66963016Y-2184852D01*
X66905809Y-2272416D01*
X66852662Y-2317773D01*
X66783431Y-2327197D01*
X66720095Y-2297695D01*
X66698191Y-2272416D01*
X66640983Y-2184852D01*
X66640980Y-2184849D01*
X66640979Y-2184847D01*
X66483784Y-2014087D01*
X66483779Y-2014083D01*
X66483777Y-2014081D01*
X66300634Y-1871535D01*
X66300628Y-1871531D01*
X66096504Y-1761064D01*
X66096495Y-1761061D01*
X65876984Y-1685702D01*
X65686450Y-1653908D01*
X65648049Y-1647500D01*
X65415951Y-1647500D01*
X65377550Y-1653908D01*
X65187015Y-1685702D01*
X64967504Y-1761061D01*
X64967495Y-1761064D01*
X64763371Y-1871531D01*
X64763365Y-1871535D01*
X64580222Y-2014081D01*
X64580219Y-2014084D01*
X64580216Y-2014086D01*
X64580216Y-2014087D01*
X64535319Y-2062858D01*
X64423016Y-2184852D01*
X64365809Y-2272416D01*
X64312662Y-2317773D01*
X64243431Y-2327197D01*
X64180095Y-2297695D01*
X64158191Y-2272416D01*
X64100983Y-2184852D01*
X64100980Y-2184849D01*
X64100979Y-2184847D01*
X63943784Y-2014087D01*
X63943779Y-2014083D01*
X63943777Y-2014081D01*
X63760634Y-1871535D01*
X63760628Y-1871531D01*
X63556504Y-1761064D01*
X63556495Y-1761061D01*
X63336984Y-1685702D01*
X63146450Y-1653908D01*
X63108049Y-1647500D01*
X62875951Y-1647500D01*
X62837550Y-1653908D01*
X62647015Y-1685702D01*
X62427504Y-1761061D01*
X62427495Y-1761064D01*
X62223371Y-1871531D01*
X62223365Y-1871535D01*
X62040222Y-2014081D01*
X62040219Y-2014084D01*
X62040216Y-2014086D01*
X62040216Y-2014087D01*
X61995319Y-2062858D01*
X61883016Y-2184852D01*
X61825809Y-2272416D01*
X61772662Y-2317773D01*
X61703431Y-2327197D01*
X61640095Y-2297695D01*
X61618191Y-2272416D01*
X61560983Y-2184852D01*
X61560980Y-2184849D01*
X61560979Y-2184847D01*
X61403784Y-2014087D01*
X61403779Y-2014083D01*
X61403777Y-2014081D01*
X61220634Y-1871535D01*
X61220628Y-1871531D01*
X61016504Y-1761064D01*
X61016495Y-1761061D01*
X60796984Y-1685702D01*
X60606450Y-1653908D01*
X60568049Y-1647500D01*
X60335951Y-1647500D01*
X60297550Y-1653908D01*
X60107015Y-1685702D01*
X59887504Y-1761061D01*
X59887495Y-1761064D01*
X59683371Y-1871531D01*
X59683365Y-1871535D01*
X59500222Y-2014081D01*
X59500219Y-2014084D01*
X59500216Y-2014086D01*
X59500216Y-2014087D01*
X59438229Y-2081424D01*
X59343015Y-2184854D01*
X59265552Y-2303420D01*
X59212406Y-2348777D01*
X59148953Y-2358937D01*
X59133041Y-2357286D01*
X58442330Y-3047999D01*
X58442330Y-3048000D01*
X58363262Y-3048000D01*
X58355673Y-2946735D01*
X58306113Y-2820459D01*
X58221535Y-2714401D01*
X58109453Y-2637984D01*
X57979827Y-2598000D01*
X57878276Y-2598000D01*
X57777862Y-2613135D01*
X57655643Y-2671993D01*
X57556202Y-2764260D01*
X57488375Y-2881740D01*
X57458190Y-3013992D01*
X57347662Y-3013992D01*
X56690956Y-2357286D01*
X56675046Y-2358937D01*
X56606333Y-2346272D01*
X56558446Y-2303419D01*
X56480983Y-2184852D01*
X56480980Y-2184849D01*
X56480979Y-2184847D01*
X56323784Y-2014087D01*
X56323779Y-2014083D01*
X56323777Y-2014081D01*
X56140634Y-1871535D01*
X56140628Y-1871531D01*
X56061831Y-1828888D01*
X57223217Y-1828888D01*
X57912000Y-2517670D01*
X57912001Y-2517670D01*
X58600780Y-1828888D01*
X58600781Y-1828888D01*
X58476301Y-1761523D01*
X58476293Y-1761520D01*
X58256860Y-1686188D01*
X58028007Y-1648000D01*
X57795993Y-1648000D01*
X57567139Y-1686188D01*
X57347703Y-1761521D01*
X57347692Y-1761526D01*
X57223217Y-1828888D01*
X56061831Y-1828888D01*
X55936504Y-1761064D01*
X55936495Y-1761061D01*
X55716984Y-1685702D01*
X55526450Y-1653908D01*
X55488049Y-1647500D01*
X55255951Y-1647500D01*
X55217550Y-1653908D01*
X55027015Y-1685702D01*
X54807504Y-1761061D01*
X54807495Y-1761064D01*
X54603371Y-1871531D01*
X54603365Y-1871535D01*
X54420222Y-2014081D01*
X54420219Y-2014084D01*
X54420216Y-2014086D01*
X54420216Y-2014087D01*
X54375319Y-2062858D01*
X54263016Y-2184852D01*
X54136075Y-2379151D01*
X54042842Y-2591699D01*
X53985866Y-2816691D01*
X53985864Y-2816702D01*
X53966700Y-3047993D01*
X53966700Y-3048006D01*
X51692500Y-3048006D01*
X51692499Y-2100128D01*
X51686091Y-2040517D01*
X51676233Y-2014087D01*
X51635797Y-1905671D01*
X51635793Y-1905664D01*
X51549547Y-1790455D01*
X51549544Y-1790452D01*
X51434335Y-1704206D01*
X51434328Y-1704202D01*
X51299482Y-1653908D01*
X51299483Y-1653908D01*
X51239883Y-1647501D01*
X51239881Y-1647500D01*
X51239873Y-1647500D01*
X51239864Y-1647500D01*
X49344129Y-1647500D01*
X49344123Y-1647501D01*
X49284516Y-1653908D01*
X49149671Y-1704202D01*
X49149664Y-1704206D01*
X49034455Y-1790452D01*
X49034452Y-1790455D01*
X48948206Y-1905664D01*
X48948203Y-1905670D01*
X48919544Y-1982508D01*
X48877672Y-2038441D01*
X48812208Y-2062858D01*
X48743935Y-2048006D01*
X48712135Y-2023158D01*
X48703784Y-2014087D01*
X48703778Y-2014082D01*
X48703777Y-2014081D01*
X48520634Y-1871535D01*
X48520628Y-1871531D01*
X48316504Y-1761064D01*
X48316495Y-1761061D01*
X48096984Y-1685702D01*
X47906450Y-1653908D01*
X47868049Y-1647500D01*
X47635951Y-1647500D01*
X47597550Y-1653908D01*
X47407015Y-1685702D01*
X47187504Y-1761061D01*
X47187495Y-1761064D01*
X46983371Y-1871531D01*
X46983365Y-1871535D01*
X46800222Y-2014081D01*
X46800219Y-2014084D01*
X46800216Y-2014086D01*
X46800216Y-2014087D01*
X46755319Y-2062858D01*
X46643016Y-2184852D01*
X46585809Y-2272416D01*
X46532662Y-2317773D01*
X46463431Y-2327197D01*
X46400095Y-2297695D01*
X46378191Y-2272416D01*
X46320983Y-2184852D01*
X46320980Y-2184849D01*
X46320979Y-2184847D01*
X46163784Y-2014087D01*
X46163779Y-2014083D01*
X46163777Y-2014081D01*
X45980634Y-1871535D01*
X45980628Y-1871531D01*
X45776504Y-1761064D01*
X45776495Y-1761061D01*
X45556984Y-1685702D01*
X45366450Y-1653908D01*
X45328049Y-1647500D01*
X45095951Y-1647500D01*
X45057550Y-1653908D01*
X44867015Y-1685702D01*
X44647504Y-1761061D01*
X44647495Y-1761064D01*
X44443371Y-1871531D01*
X44443365Y-1871535D01*
X44260222Y-2014081D01*
X44260219Y-2014084D01*
X44260216Y-2014086D01*
X44260216Y-2014087D01*
X44215319Y-2062858D01*
X44103016Y-2184852D01*
X44045809Y-2272416D01*
X43992662Y-2317773D01*
X43923431Y-2327197D01*
X43860095Y-2297695D01*
X43838191Y-2272416D01*
X43780983Y-2184852D01*
X43780980Y-2184849D01*
X43780979Y-2184847D01*
X43623784Y-2014087D01*
X43623779Y-2014083D01*
X43623777Y-2014081D01*
X43440634Y-1871535D01*
X43440628Y-1871531D01*
X43236504Y-1761064D01*
X43236495Y-1761061D01*
X43016984Y-1685702D01*
X42826450Y-1653908D01*
X42788049Y-1647500D01*
X42555951Y-1647500D01*
X42517550Y-1653908D01*
X42327015Y-1685702D01*
X42107504Y-1761061D01*
X42107495Y-1761064D01*
X41903371Y-1871531D01*
X41903365Y-1871535D01*
X41720222Y-2014081D01*
X41720219Y-2014084D01*
X41720216Y-2014086D01*
X41720216Y-2014087D01*
X41675319Y-2062858D01*
X41563016Y-2184852D01*
X41505809Y-2272416D01*
X41452662Y-2317773D01*
X41383431Y-2327197D01*
X41320095Y-2297695D01*
X41298191Y-2272416D01*
X41240983Y-2184852D01*
X41240980Y-2184849D01*
X41240979Y-2184847D01*
X41083784Y-2014087D01*
X41083779Y-2014083D01*
X41083777Y-2014081D01*
X40900634Y-1871535D01*
X40900628Y-1871531D01*
X40696504Y-1761064D01*
X40696495Y-1761061D01*
X40476984Y-1685702D01*
X40286450Y-1653908D01*
X40248049Y-1647500D01*
X40015951Y-1647500D01*
X39977550Y-1653908D01*
X39787015Y-1685702D01*
X39567504Y-1761061D01*
X39567495Y-1761064D01*
X39363371Y-1871531D01*
X39363365Y-1871535D01*
X39180222Y-2014081D01*
X39180219Y-2014084D01*
X39180216Y-2014086D01*
X39180216Y-2014087D01*
X39135319Y-2062858D01*
X39023016Y-2184852D01*
X38965809Y-2272416D01*
X38912662Y-2317773D01*
X38843431Y-2327197D01*
X38780095Y-2297695D01*
X38758191Y-2272416D01*
X38700983Y-2184852D01*
X38700980Y-2184849D01*
X38700979Y-2184847D01*
X38543784Y-2014087D01*
X38543779Y-2014083D01*
X38543777Y-2014081D01*
X38360634Y-1871535D01*
X38360628Y-1871531D01*
X38156504Y-1761064D01*
X38156495Y-1761061D01*
X37936984Y-1685702D01*
X37746450Y-1653908D01*
X37708049Y-1647500D01*
X37475951Y-1647500D01*
X37437550Y-1653908D01*
X37247015Y-1685702D01*
X37027504Y-1761061D01*
X37027495Y-1761064D01*
X36823371Y-1871531D01*
X36823365Y-1871535D01*
X36640222Y-2014081D01*
X36640219Y-2014084D01*
X36640216Y-2014086D01*
X36640216Y-2014087D01*
X36595319Y-2062858D01*
X36483016Y-2184852D01*
X36356075Y-2379151D01*
X36262842Y-2591699D01*
X36205866Y-2816691D01*
X36205864Y-2816702D01*
X36186700Y-3047993D01*
X36186700Y-3048006D01*
X200500Y-3048006D01*
X200500Y-324500D01*
X220185Y-257461D01*
X272989Y-211706D01*
X324500Y-200500D01*
X101275500Y-200500D01*
X101342539Y-220185D01*
G37*
%TD.AperFunction*%
%TD*%
M02*
