%TF.GenerationSoftware,KiCad,Pcbnew,7.0.10*%
%TF.CreationDate,2025-01-22T21:10:17-07:00*%
%TF.ProjectId,HIVA,48495641-2e6b-4696-9361-645f70636258,rev?*%
%TF.SameCoordinates,Original*%
%TF.FileFunction,Legend,Top*%
%TF.FilePolarity,Positive*%
%FSLAX46Y46*%
G04 Gerber Fmt 4.6, Leading zero omitted, Abs format (unit mm)*
G04 Created by KiCad (PCBNEW 7.0.10) date 2025-01-22 21:10:17*
%MOMM*%
%LPD*%
G01*
G04 APERTURE LIST*
%ADD10C,0.150000*%
%ADD11C,0.100000*%
%ADD12C,0.120000*%
%ADD13C,0.127000*%
%ADD14C,0.200000*%
G04 APERTURE END LIST*
D10*
G36*
X91026399Y-3144374D02*
G01*
X91891995Y-3144374D01*
X91891995Y-2611436D01*
X91891836Y-2585546D01*
X91891360Y-2561364D01*
X91890566Y-2538892D01*
X91889454Y-2518128D01*
X91887477Y-2493100D01*
X91884935Y-2471111D01*
X91880964Y-2447896D01*
X91875033Y-2426303D01*
X91873921Y-2423369D01*
X91863832Y-2404869D01*
X91850841Y-2389657D01*
X91834065Y-2375606D01*
X91816280Y-2364262D01*
X91797642Y-2354834D01*
X91778670Y-2347003D01*
X91759365Y-2340771D01*
X91739725Y-2336136D01*
X91719752Y-2333100D01*
X91699444Y-2331662D01*
X91691228Y-2331534D01*
X91625282Y-2331534D01*
X91625282Y-2276823D01*
X92422491Y-2276823D01*
X92422491Y-2331534D01*
X92356545Y-2331534D01*
X92336104Y-2332309D01*
X92315997Y-2334635D01*
X92296224Y-2338510D01*
X92276785Y-2343937D01*
X92257679Y-2350913D01*
X92238908Y-2359440D01*
X92231493Y-2363285D01*
X92213591Y-2374001D01*
X92198354Y-2386914D01*
X92185782Y-2402024D01*
X92175874Y-2419332D01*
X92171409Y-2430208D01*
X92166097Y-2450158D01*
X92162509Y-2471794D01*
X92160189Y-2492383D01*
X92158357Y-2515887D01*
X92157304Y-2535429D01*
X92156525Y-2556611D01*
X92156022Y-2579433D01*
X92155793Y-2603895D01*
X92155777Y-2612413D01*
X92155777Y-3817996D01*
X92155936Y-3843799D01*
X92156413Y-3867901D01*
X92157207Y-3890304D01*
X92158319Y-3911007D01*
X92160296Y-3935965D01*
X92162838Y-3957901D01*
X92166809Y-3981071D01*
X92172739Y-4002641D01*
X92173851Y-4005574D01*
X92183825Y-4024272D01*
X92196518Y-4039529D01*
X92212813Y-4053505D01*
X92230027Y-4064681D01*
X92249087Y-4074250D01*
X92268410Y-4082198D01*
X92287994Y-4088523D01*
X92307842Y-4093227D01*
X92327951Y-4096309D01*
X92348323Y-4097768D01*
X92356545Y-4097898D01*
X92422491Y-4097898D01*
X92422491Y-4152609D01*
X91625282Y-4152609D01*
X91625282Y-4097898D01*
X91691228Y-4097898D01*
X91712115Y-4097301D01*
X91731911Y-4095511D01*
X91756610Y-4091267D01*
X91779371Y-4084902D01*
X91800192Y-4076414D01*
X91819075Y-4065805D01*
X91836020Y-4053074D01*
X91851025Y-4038221D01*
X91857801Y-4029999D01*
X91869422Y-4009116D01*
X91875833Y-3990309D01*
X91881176Y-3967595D01*
X91884482Y-3947994D01*
X91887187Y-3926195D01*
X91889290Y-3902199D01*
X91890793Y-3876003D01*
X91891695Y-3847610D01*
X91891962Y-3827460D01*
X91891995Y-3817019D01*
X91891995Y-3245979D01*
X91026399Y-3245979D01*
X91026399Y-3817019D01*
X91026557Y-3842909D01*
X91027034Y-3867091D01*
X91027828Y-3889563D01*
X91028940Y-3910327D01*
X91030917Y-3935354D01*
X91033459Y-3957344D01*
X91037430Y-3980559D01*
X91043361Y-4002152D01*
X91044473Y-4005086D01*
X91054562Y-4023822D01*
X91067553Y-4039179D01*
X91084329Y-4053314D01*
X91102114Y-4064681D01*
X91120752Y-4074250D01*
X91139723Y-4082198D01*
X91159029Y-4088523D01*
X91178669Y-4093227D01*
X91198642Y-4096309D01*
X91218950Y-4097768D01*
X91227166Y-4097898D01*
X91294577Y-4097898D01*
X91294577Y-4152609D01*
X90495903Y-4152609D01*
X90495903Y-4097898D01*
X90561849Y-4097898D01*
X90582998Y-4097306D01*
X90603030Y-4095528D01*
X90628004Y-4091315D01*
X90650993Y-4084995D01*
X90671998Y-4076569D01*
X90691019Y-4066036D01*
X90708055Y-4053396D01*
X90723106Y-4038650D01*
X90729888Y-4030487D01*
X90741010Y-4009621D01*
X90747147Y-3990845D01*
X90752261Y-3968177D01*
X90755425Y-3948620D01*
X90758014Y-3926875D01*
X90760027Y-3902939D01*
X90761466Y-3876814D01*
X90762329Y-3848500D01*
X90762584Y-3828407D01*
X90762616Y-3817996D01*
X90762616Y-2612413D01*
X90762462Y-2586436D01*
X90761998Y-2562175D01*
X90761225Y-2539633D01*
X90760143Y-2518807D01*
X90758220Y-2493711D01*
X90755747Y-2471668D01*
X90751883Y-2448408D01*
X90746113Y-2426792D01*
X90745031Y-2423858D01*
X90734821Y-2405160D01*
X90721983Y-2389903D01*
X90705604Y-2375927D01*
X90688366Y-2364751D01*
X90669306Y-2355182D01*
X90649984Y-2347234D01*
X90630399Y-2340909D01*
X90610552Y-2336205D01*
X90590443Y-2333123D01*
X90570071Y-2331664D01*
X90561849Y-2331534D01*
X90495903Y-2331534D01*
X90495903Y-2276823D01*
X91294577Y-2276823D01*
X91294577Y-2331534D01*
X91227166Y-2331534D01*
X91206725Y-2332309D01*
X91186618Y-2334635D01*
X91166845Y-2338510D01*
X91147406Y-2343937D01*
X91128300Y-2350913D01*
X91109529Y-2359440D01*
X91102114Y-2363285D01*
X91084760Y-2373978D01*
X91069883Y-2386820D01*
X91055916Y-2404131D01*
X91046349Y-2421582D01*
X91043007Y-2429719D01*
X91037363Y-2449652D01*
X91033551Y-2471247D01*
X91031086Y-2491787D01*
X91029140Y-2515226D01*
X91027712Y-2541566D01*
X91026982Y-2563225D01*
X91026545Y-2586515D01*
X91026399Y-2611436D01*
X91026399Y-3144374D01*
G37*
G36*
X92820118Y-3878568D02*
G01*
X92839767Y-3879665D01*
X92862024Y-3883878D01*
X92882838Y-3891251D01*
X92902209Y-3901784D01*
X92920138Y-3915477D01*
X92928562Y-3923509D01*
X92943503Y-3940831D01*
X92955352Y-3959458D01*
X92964111Y-3979391D01*
X92969778Y-4000628D01*
X92972354Y-4023171D01*
X92972526Y-4030976D01*
X92970946Y-4054137D01*
X92966206Y-4075993D01*
X92958306Y-4096543D01*
X92947246Y-4115789D01*
X92933027Y-4133729D01*
X92927585Y-4139419D01*
X92910263Y-4154526D01*
X92891635Y-4166507D01*
X92871703Y-4175363D01*
X92850465Y-4181093D01*
X92827922Y-4183698D01*
X92820118Y-4183872D01*
X92797123Y-4182309D01*
X92775399Y-4177620D01*
X92754945Y-4169807D01*
X92735763Y-4158867D01*
X92717851Y-4144802D01*
X92712163Y-4139419D01*
X92697056Y-4121914D01*
X92685075Y-4103104D01*
X92676219Y-4082988D01*
X92670489Y-4061567D01*
X92667884Y-4038841D01*
X92667710Y-4030976D01*
X92668796Y-4011326D01*
X92672963Y-3989070D01*
X92680256Y-3968256D01*
X92690675Y-3948884D01*
X92704219Y-3930955D01*
X92712163Y-3922532D01*
X92729651Y-3907591D01*
X92748410Y-3895741D01*
X92768440Y-3886983D01*
X92789740Y-3881316D01*
X92812312Y-3878740D01*
X92820118Y-3878568D01*
G37*
G36*
X94036447Y-4097898D02*
G01*
X94036447Y-4152609D01*
X93237773Y-4152609D01*
X93237773Y-4097898D01*
X93303719Y-4097898D01*
X93324868Y-4097306D01*
X93344901Y-4095528D01*
X93369874Y-4091315D01*
X93392864Y-4084995D01*
X93413869Y-4076569D01*
X93432889Y-4066036D01*
X93449925Y-4053396D01*
X93464976Y-4038650D01*
X93471758Y-4030487D01*
X93482881Y-4009621D01*
X93489017Y-3990845D01*
X93494131Y-3968177D01*
X93497295Y-3948620D01*
X93499884Y-3926875D01*
X93501898Y-3902939D01*
X93503336Y-3876814D01*
X93504199Y-3848500D01*
X93504455Y-3828407D01*
X93504486Y-3817996D01*
X93504486Y-2611436D01*
X93504332Y-2585633D01*
X93503868Y-2561530D01*
X93503095Y-2539128D01*
X93502014Y-2518425D01*
X93500090Y-2493467D01*
X93497617Y-2471531D01*
X93493753Y-2448361D01*
X93487983Y-2426791D01*
X93486901Y-2423858D01*
X93476691Y-2405160D01*
X93463853Y-2389903D01*
X93447474Y-2375927D01*
X93430237Y-2364751D01*
X93411177Y-2355182D01*
X93391854Y-2347234D01*
X93372270Y-2340909D01*
X93352422Y-2336205D01*
X93332313Y-2333123D01*
X93311941Y-2331664D01*
X93303719Y-2331534D01*
X93237773Y-2331534D01*
X93237773Y-2276823D01*
X94036447Y-2276823D01*
X94036447Y-2331534D01*
X93969036Y-2331534D01*
X93948149Y-2332126D01*
X93928353Y-2333904D01*
X93903654Y-2338117D01*
X93880893Y-2344437D01*
X93860072Y-2352863D01*
X93841189Y-2363396D01*
X93824244Y-2376036D01*
X93809239Y-2390782D01*
X93802463Y-2398945D01*
X93790842Y-2419810D01*
X93784431Y-2438587D01*
X93779088Y-2461255D01*
X93775782Y-2480812D01*
X93773077Y-2502557D01*
X93770974Y-2526493D01*
X93769471Y-2552617D01*
X93768569Y-2580932D01*
X93768302Y-2601025D01*
X93768269Y-2611436D01*
X93768269Y-3817996D01*
X93768428Y-3843799D01*
X93768904Y-3867901D01*
X93769698Y-3890304D01*
X93770810Y-3911007D01*
X93772787Y-3935965D01*
X93775329Y-3957901D01*
X93779300Y-3981071D01*
X93785231Y-4002641D01*
X93786343Y-4005574D01*
X93796432Y-4024272D01*
X93809423Y-4039529D01*
X93826199Y-4053505D01*
X93843984Y-4064681D01*
X93862622Y-4074250D01*
X93881594Y-4082198D01*
X93900899Y-4088523D01*
X93920539Y-4093227D01*
X93940512Y-4096309D01*
X93960820Y-4097768D01*
X93969036Y-4097898D01*
X94036447Y-4097898D01*
G37*
G36*
X94451660Y-3878568D02*
G01*
X94471309Y-3879665D01*
X94493566Y-3883878D01*
X94514380Y-3891251D01*
X94533752Y-3901784D01*
X94551681Y-3915477D01*
X94560104Y-3923509D01*
X94575045Y-3940831D01*
X94586894Y-3959458D01*
X94595653Y-3979391D01*
X94601320Y-4000628D01*
X94603896Y-4023171D01*
X94604068Y-4030976D01*
X94602488Y-4054137D01*
X94597748Y-4075993D01*
X94589848Y-4096543D01*
X94578789Y-4115789D01*
X94564569Y-4133729D01*
X94559127Y-4139419D01*
X94541805Y-4154526D01*
X94523178Y-4166507D01*
X94503245Y-4175363D01*
X94482007Y-4181093D01*
X94459465Y-4183698D01*
X94451660Y-4183872D01*
X94428665Y-4182309D01*
X94406941Y-4177620D01*
X94386487Y-4169807D01*
X94367305Y-4158867D01*
X94349393Y-4144802D01*
X94343705Y-4139419D01*
X94328598Y-4121914D01*
X94316617Y-4103104D01*
X94307761Y-4082988D01*
X94302031Y-4061567D01*
X94299426Y-4038841D01*
X94299253Y-4030976D01*
X94300338Y-4011326D01*
X94304505Y-3989070D01*
X94311798Y-3968256D01*
X94322217Y-3948884D01*
X94335761Y-3930955D01*
X94343705Y-3922532D01*
X94361193Y-3907591D01*
X94379952Y-3895741D01*
X94399982Y-3886983D01*
X94421283Y-3881316D01*
X94443854Y-3878740D01*
X94451660Y-3878568D01*
G37*
G36*
X96796880Y-2276823D02*
G01*
X96796880Y-2331534D01*
X96772960Y-2336472D01*
X96750535Y-2342250D01*
X96729606Y-2348867D01*
X96710174Y-2356324D01*
X96692237Y-2364621D01*
X96671920Y-2376173D01*
X96653941Y-2389036D01*
X96647403Y-2394548D01*
X96629459Y-2412516D01*
X96616332Y-2427454D01*
X96603487Y-2443645D01*
X96590927Y-2461090D01*
X96578649Y-2479789D01*
X96566655Y-2499742D01*
X96554944Y-2520948D01*
X96543517Y-2543408D01*
X96532373Y-2567121D01*
X96521512Y-2592088D01*
X96517955Y-2600689D01*
X95868269Y-4183872D01*
X95817466Y-4183872D01*
X95119420Y-2579685D01*
X95109712Y-2557441D01*
X95100552Y-2536871D01*
X95091943Y-2517977D01*
X95081318Y-2495388D01*
X95071671Y-2475776D01*
X95060985Y-2455447D01*
X95050177Y-2437192D01*
X95044193Y-2428742D01*
X95030638Y-2413458D01*
X95015983Y-2399479D01*
X95000230Y-2386805D01*
X94983377Y-2375436D01*
X94965425Y-2365373D01*
X94959197Y-2362308D01*
X94939276Y-2353934D01*
X94916882Y-2346761D01*
X94896331Y-2341702D01*
X94874063Y-2337478D01*
X94850078Y-2334088D01*
X94829653Y-2331978D01*
X94824375Y-2331534D01*
X94824375Y-2276823D01*
X95585436Y-2276823D01*
X95585436Y-2331534D01*
X95561962Y-2333995D01*
X95540087Y-2336800D01*
X95519808Y-2339949D01*
X95495254Y-2344681D01*
X95473539Y-2350024D01*
X95454664Y-2355977D01*
X95435062Y-2364278D01*
X95417396Y-2375498D01*
X95402550Y-2390040D01*
X95391350Y-2406312D01*
X95383015Y-2427027D01*
X95379629Y-2447006D01*
X95379295Y-2456098D01*
X95380833Y-2479482D01*
X95384279Y-2500869D01*
X95389694Y-2524636D01*
X95395048Y-2544025D01*
X95401510Y-2564753D01*
X95409079Y-2586821D01*
X95417756Y-2610228D01*
X95427540Y-2634975D01*
X95438432Y-2661061D01*
X95442309Y-2670054D01*
X95916629Y-3760354D01*
X96356266Y-2683732D01*
X96364074Y-2664265D01*
X96371378Y-2645554D01*
X96381391Y-2618904D01*
X96390269Y-2593954D01*
X96398014Y-2570704D01*
X96404626Y-2549154D01*
X96410104Y-2529305D01*
X96415646Y-2505483D01*
X96419172Y-2484685D01*
X96420746Y-2462936D01*
X96418243Y-2443367D01*
X96410732Y-2424224D01*
X96400053Y-2407825D01*
X96385541Y-2391753D01*
X96380690Y-2387221D01*
X96363912Y-2374238D01*
X96343252Y-2362766D01*
X96323071Y-2354361D01*
X96300195Y-2347005D01*
X96279953Y-2341876D01*
X96257987Y-2337419D01*
X96246357Y-2335442D01*
X96226909Y-2332236D01*
X96222909Y-2331534D01*
X96222909Y-2276823D01*
X96796880Y-2276823D01*
G37*
G36*
X96812023Y-3878568D02*
G01*
X96831672Y-3879665D01*
X96853929Y-3883878D01*
X96874743Y-3891251D01*
X96894114Y-3901784D01*
X96912043Y-3915477D01*
X96920467Y-3923509D01*
X96935408Y-3940831D01*
X96947257Y-3959458D01*
X96956016Y-3979391D01*
X96961683Y-4000628D01*
X96964259Y-4023171D01*
X96964431Y-4030976D01*
X96962851Y-4054137D01*
X96958111Y-4075993D01*
X96950211Y-4096543D01*
X96939152Y-4115789D01*
X96924932Y-4133729D01*
X96919490Y-4139419D01*
X96902168Y-4154526D01*
X96883540Y-4166507D01*
X96863608Y-4175363D01*
X96842370Y-4181093D01*
X96819827Y-4183698D01*
X96812023Y-4183872D01*
X96789028Y-4182309D01*
X96767304Y-4177620D01*
X96746850Y-4169807D01*
X96727668Y-4158867D01*
X96709756Y-4144802D01*
X96704068Y-4139419D01*
X96688961Y-4121914D01*
X96676980Y-4103104D01*
X96668124Y-4082988D01*
X96662394Y-4061567D01*
X96659789Y-4038841D01*
X96659616Y-4030976D01*
X96660701Y-4011326D01*
X96664868Y-3989070D01*
X96672161Y-3968256D01*
X96682580Y-3948884D01*
X96696124Y-3930955D01*
X96704068Y-3922532D01*
X96721556Y-3907591D01*
X96740315Y-3895741D01*
X96760345Y-3886983D01*
X96781645Y-3881316D01*
X96804217Y-3878740D01*
X96812023Y-3878568D01*
G37*
G36*
X98840216Y-3793083D02*
G01*
X98849930Y-3815897D01*
X98859534Y-3837688D01*
X98869027Y-3858456D01*
X98878409Y-3878202D01*
X98887681Y-3896924D01*
X98896842Y-3914624D01*
X98910376Y-3939257D01*
X98923661Y-3961588D01*
X98936697Y-3981618D01*
X98949484Y-3999346D01*
X98962022Y-4014773D01*
X98978352Y-4031764D01*
X98982365Y-4035372D01*
X98999141Y-4048531D01*
X99017475Y-4060163D01*
X99037366Y-4070268D01*
X99058813Y-4078847D01*
X99081818Y-4085900D01*
X99106379Y-4091426D01*
X99125822Y-4094568D01*
X99146141Y-4096852D01*
X99160174Y-4097898D01*
X99160174Y-4152609D01*
X98425003Y-4152609D01*
X98425003Y-4097898D01*
X98445250Y-4096667D01*
X98470270Y-4094332D01*
X98493030Y-4091202D01*
X98513531Y-4087279D01*
X98535981Y-4081259D01*
X98554900Y-4073999D01*
X98572943Y-4063649D01*
X98575456Y-4061750D01*
X98590683Y-4047441D01*
X98603506Y-4029543D01*
X98611444Y-4009996D01*
X98614497Y-3988800D01*
X98614535Y-3986035D01*
X98613200Y-3965742D01*
X98609193Y-3942109D01*
X98604063Y-3920799D01*
X98597225Y-3897352D01*
X98590974Y-3878364D01*
X98583761Y-3858174D01*
X98575586Y-3836782D01*
X98566450Y-3814187D01*
X98559825Y-3798456D01*
X98446985Y-3535163D01*
X97725980Y-3535163D01*
X97599462Y-3823858D01*
X97591081Y-3843352D01*
X97583525Y-3861902D01*
X97574732Y-3885166D01*
X97567405Y-3906751D01*
X97561543Y-3926657D01*
X97556277Y-3949178D01*
X97553300Y-3969075D01*
X97552567Y-3983104D01*
X97555101Y-4003468D01*
X97562704Y-4022549D01*
X97575374Y-4040348D01*
X97590617Y-4054871D01*
X97593112Y-4056865D01*
X97611630Y-4067982D01*
X97632126Y-4076039D01*
X97651837Y-4081695D01*
X97674495Y-4086649D01*
X97700098Y-4090900D01*
X97721234Y-4093628D01*
X97744028Y-4095960D01*
X97768478Y-4097898D01*
X97768478Y-4152609D01*
X97181807Y-4152609D01*
X97181807Y-4097898D01*
X97202971Y-4093940D01*
X97222685Y-4089758D01*
X97246712Y-4083835D01*
X97268160Y-4077515D01*
X97287028Y-4070799D01*
X97306985Y-4061845D01*
X97325612Y-4050281D01*
X97332749Y-4044165D01*
X97350563Y-4025671D01*
X97364225Y-4009006D01*
X97378144Y-3989945D01*
X97392320Y-3968488D01*
X97406754Y-3944636D01*
X97416520Y-3927403D01*
X97426401Y-3909106D01*
X97436396Y-3889744D01*
X97446505Y-3869317D01*
X97456729Y-3847826D01*
X97467067Y-3825270D01*
X97477520Y-3801649D01*
X97488087Y-3776963D01*
X97635088Y-3433558D01*
X97768478Y-3433558D01*
X98408883Y-3433558D01*
X98092833Y-2672985D01*
X97768478Y-3433558D01*
X97635088Y-3433558D01*
X98143635Y-2245560D01*
X98191507Y-2245560D01*
X98840216Y-3793083D01*
G37*
G36*
X99531911Y-3878568D02*
G01*
X99551561Y-3879665D01*
X99573817Y-3883878D01*
X99594631Y-3891251D01*
X99614003Y-3901784D01*
X99631932Y-3915477D01*
X99640355Y-3923509D01*
X99655296Y-3940831D01*
X99667146Y-3959458D01*
X99675904Y-3979391D01*
X99681571Y-4000628D01*
X99684147Y-4023171D01*
X99684319Y-4030976D01*
X99682739Y-4054137D01*
X99677999Y-4075993D01*
X99670099Y-4096543D01*
X99659040Y-4115789D01*
X99644820Y-4133729D01*
X99639378Y-4139419D01*
X99622056Y-4154526D01*
X99603429Y-4166507D01*
X99583496Y-4175363D01*
X99562259Y-4181093D01*
X99539716Y-4183698D01*
X99531911Y-4183872D01*
X99508916Y-4182309D01*
X99487192Y-4177620D01*
X99466739Y-4169807D01*
X99447556Y-4158867D01*
X99429644Y-4144802D01*
X99423956Y-4139419D01*
X99408849Y-4121914D01*
X99396868Y-4103104D01*
X99388012Y-4082988D01*
X99382282Y-4061567D01*
X99379678Y-4038841D01*
X99379504Y-4030976D01*
X99380589Y-4011326D01*
X99384757Y-3989070D01*
X99392050Y-3968256D01*
X99402468Y-3948884D01*
X99416012Y-3930955D01*
X99423956Y-3922532D01*
X99441444Y-3907591D01*
X99460203Y-3895741D01*
X99480233Y-3886983D01*
X99501534Y-3881316D01*
X99524105Y-3878740D01*
X99531911Y-3878568D01*
G37*
G36*
X91211353Y-5636993D02*
G01*
X91246591Y-5637503D01*
X91280611Y-5638352D01*
X91313414Y-5639541D01*
X91345000Y-5641069D01*
X91375368Y-5642937D01*
X91404519Y-5645145D01*
X91432452Y-5647692D01*
X91459168Y-5650579D01*
X91484667Y-5653806D01*
X91508948Y-5657372D01*
X91532012Y-5661278D01*
X91553858Y-5665524D01*
X91574487Y-5670109D01*
X91593899Y-5675034D01*
X91612093Y-5680299D01*
X91638185Y-5688998D01*
X91663521Y-5698978D01*
X91688102Y-5710236D01*
X91711927Y-5722774D01*
X91734997Y-5736591D01*
X91757311Y-5751688D01*
X91778869Y-5768064D01*
X91799671Y-5785720D01*
X91819718Y-5804655D01*
X91839010Y-5824869D01*
X91851451Y-5839057D01*
X91868998Y-5861159D01*
X91884819Y-5884051D01*
X91898914Y-5907733D01*
X91911283Y-5932205D01*
X91921926Y-5957467D01*
X91930843Y-5983519D01*
X91938035Y-6010360D01*
X91943500Y-6037992D01*
X91947239Y-6066414D01*
X91949253Y-6095626D01*
X91949637Y-6115539D01*
X91949200Y-6136794D01*
X91947889Y-6157694D01*
X91945704Y-6178239D01*
X91942645Y-6198429D01*
X91938712Y-6218265D01*
X91933906Y-6237745D01*
X91928225Y-6256870D01*
X91921671Y-6275641D01*
X91914242Y-6294056D01*
X91905940Y-6312117D01*
X91896764Y-6329822D01*
X91886713Y-6347173D01*
X91875789Y-6364169D01*
X91863991Y-6380810D01*
X91851319Y-6397096D01*
X91837773Y-6413027D01*
X91823310Y-6428493D01*
X91807884Y-6443382D01*
X91791497Y-6457695D01*
X91774148Y-6471432D01*
X91755837Y-6484592D01*
X91736565Y-6497176D01*
X91716331Y-6509184D01*
X91695135Y-6520616D01*
X91672978Y-6531472D01*
X91649859Y-6541751D01*
X91625778Y-6551454D01*
X91600736Y-6560580D01*
X91574731Y-6569131D01*
X91547765Y-6577105D01*
X91519838Y-6584503D01*
X91490948Y-6591324D01*
X91875387Y-7132567D01*
X91891728Y-7155344D01*
X91907779Y-7177149D01*
X91923541Y-7197980D01*
X91939012Y-7217838D01*
X91954193Y-7236723D01*
X91969084Y-7254635D01*
X91983686Y-7271573D01*
X91997997Y-7287539D01*
X92012018Y-7302531D01*
X92025749Y-7316550D01*
X92045801Y-7335754D01*
X92065202Y-7352769D01*
X92083949Y-7367594D01*
X92102044Y-7380229D01*
X92120324Y-7391287D01*
X92139625Y-7401564D01*
X92159948Y-7411059D01*
X92181293Y-7419773D01*
X92203660Y-7427706D01*
X92227049Y-7434857D01*
X92251459Y-7441227D01*
X92276891Y-7446816D01*
X92303345Y-7451623D01*
X92330821Y-7455648D01*
X92349706Y-7457898D01*
X92349706Y-7512609D01*
X91851939Y-7512609D01*
X91221304Y-6626984D01*
X91200107Y-6627688D01*
X91180174Y-6628272D01*
X91157923Y-6628816D01*
X91137493Y-6629188D01*
X91115958Y-6629405D01*
X91107487Y-6629426D01*
X91087594Y-6629289D01*
X91068897Y-6628938D01*
X91049341Y-6628265D01*
X91029141Y-6627163D01*
X91026399Y-6626984D01*
X91026399Y-7175065D01*
X91026549Y-7196825D01*
X91027002Y-7217533D01*
X91027755Y-7237187D01*
X91029451Y-7264692D01*
X91031825Y-7289828D01*
X91034878Y-7312595D01*
X91038609Y-7332991D01*
X91044639Y-7356499D01*
X91051874Y-7375794D01*
X91062615Y-7393989D01*
X91064989Y-7396837D01*
X91078865Y-7411148D01*
X91094359Y-7423551D01*
X91111471Y-7434046D01*
X91130202Y-7442633D01*
X91150550Y-7449311D01*
X91172517Y-7454082D01*
X91196102Y-7456944D01*
X91221304Y-7457898D01*
X91294577Y-7457898D01*
X91294577Y-7512609D01*
X90495903Y-7512609D01*
X90495903Y-7457898D01*
X90566245Y-7457898D01*
X90587818Y-7457220D01*
X90608205Y-7455185D01*
X90633545Y-7450361D01*
X90656779Y-7443125D01*
X90677906Y-7433478D01*
X90696926Y-7421418D01*
X90713840Y-7406947D01*
X90728647Y-7390063D01*
X90735261Y-7380717D01*
X90745056Y-7360642D01*
X90751670Y-7337589D01*
X90755948Y-7315008D01*
X90759325Y-7288748D01*
X90761267Y-7266639D01*
X90762703Y-7242460D01*
X90763631Y-7216212D01*
X90764054Y-7187895D01*
X90764082Y-7177996D01*
X90764082Y-6541987D01*
X91026399Y-6541987D01*
X91046622Y-6542149D01*
X91066951Y-6542735D01*
X91071828Y-6542964D01*
X91092212Y-6543372D01*
X91103579Y-6543453D01*
X91136346Y-6543001D01*
X91168090Y-6541644D01*
X91198811Y-6539383D01*
X91228510Y-6536217D01*
X91257185Y-6532147D01*
X91284838Y-6527173D01*
X91311468Y-6521294D01*
X91337075Y-6514510D01*
X91361660Y-6506822D01*
X91385222Y-6498230D01*
X91407761Y-6488733D01*
X91429277Y-6478332D01*
X91449771Y-6467026D01*
X91469241Y-6454816D01*
X91487689Y-6441701D01*
X91505115Y-6427682D01*
X91521500Y-6412962D01*
X91536828Y-6397747D01*
X91551099Y-6382035D01*
X91564313Y-6365827D01*
X91576470Y-6349123D01*
X91587569Y-6331923D01*
X91597612Y-6314227D01*
X91606597Y-6296035D01*
X91614526Y-6277346D01*
X91621397Y-6258162D01*
X91627211Y-6238481D01*
X91631968Y-6218305D01*
X91635668Y-6197632D01*
X91638311Y-6176463D01*
X91639897Y-6154798D01*
X91640425Y-6132636D01*
X91639998Y-6111032D01*
X91638715Y-6089940D01*
X91636578Y-6069358D01*
X91633586Y-6049289D01*
X91629739Y-6029730D01*
X91625038Y-6010683D01*
X91616382Y-5983071D01*
X91605804Y-5956610D01*
X91593301Y-5931299D01*
X91578876Y-5907139D01*
X91562527Y-5884130D01*
X91544254Y-5862271D01*
X91531004Y-5848338D01*
X91509957Y-5828696D01*
X91487665Y-5810986D01*
X91464127Y-5795208D01*
X91439345Y-5781362D01*
X91413317Y-5769448D01*
X91386044Y-5759466D01*
X91367171Y-5753884D01*
X91347744Y-5749162D01*
X91327764Y-5745298D01*
X91307230Y-5742292D01*
X91286143Y-5740146D01*
X91264503Y-5738858D01*
X91242309Y-5738428D01*
X91221518Y-5738917D01*
X91198956Y-5740382D01*
X91174623Y-5742825D01*
X91155212Y-5745298D01*
X91134804Y-5748320D01*
X91113401Y-5751892D01*
X91091001Y-5756014D01*
X91067605Y-5760685D01*
X91043213Y-5765906D01*
X91026399Y-5769692D01*
X91026399Y-6541987D01*
X90764082Y-6541987D01*
X90764082Y-5971436D01*
X90763931Y-5949914D01*
X90763479Y-5929434D01*
X90762235Y-5900667D01*
X90760313Y-5874245D01*
X90757713Y-5850166D01*
X90754434Y-5828432D01*
X90750477Y-5809042D01*
X90744146Y-5786835D01*
X90736609Y-5768795D01*
X90725491Y-5752106D01*
X90711249Y-5737909D01*
X90695388Y-5725606D01*
X90677910Y-5715195D01*
X90658813Y-5706677D01*
X90638098Y-5700052D01*
X90615765Y-5695320D01*
X90591814Y-5692480D01*
X90566245Y-5691534D01*
X90495903Y-5691534D01*
X90495903Y-5636823D01*
X91174898Y-5636823D01*
X91211353Y-5636993D01*
G37*
G36*
X92902184Y-5738428D02*
G01*
X92902184Y-6480927D01*
X93311535Y-6480927D01*
X93340466Y-6480489D01*
X93367543Y-6479175D01*
X93392764Y-6476985D01*
X93416132Y-6473920D01*
X93437644Y-6469979D01*
X93457302Y-6465162D01*
X93480627Y-6457376D01*
X93500655Y-6448034D01*
X93517386Y-6437135D01*
X93524514Y-6431101D01*
X93541360Y-6413058D01*
X93556235Y-6391900D01*
X93566100Y-6373988D01*
X93574857Y-6354325D01*
X93582506Y-6332910D01*
X93589048Y-6309743D01*
X93594482Y-6284825D01*
X93598808Y-6258154D01*
X93602027Y-6229732D01*
X93603557Y-6209811D01*
X93604138Y-6199559D01*
X93654940Y-6199559D01*
X93654940Y-6856084D01*
X93604138Y-6856084D01*
X93600561Y-6831829D01*
X93596976Y-6809258D01*
X93593383Y-6788369D01*
X93589781Y-6769164D01*
X93584965Y-6746174D01*
X93580133Y-6726177D01*
X93574072Y-6705388D01*
X93566768Y-6686612D01*
X93565547Y-6684137D01*
X93555255Y-6667089D01*
X93542695Y-6651485D01*
X93527869Y-6637322D01*
X93510776Y-6624603D01*
X93491416Y-6613325D01*
X93484459Y-6609887D01*
X93465425Y-6602006D01*
X93443433Y-6595461D01*
X93423711Y-6591187D01*
X93402095Y-6587768D01*
X93378587Y-6585203D01*
X93353186Y-6583493D01*
X93332893Y-6582772D01*
X93311535Y-6582532D01*
X92902184Y-6582532D01*
X92902184Y-7200955D01*
X92902278Y-7223369D01*
X92902561Y-7244083D01*
X92903233Y-7269056D01*
X92904241Y-7291008D01*
X92905972Y-7314196D01*
X92908743Y-7335789D01*
X92912930Y-7352385D01*
X92922559Y-7369586D01*
X92935998Y-7384247D01*
X92951521Y-7395372D01*
X92970849Y-7402928D01*
X92991332Y-7407096D01*
X93012684Y-7409477D01*
X93033154Y-7410622D01*
X93056057Y-7411003D01*
X93372107Y-7411003D01*
X93400931Y-7410810D01*
X93428235Y-7410231D01*
X93454019Y-7409265D01*
X93478284Y-7407912D01*
X93501028Y-7406173D01*
X93522253Y-7404048D01*
X93541958Y-7401537D01*
X93565867Y-7397587D01*
X93587074Y-7392950D01*
X93601207Y-7389022D01*
X93623503Y-7381103D01*
X93645514Y-7371085D01*
X93662916Y-7361560D01*
X93680135Y-7350691D01*
X93697171Y-7338479D01*
X93714024Y-7324923D01*
X93730694Y-7310024D01*
X93738960Y-7302071D01*
X93754935Y-7285191D01*
X93770988Y-7266791D01*
X93787118Y-7246872D01*
X93803325Y-7225432D01*
X93819610Y-7202473D01*
X93835972Y-7177994D01*
X93846923Y-7160830D01*
X93857908Y-7142991D01*
X93868927Y-7124476D01*
X93879981Y-7105286D01*
X93891069Y-7085420D01*
X93902192Y-7064879D01*
X93913349Y-7043662D01*
X93968059Y-7043662D01*
X93807348Y-7512609D01*
X92371688Y-7512609D01*
X92371688Y-7457898D01*
X92437634Y-7457898D01*
X92458075Y-7457123D01*
X92478182Y-7454797D01*
X92497955Y-7450921D01*
X92517394Y-7445495D01*
X92536500Y-7438518D01*
X92555271Y-7429991D01*
X92562686Y-7426147D01*
X92580564Y-7415478D01*
X92595731Y-7402705D01*
X92609745Y-7385532D01*
X92619101Y-7368251D01*
X92622281Y-7360201D01*
X92627760Y-7340303D01*
X92631459Y-7318788D01*
X92633852Y-7298348D01*
X92635741Y-7275038D01*
X92637126Y-7248859D01*
X92637835Y-7227340D01*
X92638260Y-7204208D01*
X92638401Y-7179461D01*
X92638401Y-5965574D01*
X92638262Y-5943882D01*
X92637844Y-5923259D01*
X92637148Y-5903705D01*
X92635581Y-5876376D01*
X92633387Y-5851452D01*
X92630566Y-5828932D01*
X92627118Y-5808816D01*
X92621547Y-5785735D01*
X92614861Y-5766929D01*
X92604936Y-5749431D01*
X92602742Y-5746733D01*
X92585573Y-5730831D01*
X92565209Y-5717624D01*
X92546616Y-5708999D01*
X92525977Y-5702099D01*
X92503293Y-5696924D01*
X92478563Y-5693474D01*
X92458674Y-5692019D01*
X92437634Y-5691534D01*
X92371688Y-5691534D01*
X92371688Y-5636823D01*
X93807348Y-5636823D01*
X93827864Y-6043244D01*
X93774619Y-6043244D01*
X93769159Y-6016661D01*
X93763588Y-5991683D01*
X93757905Y-5968312D01*
X93752111Y-5946546D01*
X93746204Y-5926386D01*
X93738156Y-5902004D01*
X93729909Y-5880476D01*
X93721463Y-5861803D01*
X93710627Y-5842476D01*
X93698826Y-5826011D01*
X93685402Y-5810810D01*
X93670356Y-5796874D01*
X93653688Y-5784201D01*
X93635399Y-5772793D01*
X93615487Y-5762649D01*
X93607068Y-5758945D01*
X93587780Y-5753034D01*
X93564412Y-5748126D01*
X93542781Y-5744920D01*
X93518540Y-5742355D01*
X93498646Y-5740853D01*
X93477284Y-5739711D01*
X93454453Y-5738929D01*
X93430155Y-5738509D01*
X93413140Y-5738428D01*
X92902184Y-5738428D01*
G37*
G36*
X96021165Y-5636823D02*
G01*
X96021165Y-5691534D01*
X95997244Y-5696472D01*
X95974820Y-5702250D01*
X95953891Y-5708867D01*
X95934459Y-5716324D01*
X95916522Y-5724621D01*
X95896205Y-5736173D01*
X95878225Y-5749036D01*
X95871688Y-5754548D01*
X95853744Y-5772516D01*
X95840616Y-5787454D01*
X95827772Y-5803645D01*
X95815211Y-5821090D01*
X95802934Y-5839789D01*
X95790940Y-5859742D01*
X95779229Y-5880948D01*
X95767801Y-5903408D01*
X95756657Y-5927121D01*
X95745797Y-5952088D01*
X95742239Y-5960689D01*
X95092553Y-7543872D01*
X95041751Y-7543872D01*
X94343705Y-5939685D01*
X94333996Y-5917441D01*
X94324837Y-5896871D01*
X94316228Y-5877977D01*
X94305603Y-5855388D01*
X94295955Y-5835776D01*
X94285270Y-5815447D01*
X94274462Y-5797192D01*
X94268478Y-5788742D01*
X94254923Y-5773458D01*
X94240268Y-5759479D01*
X94224514Y-5746805D01*
X94207662Y-5735436D01*
X94189710Y-5725373D01*
X94183482Y-5722308D01*
X94163561Y-5713934D01*
X94141167Y-5706761D01*
X94120616Y-5701702D01*
X94098348Y-5697478D01*
X94074362Y-5694088D01*
X94053937Y-5691978D01*
X94048660Y-5691534D01*
X94048660Y-5636823D01*
X94809720Y-5636823D01*
X94809720Y-5691534D01*
X94786247Y-5693995D01*
X94764371Y-5696800D01*
X94744092Y-5699949D01*
X94719538Y-5704681D01*
X94697824Y-5710024D01*
X94678948Y-5715977D01*
X94659347Y-5724278D01*
X94641681Y-5735498D01*
X94626835Y-5750040D01*
X94615635Y-5766312D01*
X94607300Y-5787027D01*
X94603914Y-5807006D01*
X94603579Y-5816098D01*
X94605118Y-5839482D01*
X94608564Y-5860869D01*
X94613979Y-5884636D01*
X94619333Y-5904025D01*
X94625794Y-5924753D01*
X94633364Y-5946821D01*
X94642040Y-5970228D01*
X94651825Y-5994975D01*
X94662717Y-6021061D01*
X94666594Y-6030054D01*
X95140914Y-7120354D01*
X95580551Y-6043732D01*
X95588359Y-6024265D01*
X95595663Y-6005554D01*
X95605675Y-5978904D01*
X95614554Y-5953954D01*
X95622299Y-5930704D01*
X95628911Y-5909154D01*
X95634389Y-5889305D01*
X95639930Y-5865483D01*
X95643457Y-5844685D01*
X95645031Y-5822936D01*
X95642527Y-5803367D01*
X95635017Y-5784224D01*
X95624338Y-5767825D01*
X95609825Y-5751753D01*
X95604975Y-5747221D01*
X95588197Y-5734238D01*
X95567537Y-5722766D01*
X95547356Y-5714361D01*
X95524480Y-5707005D01*
X95504238Y-5701876D01*
X95482272Y-5697419D01*
X95470641Y-5695442D01*
X95451194Y-5692236D01*
X95447194Y-5691534D01*
X95447194Y-5636823D01*
X96021165Y-5636823D01*
G37*
G36*
X97022560Y-5826844D02*
G01*
X97475875Y-5605560D01*
X97521304Y-5605560D01*
X97521304Y-7179950D01*
X97521416Y-7208311D01*
X97521751Y-7234595D01*
X97522309Y-7258801D01*
X97523090Y-7280929D01*
X97524095Y-7300979D01*
X97525782Y-7324479D01*
X97527866Y-7344286D01*
X97531028Y-7363849D01*
X97534005Y-7375344D01*
X97542340Y-7393510D01*
X97554155Y-7409416D01*
X97569451Y-7423063D01*
X97588227Y-7434451D01*
X97606786Y-7441526D01*
X97626816Y-7446478D01*
X97650997Y-7450571D01*
X97673330Y-7453227D01*
X97698319Y-7455334D01*
X97718804Y-7456553D01*
X97740783Y-7457463D01*
X97756266Y-7457898D01*
X97756266Y-7512609D01*
X97055777Y-7512609D01*
X97055777Y-7457898D01*
X97079683Y-7457203D01*
X97101939Y-7456215D01*
X97122547Y-7454936D01*
X97147460Y-7452776D01*
X97169442Y-7450097D01*
X97192798Y-7446018D01*
X97214780Y-7440053D01*
X97225771Y-7435428D01*
X97243600Y-7424559D01*
X97260155Y-7410288D01*
X97273001Y-7393853D01*
X97279504Y-7381694D01*
X97285404Y-7360520D01*
X97288732Y-7337525D01*
X97290861Y-7314405D01*
X97292148Y-7294311D01*
X97293168Y-7271856D01*
X97293922Y-7247039D01*
X97294410Y-7219861D01*
X97294632Y-7190321D01*
X97294647Y-7179950D01*
X97294647Y-6173669D01*
X97294594Y-6148777D01*
X97294433Y-6125027D01*
X97294166Y-6102417D01*
X97293792Y-6080949D01*
X97293311Y-6060621D01*
X97292390Y-6032269D01*
X97291228Y-6006485D01*
X97289825Y-5983268D01*
X97288182Y-5962619D01*
X97285618Y-5939080D01*
X97281811Y-5916075D01*
X97280969Y-5912329D01*
X97275108Y-5891813D01*
X97266177Y-5872235D01*
X97254774Y-5856367D01*
X97245798Y-5847849D01*
X97228921Y-5836772D01*
X97210040Y-5829798D01*
X97189155Y-5826926D01*
X97184738Y-5826844D01*
X97164279Y-5828356D01*
X97141003Y-5832889D01*
X97119455Y-5838976D01*
X97100809Y-5845357D01*
X97080911Y-5853081D01*
X97059761Y-5862149D01*
X97043077Y-5869831D01*
X97022560Y-5826844D01*
G37*
G36*
X98443565Y-7238568D02*
G01*
X98463214Y-7239665D01*
X98485471Y-7243878D01*
X98506285Y-7251251D01*
X98525657Y-7261784D01*
X98543586Y-7275477D01*
X98552009Y-7283509D01*
X98566950Y-7300831D01*
X98578800Y-7319458D01*
X98587558Y-7339391D01*
X98593225Y-7360628D01*
X98595801Y-7383171D01*
X98595973Y-7390976D01*
X98594393Y-7414137D01*
X98589653Y-7435993D01*
X98581753Y-7456543D01*
X98570694Y-7475789D01*
X98556474Y-7493729D01*
X98551032Y-7499419D01*
X98533710Y-7514526D01*
X98515083Y-7526507D01*
X98495150Y-7535363D01*
X98473913Y-7541093D01*
X98451370Y-7543698D01*
X98443565Y-7543872D01*
X98420570Y-7542309D01*
X98398846Y-7537620D01*
X98378393Y-7529807D01*
X98359210Y-7518867D01*
X98341298Y-7504802D01*
X98335610Y-7499419D01*
X98320503Y-7481914D01*
X98308522Y-7463104D01*
X98299666Y-7442988D01*
X98293936Y-7421567D01*
X98291331Y-7398841D01*
X98291158Y-7390976D01*
X98292243Y-7371326D01*
X98296410Y-7349070D01*
X98303703Y-7328256D01*
X98314122Y-7308884D01*
X98327666Y-7290955D01*
X98335610Y-7282532D01*
X98353098Y-7267591D01*
X98371857Y-7255741D01*
X98391887Y-7246983D01*
X98413188Y-7241316D01*
X98435759Y-7238740D01*
X98443565Y-7238568D01*
G37*
G36*
X99121095Y-5826844D02*
G01*
X99574410Y-5605560D01*
X99619839Y-5605560D01*
X99619839Y-7179950D01*
X99619951Y-7208311D01*
X99620285Y-7234595D01*
X99620844Y-7258801D01*
X99621625Y-7280929D01*
X99622630Y-7300979D01*
X99624316Y-7324479D01*
X99626400Y-7344286D01*
X99629563Y-7363849D01*
X99632540Y-7375344D01*
X99640874Y-7393510D01*
X99652690Y-7409416D01*
X99667985Y-7423063D01*
X99686761Y-7434451D01*
X99705320Y-7441526D01*
X99725351Y-7446478D01*
X99749532Y-7450571D01*
X99771865Y-7453227D01*
X99796854Y-7455334D01*
X99817339Y-7456553D01*
X99839318Y-7457463D01*
X99854801Y-7457898D01*
X99854801Y-7512609D01*
X99154312Y-7512609D01*
X99154312Y-7457898D01*
X99178217Y-7457203D01*
X99200474Y-7456215D01*
X99221082Y-7454936D01*
X99245995Y-7452776D01*
X99267977Y-7450097D01*
X99291332Y-7446018D01*
X99313314Y-7440053D01*
X99324305Y-7435428D01*
X99342135Y-7424559D01*
X99358690Y-7410288D01*
X99371536Y-7393853D01*
X99378038Y-7381694D01*
X99383939Y-7360520D01*
X99387266Y-7337525D01*
X99389396Y-7314405D01*
X99390682Y-7294311D01*
X99391703Y-7271856D01*
X99392457Y-7247039D01*
X99392945Y-7219861D01*
X99393167Y-7190321D01*
X99393182Y-7179950D01*
X99393182Y-6173669D01*
X99393128Y-6148777D01*
X99392968Y-6125027D01*
X99392701Y-6102417D01*
X99392327Y-6080949D01*
X99391846Y-6060621D01*
X99390924Y-6032269D01*
X99389762Y-6006485D01*
X99388360Y-5983268D01*
X99386717Y-5962619D01*
X99384152Y-5939080D01*
X99380345Y-5916075D01*
X99379504Y-5912329D01*
X99373642Y-5891813D01*
X99364712Y-5872235D01*
X99353309Y-5856367D01*
X99344333Y-5847849D01*
X99327455Y-5836772D01*
X99308574Y-5829798D01*
X99287690Y-5826926D01*
X99283272Y-5826844D01*
X99262813Y-5828356D01*
X99239538Y-5832889D01*
X99217990Y-5838976D01*
X99199343Y-5845357D01*
X99179445Y-5853081D01*
X99158295Y-5862149D01*
X99141611Y-5869831D01*
X99121095Y-5826844D01*
G37*
X44758851Y-44341275D02*
X44282660Y-44674608D01*
X44758851Y-44912703D02*
X43758851Y-44912703D01*
X43758851Y-44912703D02*
X43758851Y-44531751D01*
X43758851Y-44531751D02*
X43806470Y-44436513D01*
X43806470Y-44436513D02*
X43854089Y-44388894D01*
X43854089Y-44388894D02*
X43949327Y-44341275D01*
X43949327Y-44341275D02*
X44092184Y-44341275D01*
X44092184Y-44341275D02*
X44187422Y-44388894D01*
X44187422Y-44388894D02*
X44235041Y-44436513D01*
X44235041Y-44436513D02*
X44282660Y-44531751D01*
X44282660Y-44531751D02*
X44282660Y-44912703D01*
X43758851Y-44007941D02*
X43758851Y-43388894D01*
X43758851Y-43388894D02*
X44139803Y-43722227D01*
X44139803Y-43722227D02*
X44139803Y-43579370D01*
X44139803Y-43579370D02*
X44187422Y-43484132D01*
X44187422Y-43484132D02*
X44235041Y-43436513D01*
X44235041Y-43436513D02*
X44330279Y-43388894D01*
X44330279Y-43388894D02*
X44568374Y-43388894D01*
X44568374Y-43388894D02*
X44663612Y-43436513D01*
X44663612Y-43436513D02*
X44711232Y-43484132D01*
X44711232Y-43484132D02*
X44758851Y-43579370D01*
X44758851Y-43579370D02*
X44758851Y-43865084D01*
X44758851Y-43865084D02*
X44711232Y-43960322D01*
X44711232Y-43960322D02*
X44663612Y-44007941D01*
X50854851Y-44341275D02*
X50378660Y-44674608D01*
X50854851Y-44912703D02*
X49854851Y-44912703D01*
X49854851Y-44912703D02*
X49854851Y-44531751D01*
X49854851Y-44531751D02*
X49902470Y-44436513D01*
X49902470Y-44436513D02*
X49950089Y-44388894D01*
X49950089Y-44388894D02*
X50045327Y-44341275D01*
X50045327Y-44341275D02*
X50188184Y-44341275D01*
X50188184Y-44341275D02*
X50283422Y-44388894D01*
X50283422Y-44388894D02*
X50331041Y-44436513D01*
X50331041Y-44436513D02*
X50378660Y-44531751D01*
X50378660Y-44531751D02*
X50378660Y-44912703D01*
X49950089Y-43960322D02*
X49902470Y-43912703D01*
X49902470Y-43912703D02*
X49854851Y-43817465D01*
X49854851Y-43817465D02*
X49854851Y-43579370D01*
X49854851Y-43579370D02*
X49902470Y-43484132D01*
X49902470Y-43484132D02*
X49950089Y-43436513D01*
X49950089Y-43436513D02*
X50045327Y-43388894D01*
X50045327Y-43388894D02*
X50140565Y-43388894D01*
X50140565Y-43388894D02*
X50283422Y-43436513D01*
X50283422Y-43436513D02*
X50854851Y-44007941D01*
X50854851Y-44007941D02*
X50854851Y-43388894D01*
X56950851Y-44341275D02*
X56474660Y-44674608D01*
X56950851Y-44912703D02*
X55950851Y-44912703D01*
X55950851Y-44912703D02*
X55950851Y-44531751D01*
X55950851Y-44531751D02*
X55998470Y-44436513D01*
X55998470Y-44436513D02*
X56046089Y-44388894D01*
X56046089Y-44388894D02*
X56141327Y-44341275D01*
X56141327Y-44341275D02*
X56284184Y-44341275D01*
X56284184Y-44341275D02*
X56379422Y-44388894D01*
X56379422Y-44388894D02*
X56427041Y-44436513D01*
X56427041Y-44436513D02*
X56474660Y-44531751D01*
X56474660Y-44531751D02*
X56474660Y-44912703D01*
X56950851Y-43388894D02*
X56950851Y-43960322D01*
X56950851Y-43674608D02*
X55950851Y-43674608D01*
X55950851Y-43674608D02*
X56093708Y-43769846D01*
X56093708Y-43769846D02*
X56188946Y-43865084D01*
X56188946Y-43865084D02*
X56236565Y-43960322D01*
D11*
X7731365Y-54800028D02*
X7255175Y-54800028D01*
X7255175Y-54800028D02*
X7255175Y-53800028D01*
X8588508Y-54800028D02*
X8017080Y-54800028D01*
X8302794Y-54800028D02*
X8302794Y-53800028D01*
X8302794Y-53800028D02*
X8207556Y-53942885D01*
X8207556Y-53942885D02*
X8112318Y-54038123D01*
X8112318Y-54038123D02*
X8017080Y-54085742D01*
D10*
X33245861Y-4623859D02*
X34055806Y-4623859D01*
X34055806Y-4623859D02*
X34151094Y-4576216D01*
X34151094Y-4576216D02*
X34198738Y-4528572D01*
X34198738Y-4528572D02*
X34246381Y-4433284D01*
X34246381Y-4433284D02*
X34246381Y-4242709D01*
X34246381Y-4242709D02*
X34198738Y-4147421D01*
X34198738Y-4147421D02*
X34151094Y-4099778D01*
X34151094Y-4099778D02*
X34055806Y-4052134D01*
X34055806Y-4052134D02*
X33245861Y-4052134D01*
X34246381Y-3051614D02*
X34246381Y-3623339D01*
X34246381Y-3337476D02*
X33245861Y-3337476D01*
X33245861Y-3337476D02*
X33388793Y-3432764D01*
X33388793Y-3432764D02*
X33484080Y-3528052D01*
X33484080Y-3528052D02*
X33531724Y-3623339D01*
X95932714Y-55922104D02*
X96408904Y-55922104D01*
X95837476Y-56207819D02*
X96170809Y-55207819D01*
X96170809Y-55207819D02*
X96504142Y-56207819D01*
X97361285Y-56207819D02*
X96789857Y-56207819D01*
X97075571Y-56207819D02*
X97075571Y-55207819D01*
X97075571Y-55207819D02*
X96980333Y-55350676D01*
X96980333Y-55350676D02*
X96885095Y-55445914D01*
X96885095Y-55445914D02*
X96789857Y-55493533D01*
X42791737Y-39878428D02*
X42791737Y-38878428D01*
X42791737Y-38878428D02*
X43029832Y-38878428D01*
X43029832Y-38878428D02*
X43172689Y-38926047D01*
X43172689Y-38926047D02*
X43267927Y-39021285D01*
X43267927Y-39021285D02*
X43315546Y-39116523D01*
X43315546Y-39116523D02*
X43363165Y-39306999D01*
X43363165Y-39306999D02*
X43363165Y-39449856D01*
X43363165Y-39449856D02*
X43315546Y-39640332D01*
X43315546Y-39640332D02*
X43267927Y-39735570D01*
X43267927Y-39735570D02*
X43172689Y-39830809D01*
X43172689Y-39830809D02*
X43029832Y-39878428D01*
X43029832Y-39878428D02*
X42791737Y-39878428D01*
X44315546Y-39878428D02*
X43744118Y-39878428D01*
X44029832Y-39878428D02*
X44029832Y-38878428D01*
X44029832Y-38878428D02*
X43934594Y-39021285D01*
X43934594Y-39021285D02*
X43839356Y-39116523D01*
X43839356Y-39116523D02*
X43744118Y-39164142D01*
X39877041Y-31314371D02*
X39924660Y-31171514D01*
X39924660Y-31171514D02*
X39972279Y-31123895D01*
X39972279Y-31123895D02*
X40067517Y-31076276D01*
X40067517Y-31076276D02*
X40210374Y-31076276D01*
X40210374Y-31076276D02*
X40305612Y-31123895D01*
X40305612Y-31123895D02*
X40353232Y-31171514D01*
X40353232Y-31171514D02*
X40400851Y-31266752D01*
X40400851Y-31266752D02*
X40400851Y-31647704D01*
X40400851Y-31647704D02*
X39400851Y-31647704D01*
X39400851Y-31647704D02*
X39400851Y-31314371D01*
X39400851Y-31314371D02*
X39448470Y-31219133D01*
X39448470Y-31219133D02*
X39496089Y-31171514D01*
X39496089Y-31171514D02*
X39591327Y-31123895D01*
X39591327Y-31123895D02*
X39686565Y-31123895D01*
X39686565Y-31123895D02*
X39781803Y-31171514D01*
X39781803Y-31171514D02*
X39829422Y-31219133D01*
X39829422Y-31219133D02*
X39877041Y-31314371D01*
X39877041Y-31314371D02*
X39877041Y-31647704D01*
X39734184Y-30219133D02*
X40400851Y-30219133D01*
X39734184Y-30647704D02*
X40257993Y-30647704D01*
X40257993Y-30647704D02*
X40353232Y-30600085D01*
X40353232Y-30600085D02*
X40400851Y-30504847D01*
X40400851Y-30504847D02*
X40400851Y-30361990D01*
X40400851Y-30361990D02*
X40353232Y-30266752D01*
X40353232Y-30266752D02*
X40305612Y-30219133D01*
X39734184Y-29838180D02*
X39734184Y-29314371D01*
X39734184Y-29314371D02*
X40400851Y-29838180D01*
X40400851Y-29838180D02*
X40400851Y-29314371D01*
X39734184Y-29028656D02*
X39734184Y-28504847D01*
X39734184Y-28504847D02*
X40400851Y-29028656D01*
X40400851Y-29028656D02*
X40400851Y-28504847D01*
X40353232Y-27742942D02*
X40400851Y-27838180D01*
X40400851Y-27838180D02*
X40400851Y-28028656D01*
X40400851Y-28028656D02*
X40353232Y-28123894D01*
X40353232Y-28123894D02*
X40257993Y-28171513D01*
X40257993Y-28171513D02*
X39877041Y-28171513D01*
X39877041Y-28171513D02*
X39781803Y-28123894D01*
X39781803Y-28123894D02*
X39734184Y-28028656D01*
X39734184Y-28028656D02*
X39734184Y-27838180D01*
X39734184Y-27838180D02*
X39781803Y-27742942D01*
X39781803Y-27742942D02*
X39877041Y-27695323D01*
X39877041Y-27695323D02*
X39972279Y-27695323D01*
X39972279Y-27695323D02*
X40067517Y-28171513D01*
X40400851Y-27266751D02*
X39734184Y-27266751D01*
X39924660Y-27266751D02*
X39829422Y-27219132D01*
X39829422Y-27219132D02*
X39781803Y-27171513D01*
X39781803Y-27171513D02*
X39734184Y-27076275D01*
X39734184Y-27076275D02*
X39734184Y-26981037D01*
X40400851Y-26123894D02*
X40400851Y-26695322D01*
X40400851Y-26409608D02*
X39400851Y-26409608D01*
X39400851Y-26409608D02*
X39543708Y-26504846D01*
X39543708Y-26504846D02*
X39638946Y-26600084D01*
X39638946Y-26600084D02*
X39686565Y-26695322D01*
X20330851Y-54921942D02*
X21045136Y-54921942D01*
X21045136Y-54921942D02*
X21187993Y-54969561D01*
X21187993Y-54969561D02*
X21283232Y-55064799D01*
X21283232Y-55064799D02*
X21330851Y-55207656D01*
X21330851Y-55207656D02*
X21330851Y-55302894D01*
X21330851Y-53921942D02*
X21330851Y-54493370D01*
X21330851Y-54207656D02*
X20330851Y-54207656D01*
X20330851Y-54207656D02*
X20473708Y-54302894D01*
X20473708Y-54302894D02*
X20568946Y-54398132D01*
X20568946Y-54398132D02*
X20616565Y-54493370D01*
D12*
%TO.C,R3*%
X40564032Y-47444609D02*
X40894032Y-47444609D01*
X43304032Y-40904609D02*
X43304032Y-47444609D01*
X40564032Y-40904609D02*
X40564032Y-47444609D01*
X40894032Y-40904609D02*
X40564032Y-40904609D01*
X42974032Y-40904609D02*
X43304032Y-40904609D01*
X43304032Y-47444609D02*
X42974032Y-47444609D01*
%TO.C,R2*%
X46660032Y-47444609D02*
X46990032Y-47444609D01*
X49400032Y-40904609D02*
X49400032Y-47444609D01*
X46660032Y-40904609D02*
X46660032Y-47444609D01*
X46990032Y-40904609D02*
X46660032Y-40904609D01*
X49070032Y-40904609D02*
X49400032Y-40904609D01*
X49400032Y-47444609D02*
X49070032Y-47444609D01*
%TO.C,R1*%
X52756032Y-47444609D02*
X53086032Y-47444609D01*
X55496032Y-40904609D02*
X55496032Y-47444609D01*
X52756032Y-40904609D02*
X52756032Y-47444609D01*
X53086032Y-40904609D02*
X52756032Y-40904609D01*
X55166032Y-40904609D02*
X55496032Y-40904609D01*
X55496032Y-47444609D02*
X55166032Y-47444609D01*
D11*
%TO.C,L1*%
X3326032Y-52937609D02*
X4088032Y-52175609D01*
X3326032Y-57509609D02*
X3326032Y-52937609D01*
X4088032Y-52175609D02*
X12216032Y-52175609D01*
X12216032Y-52175609D02*
X12216032Y-57509609D01*
X12216032Y-57509609D02*
X3326032Y-57509609D01*
D13*
%TO.C,U1*%
X32838032Y-846609D02*
X32838032Y-45846609D01*
X31638032Y-846609D02*
X32838032Y-846609D01*
X31638032Y-1846609D02*
X31638032Y-846609D01*
X31638032Y-1846609D02*
X17838032Y-1846609D01*
X17838032Y-1846609D02*
X17838032Y-17846609D01*
X31638032Y-17846609D02*
X31638032Y-1846609D01*
X31638032Y-17846609D02*
X17838032Y-17846609D01*
X31638032Y-28846609D02*
X31638032Y-17846609D01*
X31638032Y-28846609D02*
X17838032Y-28846609D01*
X17838032Y-28846609D02*
X17838032Y-44846609D01*
X31638032Y-44846609D02*
X31638032Y-28846609D01*
X31638032Y-44846609D02*
X17838032Y-44846609D01*
X32838032Y-45846609D02*
X31638032Y-45846609D01*
X31638032Y-45846609D02*
X31638032Y-44846609D01*
%TO.C,A1*%
X101092000Y-52791000D02*
X101049681Y-53066000D01*
X101092000Y-1501100D02*
X101092000Y-52791000D01*
X101049681Y-53066000D02*
X100965041Y-53298800D01*
X101049681Y-1247191D02*
X101092000Y-1501100D01*
X100965041Y-53298800D02*
X100795769Y-53510400D01*
X100965041Y-1014441D02*
X101049681Y-1247191D01*
X100795769Y-53510400D02*
X100584181Y-53658500D01*
X100795769Y-802841D02*
X100965041Y-1014441D01*
X100584181Y-53658500D02*
X100351431Y-53764300D01*
X100584181Y-633569D02*
X100795769Y-802841D01*
X100351431Y-53764300D02*
X100097519Y-53806600D01*
X100351431Y-548931D02*
X100584181Y-633569D01*
X100097519Y-53806600D02*
X36620000Y-53806600D01*
X100097519Y-506619D02*
X100351431Y-548931D01*
X36620000Y-53806600D02*
X35096500Y-52283100D01*
X36091000Y-506619D02*
X100097519Y-506619D01*
X35837100Y-548931D02*
X36091000Y-506619D01*
X35604300Y-633569D02*
X35837100Y-548931D01*
X35392700Y-802841D02*
X35604300Y-633569D01*
X35223400Y-1014441D02*
X35392700Y-802841D01*
X35138800Y-1247191D02*
X35223400Y-1014441D01*
X35096500Y-52283100D02*
X35096500Y-40857200D01*
X35096500Y-40857200D02*
X32557400Y-38318100D01*
X35096500Y-3045720D02*
X35096500Y-1501100D01*
X35096500Y-1501100D02*
X35138800Y-1247191D01*
X32557400Y-38318100D02*
X32557400Y-5584820D01*
X32557400Y-5584820D02*
X35096500Y-3045720D01*
%TO.C,D1*%
X46454832Y-36152562D02*
X46454832Y-36850659D01*
X46454832Y-33718559D02*
X46454832Y-34416656D01*
X43966032Y-38234609D02*
G75*
G03*
X46454832Y-36850659I-30061J2983878D01*
G01*
X43966032Y-32334609D02*
G75*
G03*
X43966032Y-38234609I0J-2950000D01*
G01*
X46454831Y-33718559D02*
G75*
G03*
X43966032Y-32334609I-2518857J-1599921D01*
G01*
D14*
X46860032Y-36300609D02*
G75*
G03*
X46660032Y-36300609I-100000J0D01*
G01*
X46660032Y-36300609D02*
G75*
G03*
X46860032Y-36300609I100000J0D01*
G01*
D12*
%TO.C,Buzzer1*%
X43986032Y-30239609D02*
X46586032Y-30239609D01*
X43986032Y-30239609D02*
X43986032Y-27579609D01*
X46586032Y-30239609D02*
X46586032Y-27579609D01*
X41386032Y-28909609D02*
X41386032Y-27579609D01*
X41386032Y-27579609D02*
X42716032Y-27579609D01*
X43986032Y-27579609D02*
X46586032Y-27579609D01*
%TO.C,J1*%
X24916032Y-55918609D02*
X30056032Y-55918609D01*
X24916032Y-55918609D02*
X24916032Y-53258609D01*
X30056032Y-55918609D02*
X30056032Y-53258609D01*
X22316032Y-54588609D02*
X22316032Y-53258609D01*
X22316032Y-53258609D02*
X23646032Y-53258609D01*
X24916032Y-53258609D02*
X30056032Y-53258609D01*
%TD*%
M02*
