%TF.GenerationSoftware,KiCad,Pcbnew,8.0.8*%
%TF.CreationDate,2025-02-15T02:14:24-07:00*%
%TF.ProjectId,bubble_detector_v2_shield,62756262-6c65-45f6-9465-746563746f72,rev?*%
%TF.SameCoordinates,Original*%
%TF.FileFunction,Drillmap*%
%TF.FilePolarity,Positive*%
%FSLAX45Y45*%
G04 Gerber Fmt 4.5, Leading zero omitted, Abs format (unit mm)*
G04 Created by KiCad (PCBNEW 8.0.8) date 2025-02-15 02:14:24*
%MOMM*%
%LPD*%
G01*
G04 APERTURE LIST*
%ADD10C,0.150000*%
%ADD11C,0.200000*%
%ADD12C,0.100000*%
%ADD13C,0.102000*%
G04 APERTURE END LIST*
D10*
X9950000Y-4400000D02*
X10850000Y-4400000D01*
X9950000Y-10300000D02*
X9950000Y-4400000D01*
X10850000Y-10300000D02*
X9950000Y-10300000D01*
X17000000Y-10300000D02*
X17000000Y-10200000D01*
X10850000Y-10300000D02*
X17000000Y-10300000D01*
X17000000Y-4400000D02*
X10850000Y-4400000D01*
X17000000Y-10200000D02*
X17000000Y-4400000D01*
D11*
D12*
X11830000Y-8092500D02*
X11870000Y-8132500D01*
X11870000Y-8092500D02*
X11830000Y-8132500D01*
X12580000Y-9080000D02*
X12620000Y-9120000D01*
X12620000Y-9080000D02*
X12580000Y-9120000D01*
X14517500Y-5089230D02*
X14557500Y-5129230D01*
X14557500Y-5089230D02*
X14517500Y-5129230D01*
X16330000Y-5154570D02*
X16370000Y-5194570D01*
X16370000Y-5154570D02*
X16330000Y-5194570D01*
X12165000Y-7450000D02*
G75*
G02*
X12085000Y-7450000I-40000J0D01*
G01*
X12085000Y-7450000D02*
G75*
G02*
X12165000Y-7450000I40000J0D01*
G01*
X12815000Y-7450000D02*
G75*
G02*
X12735000Y-7450000I-40000J0D01*
G01*
X12735000Y-7450000D02*
G75*
G02*
X12815000Y-7450000I40000J0D01*
G01*
X11879600Y-4870000D02*
X11879600Y-4970000D01*
X11829600Y-4920000D02*
X11929600Y-4920000D01*
X12133600Y-4870000D02*
X12133600Y-4970000D01*
X12083600Y-4920000D02*
X12183600Y-4920000D01*
X12387600Y-4870000D02*
X12387600Y-4970000D01*
X12337600Y-4920000D02*
X12437600Y-4920000D01*
X12641600Y-4870000D02*
X12641600Y-4970000D01*
X12591600Y-4920000D02*
X12691600Y-4920000D01*
X12794000Y-9696000D02*
X12794000Y-9796000D01*
X12744000Y-9746000D02*
X12844000Y-9746000D01*
X12895600Y-4870000D02*
X12895600Y-4970000D01*
X12845600Y-4920000D02*
X12945600Y-4920000D01*
X13048000Y-9696000D02*
X13048000Y-9796000D01*
X12998000Y-9746000D02*
X13098000Y-9746000D01*
X13149600Y-4870000D02*
X13149600Y-4970000D01*
X13099600Y-4920000D02*
X13199600Y-4920000D01*
X13302000Y-9696000D02*
X13302000Y-9796000D01*
X13252000Y-9746000D02*
X13352000Y-9746000D01*
X13403600Y-4870000D02*
X13403600Y-4970000D01*
X13353600Y-4920000D02*
X13453600Y-4920000D01*
X13556000Y-9696000D02*
X13556000Y-9796000D01*
X13506000Y-9746000D02*
X13606000Y-9746000D01*
X13657600Y-4870000D02*
X13657600Y-4970000D01*
X13607600Y-4920000D02*
X13707600Y-4920000D01*
X13810000Y-9696000D02*
X13810000Y-9796000D01*
X13760000Y-9746000D02*
X13860000Y-9746000D01*
X13911600Y-4870000D02*
X13911600Y-4970000D01*
X13861600Y-4920000D02*
X13961600Y-4920000D01*
X14064000Y-9696000D02*
X14064000Y-9796000D01*
X14014000Y-9746000D02*
X14114000Y-9746000D01*
X14165600Y-4870000D02*
X14165600Y-4970000D01*
X14115600Y-4920000D02*
X14215600Y-4920000D01*
X14318000Y-9696000D02*
X14318000Y-9796000D01*
X14268000Y-9746000D02*
X14368000Y-9746000D01*
X14572000Y-4870000D02*
X14572000Y-4970000D01*
X14522000Y-4920000D02*
X14622000Y-4920000D01*
X14572000Y-9696000D02*
X14572000Y-9796000D01*
X14522000Y-9746000D02*
X14622000Y-9746000D01*
X14826000Y-4870000D02*
X14826000Y-4970000D01*
X14776000Y-4920000D02*
X14876000Y-4920000D01*
X15080000Y-4870000D02*
X15080000Y-4970000D01*
X15030000Y-4920000D02*
X15130000Y-4920000D01*
X15080000Y-9696000D02*
X15080000Y-9796000D01*
X15030000Y-9746000D02*
X15130000Y-9746000D01*
X15334000Y-4870000D02*
X15334000Y-4970000D01*
X15284000Y-4920000D02*
X15384000Y-4920000D01*
X15334000Y-9696000D02*
X15334000Y-9796000D01*
X15284000Y-9746000D02*
X15384000Y-9746000D01*
X15588000Y-4870000D02*
X15588000Y-4970000D01*
X15538000Y-4920000D02*
X15638000Y-4920000D01*
X15588000Y-9696000D02*
X15588000Y-9796000D01*
X15538000Y-9746000D02*
X15638000Y-9746000D01*
X15842000Y-4870000D02*
X15842000Y-4970000D01*
X15792000Y-4920000D02*
X15892000Y-4920000D01*
X15842000Y-9696000D02*
X15842000Y-9796000D01*
X15792000Y-9746000D02*
X15892000Y-9746000D01*
X16096000Y-4870000D02*
X16096000Y-4970000D01*
X16046000Y-4920000D02*
X16146000Y-4920000D01*
X16096000Y-9696000D02*
X16096000Y-9796000D01*
X16046000Y-9746000D02*
X16146000Y-9746000D01*
X16350000Y-4870000D02*
X16350000Y-4970000D01*
X16300000Y-4920000D02*
X16400000Y-4920000D01*
X16350000Y-9696000D02*
X16350000Y-9796000D01*
X16300000Y-9746000D02*
X16400000Y-9746000D01*
D13*
X14573563Y-6955063D02*
X14573563Y-6882937D01*
X14501437Y-6882937D01*
X14501437Y-6955063D01*
X14573563Y-6955063D01*
X14573563Y-7209063D02*
X14573563Y-7136937D01*
X14501437Y-7136937D01*
X14501437Y-7209063D01*
X14573563Y-7209063D01*
X14573563Y-7463063D02*
X14573563Y-7390937D01*
X14501437Y-7390937D01*
X14501437Y-7463063D01*
X14573563Y-7463063D01*
X14573563Y-7717063D02*
X14573563Y-7644937D01*
X14501437Y-7644937D01*
X14501437Y-7717063D01*
X14573563Y-7717063D01*
D11*
X10203277Y-10618984D02*
X10203277Y-10418984D01*
X10203277Y-10418984D02*
X10250896Y-10418984D01*
X10250896Y-10418984D02*
X10279467Y-10428508D01*
X10279467Y-10428508D02*
X10298515Y-10447555D01*
X10298515Y-10447555D02*
X10308039Y-10466603D01*
X10308039Y-10466603D02*
X10317563Y-10504698D01*
X10317563Y-10504698D02*
X10317563Y-10533270D01*
X10317563Y-10533270D02*
X10308039Y-10571365D01*
X10308039Y-10571365D02*
X10298515Y-10590412D01*
X10298515Y-10590412D02*
X10279467Y-10609460D01*
X10279467Y-10609460D02*
X10250896Y-10618984D01*
X10250896Y-10618984D02*
X10203277Y-10618984D01*
X10403277Y-10618984D02*
X10403277Y-10485650D01*
X10403277Y-10523746D02*
X10412801Y-10504698D01*
X10412801Y-10504698D02*
X10422324Y-10495174D01*
X10422324Y-10495174D02*
X10441372Y-10485650D01*
X10441372Y-10485650D02*
X10460420Y-10485650D01*
X10527086Y-10618984D02*
X10527086Y-10485650D01*
X10527086Y-10418984D02*
X10517563Y-10428508D01*
X10517563Y-10428508D02*
X10527086Y-10438031D01*
X10527086Y-10438031D02*
X10536610Y-10428508D01*
X10536610Y-10428508D02*
X10527086Y-10418984D01*
X10527086Y-10418984D02*
X10527086Y-10438031D01*
X10650896Y-10618984D02*
X10631848Y-10609460D01*
X10631848Y-10609460D02*
X10622324Y-10590412D01*
X10622324Y-10590412D02*
X10622324Y-10418984D01*
X10755658Y-10618984D02*
X10736610Y-10609460D01*
X10736610Y-10609460D02*
X10727086Y-10590412D01*
X10727086Y-10590412D02*
X10727086Y-10418984D01*
X10984229Y-10618984D02*
X10984229Y-10418984D01*
X10984229Y-10418984D02*
X11050896Y-10561841D01*
X11050896Y-10561841D02*
X11117563Y-10418984D01*
X11117563Y-10418984D02*
X11117563Y-10618984D01*
X11298515Y-10618984D02*
X11298515Y-10514222D01*
X11298515Y-10514222D02*
X11288991Y-10495174D01*
X11288991Y-10495174D02*
X11269943Y-10485650D01*
X11269943Y-10485650D02*
X11231848Y-10485650D01*
X11231848Y-10485650D02*
X11212801Y-10495174D01*
X11298515Y-10609460D02*
X11279467Y-10618984D01*
X11279467Y-10618984D02*
X11231848Y-10618984D01*
X11231848Y-10618984D02*
X11212801Y-10609460D01*
X11212801Y-10609460D02*
X11203277Y-10590412D01*
X11203277Y-10590412D02*
X11203277Y-10571365D01*
X11203277Y-10571365D02*
X11212801Y-10552317D01*
X11212801Y-10552317D02*
X11231848Y-10542793D01*
X11231848Y-10542793D02*
X11279467Y-10542793D01*
X11279467Y-10542793D02*
X11298515Y-10533270D01*
X11393753Y-10485650D02*
X11393753Y-10685650D01*
X11393753Y-10495174D02*
X11412801Y-10485650D01*
X11412801Y-10485650D02*
X11450896Y-10485650D01*
X11450896Y-10485650D02*
X11469943Y-10495174D01*
X11469943Y-10495174D02*
X11479467Y-10504698D01*
X11479467Y-10504698D02*
X11488991Y-10523746D01*
X11488991Y-10523746D02*
X11488991Y-10580889D01*
X11488991Y-10580889D02*
X11479467Y-10599936D01*
X11479467Y-10599936D02*
X11469943Y-10609460D01*
X11469943Y-10609460D02*
X11450896Y-10618984D01*
X11450896Y-10618984D02*
X11412801Y-10618984D01*
X11412801Y-10618984D02*
X11393753Y-10609460D01*
X11574705Y-10599936D02*
X11584229Y-10609460D01*
X11584229Y-10609460D02*
X11574705Y-10618984D01*
X11574705Y-10618984D02*
X11565182Y-10609460D01*
X11565182Y-10609460D02*
X11574705Y-10599936D01*
X11574705Y-10599936D02*
X11574705Y-10618984D01*
X11574705Y-10495174D02*
X11584229Y-10504698D01*
X11584229Y-10504698D02*
X11574705Y-10514222D01*
X11574705Y-10514222D02*
X11565182Y-10504698D01*
X11565182Y-10504698D02*
X11574705Y-10495174D01*
X11574705Y-10495174D02*
X11574705Y-10514222D01*
D12*
X9902500Y-10927500D02*
X9942500Y-10967500D01*
X9942500Y-10927500D02*
X9902500Y-10967500D01*
D11*
X10241372Y-10838984D02*
X10260420Y-10838984D01*
X10260420Y-10838984D02*
X10279467Y-10848508D01*
X10279467Y-10848508D02*
X10288991Y-10858031D01*
X10288991Y-10858031D02*
X10298515Y-10877079D01*
X10298515Y-10877079D02*
X10308039Y-10915174D01*
X10308039Y-10915174D02*
X10308039Y-10962793D01*
X10308039Y-10962793D02*
X10298515Y-11000889D01*
X10298515Y-11000889D02*
X10288991Y-11019936D01*
X10288991Y-11019936D02*
X10279467Y-11029460D01*
X10279467Y-11029460D02*
X10260420Y-11038984D01*
X10260420Y-11038984D02*
X10241372Y-11038984D01*
X10241372Y-11038984D02*
X10222324Y-11029460D01*
X10222324Y-11029460D02*
X10212801Y-11019936D01*
X10212801Y-11019936D02*
X10203277Y-11000889D01*
X10203277Y-11000889D02*
X10193753Y-10962793D01*
X10193753Y-10962793D02*
X10193753Y-10915174D01*
X10193753Y-10915174D02*
X10203277Y-10877079D01*
X10203277Y-10877079D02*
X10212801Y-10858031D01*
X10212801Y-10858031D02*
X10222324Y-10848508D01*
X10222324Y-10848508D02*
X10241372Y-10838984D01*
X10393753Y-11019936D02*
X10403277Y-11029460D01*
X10403277Y-11029460D02*
X10393753Y-11038984D01*
X10393753Y-11038984D02*
X10384229Y-11029460D01*
X10384229Y-11029460D02*
X10393753Y-11019936D01*
X10393753Y-11019936D02*
X10393753Y-11038984D01*
X10574705Y-10905650D02*
X10574705Y-11038984D01*
X10527086Y-10829460D02*
X10479467Y-10972317D01*
X10479467Y-10972317D02*
X10603277Y-10972317D01*
X10717563Y-10838984D02*
X10736610Y-10838984D01*
X10736610Y-10838984D02*
X10755658Y-10848508D01*
X10755658Y-10848508D02*
X10765182Y-10858031D01*
X10765182Y-10858031D02*
X10774705Y-10877079D01*
X10774705Y-10877079D02*
X10784229Y-10915174D01*
X10784229Y-10915174D02*
X10784229Y-10962793D01*
X10784229Y-10962793D02*
X10774705Y-11000889D01*
X10774705Y-11000889D02*
X10765182Y-11019936D01*
X10765182Y-11019936D02*
X10755658Y-11029460D01*
X10755658Y-11029460D02*
X10736610Y-11038984D01*
X10736610Y-11038984D02*
X10717563Y-11038984D01*
X10717563Y-11038984D02*
X10698515Y-11029460D01*
X10698515Y-11029460D02*
X10688991Y-11019936D01*
X10688991Y-11019936D02*
X10679467Y-11000889D01*
X10679467Y-11000889D02*
X10669944Y-10962793D01*
X10669944Y-10962793D02*
X10669944Y-10915174D01*
X10669944Y-10915174D02*
X10679467Y-10877079D01*
X10679467Y-10877079D02*
X10688991Y-10858031D01*
X10688991Y-10858031D02*
X10698515Y-10848508D01*
X10698515Y-10848508D02*
X10717563Y-10838984D01*
X10908039Y-10838984D02*
X10927086Y-10838984D01*
X10927086Y-10838984D02*
X10946134Y-10848508D01*
X10946134Y-10848508D02*
X10955658Y-10858031D01*
X10955658Y-10858031D02*
X10965182Y-10877079D01*
X10965182Y-10877079D02*
X10974705Y-10915174D01*
X10974705Y-10915174D02*
X10974705Y-10962793D01*
X10974705Y-10962793D02*
X10965182Y-11000889D01*
X10965182Y-11000889D02*
X10955658Y-11019936D01*
X10955658Y-11019936D02*
X10946134Y-11029460D01*
X10946134Y-11029460D02*
X10927086Y-11038984D01*
X10927086Y-11038984D02*
X10908039Y-11038984D01*
X10908039Y-11038984D02*
X10888991Y-11029460D01*
X10888991Y-11029460D02*
X10879467Y-11019936D01*
X10879467Y-11019936D02*
X10869944Y-11000889D01*
X10869944Y-11000889D02*
X10860420Y-10962793D01*
X10860420Y-10962793D02*
X10860420Y-10915174D01*
X10860420Y-10915174D02*
X10869944Y-10877079D01*
X10869944Y-10877079D02*
X10879467Y-10858031D01*
X10879467Y-10858031D02*
X10888991Y-10848508D01*
X10888991Y-10848508D02*
X10908039Y-10838984D01*
X11060420Y-11038984D02*
X11060420Y-10905650D01*
X11060420Y-10924698D02*
X11069944Y-10915174D01*
X11069944Y-10915174D02*
X11088991Y-10905650D01*
X11088991Y-10905650D02*
X11117563Y-10905650D01*
X11117563Y-10905650D02*
X11136610Y-10915174D01*
X11136610Y-10915174D02*
X11146134Y-10934222D01*
X11146134Y-10934222D02*
X11146134Y-11038984D01*
X11146134Y-10934222D02*
X11155658Y-10915174D01*
X11155658Y-10915174D02*
X11174705Y-10905650D01*
X11174705Y-10905650D02*
X11203277Y-10905650D01*
X11203277Y-10905650D02*
X11222324Y-10915174D01*
X11222324Y-10915174D02*
X11231848Y-10934222D01*
X11231848Y-10934222D02*
X11231848Y-11038984D01*
X11327086Y-11038984D02*
X11327086Y-10905650D01*
X11327086Y-10924698D02*
X11336610Y-10915174D01*
X11336610Y-10915174D02*
X11355658Y-10905650D01*
X11355658Y-10905650D02*
X11384229Y-10905650D01*
X11384229Y-10905650D02*
X11403277Y-10915174D01*
X11403277Y-10915174D02*
X11412801Y-10934222D01*
X11412801Y-10934222D02*
X11412801Y-11038984D01*
X11412801Y-10934222D02*
X11422324Y-10915174D01*
X11422324Y-10915174D02*
X11441372Y-10905650D01*
X11441372Y-10905650D02*
X11469943Y-10905650D01*
X11469943Y-10905650D02*
X11488991Y-10915174D01*
X11488991Y-10915174D02*
X11498515Y-10934222D01*
X11498515Y-10934222D02*
X11498515Y-11038984D01*
X11888991Y-10829460D02*
X11717563Y-11086603D01*
X12146134Y-10838984D02*
X12165182Y-10838984D01*
X12165182Y-10838984D02*
X12184229Y-10848508D01*
X12184229Y-10848508D02*
X12193753Y-10858031D01*
X12193753Y-10858031D02*
X12203277Y-10877079D01*
X12203277Y-10877079D02*
X12212801Y-10915174D01*
X12212801Y-10915174D02*
X12212801Y-10962793D01*
X12212801Y-10962793D02*
X12203277Y-11000889D01*
X12203277Y-11000889D02*
X12193753Y-11019936D01*
X12193753Y-11019936D02*
X12184229Y-11029460D01*
X12184229Y-11029460D02*
X12165182Y-11038984D01*
X12165182Y-11038984D02*
X12146134Y-11038984D01*
X12146134Y-11038984D02*
X12127086Y-11029460D01*
X12127086Y-11029460D02*
X12117563Y-11019936D01*
X12117563Y-11019936D02*
X12108039Y-11000889D01*
X12108039Y-11000889D02*
X12098515Y-10962793D01*
X12098515Y-10962793D02*
X12098515Y-10915174D01*
X12098515Y-10915174D02*
X12108039Y-10877079D01*
X12108039Y-10877079D02*
X12117563Y-10858031D01*
X12117563Y-10858031D02*
X12127086Y-10848508D01*
X12127086Y-10848508D02*
X12146134Y-10838984D01*
X12298515Y-11019936D02*
X12308039Y-11029460D01*
X12308039Y-11029460D02*
X12298515Y-11038984D01*
X12298515Y-11038984D02*
X12288991Y-11029460D01*
X12288991Y-11029460D02*
X12298515Y-11019936D01*
X12298515Y-11019936D02*
X12298515Y-11038984D01*
X12431848Y-10838984D02*
X12450896Y-10838984D01*
X12450896Y-10838984D02*
X12469944Y-10848508D01*
X12469944Y-10848508D02*
X12479467Y-10858031D01*
X12479467Y-10858031D02*
X12488991Y-10877079D01*
X12488991Y-10877079D02*
X12498515Y-10915174D01*
X12498515Y-10915174D02*
X12498515Y-10962793D01*
X12498515Y-10962793D02*
X12488991Y-11000889D01*
X12488991Y-11000889D02*
X12479467Y-11019936D01*
X12479467Y-11019936D02*
X12469944Y-11029460D01*
X12469944Y-11029460D02*
X12450896Y-11038984D01*
X12450896Y-11038984D02*
X12431848Y-11038984D01*
X12431848Y-11038984D02*
X12412801Y-11029460D01*
X12412801Y-11029460D02*
X12403277Y-11019936D01*
X12403277Y-11019936D02*
X12393753Y-11000889D01*
X12393753Y-11000889D02*
X12384229Y-10962793D01*
X12384229Y-10962793D02*
X12384229Y-10915174D01*
X12384229Y-10915174D02*
X12393753Y-10877079D01*
X12393753Y-10877079D02*
X12403277Y-10858031D01*
X12403277Y-10858031D02*
X12412801Y-10848508D01*
X12412801Y-10848508D02*
X12431848Y-10838984D01*
X12688991Y-11038984D02*
X12574706Y-11038984D01*
X12631848Y-11038984D02*
X12631848Y-10838984D01*
X12631848Y-10838984D02*
X12612801Y-10867555D01*
X12612801Y-10867555D02*
X12593753Y-10886603D01*
X12593753Y-10886603D02*
X12574706Y-10896127D01*
X12869944Y-10838984D02*
X12774706Y-10838984D01*
X12774706Y-10838984D02*
X12765182Y-10934222D01*
X12765182Y-10934222D02*
X12774706Y-10924698D01*
X12774706Y-10924698D02*
X12793753Y-10915174D01*
X12793753Y-10915174D02*
X12841372Y-10915174D01*
X12841372Y-10915174D02*
X12860420Y-10924698D01*
X12860420Y-10924698D02*
X12869944Y-10934222D01*
X12869944Y-10934222D02*
X12879467Y-10953270D01*
X12879467Y-10953270D02*
X12879467Y-11000889D01*
X12879467Y-11000889D02*
X12869944Y-11019936D01*
X12869944Y-11019936D02*
X12860420Y-11029460D01*
X12860420Y-11029460D02*
X12841372Y-11038984D01*
X12841372Y-11038984D02*
X12793753Y-11038984D01*
X12793753Y-11038984D02*
X12774706Y-11029460D01*
X12774706Y-11029460D02*
X12765182Y-11019936D01*
X12946134Y-10838984D02*
X13079467Y-10838984D01*
X13079467Y-10838984D02*
X12993753Y-11038984D01*
X13146134Y-10838984D02*
X13146134Y-10877079D01*
X13222325Y-10838984D02*
X13222325Y-10877079D01*
X13517563Y-11115174D02*
X13508039Y-11105650D01*
X13508039Y-11105650D02*
X13488991Y-11077079D01*
X13488991Y-11077079D02*
X13479468Y-11058031D01*
X13479468Y-11058031D02*
X13469944Y-11029460D01*
X13469944Y-11029460D02*
X13460420Y-10981841D01*
X13460420Y-10981841D02*
X13460420Y-10943746D01*
X13460420Y-10943746D02*
X13469944Y-10896127D01*
X13469944Y-10896127D02*
X13479468Y-10867555D01*
X13479468Y-10867555D02*
X13488991Y-10848508D01*
X13488991Y-10848508D02*
X13508039Y-10819936D01*
X13508039Y-10819936D02*
X13517563Y-10810412D01*
X13679468Y-10905650D02*
X13679468Y-11038984D01*
X13631848Y-10829460D02*
X13584229Y-10972317D01*
X13584229Y-10972317D02*
X13708039Y-10972317D01*
X13936610Y-11038984D02*
X13936610Y-10838984D01*
X14022325Y-11038984D02*
X14022325Y-10934222D01*
X14022325Y-10934222D02*
X14012801Y-10915174D01*
X14012801Y-10915174D02*
X13993753Y-10905650D01*
X13993753Y-10905650D02*
X13965182Y-10905650D01*
X13965182Y-10905650D02*
X13946134Y-10915174D01*
X13946134Y-10915174D02*
X13936610Y-10924698D01*
X14146134Y-11038984D02*
X14127087Y-11029460D01*
X14127087Y-11029460D02*
X14117563Y-11019936D01*
X14117563Y-11019936D02*
X14108039Y-11000889D01*
X14108039Y-11000889D02*
X14108039Y-10943746D01*
X14108039Y-10943746D02*
X14117563Y-10924698D01*
X14117563Y-10924698D02*
X14127087Y-10915174D01*
X14127087Y-10915174D02*
X14146134Y-10905650D01*
X14146134Y-10905650D02*
X14174706Y-10905650D01*
X14174706Y-10905650D02*
X14193753Y-10915174D01*
X14193753Y-10915174D02*
X14203277Y-10924698D01*
X14203277Y-10924698D02*
X14212801Y-10943746D01*
X14212801Y-10943746D02*
X14212801Y-11000889D01*
X14212801Y-11000889D02*
X14203277Y-11019936D01*
X14203277Y-11019936D02*
X14193753Y-11029460D01*
X14193753Y-11029460D02*
X14174706Y-11038984D01*
X14174706Y-11038984D02*
X14146134Y-11038984D01*
X14327087Y-11038984D02*
X14308039Y-11029460D01*
X14308039Y-11029460D02*
X14298515Y-11010412D01*
X14298515Y-11010412D02*
X14298515Y-10838984D01*
X14479468Y-11029460D02*
X14460420Y-11038984D01*
X14460420Y-11038984D02*
X14422325Y-11038984D01*
X14422325Y-11038984D02*
X14403277Y-11029460D01*
X14403277Y-11029460D02*
X14393753Y-11010412D01*
X14393753Y-11010412D02*
X14393753Y-10934222D01*
X14393753Y-10934222D02*
X14403277Y-10915174D01*
X14403277Y-10915174D02*
X14422325Y-10905650D01*
X14422325Y-10905650D02*
X14460420Y-10905650D01*
X14460420Y-10905650D02*
X14479468Y-10915174D01*
X14479468Y-10915174D02*
X14488991Y-10934222D01*
X14488991Y-10934222D02*
X14488991Y-10953270D01*
X14488991Y-10953270D02*
X14393753Y-10972317D01*
X14565182Y-11029460D02*
X14584230Y-11038984D01*
X14584230Y-11038984D02*
X14622325Y-11038984D01*
X14622325Y-11038984D02*
X14641372Y-11029460D01*
X14641372Y-11029460D02*
X14650896Y-11010412D01*
X14650896Y-11010412D02*
X14650896Y-11000889D01*
X14650896Y-11000889D02*
X14641372Y-10981841D01*
X14641372Y-10981841D02*
X14622325Y-10972317D01*
X14622325Y-10972317D02*
X14593753Y-10972317D01*
X14593753Y-10972317D02*
X14574706Y-10962793D01*
X14574706Y-10962793D02*
X14565182Y-10943746D01*
X14565182Y-10943746D02*
X14565182Y-10934222D01*
X14565182Y-10934222D02*
X14574706Y-10915174D01*
X14574706Y-10915174D02*
X14593753Y-10905650D01*
X14593753Y-10905650D02*
X14622325Y-10905650D01*
X14622325Y-10905650D02*
X14641372Y-10915174D01*
X14717563Y-11115174D02*
X14727087Y-11105650D01*
X14727087Y-11105650D02*
X14746134Y-11077079D01*
X14746134Y-11077079D02*
X14755658Y-11058031D01*
X14755658Y-11058031D02*
X14765182Y-11029460D01*
X14765182Y-11029460D02*
X14774706Y-10981841D01*
X14774706Y-10981841D02*
X14774706Y-10943746D01*
X14774706Y-10943746D02*
X14765182Y-10896127D01*
X14765182Y-10896127D02*
X14755658Y-10867555D01*
X14755658Y-10867555D02*
X14746134Y-10848508D01*
X14746134Y-10848508D02*
X14727087Y-10819936D01*
X14727087Y-10819936D02*
X14717563Y-10810412D01*
D12*
X9942500Y-11211500D02*
G75*
G02*
X9862500Y-11211500I-40000J0D01*
G01*
X9862500Y-11211500D02*
G75*
G02*
X9942500Y-11211500I40000J0D01*
G01*
D11*
X10241372Y-11102984D02*
X10260420Y-11102984D01*
X10260420Y-11102984D02*
X10279467Y-11112508D01*
X10279467Y-11112508D02*
X10288991Y-11122031D01*
X10288991Y-11122031D02*
X10298515Y-11141079D01*
X10298515Y-11141079D02*
X10308039Y-11179174D01*
X10308039Y-11179174D02*
X10308039Y-11226793D01*
X10308039Y-11226793D02*
X10298515Y-11264888D01*
X10298515Y-11264888D02*
X10288991Y-11283936D01*
X10288991Y-11283936D02*
X10279467Y-11293460D01*
X10279467Y-11293460D02*
X10260420Y-11302984D01*
X10260420Y-11302984D02*
X10241372Y-11302984D01*
X10241372Y-11302984D02*
X10222324Y-11293460D01*
X10222324Y-11293460D02*
X10212801Y-11283936D01*
X10212801Y-11283936D02*
X10203277Y-11264888D01*
X10203277Y-11264888D02*
X10193753Y-11226793D01*
X10193753Y-11226793D02*
X10193753Y-11179174D01*
X10193753Y-11179174D02*
X10203277Y-11141079D01*
X10203277Y-11141079D02*
X10212801Y-11122031D01*
X10212801Y-11122031D02*
X10222324Y-11112508D01*
X10222324Y-11112508D02*
X10241372Y-11102984D01*
X10393753Y-11283936D02*
X10403277Y-11293460D01*
X10403277Y-11293460D02*
X10393753Y-11302984D01*
X10393753Y-11302984D02*
X10384229Y-11293460D01*
X10384229Y-11293460D02*
X10393753Y-11283936D01*
X10393753Y-11283936D02*
X10393753Y-11302984D01*
X10517563Y-11188698D02*
X10498515Y-11179174D01*
X10498515Y-11179174D02*
X10488991Y-11169650D01*
X10488991Y-11169650D02*
X10479467Y-11150603D01*
X10479467Y-11150603D02*
X10479467Y-11141079D01*
X10479467Y-11141079D02*
X10488991Y-11122031D01*
X10488991Y-11122031D02*
X10498515Y-11112508D01*
X10498515Y-11112508D02*
X10517563Y-11102984D01*
X10517563Y-11102984D02*
X10555658Y-11102984D01*
X10555658Y-11102984D02*
X10574705Y-11112508D01*
X10574705Y-11112508D02*
X10584229Y-11122031D01*
X10584229Y-11122031D02*
X10593753Y-11141079D01*
X10593753Y-11141079D02*
X10593753Y-11150603D01*
X10593753Y-11150603D02*
X10584229Y-11169650D01*
X10584229Y-11169650D02*
X10574705Y-11179174D01*
X10574705Y-11179174D02*
X10555658Y-11188698D01*
X10555658Y-11188698D02*
X10517563Y-11188698D01*
X10517563Y-11188698D02*
X10498515Y-11198222D01*
X10498515Y-11198222D02*
X10488991Y-11207746D01*
X10488991Y-11207746D02*
X10479467Y-11226793D01*
X10479467Y-11226793D02*
X10479467Y-11264888D01*
X10479467Y-11264888D02*
X10488991Y-11283936D01*
X10488991Y-11283936D02*
X10498515Y-11293460D01*
X10498515Y-11293460D02*
X10517563Y-11302984D01*
X10517563Y-11302984D02*
X10555658Y-11302984D01*
X10555658Y-11302984D02*
X10574705Y-11293460D01*
X10574705Y-11293460D02*
X10584229Y-11283936D01*
X10584229Y-11283936D02*
X10593753Y-11264888D01*
X10593753Y-11264888D02*
X10593753Y-11226793D01*
X10593753Y-11226793D02*
X10584229Y-11207746D01*
X10584229Y-11207746D02*
X10574705Y-11198222D01*
X10574705Y-11198222D02*
X10555658Y-11188698D01*
X10717563Y-11102984D02*
X10736610Y-11102984D01*
X10736610Y-11102984D02*
X10755658Y-11112508D01*
X10755658Y-11112508D02*
X10765182Y-11122031D01*
X10765182Y-11122031D02*
X10774705Y-11141079D01*
X10774705Y-11141079D02*
X10784229Y-11179174D01*
X10784229Y-11179174D02*
X10784229Y-11226793D01*
X10784229Y-11226793D02*
X10774705Y-11264888D01*
X10774705Y-11264888D02*
X10765182Y-11283936D01*
X10765182Y-11283936D02*
X10755658Y-11293460D01*
X10755658Y-11293460D02*
X10736610Y-11302984D01*
X10736610Y-11302984D02*
X10717563Y-11302984D01*
X10717563Y-11302984D02*
X10698515Y-11293460D01*
X10698515Y-11293460D02*
X10688991Y-11283936D01*
X10688991Y-11283936D02*
X10679467Y-11264888D01*
X10679467Y-11264888D02*
X10669944Y-11226793D01*
X10669944Y-11226793D02*
X10669944Y-11179174D01*
X10669944Y-11179174D02*
X10679467Y-11141079D01*
X10679467Y-11141079D02*
X10688991Y-11122031D01*
X10688991Y-11122031D02*
X10698515Y-11112508D01*
X10698515Y-11112508D02*
X10717563Y-11102984D01*
X10908039Y-11102984D02*
X10927086Y-11102984D01*
X10927086Y-11102984D02*
X10946134Y-11112508D01*
X10946134Y-11112508D02*
X10955658Y-11122031D01*
X10955658Y-11122031D02*
X10965182Y-11141079D01*
X10965182Y-11141079D02*
X10974705Y-11179174D01*
X10974705Y-11179174D02*
X10974705Y-11226793D01*
X10974705Y-11226793D02*
X10965182Y-11264888D01*
X10965182Y-11264888D02*
X10955658Y-11283936D01*
X10955658Y-11283936D02*
X10946134Y-11293460D01*
X10946134Y-11293460D02*
X10927086Y-11302984D01*
X10927086Y-11302984D02*
X10908039Y-11302984D01*
X10908039Y-11302984D02*
X10888991Y-11293460D01*
X10888991Y-11293460D02*
X10879467Y-11283936D01*
X10879467Y-11283936D02*
X10869944Y-11264888D01*
X10869944Y-11264888D02*
X10860420Y-11226793D01*
X10860420Y-11226793D02*
X10860420Y-11179174D01*
X10860420Y-11179174D02*
X10869944Y-11141079D01*
X10869944Y-11141079D02*
X10879467Y-11122031D01*
X10879467Y-11122031D02*
X10888991Y-11112508D01*
X10888991Y-11112508D02*
X10908039Y-11102984D01*
X11060420Y-11302984D02*
X11060420Y-11169650D01*
X11060420Y-11188698D02*
X11069944Y-11179174D01*
X11069944Y-11179174D02*
X11088991Y-11169650D01*
X11088991Y-11169650D02*
X11117563Y-11169650D01*
X11117563Y-11169650D02*
X11136610Y-11179174D01*
X11136610Y-11179174D02*
X11146134Y-11198222D01*
X11146134Y-11198222D02*
X11146134Y-11302984D01*
X11146134Y-11198222D02*
X11155658Y-11179174D01*
X11155658Y-11179174D02*
X11174705Y-11169650D01*
X11174705Y-11169650D02*
X11203277Y-11169650D01*
X11203277Y-11169650D02*
X11222324Y-11179174D01*
X11222324Y-11179174D02*
X11231848Y-11198222D01*
X11231848Y-11198222D02*
X11231848Y-11302984D01*
X11327086Y-11302984D02*
X11327086Y-11169650D01*
X11327086Y-11188698D02*
X11336610Y-11179174D01*
X11336610Y-11179174D02*
X11355658Y-11169650D01*
X11355658Y-11169650D02*
X11384229Y-11169650D01*
X11384229Y-11169650D02*
X11403277Y-11179174D01*
X11403277Y-11179174D02*
X11412801Y-11198222D01*
X11412801Y-11198222D02*
X11412801Y-11302984D01*
X11412801Y-11198222D02*
X11422324Y-11179174D01*
X11422324Y-11179174D02*
X11441372Y-11169650D01*
X11441372Y-11169650D02*
X11469943Y-11169650D01*
X11469943Y-11169650D02*
X11488991Y-11179174D01*
X11488991Y-11179174D02*
X11498515Y-11198222D01*
X11498515Y-11198222D02*
X11498515Y-11302984D01*
X11888991Y-11093460D02*
X11717563Y-11350603D01*
X12146134Y-11102984D02*
X12165182Y-11102984D01*
X12165182Y-11102984D02*
X12184229Y-11112508D01*
X12184229Y-11112508D02*
X12193753Y-11122031D01*
X12193753Y-11122031D02*
X12203277Y-11141079D01*
X12203277Y-11141079D02*
X12212801Y-11179174D01*
X12212801Y-11179174D02*
X12212801Y-11226793D01*
X12212801Y-11226793D02*
X12203277Y-11264888D01*
X12203277Y-11264888D02*
X12193753Y-11283936D01*
X12193753Y-11283936D02*
X12184229Y-11293460D01*
X12184229Y-11293460D02*
X12165182Y-11302984D01*
X12165182Y-11302984D02*
X12146134Y-11302984D01*
X12146134Y-11302984D02*
X12127086Y-11293460D01*
X12127086Y-11293460D02*
X12117563Y-11283936D01*
X12117563Y-11283936D02*
X12108039Y-11264888D01*
X12108039Y-11264888D02*
X12098515Y-11226793D01*
X12098515Y-11226793D02*
X12098515Y-11179174D01*
X12098515Y-11179174D02*
X12108039Y-11141079D01*
X12108039Y-11141079D02*
X12117563Y-11122031D01*
X12117563Y-11122031D02*
X12127086Y-11112508D01*
X12127086Y-11112508D02*
X12146134Y-11102984D01*
X12298515Y-11283936D02*
X12308039Y-11293460D01*
X12308039Y-11293460D02*
X12298515Y-11302984D01*
X12298515Y-11302984D02*
X12288991Y-11293460D01*
X12288991Y-11293460D02*
X12298515Y-11283936D01*
X12298515Y-11283936D02*
X12298515Y-11302984D01*
X12431848Y-11102984D02*
X12450896Y-11102984D01*
X12450896Y-11102984D02*
X12469944Y-11112508D01*
X12469944Y-11112508D02*
X12479467Y-11122031D01*
X12479467Y-11122031D02*
X12488991Y-11141079D01*
X12488991Y-11141079D02*
X12498515Y-11179174D01*
X12498515Y-11179174D02*
X12498515Y-11226793D01*
X12498515Y-11226793D02*
X12488991Y-11264888D01*
X12488991Y-11264888D02*
X12479467Y-11283936D01*
X12479467Y-11283936D02*
X12469944Y-11293460D01*
X12469944Y-11293460D02*
X12450896Y-11302984D01*
X12450896Y-11302984D02*
X12431848Y-11302984D01*
X12431848Y-11302984D02*
X12412801Y-11293460D01*
X12412801Y-11293460D02*
X12403277Y-11283936D01*
X12403277Y-11283936D02*
X12393753Y-11264888D01*
X12393753Y-11264888D02*
X12384229Y-11226793D01*
X12384229Y-11226793D02*
X12384229Y-11179174D01*
X12384229Y-11179174D02*
X12393753Y-11141079D01*
X12393753Y-11141079D02*
X12403277Y-11122031D01*
X12403277Y-11122031D02*
X12412801Y-11112508D01*
X12412801Y-11112508D02*
X12431848Y-11102984D01*
X12565182Y-11102984D02*
X12688991Y-11102984D01*
X12688991Y-11102984D02*
X12622325Y-11179174D01*
X12622325Y-11179174D02*
X12650896Y-11179174D01*
X12650896Y-11179174D02*
X12669944Y-11188698D01*
X12669944Y-11188698D02*
X12679467Y-11198222D01*
X12679467Y-11198222D02*
X12688991Y-11217269D01*
X12688991Y-11217269D02*
X12688991Y-11264888D01*
X12688991Y-11264888D02*
X12679467Y-11283936D01*
X12679467Y-11283936D02*
X12669944Y-11293460D01*
X12669944Y-11293460D02*
X12650896Y-11302984D01*
X12650896Y-11302984D02*
X12593753Y-11302984D01*
X12593753Y-11302984D02*
X12574706Y-11293460D01*
X12574706Y-11293460D02*
X12565182Y-11283936D01*
X12879467Y-11302984D02*
X12765182Y-11302984D01*
X12822325Y-11302984D02*
X12822325Y-11102984D01*
X12822325Y-11102984D02*
X12803277Y-11131555D01*
X12803277Y-11131555D02*
X12784229Y-11150603D01*
X12784229Y-11150603D02*
X12765182Y-11160127D01*
X13060420Y-11102984D02*
X12965182Y-11102984D01*
X12965182Y-11102984D02*
X12955658Y-11198222D01*
X12955658Y-11198222D02*
X12965182Y-11188698D01*
X12965182Y-11188698D02*
X12984229Y-11179174D01*
X12984229Y-11179174D02*
X13031848Y-11179174D01*
X13031848Y-11179174D02*
X13050896Y-11188698D01*
X13050896Y-11188698D02*
X13060420Y-11198222D01*
X13060420Y-11198222D02*
X13069944Y-11217269D01*
X13069944Y-11217269D02*
X13069944Y-11264888D01*
X13069944Y-11264888D02*
X13060420Y-11283936D01*
X13060420Y-11283936D02*
X13050896Y-11293460D01*
X13050896Y-11293460D02*
X13031848Y-11302984D01*
X13031848Y-11302984D02*
X12984229Y-11302984D01*
X12984229Y-11302984D02*
X12965182Y-11293460D01*
X12965182Y-11293460D02*
X12955658Y-11283936D01*
X13146134Y-11102984D02*
X13146134Y-11141079D01*
X13222325Y-11102984D02*
X13222325Y-11141079D01*
X13517563Y-11379174D02*
X13508039Y-11369650D01*
X13508039Y-11369650D02*
X13488991Y-11341079D01*
X13488991Y-11341079D02*
X13479468Y-11322031D01*
X13479468Y-11322031D02*
X13469944Y-11293460D01*
X13469944Y-11293460D02*
X13460420Y-11245841D01*
X13460420Y-11245841D02*
X13460420Y-11207746D01*
X13460420Y-11207746D02*
X13469944Y-11160127D01*
X13469944Y-11160127D02*
X13479468Y-11131555D01*
X13479468Y-11131555D02*
X13488991Y-11112508D01*
X13488991Y-11112508D02*
X13508039Y-11083936D01*
X13508039Y-11083936D02*
X13517563Y-11074412D01*
X13584229Y-11122031D02*
X13593753Y-11112508D01*
X13593753Y-11112508D02*
X13612801Y-11102984D01*
X13612801Y-11102984D02*
X13660420Y-11102984D01*
X13660420Y-11102984D02*
X13679468Y-11112508D01*
X13679468Y-11112508D02*
X13688991Y-11122031D01*
X13688991Y-11122031D02*
X13698515Y-11141079D01*
X13698515Y-11141079D02*
X13698515Y-11160127D01*
X13698515Y-11160127D02*
X13688991Y-11188698D01*
X13688991Y-11188698D02*
X13574706Y-11302984D01*
X13574706Y-11302984D02*
X13698515Y-11302984D01*
X13936610Y-11302984D02*
X13936610Y-11102984D01*
X14022325Y-11302984D02*
X14022325Y-11198222D01*
X14022325Y-11198222D02*
X14012801Y-11179174D01*
X14012801Y-11179174D02*
X13993753Y-11169650D01*
X13993753Y-11169650D02*
X13965182Y-11169650D01*
X13965182Y-11169650D02*
X13946134Y-11179174D01*
X13946134Y-11179174D02*
X13936610Y-11188698D01*
X14146134Y-11302984D02*
X14127087Y-11293460D01*
X14127087Y-11293460D02*
X14117563Y-11283936D01*
X14117563Y-11283936D02*
X14108039Y-11264888D01*
X14108039Y-11264888D02*
X14108039Y-11207746D01*
X14108039Y-11207746D02*
X14117563Y-11188698D01*
X14117563Y-11188698D02*
X14127087Y-11179174D01*
X14127087Y-11179174D02*
X14146134Y-11169650D01*
X14146134Y-11169650D02*
X14174706Y-11169650D01*
X14174706Y-11169650D02*
X14193753Y-11179174D01*
X14193753Y-11179174D02*
X14203277Y-11188698D01*
X14203277Y-11188698D02*
X14212801Y-11207746D01*
X14212801Y-11207746D02*
X14212801Y-11264888D01*
X14212801Y-11264888D02*
X14203277Y-11283936D01*
X14203277Y-11283936D02*
X14193753Y-11293460D01*
X14193753Y-11293460D02*
X14174706Y-11302984D01*
X14174706Y-11302984D02*
X14146134Y-11302984D01*
X14327087Y-11302984D02*
X14308039Y-11293460D01*
X14308039Y-11293460D02*
X14298515Y-11274412D01*
X14298515Y-11274412D02*
X14298515Y-11102984D01*
X14479468Y-11293460D02*
X14460420Y-11302984D01*
X14460420Y-11302984D02*
X14422325Y-11302984D01*
X14422325Y-11302984D02*
X14403277Y-11293460D01*
X14403277Y-11293460D02*
X14393753Y-11274412D01*
X14393753Y-11274412D02*
X14393753Y-11198222D01*
X14393753Y-11198222D02*
X14403277Y-11179174D01*
X14403277Y-11179174D02*
X14422325Y-11169650D01*
X14422325Y-11169650D02*
X14460420Y-11169650D01*
X14460420Y-11169650D02*
X14479468Y-11179174D01*
X14479468Y-11179174D02*
X14488991Y-11198222D01*
X14488991Y-11198222D02*
X14488991Y-11217269D01*
X14488991Y-11217269D02*
X14393753Y-11236317D01*
X14565182Y-11293460D02*
X14584230Y-11302984D01*
X14584230Y-11302984D02*
X14622325Y-11302984D01*
X14622325Y-11302984D02*
X14641372Y-11293460D01*
X14641372Y-11293460D02*
X14650896Y-11274412D01*
X14650896Y-11274412D02*
X14650896Y-11264888D01*
X14650896Y-11264888D02*
X14641372Y-11245841D01*
X14641372Y-11245841D02*
X14622325Y-11236317D01*
X14622325Y-11236317D02*
X14593753Y-11236317D01*
X14593753Y-11236317D02*
X14574706Y-11226793D01*
X14574706Y-11226793D02*
X14565182Y-11207746D01*
X14565182Y-11207746D02*
X14565182Y-11198222D01*
X14565182Y-11198222D02*
X14574706Y-11179174D01*
X14574706Y-11179174D02*
X14593753Y-11169650D01*
X14593753Y-11169650D02*
X14622325Y-11169650D01*
X14622325Y-11169650D02*
X14641372Y-11179174D01*
X14717563Y-11379174D02*
X14727087Y-11369650D01*
X14727087Y-11369650D02*
X14746134Y-11341079D01*
X14746134Y-11341079D02*
X14755658Y-11322031D01*
X14755658Y-11322031D02*
X14765182Y-11293460D01*
X14765182Y-11293460D02*
X14774706Y-11245841D01*
X14774706Y-11245841D02*
X14774706Y-11207746D01*
X14774706Y-11207746D02*
X14765182Y-11160127D01*
X14765182Y-11160127D02*
X14755658Y-11131555D01*
X14755658Y-11131555D02*
X14746134Y-11112508D01*
X14746134Y-11112508D02*
X14727087Y-11083936D01*
X14727087Y-11083936D02*
X14717563Y-11074412D01*
D12*
X9892500Y-11425500D02*
X9892500Y-11525500D01*
X9842500Y-11475500D02*
X9942500Y-11475500D01*
D11*
X10308039Y-11566984D02*
X10193753Y-11566984D01*
X10250896Y-11566984D02*
X10250896Y-11366984D01*
X10250896Y-11366984D02*
X10231848Y-11395555D01*
X10231848Y-11395555D02*
X10212801Y-11414603D01*
X10212801Y-11414603D02*
X10193753Y-11424127D01*
X10393753Y-11547936D02*
X10403277Y-11557460D01*
X10403277Y-11557460D02*
X10393753Y-11566984D01*
X10393753Y-11566984D02*
X10384229Y-11557460D01*
X10384229Y-11557460D02*
X10393753Y-11547936D01*
X10393753Y-11547936D02*
X10393753Y-11566984D01*
X10527086Y-11366984D02*
X10546134Y-11366984D01*
X10546134Y-11366984D02*
X10565182Y-11376508D01*
X10565182Y-11376508D02*
X10574705Y-11386031D01*
X10574705Y-11386031D02*
X10584229Y-11405079D01*
X10584229Y-11405079D02*
X10593753Y-11443174D01*
X10593753Y-11443174D02*
X10593753Y-11490793D01*
X10593753Y-11490793D02*
X10584229Y-11528888D01*
X10584229Y-11528888D02*
X10574705Y-11547936D01*
X10574705Y-11547936D02*
X10565182Y-11557460D01*
X10565182Y-11557460D02*
X10546134Y-11566984D01*
X10546134Y-11566984D02*
X10527086Y-11566984D01*
X10527086Y-11566984D02*
X10508039Y-11557460D01*
X10508039Y-11557460D02*
X10498515Y-11547936D01*
X10498515Y-11547936D02*
X10488991Y-11528888D01*
X10488991Y-11528888D02*
X10479467Y-11490793D01*
X10479467Y-11490793D02*
X10479467Y-11443174D01*
X10479467Y-11443174D02*
X10488991Y-11405079D01*
X10488991Y-11405079D02*
X10498515Y-11386031D01*
X10498515Y-11386031D02*
X10508039Y-11376508D01*
X10508039Y-11376508D02*
X10527086Y-11366984D01*
X10717563Y-11366984D02*
X10736610Y-11366984D01*
X10736610Y-11366984D02*
X10755658Y-11376508D01*
X10755658Y-11376508D02*
X10765182Y-11386031D01*
X10765182Y-11386031D02*
X10774705Y-11405079D01*
X10774705Y-11405079D02*
X10784229Y-11443174D01*
X10784229Y-11443174D02*
X10784229Y-11490793D01*
X10784229Y-11490793D02*
X10774705Y-11528888D01*
X10774705Y-11528888D02*
X10765182Y-11547936D01*
X10765182Y-11547936D02*
X10755658Y-11557460D01*
X10755658Y-11557460D02*
X10736610Y-11566984D01*
X10736610Y-11566984D02*
X10717563Y-11566984D01*
X10717563Y-11566984D02*
X10698515Y-11557460D01*
X10698515Y-11557460D02*
X10688991Y-11547936D01*
X10688991Y-11547936D02*
X10679467Y-11528888D01*
X10679467Y-11528888D02*
X10669944Y-11490793D01*
X10669944Y-11490793D02*
X10669944Y-11443174D01*
X10669944Y-11443174D02*
X10679467Y-11405079D01*
X10679467Y-11405079D02*
X10688991Y-11386031D01*
X10688991Y-11386031D02*
X10698515Y-11376508D01*
X10698515Y-11376508D02*
X10717563Y-11366984D01*
X10908039Y-11366984D02*
X10927086Y-11366984D01*
X10927086Y-11366984D02*
X10946134Y-11376508D01*
X10946134Y-11376508D02*
X10955658Y-11386031D01*
X10955658Y-11386031D02*
X10965182Y-11405079D01*
X10965182Y-11405079D02*
X10974705Y-11443174D01*
X10974705Y-11443174D02*
X10974705Y-11490793D01*
X10974705Y-11490793D02*
X10965182Y-11528888D01*
X10965182Y-11528888D02*
X10955658Y-11547936D01*
X10955658Y-11547936D02*
X10946134Y-11557460D01*
X10946134Y-11557460D02*
X10927086Y-11566984D01*
X10927086Y-11566984D02*
X10908039Y-11566984D01*
X10908039Y-11566984D02*
X10888991Y-11557460D01*
X10888991Y-11557460D02*
X10879467Y-11547936D01*
X10879467Y-11547936D02*
X10869944Y-11528888D01*
X10869944Y-11528888D02*
X10860420Y-11490793D01*
X10860420Y-11490793D02*
X10860420Y-11443174D01*
X10860420Y-11443174D02*
X10869944Y-11405079D01*
X10869944Y-11405079D02*
X10879467Y-11386031D01*
X10879467Y-11386031D02*
X10888991Y-11376508D01*
X10888991Y-11376508D02*
X10908039Y-11366984D01*
X11060420Y-11566984D02*
X11060420Y-11433650D01*
X11060420Y-11452698D02*
X11069944Y-11443174D01*
X11069944Y-11443174D02*
X11088991Y-11433650D01*
X11088991Y-11433650D02*
X11117563Y-11433650D01*
X11117563Y-11433650D02*
X11136610Y-11443174D01*
X11136610Y-11443174D02*
X11146134Y-11462222D01*
X11146134Y-11462222D02*
X11146134Y-11566984D01*
X11146134Y-11462222D02*
X11155658Y-11443174D01*
X11155658Y-11443174D02*
X11174705Y-11433650D01*
X11174705Y-11433650D02*
X11203277Y-11433650D01*
X11203277Y-11433650D02*
X11222324Y-11443174D01*
X11222324Y-11443174D02*
X11231848Y-11462222D01*
X11231848Y-11462222D02*
X11231848Y-11566984D01*
X11327086Y-11566984D02*
X11327086Y-11433650D01*
X11327086Y-11452698D02*
X11336610Y-11443174D01*
X11336610Y-11443174D02*
X11355658Y-11433650D01*
X11355658Y-11433650D02*
X11384229Y-11433650D01*
X11384229Y-11433650D02*
X11403277Y-11443174D01*
X11403277Y-11443174D02*
X11412801Y-11462222D01*
X11412801Y-11462222D02*
X11412801Y-11566984D01*
X11412801Y-11462222D02*
X11422324Y-11443174D01*
X11422324Y-11443174D02*
X11441372Y-11433650D01*
X11441372Y-11433650D02*
X11469943Y-11433650D01*
X11469943Y-11433650D02*
X11488991Y-11443174D01*
X11488991Y-11443174D02*
X11498515Y-11462222D01*
X11498515Y-11462222D02*
X11498515Y-11566984D01*
X11888991Y-11357460D02*
X11717563Y-11614603D01*
X12146134Y-11366984D02*
X12165182Y-11366984D01*
X12165182Y-11366984D02*
X12184229Y-11376508D01*
X12184229Y-11376508D02*
X12193753Y-11386031D01*
X12193753Y-11386031D02*
X12203277Y-11405079D01*
X12203277Y-11405079D02*
X12212801Y-11443174D01*
X12212801Y-11443174D02*
X12212801Y-11490793D01*
X12212801Y-11490793D02*
X12203277Y-11528888D01*
X12203277Y-11528888D02*
X12193753Y-11547936D01*
X12193753Y-11547936D02*
X12184229Y-11557460D01*
X12184229Y-11557460D02*
X12165182Y-11566984D01*
X12165182Y-11566984D02*
X12146134Y-11566984D01*
X12146134Y-11566984D02*
X12127086Y-11557460D01*
X12127086Y-11557460D02*
X12117563Y-11547936D01*
X12117563Y-11547936D02*
X12108039Y-11528888D01*
X12108039Y-11528888D02*
X12098515Y-11490793D01*
X12098515Y-11490793D02*
X12098515Y-11443174D01*
X12098515Y-11443174D02*
X12108039Y-11405079D01*
X12108039Y-11405079D02*
X12117563Y-11386031D01*
X12117563Y-11386031D02*
X12127086Y-11376508D01*
X12127086Y-11376508D02*
X12146134Y-11366984D01*
X12298515Y-11547936D02*
X12308039Y-11557460D01*
X12308039Y-11557460D02*
X12298515Y-11566984D01*
X12298515Y-11566984D02*
X12288991Y-11557460D01*
X12288991Y-11557460D02*
X12298515Y-11547936D01*
X12298515Y-11547936D02*
X12298515Y-11566984D01*
X12431848Y-11366984D02*
X12450896Y-11366984D01*
X12450896Y-11366984D02*
X12469944Y-11376508D01*
X12469944Y-11376508D02*
X12479467Y-11386031D01*
X12479467Y-11386031D02*
X12488991Y-11405079D01*
X12488991Y-11405079D02*
X12498515Y-11443174D01*
X12498515Y-11443174D02*
X12498515Y-11490793D01*
X12498515Y-11490793D02*
X12488991Y-11528888D01*
X12488991Y-11528888D02*
X12479467Y-11547936D01*
X12479467Y-11547936D02*
X12469944Y-11557460D01*
X12469944Y-11557460D02*
X12450896Y-11566984D01*
X12450896Y-11566984D02*
X12431848Y-11566984D01*
X12431848Y-11566984D02*
X12412801Y-11557460D01*
X12412801Y-11557460D02*
X12403277Y-11547936D01*
X12403277Y-11547936D02*
X12393753Y-11528888D01*
X12393753Y-11528888D02*
X12384229Y-11490793D01*
X12384229Y-11490793D02*
X12384229Y-11443174D01*
X12384229Y-11443174D02*
X12393753Y-11405079D01*
X12393753Y-11405079D02*
X12403277Y-11386031D01*
X12403277Y-11386031D02*
X12412801Y-11376508D01*
X12412801Y-11376508D02*
X12431848Y-11366984D01*
X12565182Y-11366984D02*
X12688991Y-11366984D01*
X12688991Y-11366984D02*
X12622325Y-11443174D01*
X12622325Y-11443174D02*
X12650896Y-11443174D01*
X12650896Y-11443174D02*
X12669944Y-11452698D01*
X12669944Y-11452698D02*
X12679467Y-11462222D01*
X12679467Y-11462222D02*
X12688991Y-11481269D01*
X12688991Y-11481269D02*
X12688991Y-11528888D01*
X12688991Y-11528888D02*
X12679467Y-11547936D01*
X12679467Y-11547936D02*
X12669944Y-11557460D01*
X12669944Y-11557460D02*
X12650896Y-11566984D01*
X12650896Y-11566984D02*
X12593753Y-11566984D01*
X12593753Y-11566984D02*
X12574706Y-11557460D01*
X12574706Y-11557460D02*
X12565182Y-11547936D01*
X12784229Y-11566984D02*
X12822325Y-11566984D01*
X12822325Y-11566984D02*
X12841372Y-11557460D01*
X12841372Y-11557460D02*
X12850896Y-11547936D01*
X12850896Y-11547936D02*
X12869944Y-11519365D01*
X12869944Y-11519365D02*
X12879467Y-11481269D01*
X12879467Y-11481269D02*
X12879467Y-11405079D01*
X12879467Y-11405079D02*
X12869944Y-11386031D01*
X12869944Y-11386031D02*
X12860420Y-11376508D01*
X12860420Y-11376508D02*
X12841372Y-11366984D01*
X12841372Y-11366984D02*
X12803277Y-11366984D01*
X12803277Y-11366984D02*
X12784229Y-11376508D01*
X12784229Y-11376508D02*
X12774706Y-11386031D01*
X12774706Y-11386031D02*
X12765182Y-11405079D01*
X12765182Y-11405079D02*
X12765182Y-11452698D01*
X12765182Y-11452698D02*
X12774706Y-11471746D01*
X12774706Y-11471746D02*
X12784229Y-11481269D01*
X12784229Y-11481269D02*
X12803277Y-11490793D01*
X12803277Y-11490793D02*
X12841372Y-11490793D01*
X12841372Y-11490793D02*
X12860420Y-11481269D01*
X12860420Y-11481269D02*
X12869944Y-11471746D01*
X12869944Y-11471746D02*
X12879467Y-11452698D01*
X13050896Y-11433650D02*
X13050896Y-11566984D01*
X13003277Y-11357460D02*
X12955658Y-11500317D01*
X12955658Y-11500317D02*
X13079467Y-11500317D01*
X13146134Y-11366984D02*
X13146134Y-11405079D01*
X13222325Y-11366984D02*
X13222325Y-11405079D01*
X13517563Y-11643174D02*
X13508039Y-11633650D01*
X13508039Y-11633650D02*
X13488991Y-11605079D01*
X13488991Y-11605079D02*
X13479468Y-11586031D01*
X13479468Y-11586031D02*
X13469944Y-11557460D01*
X13469944Y-11557460D02*
X13460420Y-11509841D01*
X13460420Y-11509841D02*
X13460420Y-11471746D01*
X13460420Y-11471746D02*
X13469944Y-11424127D01*
X13469944Y-11424127D02*
X13479468Y-11395555D01*
X13479468Y-11395555D02*
X13488991Y-11376508D01*
X13488991Y-11376508D02*
X13508039Y-11347936D01*
X13508039Y-11347936D02*
X13517563Y-11338412D01*
X13574706Y-11366984D02*
X13698515Y-11366984D01*
X13698515Y-11366984D02*
X13631848Y-11443174D01*
X13631848Y-11443174D02*
X13660420Y-11443174D01*
X13660420Y-11443174D02*
X13679468Y-11452698D01*
X13679468Y-11452698D02*
X13688991Y-11462222D01*
X13688991Y-11462222D02*
X13698515Y-11481269D01*
X13698515Y-11481269D02*
X13698515Y-11528888D01*
X13698515Y-11528888D02*
X13688991Y-11547936D01*
X13688991Y-11547936D02*
X13679468Y-11557460D01*
X13679468Y-11557460D02*
X13660420Y-11566984D01*
X13660420Y-11566984D02*
X13603277Y-11566984D01*
X13603277Y-11566984D02*
X13584229Y-11557460D01*
X13584229Y-11557460D02*
X13574706Y-11547936D01*
X13774706Y-11386031D02*
X13784229Y-11376508D01*
X13784229Y-11376508D02*
X13803277Y-11366984D01*
X13803277Y-11366984D02*
X13850896Y-11366984D01*
X13850896Y-11366984D02*
X13869944Y-11376508D01*
X13869944Y-11376508D02*
X13879468Y-11386031D01*
X13879468Y-11386031D02*
X13888991Y-11405079D01*
X13888991Y-11405079D02*
X13888991Y-11424127D01*
X13888991Y-11424127D02*
X13879468Y-11452698D01*
X13879468Y-11452698D02*
X13765182Y-11566984D01*
X13765182Y-11566984D02*
X13888991Y-11566984D01*
X14127087Y-11566984D02*
X14127087Y-11366984D01*
X14212801Y-11566984D02*
X14212801Y-11462222D01*
X14212801Y-11462222D02*
X14203277Y-11443174D01*
X14203277Y-11443174D02*
X14184230Y-11433650D01*
X14184230Y-11433650D02*
X14155658Y-11433650D01*
X14155658Y-11433650D02*
X14136610Y-11443174D01*
X14136610Y-11443174D02*
X14127087Y-11452698D01*
X14336610Y-11566984D02*
X14317563Y-11557460D01*
X14317563Y-11557460D02*
X14308039Y-11547936D01*
X14308039Y-11547936D02*
X14298515Y-11528888D01*
X14298515Y-11528888D02*
X14298515Y-11471746D01*
X14298515Y-11471746D02*
X14308039Y-11452698D01*
X14308039Y-11452698D02*
X14317563Y-11443174D01*
X14317563Y-11443174D02*
X14336610Y-11433650D01*
X14336610Y-11433650D02*
X14365182Y-11433650D01*
X14365182Y-11433650D02*
X14384230Y-11443174D01*
X14384230Y-11443174D02*
X14393753Y-11452698D01*
X14393753Y-11452698D02*
X14403277Y-11471746D01*
X14403277Y-11471746D02*
X14403277Y-11528888D01*
X14403277Y-11528888D02*
X14393753Y-11547936D01*
X14393753Y-11547936D02*
X14384230Y-11557460D01*
X14384230Y-11557460D02*
X14365182Y-11566984D01*
X14365182Y-11566984D02*
X14336610Y-11566984D01*
X14517563Y-11566984D02*
X14498515Y-11557460D01*
X14498515Y-11557460D02*
X14488991Y-11538412D01*
X14488991Y-11538412D02*
X14488991Y-11366984D01*
X14669944Y-11557460D02*
X14650896Y-11566984D01*
X14650896Y-11566984D02*
X14612801Y-11566984D01*
X14612801Y-11566984D02*
X14593753Y-11557460D01*
X14593753Y-11557460D02*
X14584230Y-11538412D01*
X14584230Y-11538412D02*
X14584230Y-11462222D01*
X14584230Y-11462222D02*
X14593753Y-11443174D01*
X14593753Y-11443174D02*
X14612801Y-11433650D01*
X14612801Y-11433650D02*
X14650896Y-11433650D01*
X14650896Y-11433650D02*
X14669944Y-11443174D01*
X14669944Y-11443174D02*
X14679468Y-11462222D01*
X14679468Y-11462222D02*
X14679468Y-11481269D01*
X14679468Y-11481269D02*
X14584230Y-11500317D01*
X14755658Y-11557460D02*
X14774706Y-11566984D01*
X14774706Y-11566984D02*
X14812801Y-11566984D01*
X14812801Y-11566984D02*
X14831849Y-11557460D01*
X14831849Y-11557460D02*
X14841372Y-11538412D01*
X14841372Y-11538412D02*
X14841372Y-11528888D01*
X14841372Y-11528888D02*
X14831849Y-11509841D01*
X14831849Y-11509841D02*
X14812801Y-11500317D01*
X14812801Y-11500317D02*
X14784230Y-11500317D01*
X14784230Y-11500317D02*
X14765182Y-11490793D01*
X14765182Y-11490793D02*
X14755658Y-11471746D01*
X14755658Y-11471746D02*
X14755658Y-11462222D01*
X14755658Y-11462222D02*
X14765182Y-11443174D01*
X14765182Y-11443174D02*
X14784230Y-11433650D01*
X14784230Y-11433650D02*
X14812801Y-11433650D01*
X14812801Y-11433650D02*
X14831849Y-11443174D01*
X14908039Y-11643174D02*
X14917563Y-11633650D01*
X14917563Y-11633650D02*
X14936611Y-11605079D01*
X14936611Y-11605079D02*
X14946134Y-11586031D01*
X14946134Y-11586031D02*
X14955658Y-11557460D01*
X14955658Y-11557460D02*
X14965182Y-11509841D01*
X14965182Y-11509841D02*
X14965182Y-11471746D01*
X14965182Y-11471746D02*
X14955658Y-11424127D01*
X14955658Y-11424127D02*
X14946134Y-11395555D01*
X14946134Y-11395555D02*
X14936611Y-11376508D01*
X14936611Y-11376508D02*
X14917563Y-11347936D01*
X14917563Y-11347936D02*
X14908039Y-11338412D01*
D13*
X9927563Y-11775563D02*
X9927563Y-11703437D01*
X9855437Y-11703437D01*
X9855437Y-11775563D01*
X9927563Y-11775563D01*
D11*
X10308039Y-11830984D02*
X10193753Y-11830984D01*
X10250896Y-11830984D02*
X10250896Y-11630984D01*
X10250896Y-11630984D02*
X10231848Y-11659555D01*
X10231848Y-11659555D02*
X10212801Y-11678603D01*
X10212801Y-11678603D02*
X10193753Y-11688127D01*
X10393753Y-11811936D02*
X10403277Y-11821460D01*
X10403277Y-11821460D02*
X10393753Y-11830984D01*
X10393753Y-11830984D02*
X10384229Y-11821460D01*
X10384229Y-11821460D02*
X10393753Y-11811936D01*
X10393753Y-11811936D02*
X10393753Y-11830984D01*
X10527086Y-11630984D02*
X10546134Y-11630984D01*
X10546134Y-11630984D02*
X10565182Y-11640508D01*
X10565182Y-11640508D02*
X10574705Y-11650031D01*
X10574705Y-11650031D02*
X10584229Y-11669079D01*
X10584229Y-11669079D02*
X10593753Y-11707174D01*
X10593753Y-11707174D02*
X10593753Y-11754793D01*
X10593753Y-11754793D02*
X10584229Y-11792888D01*
X10584229Y-11792888D02*
X10574705Y-11811936D01*
X10574705Y-11811936D02*
X10565182Y-11821460D01*
X10565182Y-11821460D02*
X10546134Y-11830984D01*
X10546134Y-11830984D02*
X10527086Y-11830984D01*
X10527086Y-11830984D02*
X10508039Y-11821460D01*
X10508039Y-11821460D02*
X10498515Y-11811936D01*
X10498515Y-11811936D02*
X10488991Y-11792888D01*
X10488991Y-11792888D02*
X10479467Y-11754793D01*
X10479467Y-11754793D02*
X10479467Y-11707174D01*
X10479467Y-11707174D02*
X10488991Y-11669079D01*
X10488991Y-11669079D02*
X10498515Y-11650031D01*
X10498515Y-11650031D02*
X10508039Y-11640508D01*
X10508039Y-11640508D02*
X10527086Y-11630984D01*
X10669944Y-11650031D02*
X10679467Y-11640508D01*
X10679467Y-11640508D02*
X10698515Y-11630984D01*
X10698515Y-11630984D02*
X10746134Y-11630984D01*
X10746134Y-11630984D02*
X10765182Y-11640508D01*
X10765182Y-11640508D02*
X10774705Y-11650031D01*
X10774705Y-11650031D02*
X10784229Y-11669079D01*
X10784229Y-11669079D02*
X10784229Y-11688127D01*
X10784229Y-11688127D02*
X10774705Y-11716698D01*
X10774705Y-11716698D02*
X10660420Y-11830984D01*
X10660420Y-11830984D02*
X10784229Y-11830984D01*
X10908039Y-11630984D02*
X10927086Y-11630984D01*
X10927086Y-11630984D02*
X10946134Y-11640508D01*
X10946134Y-11640508D02*
X10955658Y-11650031D01*
X10955658Y-11650031D02*
X10965182Y-11669079D01*
X10965182Y-11669079D02*
X10974705Y-11707174D01*
X10974705Y-11707174D02*
X10974705Y-11754793D01*
X10974705Y-11754793D02*
X10965182Y-11792888D01*
X10965182Y-11792888D02*
X10955658Y-11811936D01*
X10955658Y-11811936D02*
X10946134Y-11821460D01*
X10946134Y-11821460D02*
X10927086Y-11830984D01*
X10927086Y-11830984D02*
X10908039Y-11830984D01*
X10908039Y-11830984D02*
X10888991Y-11821460D01*
X10888991Y-11821460D02*
X10879467Y-11811936D01*
X10879467Y-11811936D02*
X10869944Y-11792888D01*
X10869944Y-11792888D02*
X10860420Y-11754793D01*
X10860420Y-11754793D02*
X10860420Y-11707174D01*
X10860420Y-11707174D02*
X10869944Y-11669079D01*
X10869944Y-11669079D02*
X10879467Y-11650031D01*
X10879467Y-11650031D02*
X10888991Y-11640508D01*
X10888991Y-11640508D02*
X10908039Y-11630984D01*
X11060420Y-11830984D02*
X11060420Y-11697650D01*
X11060420Y-11716698D02*
X11069944Y-11707174D01*
X11069944Y-11707174D02*
X11088991Y-11697650D01*
X11088991Y-11697650D02*
X11117563Y-11697650D01*
X11117563Y-11697650D02*
X11136610Y-11707174D01*
X11136610Y-11707174D02*
X11146134Y-11726222D01*
X11146134Y-11726222D02*
X11146134Y-11830984D01*
X11146134Y-11726222D02*
X11155658Y-11707174D01*
X11155658Y-11707174D02*
X11174705Y-11697650D01*
X11174705Y-11697650D02*
X11203277Y-11697650D01*
X11203277Y-11697650D02*
X11222324Y-11707174D01*
X11222324Y-11707174D02*
X11231848Y-11726222D01*
X11231848Y-11726222D02*
X11231848Y-11830984D01*
X11327086Y-11830984D02*
X11327086Y-11697650D01*
X11327086Y-11716698D02*
X11336610Y-11707174D01*
X11336610Y-11707174D02*
X11355658Y-11697650D01*
X11355658Y-11697650D02*
X11384229Y-11697650D01*
X11384229Y-11697650D02*
X11403277Y-11707174D01*
X11403277Y-11707174D02*
X11412801Y-11726222D01*
X11412801Y-11726222D02*
X11412801Y-11830984D01*
X11412801Y-11726222D02*
X11422324Y-11707174D01*
X11422324Y-11707174D02*
X11441372Y-11697650D01*
X11441372Y-11697650D02*
X11469943Y-11697650D01*
X11469943Y-11697650D02*
X11488991Y-11707174D01*
X11488991Y-11707174D02*
X11498515Y-11726222D01*
X11498515Y-11726222D02*
X11498515Y-11830984D01*
X11888991Y-11621460D02*
X11717563Y-11878603D01*
X12146134Y-11630984D02*
X12165182Y-11630984D01*
X12165182Y-11630984D02*
X12184229Y-11640508D01*
X12184229Y-11640508D02*
X12193753Y-11650031D01*
X12193753Y-11650031D02*
X12203277Y-11669079D01*
X12203277Y-11669079D02*
X12212801Y-11707174D01*
X12212801Y-11707174D02*
X12212801Y-11754793D01*
X12212801Y-11754793D02*
X12203277Y-11792888D01*
X12203277Y-11792888D02*
X12193753Y-11811936D01*
X12193753Y-11811936D02*
X12184229Y-11821460D01*
X12184229Y-11821460D02*
X12165182Y-11830984D01*
X12165182Y-11830984D02*
X12146134Y-11830984D01*
X12146134Y-11830984D02*
X12127086Y-11821460D01*
X12127086Y-11821460D02*
X12117563Y-11811936D01*
X12117563Y-11811936D02*
X12108039Y-11792888D01*
X12108039Y-11792888D02*
X12098515Y-11754793D01*
X12098515Y-11754793D02*
X12098515Y-11707174D01*
X12098515Y-11707174D02*
X12108039Y-11669079D01*
X12108039Y-11669079D02*
X12117563Y-11650031D01*
X12117563Y-11650031D02*
X12127086Y-11640508D01*
X12127086Y-11640508D02*
X12146134Y-11630984D01*
X12298515Y-11811936D02*
X12308039Y-11821460D01*
X12308039Y-11821460D02*
X12298515Y-11830984D01*
X12298515Y-11830984D02*
X12288991Y-11821460D01*
X12288991Y-11821460D02*
X12298515Y-11811936D01*
X12298515Y-11811936D02*
X12298515Y-11830984D01*
X12431848Y-11630984D02*
X12450896Y-11630984D01*
X12450896Y-11630984D02*
X12469944Y-11640508D01*
X12469944Y-11640508D02*
X12479467Y-11650031D01*
X12479467Y-11650031D02*
X12488991Y-11669079D01*
X12488991Y-11669079D02*
X12498515Y-11707174D01*
X12498515Y-11707174D02*
X12498515Y-11754793D01*
X12498515Y-11754793D02*
X12488991Y-11792888D01*
X12488991Y-11792888D02*
X12479467Y-11811936D01*
X12479467Y-11811936D02*
X12469944Y-11821460D01*
X12469944Y-11821460D02*
X12450896Y-11830984D01*
X12450896Y-11830984D02*
X12431848Y-11830984D01*
X12431848Y-11830984D02*
X12412801Y-11821460D01*
X12412801Y-11821460D02*
X12403277Y-11811936D01*
X12403277Y-11811936D02*
X12393753Y-11792888D01*
X12393753Y-11792888D02*
X12384229Y-11754793D01*
X12384229Y-11754793D02*
X12384229Y-11707174D01*
X12384229Y-11707174D02*
X12393753Y-11669079D01*
X12393753Y-11669079D02*
X12403277Y-11650031D01*
X12403277Y-11650031D02*
X12412801Y-11640508D01*
X12412801Y-11640508D02*
X12431848Y-11630984D01*
X12669944Y-11697650D02*
X12669944Y-11830984D01*
X12622325Y-11621460D02*
X12574706Y-11764317D01*
X12574706Y-11764317D02*
X12698515Y-11764317D01*
X12812801Y-11630984D02*
X12831848Y-11630984D01*
X12831848Y-11630984D02*
X12850896Y-11640508D01*
X12850896Y-11640508D02*
X12860420Y-11650031D01*
X12860420Y-11650031D02*
X12869944Y-11669079D01*
X12869944Y-11669079D02*
X12879467Y-11707174D01*
X12879467Y-11707174D02*
X12879467Y-11754793D01*
X12879467Y-11754793D02*
X12869944Y-11792888D01*
X12869944Y-11792888D02*
X12860420Y-11811936D01*
X12860420Y-11811936D02*
X12850896Y-11821460D01*
X12850896Y-11821460D02*
X12831848Y-11830984D01*
X12831848Y-11830984D02*
X12812801Y-11830984D01*
X12812801Y-11830984D02*
X12793753Y-11821460D01*
X12793753Y-11821460D02*
X12784229Y-11811936D01*
X12784229Y-11811936D02*
X12774706Y-11792888D01*
X12774706Y-11792888D02*
X12765182Y-11754793D01*
X12765182Y-11754793D02*
X12765182Y-11707174D01*
X12765182Y-11707174D02*
X12774706Y-11669079D01*
X12774706Y-11669079D02*
X12784229Y-11650031D01*
X12784229Y-11650031D02*
X12793753Y-11640508D01*
X12793753Y-11640508D02*
X12812801Y-11630984D01*
X12955658Y-11650031D02*
X12965182Y-11640508D01*
X12965182Y-11640508D02*
X12984229Y-11630984D01*
X12984229Y-11630984D02*
X13031848Y-11630984D01*
X13031848Y-11630984D02*
X13050896Y-11640508D01*
X13050896Y-11640508D02*
X13060420Y-11650031D01*
X13060420Y-11650031D02*
X13069944Y-11669079D01*
X13069944Y-11669079D02*
X13069944Y-11688127D01*
X13069944Y-11688127D02*
X13060420Y-11716698D01*
X13060420Y-11716698D02*
X12946134Y-11830984D01*
X12946134Y-11830984D02*
X13069944Y-11830984D01*
X13146134Y-11630984D02*
X13146134Y-11669079D01*
X13222325Y-11630984D02*
X13222325Y-11669079D01*
X13517563Y-11907174D02*
X13508039Y-11897650D01*
X13508039Y-11897650D02*
X13488991Y-11869079D01*
X13488991Y-11869079D02*
X13479468Y-11850031D01*
X13479468Y-11850031D02*
X13469944Y-11821460D01*
X13469944Y-11821460D02*
X13460420Y-11773841D01*
X13460420Y-11773841D02*
X13460420Y-11735746D01*
X13460420Y-11735746D02*
X13469944Y-11688127D01*
X13469944Y-11688127D02*
X13479468Y-11659555D01*
X13479468Y-11659555D02*
X13488991Y-11640508D01*
X13488991Y-11640508D02*
X13508039Y-11611936D01*
X13508039Y-11611936D02*
X13517563Y-11602412D01*
X13679468Y-11697650D02*
X13679468Y-11830984D01*
X13631848Y-11621460D02*
X13584229Y-11764317D01*
X13584229Y-11764317D02*
X13708039Y-11764317D01*
X13936610Y-11830984D02*
X13936610Y-11630984D01*
X14022325Y-11830984D02*
X14022325Y-11726222D01*
X14022325Y-11726222D02*
X14012801Y-11707174D01*
X14012801Y-11707174D02*
X13993753Y-11697650D01*
X13993753Y-11697650D02*
X13965182Y-11697650D01*
X13965182Y-11697650D02*
X13946134Y-11707174D01*
X13946134Y-11707174D02*
X13936610Y-11716698D01*
X14146134Y-11830984D02*
X14127087Y-11821460D01*
X14127087Y-11821460D02*
X14117563Y-11811936D01*
X14117563Y-11811936D02*
X14108039Y-11792888D01*
X14108039Y-11792888D02*
X14108039Y-11735746D01*
X14108039Y-11735746D02*
X14117563Y-11716698D01*
X14117563Y-11716698D02*
X14127087Y-11707174D01*
X14127087Y-11707174D02*
X14146134Y-11697650D01*
X14146134Y-11697650D02*
X14174706Y-11697650D01*
X14174706Y-11697650D02*
X14193753Y-11707174D01*
X14193753Y-11707174D02*
X14203277Y-11716698D01*
X14203277Y-11716698D02*
X14212801Y-11735746D01*
X14212801Y-11735746D02*
X14212801Y-11792888D01*
X14212801Y-11792888D02*
X14203277Y-11811936D01*
X14203277Y-11811936D02*
X14193753Y-11821460D01*
X14193753Y-11821460D02*
X14174706Y-11830984D01*
X14174706Y-11830984D02*
X14146134Y-11830984D01*
X14327087Y-11830984D02*
X14308039Y-11821460D01*
X14308039Y-11821460D02*
X14298515Y-11802412D01*
X14298515Y-11802412D02*
X14298515Y-11630984D01*
X14479468Y-11821460D02*
X14460420Y-11830984D01*
X14460420Y-11830984D02*
X14422325Y-11830984D01*
X14422325Y-11830984D02*
X14403277Y-11821460D01*
X14403277Y-11821460D02*
X14393753Y-11802412D01*
X14393753Y-11802412D02*
X14393753Y-11726222D01*
X14393753Y-11726222D02*
X14403277Y-11707174D01*
X14403277Y-11707174D02*
X14422325Y-11697650D01*
X14422325Y-11697650D02*
X14460420Y-11697650D01*
X14460420Y-11697650D02*
X14479468Y-11707174D01*
X14479468Y-11707174D02*
X14488991Y-11726222D01*
X14488991Y-11726222D02*
X14488991Y-11745269D01*
X14488991Y-11745269D02*
X14393753Y-11764317D01*
X14565182Y-11821460D02*
X14584230Y-11830984D01*
X14584230Y-11830984D02*
X14622325Y-11830984D01*
X14622325Y-11830984D02*
X14641372Y-11821460D01*
X14641372Y-11821460D02*
X14650896Y-11802412D01*
X14650896Y-11802412D02*
X14650896Y-11792888D01*
X14650896Y-11792888D02*
X14641372Y-11773841D01*
X14641372Y-11773841D02*
X14622325Y-11764317D01*
X14622325Y-11764317D02*
X14593753Y-11764317D01*
X14593753Y-11764317D02*
X14574706Y-11754793D01*
X14574706Y-11754793D02*
X14565182Y-11735746D01*
X14565182Y-11735746D02*
X14565182Y-11726222D01*
X14565182Y-11726222D02*
X14574706Y-11707174D01*
X14574706Y-11707174D02*
X14593753Y-11697650D01*
X14593753Y-11697650D02*
X14622325Y-11697650D01*
X14622325Y-11697650D02*
X14641372Y-11707174D01*
X14717563Y-11907174D02*
X14727087Y-11897650D01*
X14727087Y-11897650D02*
X14746134Y-11869079D01*
X14746134Y-11869079D02*
X14755658Y-11850031D01*
X14755658Y-11850031D02*
X14765182Y-11821460D01*
X14765182Y-11821460D02*
X14774706Y-11773841D01*
X14774706Y-11773841D02*
X14774706Y-11735746D01*
X14774706Y-11735746D02*
X14765182Y-11688127D01*
X14765182Y-11688127D02*
X14755658Y-11659555D01*
X14755658Y-11659555D02*
X14746134Y-11640508D01*
X14746134Y-11640508D02*
X14727087Y-11611936D01*
X14727087Y-11611936D02*
X14717563Y-11602412D01*
M02*
