%TF.GenerationSoftware,KiCad,Pcbnew,8.0.8*%
%TF.CreationDate,2025-02-15T02:14:19-07:00*%
%TF.ProjectId,bubble_detector_v2_shield,62756262-6c65-45f6-9465-746563746f72,rev?*%
%TF.SameCoordinates,Original*%
%TF.FileFunction,Legend,Top*%
%TF.FilePolarity,Positive*%
%FSLAX46Y46*%
G04 Gerber Fmt 4.6, Leading zero omitted, Abs format (unit mm)*
G04 Created by KiCad (PCBNEW 8.0.8) date 2025-02-15 02:14:19*
%MOMM*%
%LPD*%
G01*
G04 APERTURE LIST*
%ADD10C,0.150000*%
%ADD11C,0.120000*%
%ADD12C,0.127000*%
G04 APERTURE END LIST*
D10*
X148146249Y-93247350D02*
X148956194Y-93247350D01*
X148956194Y-93247350D02*
X149051482Y-93199707D01*
X149051482Y-93199707D02*
X149099126Y-93152063D01*
X149099126Y-93152063D02*
X149146769Y-93056775D01*
X149146769Y-93056775D02*
X149146769Y-92866200D01*
X149146769Y-92866200D02*
X149099126Y-92770912D01*
X149099126Y-92770912D02*
X149051482Y-92723269D01*
X149051482Y-92723269D02*
X148956194Y-92675625D01*
X148956194Y-92675625D02*
X148146249Y-92675625D01*
X149146769Y-91675105D02*
X149146769Y-92246830D01*
X149146769Y-91960967D02*
X148146249Y-91960967D01*
X148146249Y-91960967D02*
X148289181Y-92056255D01*
X148289181Y-92056255D02*
X148384468Y-92151543D01*
X148384468Y-92151543D02*
X148432112Y-92246830D01*
X123540387Y-67410317D02*
X123206605Y-66933485D01*
X122968189Y-67410317D02*
X122968189Y-66408971D01*
X122968189Y-66408971D02*
X123349654Y-66408971D01*
X123349654Y-66408971D02*
X123445021Y-66456654D01*
X123445021Y-66456654D02*
X123492704Y-66504337D01*
X123492704Y-66504337D02*
X123540387Y-66599703D01*
X123540387Y-66599703D02*
X123540387Y-66742753D01*
X123540387Y-66742753D02*
X123492704Y-66838119D01*
X123492704Y-66838119D02*
X123445021Y-66885802D01*
X123445021Y-66885802D02*
X123349654Y-66933485D01*
X123349654Y-66933485D02*
X122968189Y-66933485D01*
X123969535Y-66885802D02*
X124303317Y-66885802D01*
X124446367Y-67410317D02*
X123969535Y-67410317D01*
X123969535Y-67410317D02*
X123969535Y-66408971D01*
X123969535Y-66408971D02*
X124446367Y-66408971D01*
X125209297Y-66885802D02*
X124875515Y-66885802D01*
X124875515Y-67410317D02*
X124875515Y-66408971D01*
X124875515Y-66408971D02*
X125352347Y-66408971D01*
X125876862Y-66408971D02*
X125876862Y-66647386D01*
X125638446Y-66552020D02*
X125876862Y-66647386D01*
X125876862Y-66647386D02*
X126115277Y-66552020D01*
X125733812Y-66838119D02*
X125876862Y-66647386D01*
X125876862Y-66647386D02*
X126019911Y-66838119D01*
X126639792Y-66408971D02*
X126639792Y-66647386D01*
X126401376Y-66552020D02*
X126639792Y-66647386D01*
X126639792Y-66647386D02*
X126878207Y-66552020D01*
X126496742Y-66838119D02*
X126639792Y-66647386D01*
X126639792Y-66647386D02*
X126782841Y-66838119D01*
X116463016Y-75145172D02*
X117226445Y-75145172D01*
X116844730Y-75526886D02*
X116844730Y-74763457D01*
X130726131Y-75144892D02*
X131489230Y-75144892D01*
D11*
%TO.C,J1*%
X129210000Y-98790000D02*
X147050000Y-98790000D01*
X129210000Y-98790000D02*
X129210000Y-96130000D01*
X147050000Y-98790000D02*
X147050000Y-96130000D01*
X126610000Y-97460000D02*
X126610000Y-96130000D01*
X126610000Y-96130000D02*
X127940000Y-96130000D01*
X129210000Y-96130000D02*
X147050000Y-96130000D01*
%TO.C,J3*%
X152070000Y-98790000D02*
X164830000Y-98790000D01*
X152070000Y-98790000D02*
X152070000Y-96130000D01*
X164830000Y-98790000D02*
X164830000Y-96130000D01*
X149470000Y-97460000D02*
X149470000Y-96130000D01*
X149470000Y-96130000D02*
X150800000Y-96130000D01*
X152070000Y-96130000D02*
X164830000Y-96130000D01*
%TO.C,J2*%
X120066000Y-50530000D02*
X142986000Y-50530000D01*
X120066000Y-50530000D02*
X120066000Y-47870000D01*
X142986000Y-50530000D02*
X142986000Y-47870000D01*
X117466000Y-49200000D02*
X117466000Y-47870000D01*
X117466000Y-47870000D02*
X118796000Y-47870000D01*
X120066000Y-47870000D02*
X142986000Y-47870000D01*
%TO.C,J4*%
X146990000Y-50530000D02*
X164830000Y-50530000D01*
X146990000Y-50530000D02*
X146990000Y-47870000D01*
X164830000Y-50530000D02*
X164830000Y-47870000D01*
X144390000Y-49200000D02*
X144390000Y-47870000D01*
X144390000Y-47870000D02*
X145720000Y-47870000D01*
X146990000Y-47870000D02*
X164830000Y-47870000D01*
D12*
%TO.C,U1*%
X164645000Y-94500000D02*
X164645000Y-78500000D01*
X164645000Y-67500000D02*
X164645000Y-51500000D01*
X150845000Y-50500000D02*
X150845000Y-51500000D01*
X150845000Y-51500000D02*
X150845000Y-67500000D01*
X150845000Y-67500000D02*
X150845000Y-78500000D01*
X150845000Y-78500000D02*
X150845000Y-94500000D01*
X150845000Y-94500000D02*
X150845000Y-95500000D01*
X150845000Y-95500000D02*
X149645000Y-95500000D01*
X149645000Y-95500000D02*
X149645000Y-50500000D01*
X149645000Y-50500000D02*
X150845000Y-50500000D01*
X150845000Y-94500000D02*
X164645000Y-94500000D01*
X150845000Y-51500000D02*
X164645000Y-51500000D01*
X150845000Y-78500000D02*
X164645000Y-78500000D01*
X150845000Y-67500000D02*
X164645000Y-67500000D01*
%TO.C,REF\u002A\u002A*%
X130500000Y-74500000D02*
G75*
G02*
X118500000Y-74500000I-6000000J0D01*
G01*
X118500000Y-74500000D02*
G75*
G02*
X130500000Y-74500000I6000000J0D01*
G01*
%TD*%
M02*
