%TF.GenerationSoftware,KiCad,Pcbnew,8.0.8*%
%TF.CreationDate,2025-02-15T02:14:19-07:00*%
%TF.ProjectId,bubble_detector_v2_shield,62756262-6c65-45f6-9465-746563746f72,rev?*%
%TF.SameCoordinates,Original*%
%TF.FileFunction,Copper,L1,Top*%
%TF.FilePolarity,Positive*%
%FSLAX46Y46*%
G04 Gerber Fmt 4.6, Leading zero omitted, Abs format (unit mm)*
G04 Created by KiCad (PCBNEW 8.0.8) date 2025-02-15 02:14:19*
%MOMM*%
%LPD*%
G01*
G04 APERTURE LIST*
%ADD10C,0.300000*%
%TA.AperFunction,NonConductor*%
%ADD11C,0.300000*%
%TD*%
%TA.AperFunction,ComponentPad*%
%ADD12R,1.700000X1.700000*%
%TD*%
%TA.AperFunction,ComponentPad*%
%ADD13O,1.700000X1.700000*%
%TD*%
%TA.AperFunction,ComponentPad*%
%ADD14C,1.530000*%
%TD*%
%TA.AperFunction,ComponentPad*%
%ADD15C,1.308000*%
%TD*%
%TA.AperFunction,ViaPad*%
%ADD16C,0.600000*%
%TD*%
%TA.AperFunction,Conductor*%
%ADD17C,0.250000*%
%TD*%
G04 APERTURE END LIST*
D10*
D11*
X105340225Y-71300828D02*
X106197368Y-71300828D01*
X105768796Y-72800828D02*
X105768796Y-71300828D01*
X106697367Y-72800828D02*
X106697367Y-71300828D01*
X107340225Y-72800828D02*
X107340225Y-72015114D01*
X107340225Y-72015114D02*
X107268796Y-71872257D01*
X107268796Y-71872257D02*
X107125939Y-71800828D01*
X107125939Y-71800828D02*
X106911653Y-71800828D01*
X106911653Y-71800828D02*
X106768796Y-71872257D01*
X106768796Y-71872257D02*
X106697367Y-71943685D01*
X108054510Y-72800828D02*
X108054510Y-71800828D01*
X108054510Y-71300828D02*
X107983082Y-71372257D01*
X107983082Y-71372257D02*
X108054510Y-71443685D01*
X108054510Y-71443685D02*
X108125939Y-71372257D01*
X108125939Y-71372257D02*
X108054510Y-71300828D01*
X108054510Y-71300828D02*
X108054510Y-71443685D01*
X108697368Y-72729400D02*
X108840225Y-72800828D01*
X108840225Y-72800828D02*
X109125939Y-72800828D01*
X109125939Y-72800828D02*
X109268796Y-72729400D01*
X109268796Y-72729400D02*
X109340225Y-72586542D01*
X109340225Y-72586542D02*
X109340225Y-72515114D01*
X109340225Y-72515114D02*
X109268796Y-72372257D01*
X109268796Y-72372257D02*
X109125939Y-72300828D01*
X109125939Y-72300828D02*
X108911654Y-72300828D01*
X108911654Y-72300828D02*
X108768796Y-72229400D01*
X108768796Y-72229400D02*
X108697368Y-72086542D01*
X108697368Y-72086542D02*
X108697368Y-72015114D01*
X108697368Y-72015114D02*
X108768796Y-71872257D01*
X108768796Y-71872257D02*
X108911654Y-71800828D01*
X108911654Y-71800828D02*
X109125939Y-71800828D01*
X109125939Y-71800828D02*
X109268796Y-71872257D01*
X111125939Y-72800828D02*
X111125939Y-71800828D01*
X111125939Y-71300828D02*
X111054511Y-71372257D01*
X111054511Y-71372257D02*
X111125939Y-71443685D01*
X111125939Y-71443685D02*
X111197368Y-71372257D01*
X111197368Y-71372257D02*
X111125939Y-71300828D01*
X111125939Y-71300828D02*
X111125939Y-71443685D01*
X111768797Y-72729400D02*
X111911654Y-72800828D01*
X111911654Y-72800828D02*
X112197368Y-72800828D01*
X112197368Y-72800828D02*
X112340225Y-72729400D01*
X112340225Y-72729400D02*
X112411654Y-72586542D01*
X112411654Y-72586542D02*
X112411654Y-72515114D01*
X112411654Y-72515114D02*
X112340225Y-72372257D01*
X112340225Y-72372257D02*
X112197368Y-72300828D01*
X112197368Y-72300828D02*
X111983083Y-72300828D01*
X111983083Y-72300828D02*
X111840225Y-72229400D01*
X111840225Y-72229400D02*
X111768797Y-72086542D01*
X111768797Y-72086542D02*
X111768797Y-72015114D01*
X111768797Y-72015114D02*
X111840225Y-71872257D01*
X111840225Y-71872257D02*
X111983083Y-71800828D01*
X111983083Y-71800828D02*
X112197368Y-71800828D01*
X112197368Y-71800828D02*
X112340225Y-71872257D01*
X114197368Y-71800828D02*
X114197368Y-73086542D01*
X114197368Y-73086542D02*
X114125940Y-73229400D01*
X114125940Y-73229400D02*
X113983083Y-73300828D01*
X113983083Y-73300828D02*
X113911654Y-73300828D01*
X114197368Y-71300828D02*
X114125940Y-71372257D01*
X114125940Y-71372257D02*
X114197368Y-71443685D01*
X114197368Y-71443685D02*
X114268797Y-71372257D01*
X114268797Y-71372257D02*
X114197368Y-71300828D01*
X114197368Y-71300828D02*
X114197368Y-71443685D01*
X115554512Y-71800828D02*
X115554512Y-72800828D01*
X114911654Y-71800828D02*
X114911654Y-72586542D01*
X114911654Y-72586542D02*
X114983083Y-72729400D01*
X114983083Y-72729400D02*
X115125940Y-72800828D01*
X115125940Y-72800828D02*
X115340226Y-72800828D01*
X115340226Y-72800828D02*
X115483083Y-72729400D01*
X115483083Y-72729400D02*
X115554512Y-72657971D01*
X116197369Y-72729400D02*
X116340226Y-72800828D01*
X116340226Y-72800828D02*
X116625940Y-72800828D01*
X116625940Y-72800828D02*
X116768797Y-72729400D01*
X116768797Y-72729400D02*
X116840226Y-72586542D01*
X116840226Y-72586542D02*
X116840226Y-72515114D01*
X116840226Y-72515114D02*
X116768797Y-72372257D01*
X116768797Y-72372257D02*
X116625940Y-72300828D01*
X116625940Y-72300828D02*
X116411655Y-72300828D01*
X116411655Y-72300828D02*
X116268797Y-72229400D01*
X116268797Y-72229400D02*
X116197369Y-72086542D01*
X116197369Y-72086542D02*
X116197369Y-72015114D01*
X116197369Y-72015114D02*
X116268797Y-71872257D01*
X116268797Y-71872257D02*
X116411655Y-71800828D01*
X116411655Y-71800828D02*
X116625940Y-71800828D01*
X116625940Y-71800828D02*
X116768797Y-71872257D01*
X117268798Y-71800828D02*
X117840226Y-71800828D01*
X117483083Y-71300828D02*
X117483083Y-72586542D01*
X117483083Y-72586542D02*
X117554512Y-72729400D01*
X117554512Y-72729400D02*
X117697369Y-72800828D01*
X117697369Y-72800828D02*
X117840226Y-72800828D01*
X120125941Y-72800828D02*
X120125941Y-72015114D01*
X120125941Y-72015114D02*
X120054512Y-71872257D01*
X120054512Y-71872257D02*
X119911655Y-71800828D01*
X119911655Y-71800828D02*
X119625941Y-71800828D01*
X119625941Y-71800828D02*
X119483083Y-71872257D01*
X120125941Y-72729400D02*
X119983083Y-72800828D01*
X119983083Y-72800828D02*
X119625941Y-72800828D01*
X119625941Y-72800828D02*
X119483083Y-72729400D01*
X119483083Y-72729400D02*
X119411655Y-72586542D01*
X119411655Y-72586542D02*
X119411655Y-72443685D01*
X119411655Y-72443685D02*
X119483083Y-72300828D01*
X119483083Y-72300828D02*
X119625941Y-72229400D01*
X119625941Y-72229400D02*
X119983083Y-72229400D01*
X119983083Y-72229400D02*
X120125941Y-72157971D01*
X121768798Y-71800828D02*
X122340226Y-71800828D01*
X121983083Y-71300828D02*
X121983083Y-72586542D01*
X121983083Y-72586542D02*
X122054512Y-72729400D01*
X122054512Y-72729400D02*
X122197369Y-72800828D01*
X122197369Y-72800828D02*
X122340226Y-72800828D01*
X123411655Y-72729400D02*
X123268798Y-72800828D01*
X123268798Y-72800828D02*
X122983084Y-72800828D01*
X122983084Y-72800828D02*
X122840226Y-72729400D01*
X122840226Y-72729400D02*
X122768798Y-72586542D01*
X122768798Y-72586542D02*
X122768798Y-72015114D01*
X122768798Y-72015114D02*
X122840226Y-71872257D01*
X122840226Y-71872257D02*
X122983084Y-71800828D01*
X122983084Y-71800828D02*
X123268798Y-71800828D01*
X123268798Y-71800828D02*
X123411655Y-71872257D01*
X123411655Y-71872257D02*
X123483084Y-72015114D01*
X123483084Y-72015114D02*
X123483084Y-72157971D01*
X123483084Y-72157971D02*
X122768798Y-72300828D01*
X124054512Y-72729400D02*
X124197369Y-72800828D01*
X124197369Y-72800828D02*
X124483083Y-72800828D01*
X124483083Y-72800828D02*
X124625940Y-72729400D01*
X124625940Y-72729400D02*
X124697369Y-72586542D01*
X124697369Y-72586542D02*
X124697369Y-72515114D01*
X124697369Y-72515114D02*
X124625940Y-72372257D01*
X124625940Y-72372257D02*
X124483083Y-72300828D01*
X124483083Y-72300828D02*
X124268798Y-72300828D01*
X124268798Y-72300828D02*
X124125940Y-72229400D01*
X124125940Y-72229400D02*
X124054512Y-72086542D01*
X124054512Y-72086542D02*
X124054512Y-72015114D01*
X124054512Y-72015114D02*
X124125940Y-71872257D01*
X124125940Y-71872257D02*
X124268798Y-71800828D01*
X124268798Y-71800828D02*
X124483083Y-71800828D01*
X124483083Y-71800828D02*
X124625940Y-71872257D01*
X125125941Y-71800828D02*
X125697369Y-71800828D01*
X125340226Y-71300828D02*
X125340226Y-72586542D01*
X125340226Y-72586542D02*
X125411655Y-72729400D01*
X125411655Y-72729400D02*
X125554512Y-72800828D01*
X125554512Y-72800828D02*
X125697369Y-72800828D01*
X127340226Y-72800828D02*
X127340226Y-71300828D01*
X127340226Y-71872257D02*
X127483084Y-71800828D01*
X127483084Y-71800828D02*
X127768798Y-71800828D01*
X127768798Y-71800828D02*
X127911655Y-71872257D01*
X127911655Y-71872257D02*
X127983084Y-71943685D01*
X127983084Y-71943685D02*
X128054512Y-72086542D01*
X128054512Y-72086542D02*
X128054512Y-72515114D01*
X128054512Y-72515114D02*
X127983084Y-72657971D01*
X127983084Y-72657971D02*
X127911655Y-72729400D01*
X127911655Y-72729400D02*
X127768798Y-72800828D01*
X127768798Y-72800828D02*
X127483084Y-72800828D01*
X127483084Y-72800828D02*
X127340226Y-72729400D01*
X128911655Y-72800828D02*
X128768798Y-72729400D01*
X128768798Y-72729400D02*
X128697369Y-72657971D01*
X128697369Y-72657971D02*
X128625941Y-72515114D01*
X128625941Y-72515114D02*
X128625941Y-72086542D01*
X128625941Y-72086542D02*
X128697369Y-71943685D01*
X128697369Y-71943685D02*
X128768798Y-71872257D01*
X128768798Y-71872257D02*
X128911655Y-71800828D01*
X128911655Y-71800828D02*
X129125941Y-71800828D01*
X129125941Y-71800828D02*
X129268798Y-71872257D01*
X129268798Y-71872257D02*
X129340227Y-71943685D01*
X129340227Y-71943685D02*
X129411655Y-72086542D01*
X129411655Y-72086542D02*
X129411655Y-72515114D01*
X129411655Y-72515114D02*
X129340227Y-72657971D01*
X129340227Y-72657971D02*
X129268798Y-72729400D01*
X129268798Y-72729400D02*
X129125941Y-72800828D01*
X129125941Y-72800828D02*
X128911655Y-72800828D01*
X130697370Y-72800828D02*
X130697370Y-72015114D01*
X130697370Y-72015114D02*
X130625941Y-71872257D01*
X130625941Y-71872257D02*
X130483084Y-71800828D01*
X130483084Y-71800828D02*
X130197370Y-71800828D01*
X130197370Y-71800828D02*
X130054512Y-71872257D01*
X130697370Y-72729400D02*
X130554512Y-72800828D01*
X130554512Y-72800828D02*
X130197370Y-72800828D01*
X130197370Y-72800828D02*
X130054512Y-72729400D01*
X130054512Y-72729400D02*
X129983084Y-72586542D01*
X129983084Y-72586542D02*
X129983084Y-72443685D01*
X129983084Y-72443685D02*
X130054512Y-72300828D01*
X130054512Y-72300828D02*
X130197370Y-72229400D01*
X130197370Y-72229400D02*
X130554512Y-72229400D01*
X130554512Y-72229400D02*
X130697370Y-72157971D01*
X131411655Y-72800828D02*
X131411655Y-71800828D01*
X131411655Y-72086542D02*
X131483084Y-71943685D01*
X131483084Y-71943685D02*
X131554513Y-71872257D01*
X131554513Y-71872257D02*
X131697370Y-71800828D01*
X131697370Y-71800828D02*
X131840227Y-71800828D01*
X132983084Y-72800828D02*
X132983084Y-71300828D01*
X132983084Y-72729400D02*
X132840226Y-72800828D01*
X132840226Y-72800828D02*
X132554512Y-72800828D01*
X132554512Y-72800828D02*
X132411655Y-72729400D01*
X132411655Y-72729400D02*
X132340226Y-72657971D01*
X132340226Y-72657971D02*
X132268798Y-72515114D01*
X132268798Y-72515114D02*
X132268798Y-72086542D01*
X132268798Y-72086542D02*
X132340226Y-71943685D01*
X132340226Y-71943685D02*
X132411655Y-71872257D01*
X132411655Y-71872257D02*
X132554512Y-71800828D01*
X132554512Y-71800828D02*
X132840226Y-71800828D01*
X132840226Y-71800828D02*
X132983084Y-71872257D01*
D12*
%TO.P,J1,1,Pin_1*%
%TO.N,unconnected-(J1-Pin_1-Pad1)*%
X127940000Y-97460000D03*
D13*
%TO.P,J1,2,Pin_2*%
%TO.N,/IOREF*%
X130480000Y-97460000D03*
%TO.P,J1,3,Pin_3*%
%TO.N,/~{RESET}*%
X133020000Y-97460000D03*
%TO.P,J1,4,Pin_4*%
%TO.N,+3V3*%
X135560000Y-97460000D03*
%TO.P,J1,5,Pin_5*%
%TO.N,N/C*%
X138100000Y-97460000D03*
%TO.P,J1,6,Pin_6*%
%TO.N,GND*%
X140640000Y-97460000D03*
%TO.P,J1,7,Pin_7*%
X143180000Y-97460000D03*
%TO.P,J1,8,Pin_8*%
%TO.N,VCC*%
X145720000Y-97460000D03*
%TD*%
D12*
%TO.P,J3,1,Pin_1*%
%TO.N,/A0*%
X150800000Y-97460000D03*
D13*
%TO.P,J3,2,Pin_2*%
%TO.N,/A1*%
X153340000Y-97460000D03*
%TO.P,J3,3,Pin_3*%
%TO.N,/A2*%
X155880000Y-97460000D03*
%TO.P,J3,4,Pin_4*%
%TO.N,/A3*%
X158420000Y-97460000D03*
%TO.P,J3,5,Pin_5*%
%TO.N,/SDA{slash}A4*%
X160960000Y-97460000D03*
%TO.P,J3,6,Pin_6*%
%TO.N,/SCL{slash}A5*%
X163500000Y-97460000D03*
%TD*%
D12*
%TO.P,J2,1,Pin_1*%
%TO.N,/SCL{slash}A5*%
X118796000Y-49200000D03*
D13*
%TO.P,J2,2,Pin_2*%
%TO.N,/SDA{slash}A4*%
X121336000Y-49200000D03*
%TO.P,J2,3,Pin_3*%
%TO.N,/AREF*%
X123876000Y-49200000D03*
%TO.P,J2,4,Pin_4*%
%TO.N,GND*%
X126416000Y-49200000D03*
%TO.P,J2,5,Pin_5*%
%TO.N,/13*%
X128956000Y-49200000D03*
%TO.P,J2,6,Pin_6*%
%TO.N,/12*%
X131496000Y-49200000D03*
%TO.P,J2,7,Pin_7*%
%TO.N,/\u002A11*%
X134036000Y-49200000D03*
%TO.P,J2,8,Pin_8*%
%TO.N,/\u002A10*%
X136576000Y-49200000D03*
%TO.P,J2,9,Pin_9*%
%TO.N,/\u002A9*%
X139116000Y-49200000D03*
%TO.P,J2,10,Pin_10*%
%TO.N,/8*%
X141656000Y-49200000D03*
%TD*%
D12*
%TO.P,J4,1,Pin_1*%
%TO.N,/7*%
X145720000Y-49200000D03*
D13*
%TO.P,J4,2,Pin_2*%
%TO.N,/\u002A6*%
X148260000Y-49200000D03*
%TO.P,J4,3,Pin_3*%
%TO.N,/\u002A5*%
X150800000Y-49200000D03*
%TO.P,J4,4,Pin_4*%
%TO.N,/4*%
X153340000Y-49200000D03*
%TO.P,J4,5,Pin_5*%
%TO.N,/\u002A3*%
X155880000Y-49200000D03*
%TO.P,J4,6,Pin_6*%
%TO.N,/2*%
X158420000Y-49200000D03*
%TO.P,J4,7,Pin_7*%
%TO.N,/TX{slash}1*%
X160960000Y-49200000D03*
%TO.P,J4,8,Pin_8*%
%TO.N,/RX{slash}0*%
X163500000Y-49200000D03*
%TD*%
D14*
%TO.P,U1,2,TRIG*%
%TO.N,/\u002A9*%
X145375000Y-74270000D03*
%TO.P,U1,3,ECHO*%
%TO.N,/\u002A10*%
X145375000Y-71730000D03*
%TO.P,U1,4,GND*%
%TO.N,GND*%
X145375000Y-69190000D03*
%TO.P,U1,1,VCC*%
%TO.N,+5V*%
X145375000Y-76810000D03*
%TD*%
D15*
%TO.P,REF\u002A\u002A,P*%
%TO.N,N/C*%
X121250000Y-74500000D03*
%TO.P,REF\u002A\u002A,N*%
X127750000Y-74500000D03*
%TD*%
D16*
%TO.N,/SCL{slash}A5*%
X163500000Y-51745700D03*
%TO.N,/SDA{slash}A4*%
X126000000Y-91000000D03*
%TO.N,GND*%
X145375000Y-51092300D03*
%TO.N,+5V*%
X118500000Y-81125000D03*
%TD*%
D17*
%TO.N,/SCL{slash}A5*%
X122151000Y-51745700D02*
X163500000Y-51745700D01*
X119973000Y-49567700D02*
X122151000Y-51745700D01*
X119973000Y-49200000D02*
X119973000Y-49567700D01*
X118796000Y-49200000D02*
X119973000Y-49200000D01*
%TO.N,/SDA{slash}A4*%
X159783000Y-97460000D02*
X160960000Y-97460000D01*
X159783000Y-97092300D02*
X159783000Y-97460000D01*
X153691000Y-91000000D02*
X159783000Y-97092300D01*
X126000000Y-91000000D02*
X153691000Y-91000000D01*
%TO.N,GND*%
X143180000Y-97460000D02*
X140640000Y-97460000D01*
X129117000Y-51092300D02*
X145375000Y-51092300D01*
X127593000Y-49567700D02*
X129117000Y-51092300D01*
X127593000Y-49200000D02*
X127593000Y-49567700D01*
X126416000Y-49200000D02*
X127593000Y-49200000D01*
%TO.N,+5V*%
X145375000Y-76810000D02*
X122690000Y-76810000D01*
X122690000Y-76810000D02*
X118500000Y-81000000D01*
X118500000Y-81125000D02*
X118500000Y-81000000D01*
X118500000Y-84383900D02*
X118500000Y-81125000D01*
X125741000Y-91625000D02*
X118500000Y-84383900D01*
X132265000Y-91625000D02*
X125741000Y-91625000D01*
X138100000Y-97460000D02*
X132265000Y-91625000D01*
%TD*%
M02*
