%TF.GenerationSoftware,KiCad,Pcbnew,8.0.8*%
%TF.CreationDate,2025-02-15T01:56:59-07:00*%
%TF.ProjectId,bubble_detector_v2_shield,62756262-6c65-45f6-9465-746563746f72,rev?*%
%TF.SameCoordinates,Original*%
%TF.FileFunction,Copper,L2,Bot*%
%TF.FilePolarity,Positive*%
%FSLAX46Y46*%
G04 Gerber Fmt 4.6, Leading zero omitted, Abs format (unit mm)*
G04 Created by KiCad (PCBNEW 8.0.8) date 2025-02-15 01:56:59*
%MOMM*%
%LPD*%
G01*
G04 APERTURE LIST*
%ADD10C,0.300000*%
%TA.AperFunction,NonConductor*%
%ADD11C,0.300000*%
%TD*%
%TA.AperFunction,ComponentPad*%
%ADD12R,1.700000X1.700000*%
%TD*%
%TA.AperFunction,ComponentPad*%
%ADD13O,1.700000X1.700000*%
%TD*%
%TA.AperFunction,ComponentPad*%
%ADD14C,1.530000*%
%TD*%
%TA.AperFunction,ComponentPad*%
%ADD15C,1.308000*%
%TD*%
%TA.AperFunction,ViaPad*%
%ADD16C,0.600000*%
%TD*%
%TA.AperFunction,Conductor*%
%ADD17C,0.250000*%
%TD*%
G04 APERTURE END LIST*
D10*
D11*
X136659774Y-53470996D02*
X135802632Y-53470996D01*
X136231203Y-54970996D02*
X136231203Y-53470996D01*
X135302632Y-54970996D02*
X135302632Y-53470996D01*
X134659775Y-54970996D02*
X134659775Y-54185282D01*
X134659775Y-54185282D02*
X134731203Y-54042425D01*
X134731203Y-54042425D02*
X134874060Y-53970996D01*
X134874060Y-53970996D02*
X135088346Y-53970996D01*
X135088346Y-53970996D02*
X135231203Y-54042425D01*
X135231203Y-54042425D02*
X135302632Y-54113853D01*
X133945489Y-54970996D02*
X133945489Y-53970996D01*
X133945489Y-53470996D02*
X134016917Y-53542425D01*
X134016917Y-53542425D02*
X133945489Y-53613853D01*
X133945489Y-53613853D02*
X133874060Y-53542425D01*
X133874060Y-53542425D02*
X133945489Y-53470996D01*
X133945489Y-53470996D02*
X133945489Y-53613853D01*
X133302631Y-54899568D02*
X133159774Y-54970996D01*
X133159774Y-54970996D02*
X132874060Y-54970996D01*
X132874060Y-54970996D02*
X132731203Y-54899568D01*
X132731203Y-54899568D02*
X132659774Y-54756710D01*
X132659774Y-54756710D02*
X132659774Y-54685282D01*
X132659774Y-54685282D02*
X132731203Y-54542425D01*
X132731203Y-54542425D02*
X132874060Y-54470996D01*
X132874060Y-54470996D02*
X133088346Y-54470996D01*
X133088346Y-54470996D02*
X133231203Y-54399568D01*
X133231203Y-54399568D02*
X133302631Y-54256710D01*
X133302631Y-54256710D02*
X133302631Y-54185282D01*
X133302631Y-54185282D02*
X133231203Y-54042425D01*
X133231203Y-54042425D02*
X133088346Y-53970996D01*
X133088346Y-53970996D02*
X132874060Y-53970996D01*
X132874060Y-53970996D02*
X132731203Y-54042425D01*
X130874060Y-54970996D02*
X130874060Y-53970996D01*
X130874060Y-53470996D02*
X130945488Y-53542425D01*
X130945488Y-53542425D02*
X130874060Y-53613853D01*
X130874060Y-53613853D02*
X130802631Y-53542425D01*
X130802631Y-53542425D02*
X130874060Y-53470996D01*
X130874060Y-53470996D02*
X130874060Y-53613853D01*
X130231202Y-54899568D02*
X130088345Y-54970996D01*
X130088345Y-54970996D02*
X129802631Y-54970996D01*
X129802631Y-54970996D02*
X129659774Y-54899568D01*
X129659774Y-54899568D02*
X129588345Y-54756710D01*
X129588345Y-54756710D02*
X129588345Y-54685282D01*
X129588345Y-54685282D02*
X129659774Y-54542425D01*
X129659774Y-54542425D02*
X129802631Y-54470996D01*
X129802631Y-54470996D02*
X130016917Y-54470996D01*
X130016917Y-54470996D02*
X130159774Y-54399568D01*
X130159774Y-54399568D02*
X130231202Y-54256710D01*
X130231202Y-54256710D02*
X130231202Y-54185282D01*
X130231202Y-54185282D02*
X130159774Y-54042425D01*
X130159774Y-54042425D02*
X130016917Y-53970996D01*
X130016917Y-53970996D02*
X129802631Y-53970996D01*
X129802631Y-53970996D02*
X129659774Y-54042425D01*
X127159774Y-54970996D02*
X127159774Y-54185282D01*
X127159774Y-54185282D02*
X127231202Y-54042425D01*
X127231202Y-54042425D02*
X127374059Y-53970996D01*
X127374059Y-53970996D02*
X127659774Y-53970996D01*
X127659774Y-53970996D02*
X127802631Y-54042425D01*
X127159774Y-54899568D02*
X127302631Y-54970996D01*
X127302631Y-54970996D02*
X127659774Y-54970996D01*
X127659774Y-54970996D02*
X127802631Y-54899568D01*
X127802631Y-54899568D02*
X127874059Y-54756710D01*
X127874059Y-54756710D02*
X127874059Y-54613853D01*
X127874059Y-54613853D02*
X127802631Y-54470996D01*
X127802631Y-54470996D02*
X127659774Y-54399568D01*
X127659774Y-54399568D02*
X127302631Y-54399568D01*
X127302631Y-54399568D02*
X127159774Y-54328139D01*
X125516916Y-53970996D02*
X124945488Y-53970996D01*
X125302631Y-53470996D02*
X125302631Y-54756710D01*
X125302631Y-54756710D02*
X125231202Y-54899568D01*
X125231202Y-54899568D02*
X125088345Y-54970996D01*
X125088345Y-54970996D02*
X124945488Y-54970996D01*
X123874059Y-54899568D02*
X124016916Y-54970996D01*
X124016916Y-54970996D02*
X124302631Y-54970996D01*
X124302631Y-54970996D02*
X124445488Y-54899568D01*
X124445488Y-54899568D02*
X124516916Y-54756710D01*
X124516916Y-54756710D02*
X124516916Y-54185282D01*
X124516916Y-54185282D02*
X124445488Y-54042425D01*
X124445488Y-54042425D02*
X124302631Y-53970996D01*
X124302631Y-53970996D02*
X124016916Y-53970996D01*
X124016916Y-53970996D02*
X123874059Y-54042425D01*
X123874059Y-54042425D02*
X123802631Y-54185282D01*
X123802631Y-54185282D02*
X123802631Y-54328139D01*
X123802631Y-54328139D02*
X124516916Y-54470996D01*
X123231202Y-54899568D02*
X123088345Y-54970996D01*
X123088345Y-54970996D02*
X122802631Y-54970996D01*
X122802631Y-54970996D02*
X122659774Y-54899568D01*
X122659774Y-54899568D02*
X122588345Y-54756710D01*
X122588345Y-54756710D02*
X122588345Y-54685282D01*
X122588345Y-54685282D02*
X122659774Y-54542425D01*
X122659774Y-54542425D02*
X122802631Y-54470996D01*
X122802631Y-54470996D02*
X123016917Y-54470996D01*
X123016917Y-54470996D02*
X123159774Y-54399568D01*
X123159774Y-54399568D02*
X123231202Y-54256710D01*
X123231202Y-54256710D02*
X123231202Y-54185282D01*
X123231202Y-54185282D02*
X123159774Y-54042425D01*
X123159774Y-54042425D02*
X123016917Y-53970996D01*
X123016917Y-53970996D02*
X122802631Y-53970996D01*
X122802631Y-53970996D02*
X122659774Y-54042425D01*
X122159773Y-53970996D02*
X121588345Y-53970996D01*
X121945488Y-53470996D02*
X121945488Y-54756710D01*
X121945488Y-54756710D02*
X121874059Y-54899568D01*
X121874059Y-54899568D02*
X121731202Y-54970996D01*
X121731202Y-54970996D02*
X121588345Y-54970996D01*
X119945488Y-54970996D02*
X119945488Y-53470996D01*
X119945488Y-54042425D02*
X119802631Y-53970996D01*
X119802631Y-53970996D02*
X119516916Y-53970996D01*
X119516916Y-53970996D02*
X119374059Y-54042425D01*
X119374059Y-54042425D02*
X119302631Y-54113853D01*
X119302631Y-54113853D02*
X119231202Y-54256710D01*
X119231202Y-54256710D02*
X119231202Y-54685282D01*
X119231202Y-54685282D02*
X119302631Y-54828139D01*
X119302631Y-54828139D02*
X119374059Y-54899568D01*
X119374059Y-54899568D02*
X119516916Y-54970996D01*
X119516916Y-54970996D02*
X119802631Y-54970996D01*
X119802631Y-54970996D02*
X119945488Y-54899568D01*
X118374059Y-54970996D02*
X118516916Y-54899568D01*
X118516916Y-54899568D02*
X118588345Y-54828139D01*
X118588345Y-54828139D02*
X118659773Y-54685282D01*
X118659773Y-54685282D02*
X118659773Y-54256710D01*
X118659773Y-54256710D02*
X118588345Y-54113853D01*
X118588345Y-54113853D02*
X118516916Y-54042425D01*
X118516916Y-54042425D02*
X118374059Y-53970996D01*
X118374059Y-53970996D02*
X118159773Y-53970996D01*
X118159773Y-53970996D02*
X118016916Y-54042425D01*
X118016916Y-54042425D02*
X117945488Y-54113853D01*
X117945488Y-54113853D02*
X117874059Y-54256710D01*
X117874059Y-54256710D02*
X117874059Y-54685282D01*
X117874059Y-54685282D02*
X117945488Y-54828139D01*
X117945488Y-54828139D02*
X118016916Y-54899568D01*
X118016916Y-54899568D02*
X118159773Y-54970996D01*
X118159773Y-54970996D02*
X118374059Y-54970996D01*
X116588345Y-54970996D02*
X116588345Y-54185282D01*
X116588345Y-54185282D02*
X116659773Y-54042425D01*
X116659773Y-54042425D02*
X116802630Y-53970996D01*
X116802630Y-53970996D02*
X117088345Y-53970996D01*
X117088345Y-53970996D02*
X117231202Y-54042425D01*
X116588345Y-54899568D02*
X116731202Y-54970996D01*
X116731202Y-54970996D02*
X117088345Y-54970996D01*
X117088345Y-54970996D02*
X117231202Y-54899568D01*
X117231202Y-54899568D02*
X117302630Y-54756710D01*
X117302630Y-54756710D02*
X117302630Y-54613853D01*
X117302630Y-54613853D02*
X117231202Y-54470996D01*
X117231202Y-54470996D02*
X117088345Y-54399568D01*
X117088345Y-54399568D02*
X116731202Y-54399568D01*
X116731202Y-54399568D02*
X116588345Y-54328139D01*
X115874059Y-54970996D02*
X115874059Y-53970996D01*
X115874059Y-54256710D02*
X115802630Y-54113853D01*
X115802630Y-54113853D02*
X115731202Y-54042425D01*
X115731202Y-54042425D02*
X115588344Y-53970996D01*
X115588344Y-53970996D02*
X115445487Y-53970996D01*
X114302631Y-54970996D02*
X114302631Y-53470996D01*
X114302631Y-54899568D02*
X114445488Y-54970996D01*
X114445488Y-54970996D02*
X114731202Y-54970996D01*
X114731202Y-54970996D02*
X114874059Y-54899568D01*
X114874059Y-54899568D02*
X114945488Y-54828139D01*
X114945488Y-54828139D02*
X115016916Y-54685282D01*
X115016916Y-54685282D02*
X115016916Y-54256710D01*
X115016916Y-54256710D02*
X114945488Y-54113853D01*
X114945488Y-54113853D02*
X114874059Y-54042425D01*
X114874059Y-54042425D02*
X114731202Y-53970996D01*
X114731202Y-53970996D02*
X114445488Y-53970996D01*
X114445488Y-53970996D02*
X114302631Y-54042425D01*
X113516916Y-54899568D02*
X113516916Y-54970996D01*
X113516916Y-54970996D02*
X113588345Y-55113853D01*
X113588345Y-55113853D02*
X113659773Y-55185282D01*
X111731202Y-54970996D02*
X111731202Y-53470996D01*
X135874060Y-57314484D02*
X136016917Y-57385912D01*
X136016917Y-57385912D02*
X136302632Y-57385912D01*
X136302632Y-57385912D02*
X136445489Y-57314484D01*
X136445489Y-57314484D02*
X136516917Y-57171626D01*
X136516917Y-57171626D02*
X136516917Y-56600198D01*
X136516917Y-56600198D02*
X136445489Y-56457341D01*
X136445489Y-56457341D02*
X136302632Y-56385912D01*
X136302632Y-56385912D02*
X136016917Y-56385912D01*
X136016917Y-56385912D02*
X135874060Y-56457341D01*
X135874060Y-56457341D02*
X135802632Y-56600198D01*
X135802632Y-56600198D02*
X135802632Y-56743055D01*
X135802632Y-56743055D02*
X136516917Y-56885912D01*
X135302632Y-57385912D02*
X134516918Y-56385912D01*
X135302632Y-56385912D02*
X134516918Y-57385912D01*
X133945489Y-56385912D02*
X133945489Y-57885912D01*
X133945489Y-56457341D02*
X133802632Y-56385912D01*
X133802632Y-56385912D02*
X133516917Y-56385912D01*
X133516917Y-56385912D02*
X133374060Y-56457341D01*
X133374060Y-56457341D02*
X133302632Y-56528769D01*
X133302632Y-56528769D02*
X133231203Y-56671626D01*
X133231203Y-56671626D02*
X133231203Y-57100198D01*
X133231203Y-57100198D02*
X133302632Y-57243055D01*
X133302632Y-57243055D02*
X133374060Y-57314484D01*
X133374060Y-57314484D02*
X133516917Y-57385912D01*
X133516917Y-57385912D02*
X133802632Y-57385912D01*
X133802632Y-57385912D02*
X133945489Y-57314484D01*
X132016917Y-57314484D02*
X132159774Y-57385912D01*
X132159774Y-57385912D02*
X132445489Y-57385912D01*
X132445489Y-57385912D02*
X132588346Y-57314484D01*
X132588346Y-57314484D02*
X132659774Y-57171626D01*
X132659774Y-57171626D02*
X132659774Y-56600198D01*
X132659774Y-56600198D02*
X132588346Y-56457341D01*
X132588346Y-56457341D02*
X132445489Y-56385912D01*
X132445489Y-56385912D02*
X132159774Y-56385912D01*
X132159774Y-56385912D02*
X132016917Y-56457341D01*
X132016917Y-56457341D02*
X131945489Y-56600198D01*
X131945489Y-56600198D02*
X131945489Y-56743055D01*
X131945489Y-56743055D02*
X132659774Y-56885912D01*
X130659775Y-57314484D02*
X130802632Y-57385912D01*
X130802632Y-57385912D02*
X131088346Y-57385912D01*
X131088346Y-57385912D02*
X131231203Y-57314484D01*
X131231203Y-57314484D02*
X131302632Y-57243055D01*
X131302632Y-57243055D02*
X131374060Y-57100198D01*
X131374060Y-57100198D02*
X131374060Y-56671626D01*
X131374060Y-56671626D02*
X131302632Y-56528769D01*
X131302632Y-56528769D02*
X131231203Y-56457341D01*
X131231203Y-56457341D02*
X131088346Y-56385912D01*
X131088346Y-56385912D02*
X130802632Y-56385912D01*
X130802632Y-56385912D02*
X130659775Y-56457341D01*
X130231203Y-56385912D02*
X129659775Y-56385912D01*
X130016918Y-55885912D02*
X130016918Y-57171626D01*
X130016918Y-57171626D02*
X129945489Y-57314484D01*
X129945489Y-57314484D02*
X129802632Y-57385912D01*
X129802632Y-57385912D02*
X129659775Y-57385912D01*
X127374061Y-57385912D02*
X127374061Y-56600198D01*
X127374061Y-56600198D02*
X127445489Y-56457341D01*
X127445489Y-56457341D02*
X127588346Y-56385912D01*
X127588346Y-56385912D02*
X127874061Y-56385912D01*
X127874061Y-56385912D02*
X128016918Y-56457341D01*
X127374061Y-57314484D02*
X127516918Y-57385912D01*
X127516918Y-57385912D02*
X127874061Y-57385912D01*
X127874061Y-57385912D02*
X128016918Y-57314484D01*
X128016918Y-57314484D02*
X128088346Y-57171626D01*
X128088346Y-57171626D02*
X128088346Y-57028769D01*
X128088346Y-57028769D02*
X128016918Y-56885912D01*
X128016918Y-56885912D02*
X127874061Y-56814484D01*
X127874061Y-56814484D02*
X127516918Y-56814484D01*
X127516918Y-56814484D02*
X127374061Y-56743055D01*
X125302632Y-57385912D02*
X125445489Y-57314484D01*
X125445489Y-57314484D02*
X125516918Y-57171626D01*
X125516918Y-57171626D02*
X125516918Y-55885912D01*
X124516918Y-57385912D02*
X124659775Y-57314484D01*
X124659775Y-57314484D02*
X124731204Y-57243055D01*
X124731204Y-57243055D02*
X124802632Y-57100198D01*
X124802632Y-57100198D02*
X124802632Y-56671626D01*
X124802632Y-56671626D02*
X124731204Y-56528769D01*
X124731204Y-56528769D02*
X124659775Y-56457341D01*
X124659775Y-56457341D02*
X124516918Y-56385912D01*
X124516918Y-56385912D02*
X124302632Y-56385912D01*
X124302632Y-56385912D02*
X124159775Y-56457341D01*
X124159775Y-56457341D02*
X124088347Y-56528769D01*
X124088347Y-56528769D02*
X124016918Y-56671626D01*
X124016918Y-56671626D02*
X124016918Y-57100198D01*
X124016918Y-57100198D02*
X124088347Y-57243055D01*
X124088347Y-57243055D02*
X124159775Y-57314484D01*
X124159775Y-57314484D02*
X124302632Y-57385912D01*
X124302632Y-57385912D02*
X124516918Y-57385912D01*
X123588346Y-56385912D02*
X123016918Y-56385912D01*
X123374061Y-55885912D02*
X123374061Y-57171626D01*
X123374061Y-57171626D02*
X123302632Y-57314484D01*
X123302632Y-57314484D02*
X123159775Y-57385912D01*
X123159775Y-57385912D02*
X123016918Y-57385912D01*
X121159775Y-57385912D02*
X121302632Y-57314484D01*
X121302632Y-57314484D02*
X121374061Y-57243055D01*
X121374061Y-57243055D02*
X121445489Y-57100198D01*
X121445489Y-57100198D02*
X121445489Y-56671626D01*
X121445489Y-56671626D02*
X121374061Y-56528769D01*
X121374061Y-56528769D02*
X121302632Y-56457341D01*
X121302632Y-56457341D02*
X121159775Y-56385912D01*
X121159775Y-56385912D02*
X120945489Y-56385912D01*
X120945489Y-56385912D02*
X120802632Y-56457341D01*
X120802632Y-56457341D02*
X120731204Y-56528769D01*
X120731204Y-56528769D02*
X120659775Y-56671626D01*
X120659775Y-56671626D02*
X120659775Y-57100198D01*
X120659775Y-57100198D02*
X120731204Y-57243055D01*
X120731204Y-57243055D02*
X120802632Y-57314484D01*
X120802632Y-57314484D02*
X120945489Y-57385912D01*
X120945489Y-57385912D02*
X121159775Y-57385912D01*
X120231203Y-56385912D02*
X119659775Y-56385912D01*
X120016918Y-57385912D02*
X120016918Y-56100198D01*
X120016918Y-56100198D02*
X119945489Y-55957341D01*
X119945489Y-55957341D02*
X119802632Y-55885912D01*
X119802632Y-55885912D02*
X119659775Y-55885912D01*
X118231203Y-56385912D02*
X117659775Y-56385912D01*
X118016918Y-55885912D02*
X118016918Y-57171626D01*
X118016918Y-57171626D02*
X117945489Y-57314484D01*
X117945489Y-57314484D02*
X117802632Y-57385912D01*
X117802632Y-57385912D02*
X117659775Y-57385912D01*
X117159775Y-57385912D02*
X117159775Y-55885912D01*
X116516918Y-57385912D02*
X116516918Y-56600198D01*
X116516918Y-56600198D02*
X116588346Y-56457341D01*
X116588346Y-56457341D02*
X116731203Y-56385912D01*
X116731203Y-56385912D02*
X116945489Y-56385912D01*
X116945489Y-56385912D02*
X117088346Y-56457341D01*
X117088346Y-56457341D02*
X117159775Y-56528769D01*
X115802632Y-57385912D02*
X115802632Y-56385912D01*
X115802632Y-55885912D02*
X115874060Y-55957341D01*
X115874060Y-55957341D02*
X115802632Y-56028769D01*
X115802632Y-56028769D02*
X115731203Y-55957341D01*
X115731203Y-55957341D02*
X115802632Y-55885912D01*
X115802632Y-55885912D02*
X115802632Y-56028769D01*
X115088346Y-56385912D02*
X115088346Y-57385912D01*
X115088346Y-56528769D02*
X115016917Y-56457341D01*
X115016917Y-56457341D02*
X114874060Y-56385912D01*
X114874060Y-56385912D02*
X114659774Y-56385912D01*
X114659774Y-56385912D02*
X114516917Y-56457341D01*
X114516917Y-56457341D02*
X114445489Y-56600198D01*
X114445489Y-56600198D02*
X114445489Y-57385912D01*
X113088346Y-56385912D02*
X113088346Y-57600198D01*
X113088346Y-57600198D02*
X113159774Y-57743055D01*
X113159774Y-57743055D02*
X113231203Y-57814484D01*
X113231203Y-57814484D02*
X113374060Y-57885912D01*
X113374060Y-57885912D02*
X113588346Y-57885912D01*
X113588346Y-57885912D02*
X113731203Y-57814484D01*
X113088346Y-57314484D02*
X113231203Y-57385912D01*
X113231203Y-57385912D02*
X113516917Y-57385912D01*
X113516917Y-57385912D02*
X113659774Y-57314484D01*
X113659774Y-57314484D02*
X113731203Y-57243055D01*
X113731203Y-57243055D02*
X113802631Y-57100198D01*
X113802631Y-57100198D02*
X113802631Y-56671626D01*
X113802631Y-56671626D02*
X113731203Y-56528769D01*
X113731203Y-56528769D02*
X113659774Y-56457341D01*
X113659774Y-56457341D02*
X113516917Y-56385912D01*
X113516917Y-56385912D02*
X113231203Y-56385912D01*
X113231203Y-56385912D02*
X113088346Y-56457341D01*
X112445488Y-57314484D02*
X112302631Y-57385912D01*
X112302631Y-57385912D02*
X112016917Y-57385912D01*
X112016917Y-57385912D02*
X111874060Y-57314484D01*
X111874060Y-57314484D02*
X111802631Y-57171626D01*
X111802631Y-57171626D02*
X111802631Y-57100198D01*
X111802631Y-57100198D02*
X111874060Y-56957341D01*
X111874060Y-56957341D02*
X112016917Y-56885912D01*
X112016917Y-56885912D02*
X112231203Y-56885912D01*
X112231203Y-56885912D02*
X112374060Y-56814484D01*
X112374060Y-56814484D02*
X112445488Y-56671626D01*
X112445488Y-56671626D02*
X112445488Y-56600198D01*
X112445488Y-56600198D02*
X112374060Y-56457341D01*
X112374060Y-56457341D02*
X112231203Y-56385912D01*
X112231203Y-56385912D02*
X112016917Y-56385912D01*
X112016917Y-56385912D02*
X111874060Y-56457341D01*
X136659774Y-58800828D02*
X136088346Y-58800828D01*
X136445489Y-58300828D02*
X136445489Y-59586542D01*
X136445489Y-59586542D02*
X136374060Y-59729400D01*
X136374060Y-59729400D02*
X136231203Y-59800828D01*
X136231203Y-59800828D02*
X136088346Y-59800828D01*
X135374060Y-59800828D02*
X135516917Y-59729400D01*
X135516917Y-59729400D02*
X135588346Y-59657971D01*
X135588346Y-59657971D02*
X135659774Y-59515114D01*
X135659774Y-59515114D02*
X135659774Y-59086542D01*
X135659774Y-59086542D02*
X135588346Y-58943685D01*
X135588346Y-58943685D02*
X135516917Y-58872257D01*
X135516917Y-58872257D02*
X135374060Y-58800828D01*
X135374060Y-58800828D02*
X135159774Y-58800828D01*
X135159774Y-58800828D02*
X135016917Y-58872257D01*
X135016917Y-58872257D02*
X134945489Y-58943685D01*
X134945489Y-58943685D02*
X134874060Y-59086542D01*
X134874060Y-59086542D02*
X134874060Y-59515114D01*
X134874060Y-59515114D02*
X134945489Y-59657971D01*
X134945489Y-59657971D02*
X135016917Y-59729400D01*
X135016917Y-59729400D02*
X135159774Y-59800828D01*
X135159774Y-59800828D02*
X135374060Y-59800828D01*
X133088346Y-59800828D02*
X133088346Y-58300828D01*
X133088346Y-58872257D02*
X132945489Y-58800828D01*
X132945489Y-58800828D02*
X132659774Y-58800828D01*
X132659774Y-58800828D02*
X132516917Y-58872257D01*
X132516917Y-58872257D02*
X132445489Y-58943685D01*
X132445489Y-58943685D02*
X132374060Y-59086542D01*
X132374060Y-59086542D02*
X132374060Y-59515114D01*
X132374060Y-59515114D02*
X132445489Y-59657971D01*
X132445489Y-59657971D02*
X132516917Y-59729400D01*
X132516917Y-59729400D02*
X132659774Y-59800828D01*
X132659774Y-59800828D02*
X132945489Y-59800828D01*
X132945489Y-59800828D02*
X133088346Y-59729400D01*
X131159774Y-59729400D02*
X131302631Y-59800828D01*
X131302631Y-59800828D02*
X131588346Y-59800828D01*
X131588346Y-59800828D02*
X131731203Y-59729400D01*
X131731203Y-59729400D02*
X131802631Y-59586542D01*
X131802631Y-59586542D02*
X131802631Y-59015114D01*
X131802631Y-59015114D02*
X131731203Y-58872257D01*
X131731203Y-58872257D02*
X131588346Y-58800828D01*
X131588346Y-58800828D02*
X131302631Y-58800828D01*
X131302631Y-58800828D02*
X131159774Y-58872257D01*
X131159774Y-58872257D02*
X131088346Y-59015114D01*
X131088346Y-59015114D02*
X131088346Y-59157971D01*
X131088346Y-59157971D02*
X131802631Y-59300828D01*
X129445489Y-58800828D02*
X129159775Y-59800828D01*
X129159775Y-59800828D02*
X128874060Y-59086542D01*
X128874060Y-59086542D02*
X128588346Y-59800828D01*
X128588346Y-59800828D02*
X128302632Y-58800828D01*
X127731203Y-59800828D02*
X127731203Y-58800828D01*
X127731203Y-59086542D02*
X127659774Y-58943685D01*
X127659774Y-58943685D02*
X127588346Y-58872257D01*
X127588346Y-58872257D02*
X127445488Y-58800828D01*
X127445488Y-58800828D02*
X127302631Y-58800828D01*
X126588346Y-59800828D02*
X126731203Y-59729400D01*
X126731203Y-59729400D02*
X126802632Y-59657971D01*
X126802632Y-59657971D02*
X126874060Y-59515114D01*
X126874060Y-59515114D02*
X126874060Y-59086542D01*
X126874060Y-59086542D02*
X126802632Y-58943685D01*
X126802632Y-58943685D02*
X126731203Y-58872257D01*
X126731203Y-58872257D02*
X126588346Y-58800828D01*
X126588346Y-58800828D02*
X126374060Y-58800828D01*
X126374060Y-58800828D02*
X126231203Y-58872257D01*
X126231203Y-58872257D02*
X126159775Y-58943685D01*
X126159775Y-58943685D02*
X126088346Y-59086542D01*
X126088346Y-59086542D02*
X126088346Y-59515114D01*
X126088346Y-59515114D02*
X126159775Y-59657971D01*
X126159775Y-59657971D02*
X126231203Y-59729400D01*
X126231203Y-59729400D02*
X126374060Y-59800828D01*
X126374060Y-59800828D02*
X126588346Y-59800828D01*
X125445489Y-58800828D02*
X125445489Y-59800828D01*
X125445489Y-58943685D02*
X125374060Y-58872257D01*
X125374060Y-58872257D02*
X125231203Y-58800828D01*
X125231203Y-58800828D02*
X125016917Y-58800828D01*
X125016917Y-58800828D02*
X124874060Y-58872257D01*
X124874060Y-58872257D02*
X124802632Y-59015114D01*
X124802632Y-59015114D02*
X124802632Y-59800828D01*
X123445489Y-58800828D02*
X123445489Y-60015114D01*
X123445489Y-60015114D02*
X123516917Y-60157971D01*
X123516917Y-60157971D02*
X123588346Y-60229400D01*
X123588346Y-60229400D02*
X123731203Y-60300828D01*
X123731203Y-60300828D02*
X123945489Y-60300828D01*
X123945489Y-60300828D02*
X124088346Y-60229400D01*
X123445489Y-59729400D02*
X123588346Y-59800828D01*
X123588346Y-59800828D02*
X123874060Y-59800828D01*
X123874060Y-59800828D02*
X124016917Y-59729400D01*
X124016917Y-59729400D02*
X124088346Y-59657971D01*
X124088346Y-59657971D02*
X124159774Y-59515114D01*
X124159774Y-59515114D02*
X124159774Y-59086542D01*
X124159774Y-59086542D02*
X124088346Y-58943685D01*
X124088346Y-58943685D02*
X124016917Y-58872257D01*
X124016917Y-58872257D02*
X123874060Y-58800828D01*
X123874060Y-58800828D02*
X123588346Y-58800828D01*
X123588346Y-58800828D02*
X123445489Y-58872257D01*
X120945489Y-59800828D02*
X120945489Y-59015114D01*
X120945489Y-59015114D02*
X121016917Y-58872257D01*
X121016917Y-58872257D02*
X121159774Y-58800828D01*
X121159774Y-58800828D02*
X121445489Y-58800828D01*
X121445489Y-58800828D02*
X121588346Y-58872257D01*
X120945489Y-59729400D02*
X121088346Y-59800828D01*
X121088346Y-59800828D02*
X121445489Y-59800828D01*
X121445489Y-59800828D02*
X121588346Y-59729400D01*
X121588346Y-59729400D02*
X121659774Y-59586542D01*
X121659774Y-59586542D02*
X121659774Y-59443685D01*
X121659774Y-59443685D02*
X121588346Y-59300828D01*
X121588346Y-59300828D02*
X121445489Y-59229400D01*
X121445489Y-59229400D02*
X121088346Y-59229400D01*
X121088346Y-59229400D02*
X120945489Y-59157971D01*
X120231203Y-58800828D02*
X120231203Y-59800828D01*
X120231203Y-58943685D02*
X120159774Y-58872257D01*
X120159774Y-58872257D02*
X120016917Y-58800828D01*
X120016917Y-58800828D02*
X119802631Y-58800828D01*
X119802631Y-58800828D02*
X119659774Y-58872257D01*
X119659774Y-58872257D02*
X119588346Y-59015114D01*
X119588346Y-59015114D02*
X119588346Y-59800828D01*
X118231203Y-59800828D02*
X118231203Y-58300828D01*
X118231203Y-59729400D02*
X118374060Y-59800828D01*
X118374060Y-59800828D02*
X118659774Y-59800828D01*
X118659774Y-59800828D02*
X118802631Y-59729400D01*
X118802631Y-59729400D02*
X118874060Y-59657971D01*
X118874060Y-59657971D02*
X118945488Y-59515114D01*
X118945488Y-59515114D02*
X118945488Y-59086542D01*
X118945488Y-59086542D02*
X118874060Y-58943685D01*
X118874060Y-58943685D02*
X118802631Y-58872257D01*
X118802631Y-58872257D02*
X118659774Y-58800828D01*
X118659774Y-58800828D02*
X118374060Y-58800828D01*
X118374060Y-58800828D02*
X118231203Y-58872257D01*
X116374060Y-59800828D02*
X116374060Y-58300828D01*
X116374060Y-58872257D02*
X116231203Y-58800828D01*
X116231203Y-58800828D02*
X115945488Y-58800828D01*
X115945488Y-58800828D02*
X115802631Y-58872257D01*
X115802631Y-58872257D02*
X115731203Y-58943685D01*
X115731203Y-58943685D02*
X115659774Y-59086542D01*
X115659774Y-59086542D02*
X115659774Y-59515114D01*
X115659774Y-59515114D02*
X115731203Y-59657971D01*
X115731203Y-59657971D02*
X115802631Y-59729400D01*
X115802631Y-59729400D02*
X115945488Y-59800828D01*
X115945488Y-59800828D02*
X116231203Y-59800828D01*
X116231203Y-59800828D02*
X116374060Y-59729400D01*
X115016917Y-59800828D02*
X115016917Y-58800828D01*
X115016917Y-59086542D02*
X114945488Y-58943685D01*
X114945488Y-58943685D02*
X114874060Y-58872257D01*
X114874060Y-58872257D02*
X114731202Y-58800828D01*
X114731202Y-58800828D02*
X114588345Y-58800828D01*
X113874060Y-59800828D02*
X114016917Y-59729400D01*
X114016917Y-59729400D02*
X114088346Y-59657971D01*
X114088346Y-59657971D02*
X114159774Y-59515114D01*
X114159774Y-59515114D02*
X114159774Y-59086542D01*
X114159774Y-59086542D02*
X114088346Y-58943685D01*
X114088346Y-58943685D02*
X114016917Y-58872257D01*
X114016917Y-58872257D02*
X113874060Y-58800828D01*
X113874060Y-58800828D02*
X113659774Y-58800828D01*
X113659774Y-58800828D02*
X113516917Y-58872257D01*
X113516917Y-58872257D02*
X113445489Y-58943685D01*
X113445489Y-58943685D02*
X113374060Y-59086542D01*
X113374060Y-59086542D02*
X113374060Y-59515114D01*
X113374060Y-59515114D02*
X113445489Y-59657971D01*
X113445489Y-59657971D02*
X113516917Y-59729400D01*
X113516917Y-59729400D02*
X113659774Y-59800828D01*
X113659774Y-59800828D02*
X113874060Y-59800828D01*
X112731203Y-59800828D02*
X112731203Y-58300828D01*
X112588346Y-59229400D02*
X112159774Y-59800828D01*
X112159774Y-58800828D02*
X112731203Y-59372257D01*
X110945488Y-59729400D02*
X111088345Y-59800828D01*
X111088345Y-59800828D02*
X111374060Y-59800828D01*
X111374060Y-59800828D02*
X111516917Y-59729400D01*
X111516917Y-59729400D02*
X111588345Y-59586542D01*
X111588345Y-59586542D02*
X111588345Y-59015114D01*
X111588345Y-59015114D02*
X111516917Y-58872257D01*
X111516917Y-58872257D02*
X111374060Y-58800828D01*
X111374060Y-58800828D02*
X111088345Y-58800828D01*
X111088345Y-58800828D02*
X110945488Y-58872257D01*
X110945488Y-58872257D02*
X110874060Y-59015114D01*
X110874060Y-59015114D02*
X110874060Y-59157971D01*
X110874060Y-59157971D02*
X111588345Y-59300828D01*
X110231203Y-58800828D02*
X110231203Y-59800828D01*
X110231203Y-58943685D02*
X110159774Y-58872257D01*
X110159774Y-58872257D02*
X110016917Y-58800828D01*
X110016917Y-58800828D02*
X109802631Y-58800828D01*
X109802631Y-58800828D02*
X109659774Y-58872257D01*
X109659774Y-58872257D02*
X109588346Y-59015114D01*
X109588346Y-59015114D02*
X109588346Y-59800828D01*
D12*
%TO.P,J1,1,Pin_1*%
%TO.N,unconnected-(J1-Pin_1-Pad1)*%
X127940000Y-97460000D03*
D13*
%TO.P,J1,2,Pin_2*%
%TO.N,/IOREF*%
X130480000Y-97460000D03*
%TO.P,J1,3,Pin_3*%
%TO.N,/~{RESET}*%
X133020000Y-97460000D03*
%TO.P,J1,4,Pin_4*%
%TO.N,+3V3*%
X135560000Y-97460000D03*
%TO.P,J1,5,Pin_5*%
%TO.N,N/C*%
X138100000Y-97460000D03*
%TO.P,J1,6,Pin_6*%
%TO.N,GND*%
X140640000Y-97460000D03*
%TO.P,J1,7,Pin_7*%
X143180000Y-97460000D03*
%TO.P,J1,8,Pin_8*%
%TO.N,VCC*%
X145720000Y-97460000D03*
%TD*%
D12*
%TO.P,J3,1,Pin_1*%
%TO.N,/A0*%
X150800000Y-97460000D03*
D13*
%TO.P,J3,2,Pin_2*%
%TO.N,/A1*%
X153340000Y-97460000D03*
%TO.P,J3,3,Pin_3*%
%TO.N,/A2*%
X155880000Y-97460000D03*
%TO.P,J3,4,Pin_4*%
%TO.N,/A3*%
X158420000Y-97460000D03*
%TO.P,J3,5,Pin_5*%
%TO.N,/SDA{slash}A4*%
X160960000Y-97460000D03*
%TO.P,J3,6,Pin_6*%
%TO.N,/SCL{slash}A5*%
X163500000Y-97460000D03*
%TD*%
D12*
%TO.P,J2,1,Pin_1*%
%TO.N,/SCL{slash}A5*%
X118796000Y-49200000D03*
D13*
%TO.P,J2,2,Pin_2*%
%TO.N,/SDA{slash}A4*%
X121336000Y-49200000D03*
%TO.P,J2,3,Pin_3*%
%TO.N,/AREF*%
X123876000Y-49200000D03*
%TO.P,J2,4,Pin_4*%
%TO.N,GND*%
X126416000Y-49200000D03*
%TO.P,J2,5,Pin_5*%
%TO.N,/13*%
X128956000Y-49200000D03*
%TO.P,J2,6,Pin_6*%
%TO.N,/12*%
X131496000Y-49200000D03*
%TO.P,J2,7,Pin_7*%
%TO.N,/\u002A11*%
X134036000Y-49200000D03*
%TO.P,J2,8,Pin_8*%
%TO.N,/\u002A10*%
X136576000Y-49200000D03*
%TO.P,J2,9,Pin_9*%
%TO.N,/\u002A9*%
X139116000Y-49200000D03*
%TO.P,J2,10,Pin_10*%
%TO.N,/8*%
X141656000Y-49200000D03*
%TD*%
D12*
%TO.P,J4,1,Pin_1*%
%TO.N,/7*%
X145720000Y-49200000D03*
D13*
%TO.P,J4,2,Pin_2*%
%TO.N,/\u002A6*%
X148260000Y-49200000D03*
%TO.P,J4,3,Pin_3*%
%TO.N,/\u002A5*%
X150800000Y-49200000D03*
%TO.P,J4,4,Pin_4*%
%TO.N,/4*%
X153340000Y-49200000D03*
%TO.P,J4,5,Pin_5*%
%TO.N,/\u002A3*%
X155880000Y-49200000D03*
%TO.P,J4,6,Pin_6*%
%TO.N,/2*%
X158420000Y-49200000D03*
%TO.P,J4,7,Pin_7*%
%TO.N,/TX{slash}1*%
X160960000Y-49200000D03*
%TO.P,J4,8,Pin_8*%
%TO.N,/RX{slash}0*%
X163500000Y-49200000D03*
%TD*%
D14*
%TO.P,U1,2,TRIG*%
%TO.N,/\u002A9*%
X145375000Y-74270000D03*
%TO.P,U1,3,ECHO*%
%TO.N,/\u002A10*%
X145375000Y-71730000D03*
%TO.P,U1,4,GND*%
%TO.N,GND*%
X145375000Y-69190000D03*
%TO.P,U1,1,VCC*%
%TO.N,+5V*%
X145375000Y-76810000D03*
%TD*%
D15*
%TO.P,REF\u002A\u002A,P*%
%TO.N,N/C*%
X121250000Y-74500000D03*
%TO.P,REF\u002A\u002A,N*%
X127750000Y-74500000D03*
%TD*%
D16*
%TO.N,/SCL{slash}A5*%
X163500000Y-51745700D03*
%TO.N,/SDA{slash}A4*%
X126000000Y-91000000D03*
%TO.N,GND*%
X145375000Y-51092300D03*
%TO.N,+5V*%
X118500000Y-81125000D03*
%TD*%
D17*
%TO.N,/\u002A9*%
X139116000Y-68011000D02*
X145375000Y-74270000D01*
X139116000Y-49200000D02*
X139116000Y-68011000D01*
%TO.N,/\u002A10*%
X140386000Y-66741000D02*
X145375000Y-71730000D01*
X140386000Y-48730100D02*
X140386000Y-66741000D01*
X139663000Y-48007500D02*
X140386000Y-48730100D01*
X138578000Y-48007500D02*
X139663000Y-48007500D01*
X137753000Y-48832300D02*
X138578000Y-48007500D01*
X137753000Y-49200000D02*
X137753000Y-48832300D01*
X136576000Y-49200000D02*
X137753000Y-49200000D01*
%TO.N,/SCL{slash}A5*%
X163500000Y-97460000D02*
X163500000Y-51745700D01*
%TO.N,/SDA{slash}A4*%
X121336000Y-50376700D02*
X121336000Y-49200000D01*
X125319000Y-54360000D02*
X121336000Y-50376700D01*
X125319000Y-90319300D02*
X125319000Y-54360000D01*
X126000000Y-91000000D02*
X125319000Y-90319300D01*
%TO.N,GND*%
X145375000Y-69190000D02*
X145375000Y-51092300D01*
X146475000Y-70290100D02*
X145375000Y-69190000D01*
X146475000Y-92988200D02*
X146475000Y-70290100D01*
X143180000Y-96283300D02*
X146475000Y-92988200D01*
X143180000Y-97460000D02*
X143180000Y-96283300D01*
%TO.N,+5V*%
X118500000Y-77375000D02*
X118500000Y-81125000D01*
X118500000Y-77375000D02*
X118500000Y-77250000D01*
X118500000Y-81125000D02*
X118500000Y-81500000D01*
X138100000Y-84085000D02*
X145375000Y-76810000D01*
X138100000Y-97460000D02*
X138100000Y-84085000D01*
X121250000Y-74500000D02*
X118500000Y-77250000D01*
%TD*%
M02*
