%TF.GenerationSoftware,KiCad,Pcbnew,9.0.0*%
%TF.CreationDate,2025-02-27T00:07:18-07:00*%
%TF.ProjectId,bubble_detector_v2.1,62756262-6c65-45f6-9465-746563746f72,rev?*%
%TF.SameCoordinates,Original*%
%TF.FileFunction,Legend,Top*%
%TF.FilePolarity,Positive*%
%FSLAX46Y46*%
G04 Gerber Fmt 4.6, Leading zero omitted, Abs format (unit mm)*
G04 Created by KiCad (PCBNEW 9.0.0) date 2025-02-27 00:07:18*
%MOMM*%
%LPD*%
G01*
G04 APERTURE LIST*
%ADD10C,0.150000*%
%ADD11C,0.120000*%
%ADD12C,0.127000*%
G04 APERTURE END LIST*
D10*
X137546905Y-54804819D02*
X137546905Y-53804819D01*
X137546905Y-53804819D02*
X137785000Y-53804819D01*
X137785000Y-53804819D02*
X137927857Y-53852438D01*
X137927857Y-53852438D02*
X138023095Y-53947676D01*
X138023095Y-53947676D02*
X138070714Y-54042914D01*
X138070714Y-54042914D02*
X138118333Y-54233390D01*
X138118333Y-54233390D02*
X138118333Y-54376247D01*
X138118333Y-54376247D02*
X138070714Y-54566723D01*
X138070714Y-54566723D02*
X138023095Y-54661961D01*
X138023095Y-54661961D02*
X137927857Y-54757200D01*
X137927857Y-54757200D02*
X137785000Y-54804819D01*
X137785000Y-54804819D02*
X137546905Y-54804819D01*
X139070714Y-54804819D02*
X138499286Y-54804819D01*
X138785000Y-54804819D02*
X138785000Y-53804819D01*
X138785000Y-53804819D02*
X138689762Y-53947676D01*
X138689762Y-53947676D02*
X138594524Y-54042914D01*
X138594524Y-54042914D02*
X138499286Y-54090533D01*
X119900763Y-82810567D02*
X119423931Y-82810567D01*
X119423931Y-82810567D02*
X119423931Y-81809221D01*
X120186861Y-82762884D02*
X120329911Y-82810567D01*
X120329911Y-82810567D02*
X120568326Y-82810567D01*
X120568326Y-82810567D02*
X120663693Y-82762884D01*
X120663693Y-82762884D02*
X120711376Y-82715200D01*
X120711376Y-82715200D02*
X120759059Y-82619834D01*
X120759059Y-82619834D02*
X120759059Y-82524468D01*
X120759059Y-82524468D02*
X120711376Y-82429102D01*
X120711376Y-82429102D02*
X120663693Y-82381418D01*
X120663693Y-82381418D02*
X120568326Y-82333735D01*
X120568326Y-82333735D02*
X120377594Y-82286052D01*
X120377594Y-82286052D02*
X120282227Y-82238369D01*
X120282227Y-82238369D02*
X120234544Y-82190686D01*
X120234544Y-82190686D02*
X120186861Y-82095320D01*
X120186861Y-82095320D02*
X120186861Y-81999953D01*
X120186861Y-81999953D02*
X120234544Y-81904587D01*
X120234544Y-81904587D02*
X120282227Y-81856904D01*
X120282227Y-81856904D02*
X120377594Y-81809221D01*
X120377594Y-81809221D02*
X120616009Y-81809221D01*
X120616009Y-81809221D02*
X120759059Y-81856904D01*
X121712722Y-82810567D02*
X121140524Y-82810567D01*
X121426623Y-82810567D02*
X121426623Y-81809221D01*
X121426623Y-81809221D02*
X121331257Y-81952270D01*
X121331257Y-81952270D02*
X121235890Y-82047636D01*
X121235890Y-82047636D02*
X121140524Y-82095320D01*
X113930771Y-74313098D02*
X114693870Y-74313098D01*
X128193556Y-74312888D02*
X128956985Y-74312888D01*
X128575270Y-74694602D02*
X128575270Y-73931173D01*
X149691249Y-94827350D02*
X150501194Y-94827350D01*
X150501194Y-94827350D02*
X150596482Y-94779707D01*
X150596482Y-94779707D02*
X150644126Y-94732063D01*
X150644126Y-94732063D02*
X150691769Y-94636775D01*
X150691769Y-94636775D02*
X150691769Y-94446200D01*
X150691769Y-94446200D02*
X150644126Y-94350912D01*
X150644126Y-94350912D02*
X150596482Y-94303269D01*
X150596482Y-94303269D02*
X150501194Y-94255625D01*
X150501194Y-94255625D02*
X149691249Y-94255625D01*
X150691769Y-93255105D02*
X150691769Y-93826830D01*
X150691769Y-93540967D02*
X149691249Y-93540967D01*
X149691249Y-93540967D02*
X149834181Y-93636255D01*
X149834181Y-93636255D02*
X149929468Y-93731543D01*
X149929468Y-93731543D02*
X149977112Y-93826830D01*
D11*
%TO.C,D1*%
X141073107Y-59390075D02*
G75*
G02*
X135725000Y-59854830I-2788107J1080075D01*
G01*
X140539656Y-59390059D02*
G75*
G02*
X136030316Y-59390000I-2254656J1080059D01*
G01*
X136030316Y-57230000D02*
G75*
G02*
X140539656Y-57229941I2254684J-1080000D01*
G01*
X135725000Y-56765170D02*
G75*
G02*
X141073107Y-57229925I2560000J-1544830D01*
G01*
X135725000Y-59390000D02*
X135725000Y-59855000D01*
X135725000Y-56765000D02*
X135725000Y-57230000D01*
D12*
%TO.C,LS1*%
X126920000Y-74810000D02*
G75*
G02*
X114920000Y-74810000I-6000000J0D01*
G01*
X114920000Y-74810000D02*
G75*
G02*
X126920000Y-74810000I6000000J0D01*
G01*
D11*
%TO.C,J1*%
X111530000Y-96440000D02*
X112860000Y-96440000D01*
X111530000Y-97770000D02*
X111530000Y-96440000D01*
X114130000Y-96440000D02*
X131970000Y-96440000D01*
X114130000Y-99100000D02*
X114130000Y-96440000D01*
X114130000Y-99100000D02*
X131970000Y-99100000D01*
X131970000Y-99100000D02*
X131970000Y-96440000D01*
%TO.C,J3*%
X134390000Y-96440000D02*
X135720000Y-96440000D01*
X134390000Y-97770000D02*
X134390000Y-96440000D01*
X136990000Y-96440000D02*
X149750000Y-96440000D01*
X136990000Y-99100000D02*
X136990000Y-96440000D01*
X136990000Y-99100000D02*
X149750000Y-99100000D01*
X149750000Y-99100000D02*
X149750000Y-96440000D01*
%TO.C,J2*%
X102386000Y-48180000D02*
X103716000Y-48180000D01*
X102386000Y-49510000D02*
X102386000Y-48180000D01*
X104986000Y-48180000D02*
X127906000Y-48180000D01*
X104986000Y-50840000D02*
X104986000Y-48180000D01*
X104986000Y-50840000D02*
X127906000Y-50840000D01*
X127906000Y-50840000D02*
X127906000Y-48180000D01*
%TO.C,J4*%
X129310000Y-48180000D02*
X130640000Y-48180000D01*
X129310000Y-49510000D02*
X129310000Y-48180000D01*
X131910000Y-48180000D02*
X149750000Y-48180000D01*
X131910000Y-50840000D02*
X131910000Y-48180000D01*
X131910000Y-50840000D02*
X149750000Y-50840000D01*
X149750000Y-50840000D02*
X149750000Y-48180000D01*
D12*
%TO.C,U1*%
X151190000Y-52080000D02*
X152390000Y-52080000D01*
X151190000Y-97080000D02*
X151190000Y-52080000D01*
X152390000Y-52080000D02*
X152390000Y-53080000D01*
X152390000Y-53080000D02*
X152390000Y-69080000D01*
X152390000Y-53080000D02*
X166190000Y-53080000D01*
X152390000Y-69080000D02*
X152390000Y-80080000D01*
X152390000Y-69080000D02*
X166190000Y-69080000D01*
X152390000Y-80080000D02*
X152390000Y-96080000D01*
X152390000Y-80080000D02*
X166190000Y-80080000D01*
X152390000Y-96080000D02*
X152390000Y-97080000D01*
X152390000Y-96080000D02*
X166190000Y-96080000D01*
X152390000Y-97080000D02*
X151190000Y-97080000D01*
X166190000Y-69080000D02*
X166190000Y-53080000D01*
X166190000Y-96080000D02*
X166190000Y-80080000D01*
%TD*%
M02*
