%TF.GenerationSoftware,KiCad,Pcbnew,9.0.0*%
%TF.CreationDate,2025-03-02T04:05:25-07:00*%
%TF.ProjectId,bubble_detector_v2.1,62756262-6c65-45f6-9465-746563746f72,2.1*%
%TF.SameCoordinates,Original*%
%TF.FileFunction,Legend,Top*%
%TF.FilePolarity,Positive*%
%FSLAX46Y46*%
G04 Gerber Fmt 4.6, Leading zero omitted, Abs format (unit mm)*
G04 Created by KiCad (PCBNEW 9.0.0) date 2025-03-02 04:05:25*
%MOMM*%
%LPD*%
G01*
G04 APERTURE LIST*
%ADD10C,0.200000*%
%ADD11C,0.150000*%
%ADD12C,0.000000*%
%ADD13C,0.120000*%
%ADD14C,0.127000*%
G04 APERTURE END LIST*
D10*
X101322054Y-81962457D02*
X101369673Y-81914838D01*
X101369673Y-81914838D02*
X101464911Y-81867219D01*
X101464911Y-81867219D02*
X101703006Y-81867219D01*
X101703006Y-81867219D02*
X101798244Y-81914838D01*
X101798244Y-81914838D02*
X101845863Y-81962457D01*
X101845863Y-81962457D02*
X101893482Y-82057695D01*
X101893482Y-82057695D02*
X101893482Y-82152933D01*
X101893482Y-82152933D02*
X101845863Y-82295790D01*
X101845863Y-82295790D02*
X101274435Y-82867219D01*
X101274435Y-82867219D02*
X101893482Y-82867219D01*
X102512530Y-81867219D02*
X102607768Y-81867219D01*
X102607768Y-81867219D02*
X102703006Y-81914838D01*
X102703006Y-81914838D02*
X102750625Y-81962457D01*
X102750625Y-81962457D02*
X102798244Y-82057695D01*
X102798244Y-82057695D02*
X102845863Y-82248171D01*
X102845863Y-82248171D02*
X102845863Y-82486266D01*
X102845863Y-82486266D02*
X102798244Y-82676742D01*
X102798244Y-82676742D02*
X102750625Y-82771980D01*
X102750625Y-82771980D02*
X102703006Y-82819600D01*
X102703006Y-82819600D02*
X102607768Y-82867219D01*
X102607768Y-82867219D02*
X102512530Y-82867219D01*
X102512530Y-82867219D02*
X102417292Y-82819600D01*
X102417292Y-82819600D02*
X102369673Y-82771980D01*
X102369673Y-82771980D02*
X102322054Y-82676742D01*
X102322054Y-82676742D02*
X102274435Y-82486266D01*
X102274435Y-82486266D02*
X102274435Y-82248171D01*
X102274435Y-82248171D02*
X102322054Y-82057695D01*
X102322054Y-82057695D02*
X102369673Y-81962457D01*
X102369673Y-81962457D02*
X102417292Y-81914838D01*
X102417292Y-81914838D02*
X102512530Y-81867219D01*
X103226816Y-81962457D02*
X103274435Y-81914838D01*
X103274435Y-81914838D02*
X103369673Y-81867219D01*
X103369673Y-81867219D02*
X103607768Y-81867219D01*
X103607768Y-81867219D02*
X103703006Y-81914838D01*
X103703006Y-81914838D02*
X103750625Y-81962457D01*
X103750625Y-81962457D02*
X103798244Y-82057695D01*
X103798244Y-82057695D02*
X103798244Y-82152933D01*
X103798244Y-82152933D02*
X103750625Y-82295790D01*
X103750625Y-82295790D02*
X103179197Y-82867219D01*
X103179197Y-82867219D02*
X103798244Y-82867219D01*
X104703006Y-81867219D02*
X104226816Y-81867219D01*
X104226816Y-81867219D02*
X104179197Y-82343409D01*
X104179197Y-82343409D02*
X104226816Y-82295790D01*
X104226816Y-82295790D02*
X104322054Y-82248171D01*
X104322054Y-82248171D02*
X104560149Y-82248171D01*
X104560149Y-82248171D02*
X104655387Y-82295790D01*
X104655387Y-82295790D02*
X104703006Y-82343409D01*
X104703006Y-82343409D02*
X104750625Y-82438647D01*
X104750625Y-82438647D02*
X104750625Y-82676742D01*
X104750625Y-82676742D02*
X104703006Y-82771980D01*
X104703006Y-82771980D02*
X104655387Y-82819600D01*
X104655387Y-82819600D02*
X104560149Y-82867219D01*
X104560149Y-82867219D02*
X104322054Y-82867219D01*
X104322054Y-82867219D02*
X104226816Y-82819600D01*
X104226816Y-82819600D02*
X104179197Y-82771980D01*
X105845864Y-82200552D02*
X106083959Y-82867219D01*
X106083959Y-82867219D02*
X106322054Y-82200552D01*
X106655388Y-81962457D02*
X106703007Y-81914838D01*
X106703007Y-81914838D02*
X106798245Y-81867219D01*
X106798245Y-81867219D02*
X107036340Y-81867219D01*
X107036340Y-81867219D02*
X107131578Y-81914838D01*
X107131578Y-81914838D02*
X107179197Y-81962457D01*
X107179197Y-81962457D02*
X107226816Y-82057695D01*
X107226816Y-82057695D02*
X107226816Y-82152933D01*
X107226816Y-82152933D02*
X107179197Y-82295790D01*
X107179197Y-82295790D02*
X106607769Y-82867219D01*
X106607769Y-82867219D02*
X107226816Y-82867219D01*
X107655388Y-82771980D02*
X107703007Y-82819600D01*
X107703007Y-82819600D02*
X107655388Y-82867219D01*
X107655388Y-82867219D02*
X107607769Y-82819600D01*
X107607769Y-82819600D02*
X107655388Y-82771980D01*
X107655388Y-82771980D02*
X107655388Y-82867219D01*
X108655387Y-82867219D02*
X108083959Y-82867219D01*
X108369673Y-82867219D02*
X108369673Y-81867219D01*
X108369673Y-81867219D02*
X108274435Y-82010076D01*
X108274435Y-82010076D02*
X108179197Y-82105314D01*
X108179197Y-82105314D02*
X108083959Y-82152933D01*
X138322054Y-59819600D02*
X138464911Y-59867219D01*
X138464911Y-59867219D02*
X138703006Y-59867219D01*
X138703006Y-59867219D02*
X138798244Y-59819600D01*
X138798244Y-59819600D02*
X138845863Y-59771980D01*
X138845863Y-59771980D02*
X138893482Y-59676742D01*
X138893482Y-59676742D02*
X138893482Y-59581504D01*
X138893482Y-59581504D02*
X138845863Y-59486266D01*
X138845863Y-59486266D02*
X138798244Y-59438647D01*
X138798244Y-59438647D02*
X138703006Y-59391028D01*
X138703006Y-59391028D02*
X138512530Y-59343409D01*
X138512530Y-59343409D02*
X138417292Y-59295790D01*
X138417292Y-59295790D02*
X138369673Y-59248171D01*
X138369673Y-59248171D02*
X138322054Y-59152933D01*
X138322054Y-59152933D02*
X138322054Y-59057695D01*
X138322054Y-59057695D02*
X138369673Y-58962457D01*
X138369673Y-58962457D02*
X138417292Y-58914838D01*
X138417292Y-58914838D02*
X138512530Y-58867219D01*
X138512530Y-58867219D02*
X138750625Y-58867219D01*
X138750625Y-58867219D02*
X138893482Y-58914838D01*
X139322054Y-59200552D02*
X139322054Y-60200552D01*
X139322054Y-59248171D02*
X139417292Y-59200552D01*
X139417292Y-59200552D02*
X139607768Y-59200552D01*
X139607768Y-59200552D02*
X139703006Y-59248171D01*
X139703006Y-59248171D02*
X139750625Y-59295790D01*
X139750625Y-59295790D02*
X139798244Y-59391028D01*
X139798244Y-59391028D02*
X139798244Y-59676742D01*
X139798244Y-59676742D02*
X139750625Y-59771980D01*
X139750625Y-59771980D02*
X139703006Y-59819600D01*
X139703006Y-59819600D02*
X139607768Y-59867219D01*
X139607768Y-59867219D02*
X139417292Y-59867219D01*
X139417292Y-59867219D02*
X139322054Y-59819600D01*
X140607768Y-59819600D02*
X140512530Y-59867219D01*
X140512530Y-59867219D02*
X140322054Y-59867219D01*
X140322054Y-59867219D02*
X140226816Y-59819600D01*
X140226816Y-59819600D02*
X140179197Y-59724361D01*
X140179197Y-59724361D02*
X140179197Y-59343409D01*
X140179197Y-59343409D02*
X140226816Y-59248171D01*
X140226816Y-59248171D02*
X140322054Y-59200552D01*
X140322054Y-59200552D02*
X140512530Y-59200552D01*
X140512530Y-59200552D02*
X140607768Y-59248171D01*
X140607768Y-59248171D02*
X140655387Y-59343409D01*
X140655387Y-59343409D02*
X140655387Y-59438647D01*
X140655387Y-59438647D02*
X140179197Y-59533885D01*
X141512530Y-59867219D02*
X141512530Y-59343409D01*
X141512530Y-59343409D02*
X141464911Y-59248171D01*
X141464911Y-59248171D02*
X141369673Y-59200552D01*
X141369673Y-59200552D02*
X141179197Y-59200552D01*
X141179197Y-59200552D02*
X141083959Y-59248171D01*
X141512530Y-59819600D02*
X141417292Y-59867219D01*
X141417292Y-59867219D02*
X141179197Y-59867219D01*
X141179197Y-59867219D02*
X141083959Y-59819600D01*
X141083959Y-59819600D02*
X141036340Y-59724361D01*
X141036340Y-59724361D02*
X141036340Y-59629123D01*
X141036340Y-59629123D02*
X141083959Y-59533885D01*
X141083959Y-59533885D02*
X141179197Y-59486266D01*
X141179197Y-59486266D02*
X141417292Y-59486266D01*
X141417292Y-59486266D02*
X141512530Y-59438647D01*
X141988721Y-59867219D02*
X141988721Y-58867219D01*
X142083959Y-59486266D02*
X142369673Y-59867219D01*
X142369673Y-59200552D02*
X141988721Y-59581504D01*
X143179197Y-59819600D02*
X143083959Y-59867219D01*
X143083959Y-59867219D02*
X142893483Y-59867219D01*
X142893483Y-59867219D02*
X142798245Y-59819600D01*
X142798245Y-59819600D02*
X142750626Y-59724361D01*
X142750626Y-59724361D02*
X142750626Y-59343409D01*
X142750626Y-59343409D02*
X142798245Y-59248171D01*
X142798245Y-59248171D02*
X142893483Y-59200552D01*
X142893483Y-59200552D02*
X143083959Y-59200552D01*
X143083959Y-59200552D02*
X143179197Y-59248171D01*
X143179197Y-59248171D02*
X143226816Y-59343409D01*
X143226816Y-59343409D02*
X143226816Y-59438647D01*
X143226816Y-59438647D02*
X142750626Y-59533885D01*
X143655388Y-59867219D02*
X143655388Y-59200552D01*
X143655388Y-59391028D02*
X143703007Y-59295790D01*
X143703007Y-59295790D02*
X143750626Y-59248171D01*
X143750626Y-59248171D02*
X143845864Y-59200552D01*
X143845864Y-59200552D02*
X143941102Y-59200552D01*
D11*
X124583333Y-70109580D02*
X124535714Y-70157200D01*
X124535714Y-70157200D02*
X124392857Y-70204819D01*
X124392857Y-70204819D02*
X124297619Y-70204819D01*
X124297619Y-70204819D02*
X124154762Y-70157200D01*
X124154762Y-70157200D02*
X124059524Y-70061961D01*
X124059524Y-70061961D02*
X124011905Y-69966723D01*
X124011905Y-69966723D02*
X123964286Y-69776247D01*
X123964286Y-69776247D02*
X123964286Y-69633390D01*
X123964286Y-69633390D02*
X124011905Y-69442914D01*
X124011905Y-69442914D02*
X124059524Y-69347676D01*
X124059524Y-69347676D02*
X124154762Y-69252438D01*
X124154762Y-69252438D02*
X124297619Y-69204819D01*
X124297619Y-69204819D02*
X124392857Y-69204819D01*
X124392857Y-69204819D02*
X124535714Y-69252438D01*
X124535714Y-69252438D02*
X124583333Y-69300057D01*
X125535714Y-70204819D02*
X124964286Y-70204819D01*
X125250000Y-70204819D02*
X125250000Y-69204819D01*
X125250000Y-69204819D02*
X125154762Y-69347676D01*
X125154762Y-69347676D02*
X125059524Y-69442914D01*
X125059524Y-69442914D02*
X124964286Y-69490533D01*
X131324819Y-60809523D02*
X130324819Y-60809523D01*
X130324819Y-60809523D02*
X131039104Y-60476190D01*
X131039104Y-60476190D02*
X130324819Y-60142857D01*
X130324819Y-60142857D02*
X131324819Y-60142857D01*
X131324819Y-59142857D02*
X131324819Y-59714285D01*
X131324819Y-59428571D02*
X130324819Y-59428571D01*
X130324819Y-59428571D02*
X130467676Y-59523809D01*
X130467676Y-59523809D02*
X130562914Y-59619047D01*
X130562914Y-59619047D02*
X130610533Y-59714285D01*
X116454819Y-61166666D02*
X115978628Y-61499999D01*
X116454819Y-61738094D02*
X115454819Y-61738094D01*
X115454819Y-61738094D02*
X115454819Y-61357142D01*
X115454819Y-61357142D02*
X115502438Y-61261904D01*
X115502438Y-61261904D02*
X115550057Y-61214285D01*
X115550057Y-61214285D02*
X115645295Y-61166666D01*
X115645295Y-61166666D02*
X115788152Y-61166666D01*
X115788152Y-61166666D02*
X115883390Y-61214285D01*
X115883390Y-61214285D02*
X115931009Y-61261904D01*
X115931009Y-61261904D02*
X115978628Y-61357142D01*
X115978628Y-61357142D02*
X115978628Y-61738094D01*
X115454819Y-60833332D02*
X115454819Y-60214285D01*
X115454819Y-60214285D02*
X115835771Y-60547618D01*
X115835771Y-60547618D02*
X115835771Y-60404761D01*
X115835771Y-60404761D02*
X115883390Y-60309523D01*
X115883390Y-60309523D02*
X115931009Y-60261904D01*
X115931009Y-60261904D02*
X116026247Y-60214285D01*
X116026247Y-60214285D02*
X116264342Y-60214285D01*
X116264342Y-60214285D02*
X116359580Y-60261904D01*
X116359580Y-60261904D02*
X116407200Y-60309523D01*
X116407200Y-60309523D02*
X116454819Y-60404761D01*
X116454819Y-60404761D02*
X116454819Y-60690475D01*
X116454819Y-60690475D02*
X116407200Y-60785713D01*
X116407200Y-60785713D02*
X116359580Y-60833332D01*
X110454819Y-61166666D02*
X109978628Y-61499999D01*
X110454819Y-61738094D02*
X109454819Y-61738094D01*
X109454819Y-61738094D02*
X109454819Y-61357142D01*
X109454819Y-61357142D02*
X109502438Y-61261904D01*
X109502438Y-61261904D02*
X109550057Y-61214285D01*
X109550057Y-61214285D02*
X109645295Y-61166666D01*
X109645295Y-61166666D02*
X109788152Y-61166666D01*
X109788152Y-61166666D02*
X109883390Y-61214285D01*
X109883390Y-61214285D02*
X109931009Y-61261904D01*
X109931009Y-61261904D02*
X109978628Y-61357142D01*
X109978628Y-61357142D02*
X109978628Y-61738094D01*
X109550057Y-60785713D02*
X109502438Y-60738094D01*
X109502438Y-60738094D02*
X109454819Y-60642856D01*
X109454819Y-60642856D02*
X109454819Y-60404761D01*
X109454819Y-60404761D02*
X109502438Y-60309523D01*
X109502438Y-60309523D02*
X109550057Y-60261904D01*
X109550057Y-60261904D02*
X109645295Y-60214285D01*
X109645295Y-60214285D02*
X109740533Y-60214285D01*
X109740533Y-60214285D02*
X109883390Y-60261904D01*
X109883390Y-60261904D02*
X110454819Y-60833332D01*
X110454819Y-60833332D02*
X110454819Y-60214285D01*
X104454819Y-61166666D02*
X103978628Y-61499999D01*
X104454819Y-61738094D02*
X103454819Y-61738094D01*
X103454819Y-61738094D02*
X103454819Y-61357142D01*
X103454819Y-61357142D02*
X103502438Y-61261904D01*
X103502438Y-61261904D02*
X103550057Y-61214285D01*
X103550057Y-61214285D02*
X103645295Y-61166666D01*
X103645295Y-61166666D02*
X103788152Y-61166666D01*
X103788152Y-61166666D02*
X103883390Y-61214285D01*
X103883390Y-61214285D02*
X103931009Y-61261904D01*
X103931009Y-61261904D02*
X103978628Y-61357142D01*
X103978628Y-61357142D02*
X103978628Y-61738094D01*
X104454819Y-60214285D02*
X104454819Y-60785713D01*
X104454819Y-60499999D02*
X103454819Y-60499999D01*
X103454819Y-60499999D02*
X103597676Y-60595237D01*
X103597676Y-60595237D02*
X103692914Y-60690475D01*
X103692914Y-60690475D02*
X103740533Y-60785713D01*
X149771249Y-94247350D02*
X150581194Y-94247350D01*
X150581194Y-94247350D02*
X150676482Y-94199707D01*
X150676482Y-94199707D02*
X150724126Y-94152063D01*
X150724126Y-94152063D02*
X150771769Y-94056775D01*
X150771769Y-94056775D02*
X150771769Y-93866200D01*
X150771769Y-93866200D02*
X150724126Y-93770912D01*
X150724126Y-93770912D02*
X150676482Y-93723269D01*
X150676482Y-93723269D02*
X150581194Y-93675625D01*
X150581194Y-93675625D02*
X149771249Y-93675625D01*
X150771769Y-92675105D02*
X150771769Y-93246830D01*
X150771769Y-92960967D02*
X149771249Y-92960967D01*
X149771249Y-92960967D02*
X149914181Y-93056255D01*
X149914181Y-93056255D02*
X150009468Y-93151543D01*
X150009468Y-93151543D02*
X150057112Y-93246830D01*
X140503098Y-66989228D02*
X140503098Y-66226130D01*
X140502888Y-52726443D02*
X140502888Y-51963015D01*
X140884602Y-52344729D02*
X140121173Y-52344729D01*
X108626905Y-71494819D02*
X108626905Y-70494819D01*
X108626905Y-70494819D02*
X108865000Y-70494819D01*
X108865000Y-70494819D02*
X109007857Y-70542438D01*
X109007857Y-70542438D02*
X109103095Y-70637676D01*
X109103095Y-70637676D02*
X109150714Y-70732914D01*
X109150714Y-70732914D02*
X109198333Y-70923390D01*
X109198333Y-70923390D02*
X109198333Y-71066247D01*
X109198333Y-71066247D02*
X109150714Y-71256723D01*
X109150714Y-71256723D02*
X109103095Y-71351961D01*
X109103095Y-71351961D02*
X109007857Y-71447200D01*
X109007857Y-71447200D02*
X108865000Y-71494819D01*
X108865000Y-71494819D02*
X108626905Y-71494819D01*
X110150714Y-71494819D02*
X109579286Y-71494819D01*
X109865000Y-71494819D02*
X109865000Y-70494819D01*
X109865000Y-70494819D02*
X109769762Y-70637676D01*
X109769762Y-70637676D02*
X109674524Y-70732914D01*
X109674524Y-70732914D02*
X109579286Y-70780533D01*
D12*
%TO.C,G\u002A\u002A\u002A*%
G36*
X123180404Y-80544312D02*
G01*
X123528902Y-80551167D01*
X123754869Y-81056966D01*
X123980836Y-81562766D01*
X123987514Y-81050789D01*
X123994192Y-80538813D01*
X124338661Y-80538813D01*
X124683130Y-80538813D01*
X124684527Y-81675389D01*
X124685924Y-82811965D01*
X124317154Y-82811965D01*
X123948385Y-82811965D01*
X123868131Y-82620476D01*
X123827253Y-82522374D01*
X123774376Y-82394664D01*
X123716171Y-82253493D01*
X123659306Y-82115008D01*
X123656347Y-82107782D01*
X123524816Y-81786576D01*
X123524275Y-82299270D01*
X123523735Y-82811965D01*
X123177820Y-82811965D01*
X122831906Y-82811965D01*
X122831906Y-81674710D01*
X122831906Y-80537456D01*
X123180404Y-80544312D01*
G37*
G36*
X126683866Y-80655743D02*
G01*
X126694835Y-80705834D01*
X126714433Y-80798335D01*
X126741413Y-80927238D01*
X126774527Y-81086534D01*
X126812525Y-81270215D01*
X126854161Y-81472271D01*
X126898186Y-81686695D01*
X126908524Y-81737159D01*
X126952253Y-81950499D01*
X126993275Y-82150230D01*
X127030444Y-82330813D01*
X127062617Y-82486709D01*
X127088651Y-82612377D01*
X127107401Y-82702280D01*
X127117725Y-82750876D01*
X127118960Y-82756371D01*
X127132069Y-82811965D01*
X126713073Y-82811965D01*
X126294078Y-82811965D01*
X126279123Y-82694601D01*
X126264094Y-82574554D01*
X126251808Y-82494984D01*
X126236793Y-82447640D01*
X126213572Y-82424271D01*
X126176672Y-82416626D01*
X126120618Y-82416455D01*
X126094691Y-82416634D01*
X125949987Y-82416634D01*
X125933429Y-82571060D01*
X125924992Y-82657730D01*
X125916338Y-82720814D01*
X125900388Y-82764026D01*
X125870058Y-82791079D01*
X125818268Y-82805686D01*
X125737936Y-82811562D01*
X125621981Y-82812418D01*
X125474015Y-82811965D01*
X125336463Y-82811204D01*
X125217931Y-82809095D01*
X125126457Y-82805901D01*
X125070080Y-82801882D01*
X125055641Y-82798339D01*
X125059954Y-82771291D01*
X125072088Y-82702341D01*
X125090834Y-82598174D01*
X125114982Y-82465472D01*
X125143324Y-82310920D01*
X125168496Y-82174458D01*
X125206698Y-81967573D01*
X125217949Y-81906500D01*
X125950775Y-81906500D01*
X125950883Y-81960729D01*
X125962239Y-81991688D01*
X125985842Y-82005780D01*
X126022688Y-82009406D01*
X126073778Y-82008970D01*
X126081030Y-82008949D01*
X126157303Y-82004739D01*
X126206081Y-81993726D01*
X126216925Y-81983529D01*
X126213606Y-81950985D01*
X126204492Y-81879122D01*
X126190854Y-81777531D01*
X126173960Y-81655801D01*
X126167895Y-81612906D01*
X126149657Y-81478514D01*
X126134176Y-81353131D01*
X126122875Y-81249115D01*
X126117173Y-81178818D01*
X126116807Y-81168871D01*
X126112355Y-81111040D01*
X126102381Y-81101517D01*
X126086841Y-81140459D01*
X126065688Y-81228022D01*
X126038877Y-81364360D01*
X126007962Y-81540164D01*
X125980312Y-81702620D01*
X125960917Y-81822597D01*
X125950775Y-81906500D01*
X125217949Y-81906500D01*
X125248512Y-81740603D01*
X125290973Y-81509672D01*
X125331118Y-81290904D01*
X125365982Y-81100424D01*
X125373787Y-81057685D01*
X125466222Y-80551167D01*
X126061379Y-80544557D01*
X126656535Y-80537946D01*
X126683866Y-80655743D01*
G37*
G36*
X131244747Y-80594406D02*
G01*
X131252391Y-80629921D01*
X131268873Y-80708496D01*
X131293086Y-80824788D01*
X131323922Y-80973451D01*
X131360274Y-81149143D01*
X131401034Y-81346518D01*
X131445094Y-81560232D01*
X131468806Y-81675389D01*
X131514157Y-81895459D01*
X131556816Y-82101953D01*
X131595671Y-82289526D01*
X131629609Y-82452834D01*
X131657519Y-82586532D01*
X131678289Y-82685274D01*
X131690808Y-82743718D01*
X131693678Y-82756371D01*
X131707496Y-82811965D01*
X131286557Y-82811965D01*
X130865617Y-82811965D01*
X130850186Y-82669893D01*
X130837603Y-82556385D01*
X130825271Y-82483082D01*
X130806826Y-82441219D01*
X130775906Y-82422027D01*
X130726146Y-82416741D01*
X130666351Y-82416634D01*
X130520999Y-82416634D01*
X130504441Y-82571060D01*
X130496003Y-82657730D01*
X130487350Y-82720814D01*
X130471399Y-82764026D01*
X130441070Y-82791079D01*
X130389280Y-82805686D01*
X130308948Y-82811562D01*
X130192993Y-82812418D01*
X130045027Y-82811965D01*
X129907474Y-82811308D01*
X129788942Y-82809490D01*
X129697468Y-82806736D01*
X129641091Y-82803271D01*
X129626653Y-82800216D01*
X129630998Y-82773509D01*
X129643298Y-82704183D01*
X129662451Y-82598198D01*
X129687357Y-82461515D01*
X129716913Y-82300093D01*
X129750019Y-82119892D01*
X129778139Y-81967224D01*
X130516147Y-81967224D01*
X130525032Y-81991775D01*
X130558896Y-82004531D01*
X130628552Y-82008813D01*
X130652042Y-82008949D01*
X130733454Y-82005748D01*
X130775105Y-81994426D01*
X130786339Y-81972405D01*
X130786320Y-81971887D01*
X130780774Y-81899936D01*
X130769947Y-81802499D01*
X130755183Y-81688204D01*
X130737826Y-81565677D01*
X130719219Y-81443546D01*
X130700706Y-81330438D01*
X130683632Y-81234980D01*
X130669339Y-81165798D01*
X130659172Y-81131521D01*
X130655469Y-81131809D01*
X130644412Y-81183770D01*
X130628158Y-81270516D01*
X130608459Y-81381528D01*
X130587070Y-81506288D01*
X130565745Y-81634280D01*
X130546238Y-81754986D01*
X130530304Y-81857888D01*
X130519695Y-81932468D01*
X130516147Y-81967224D01*
X129778139Y-81967224D01*
X129785571Y-81926874D01*
X129822469Y-81726998D01*
X129859611Y-81526223D01*
X129895896Y-81330512D01*
X129930221Y-81145823D01*
X129961486Y-80978117D01*
X129988588Y-80833354D01*
X130010427Y-80717494D01*
X130025900Y-80636498D01*
X130033906Y-80596325D01*
X130034342Y-80594406D01*
X130047633Y-80538813D01*
X130639688Y-80538813D01*
X131231742Y-80538813D01*
X131244747Y-80594406D01*
G37*
G36*
X128542905Y-80502270D02*
G01*
X128721337Y-80529637D01*
X128883443Y-80573357D01*
X129021349Y-80633012D01*
X129127184Y-80708186D01*
X129189393Y-80790555D01*
X129214621Y-80863247D01*
X129236286Y-80962543D01*
X129248570Y-81056168D01*
X129263197Y-81230642D01*
X128876637Y-81230642D01*
X128490077Y-81230642D01*
X128490077Y-81105476D01*
X128482996Y-80995974D01*
X128459016Y-80927322D01*
X128414026Y-80892642D01*
X128358254Y-80884727D01*
X128285696Y-80894342D01*
X128242390Y-80928784D01*
X128222117Y-80996450D01*
X128218287Y-81073723D01*
X128221514Y-81153497D01*
X128236651Y-81203340D01*
X128271881Y-81242593D01*
X128298589Y-81263546D01*
X128358298Y-81300862D01*
X128447834Y-81348199D01*
X128551135Y-81397239D01*
X128588522Y-81413676D01*
X128760660Y-81493215D01*
X128917059Y-81576290D01*
X129049146Y-81657763D01*
X129148350Y-81732494D01*
X129191075Y-81774942D01*
X129253324Y-81875656D01*
X129292272Y-82005374D01*
X129309684Y-82171039D01*
X129311019Y-82246490D01*
X129299127Y-82411128D01*
X129260775Y-82541995D01*
X129191123Y-82644813D01*
X129085329Y-82725303D01*
X128938551Y-82789187D01*
X128822773Y-82823506D01*
X128707456Y-82843802D01*
X128559997Y-82855819D01*
X128396555Y-82859593D01*
X128233286Y-82855157D01*
X128086348Y-82842549D01*
X127971897Y-82821802D01*
X127971304Y-82821644D01*
X127794029Y-82761581D01*
X127660442Y-82685514D01*
X127565933Y-82587891D01*
X127505891Y-82463162D01*
X127475706Y-82305773D01*
X127470512Y-82218591D01*
X127464688Y-82008949D01*
X127841487Y-82002129D01*
X128218287Y-81995308D01*
X128218287Y-82167300D01*
X128221682Y-82264430D01*
X128230554Y-82349803D01*
X128242121Y-82401981D01*
X128287437Y-82458492D01*
X128359495Y-82486346D01*
X128435128Y-82480160D01*
X128490572Y-82438668D01*
X128525343Y-82363794D01*
X128537047Y-82268067D01*
X128523288Y-82164017D01*
X128505590Y-82111532D01*
X128487862Y-82078799D01*
X128459272Y-82047144D01*
X128413169Y-82012157D01*
X128342900Y-81969431D01*
X128241813Y-81914557D01*
X128103255Y-81843126D01*
X128091729Y-81837264D01*
X127960123Y-81769273D01*
X127838310Y-81704322D01*
X127735606Y-81647531D01*
X127661327Y-81604018D01*
X127631240Y-81584206D01*
X127534840Y-81487136D01*
X127473517Y-81363142D01*
X127445124Y-81207077D01*
X127442502Y-81131809D01*
X127451250Y-80970128D01*
X127479406Y-80846069D01*
X127529624Y-80750762D01*
X127570269Y-80704816D01*
X127681354Y-80625314D01*
X127823344Y-80564665D01*
X127988365Y-80522453D01*
X128168547Y-80498261D01*
X128356018Y-80491673D01*
X128542905Y-80502270D01*
G37*
G36*
X143378986Y-78659189D02*
G01*
X143379789Y-78720861D01*
X143377757Y-78810731D01*
X143375022Y-78877188D01*
X143372099Y-78948680D01*
X143368006Y-79063883D01*
X143362918Y-79217114D01*
X143357013Y-79402685D01*
X143350469Y-79614912D01*
X143343461Y-79848109D01*
X143336167Y-80096589D01*
X143328765Y-80354669D01*
X143326356Y-80439980D01*
X143318369Y-80721159D01*
X143309966Y-81011850D01*
X143301399Y-81303605D01*
X143292923Y-81587972D01*
X143284792Y-81856503D01*
X143277258Y-82100747D01*
X143270577Y-82312254D01*
X143265141Y-82478404D01*
X143258943Y-82665729D01*
X143253328Y-82840386D01*
X143248513Y-82995288D01*
X143244711Y-83123346D01*
X143242138Y-83217472D01*
X143241010Y-83270578D01*
X143240976Y-83275243D01*
X143240855Y-83355544D01*
X143438521Y-83355544D01*
X143636186Y-83355544D01*
X143636186Y-84590953D01*
X143636186Y-85826362D01*
X143833851Y-85826362D01*
X144031517Y-85826362D01*
X144031517Y-84590953D01*
X144031517Y-83355544D01*
X145007489Y-83355544D01*
X145983462Y-83355544D01*
X145983462Y-86888813D01*
X145983462Y-90422081D01*
X145007489Y-90422081D01*
X144031517Y-90422081D01*
X144031517Y-88976653D01*
X144031517Y-87531225D01*
X143833851Y-87531225D01*
X143636186Y-87531225D01*
X143636186Y-88975893D01*
X143636186Y-90420560D01*
X143333511Y-90427498D01*
X143030836Y-90434435D01*
X142990363Y-91793385D01*
X142981999Y-92075145D01*
X142973476Y-92363898D01*
X142965026Y-92651743D01*
X142956878Y-92930775D01*
X142949262Y-93193093D01*
X142942409Y-93430793D01*
X142936548Y-93635972D01*
X142931909Y-93800727D01*
X142931388Y-93819455D01*
X142925681Y-94015120D01*
X142919444Y-94211620D01*
X142913049Y-94398361D01*
X142906870Y-94564749D01*
X142901280Y-94700187D01*
X142897736Y-94774389D01*
X142882587Y-95062201D01*
X142659463Y-94848513D01*
X142243153Y-94480137D01*
X141785480Y-94131270D01*
X141291485Y-93804432D01*
X140766212Y-93502145D01*
X140214701Y-93226932D01*
X139641996Y-92981314D01*
X139053138Y-92767813D01*
X138453169Y-92588950D01*
X137865924Y-92451050D01*
X137515525Y-92384270D01*
X137173835Y-92328859D01*
X136833793Y-92284361D01*
X136488337Y-92250315D01*
X136130406Y-92226263D01*
X135752938Y-92211747D01*
X135348873Y-92206308D01*
X134911148Y-92209486D01*
X134432703Y-92220824D01*
X134358268Y-92223158D01*
X133437879Y-92260176D01*
X132499621Y-92312097D01*
X131548847Y-92378246D01*
X130590912Y-92457948D01*
X129631170Y-92550529D01*
X128674977Y-92655314D01*
X127727686Y-92771627D01*
X126794653Y-92898794D01*
X125881232Y-93036140D01*
X124992778Y-93182990D01*
X124134645Y-93338670D01*
X123312188Y-93502504D01*
X122530761Y-93673817D01*
X122167061Y-93759658D01*
X122016304Y-93795304D01*
X121882139Y-93825446D01*
X121771837Y-93848580D01*
X121692667Y-93863202D01*
X121651901Y-93867810D01*
X121648190Y-93866962D01*
X121644686Y-93864511D01*
X121641621Y-93862261D01*
X121641080Y-93858727D01*
X121645144Y-93852426D01*
X121655895Y-93841875D01*
X121675417Y-93825588D01*
X121705791Y-93802083D01*
X121749101Y-93769876D01*
X121807427Y-93727483D01*
X121882852Y-93673420D01*
X121977459Y-93606203D01*
X122093330Y-93524348D01*
X122232547Y-93426372D01*
X122397192Y-93310791D01*
X122589349Y-93176121D01*
X122811098Y-93020878D01*
X123064523Y-92843579D01*
X123351706Y-92642739D01*
X123674729Y-92416875D01*
X124035674Y-92164503D01*
X124124724Y-92102237D01*
X126509934Y-90434435D01*
X125795142Y-90427885D01*
X125080349Y-90421335D01*
X125080349Y-88976280D01*
X125080349Y-87531225D01*
X124882684Y-87531225D01*
X124685019Y-87531225D01*
X124685019Y-88976653D01*
X124685019Y-90422081D01*
X123709069Y-90422081D01*
X122733119Y-90422081D01*
X122733129Y-90347957D01*
X122831906Y-90347957D01*
X123721202Y-90347957D01*
X124610499Y-90347957D01*
X124616874Y-88896352D01*
X124623248Y-87444747D01*
X124888861Y-87437734D01*
X125154474Y-87430721D01*
X125154474Y-88889339D01*
X125154474Y-90347957D01*
X126056322Y-90347957D01*
X126958170Y-90347957D01*
X126958170Y-86888813D01*
X126958170Y-83429669D01*
X126056322Y-83429669D01*
X125154474Y-83429669D01*
X125154474Y-84665078D01*
X125154474Y-85900486D01*
X124882684Y-85900486D01*
X124610894Y-85900486D01*
X124610894Y-84665078D01*
X124610894Y-83429669D01*
X123721400Y-83429669D01*
X122831906Y-83429669D01*
X122831906Y-86888813D01*
X122831906Y-90347957D01*
X122733129Y-90347957D01*
X122733576Y-86888813D01*
X122734033Y-83355544D01*
X123709526Y-83355544D01*
X124685019Y-83355544D01*
X124685019Y-84590953D01*
X124685019Y-85826362D01*
X124882684Y-85826362D01*
X125080349Y-85826362D01*
X125080349Y-84590953D01*
X125080349Y-83355544D01*
X126056322Y-83355544D01*
X127032295Y-83355544D01*
X127032295Y-86703502D01*
X127032373Y-87105976D01*
X127032600Y-87494628D01*
X127032968Y-87866614D01*
X127033468Y-88219094D01*
X127034089Y-88549226D01*
X127034824Y-88854167D01*
X127035663Y-89131076D01*
X127036596Y-89377111D01*
X127037616Y-89589431D01*
X127038711Y-89765193D01*
X127039875Y-89901556D01*
X127041097Y-89995678D01*
X127042367Y-90044718D01*
X127043051Y-90051459D01*
X127066069Y-90038227D01*
X127120729Y-90002387D01*
X127198702Y-89949723D01*
X127291660Y-89886021D01*
X127391272Y-89817065D01*
X127489209Y-89748639D01*
X127577142Y-89686529D01*
X127646743Y-89636518D01*
X127689682Y-89604391D01*
X127699415Y-89595618D01*
X127691380Y-89570412D01*
X127670277Y-89511576D01*
X127640615Y-89431669D01*
X127639555Y-89428852D01*
X127621762Y-89380764D01*
X127605825Y-89334254D01*
X127591628Y-89286444D01*
X127579059Y-89234458D01*
X127568002Y-89175418D01*
X127558344Y-89106447D01*
X127549970Y-89024668D01*
X127542767Y-88927203D01*
X127536619Y-88811176D01*
X127531414Y-88673710D01*
X127527037Y-88511926D01*
X127523374Y-88322949D01*
X127520311Y-88103900D01*
X127517733Y-87851903D01*
X127515527Y-87564080D01*
X127513578Y-87237555D01*
X127511772Y-86869449D01*
X127509995Y-86456886D01*
X127508663Y-86129037D01*
X127497817Y-83429669D01*
X127575875Y-83429669D01*
X127577006Y-85634873D01*
X127577628Y-86152164D01*
X127578967Y-86621990D01*
X127581070Y-87046296D01*
X127583982Y-87427030D01*
X127587749Y-87766138D01*
X127592416Y-88065565D01*
X127598028Y-88327260D01*
X127604632Y-88553167D01*
X127612272Y-88745233D01*
X127620996Y-88905405D01*
X127630847Y-89035629D01*
X127641872Y-89137851D01*
X127654115Y-89214018D01*
X127661562Y-89246165D01*
X127753794Y-89496836D01*
X127888093Y-89724082D01*
X128062037Y-89925998D01*
X128273206Y-90100677D01*
X128519182Y-90246213D01*
X128797543Y-90360700D01*
X129105870Y-90442230D01*
X129202010Y-90459678D01*
X129370535Y-90478673D01*
X129568301Y-90487278D01*
X129780133Y-90485972D01*
X129990856Y-90475237D01*
X130185296Y-90455553D01*
X130348277Y-90427399D01*
X130367898Y-90422766D01*
X130493267Y-90385655D01*
X130634789Y-90334285D01*
X130765527Y-90278591D01*
X130787937Y-90267844D01*
X131006309Y-90134411D01*
X131205065Y-89961757D01*
X131376954Y-89758502D01*
X131514727Y-89533269D01*
X131611136Y-89294680D01*
X131613875Y-89285506D01*
X131627293Y-89231628D01*
X131639345Y-89164163D01*
X131650098Y-89080553D01*
X131659617Y-88978241D01*
X131667968Y-88854670D01*
X131675217Y-88707282D01*
X131681431Y-88533521D01*
X131686676Y-88330829D01*
X131691017Y-88096649D01*
X131694520Y-87828424D01*
X131697253Y-87523596D01*
X131699280Y-87179609D01*
X131700668Y-86793906D01*
X131701482Y-86363929D01*
X131701790Y-85887121D01*
X131701790Y-85881955D01*
X131702139Y-83429669D01*
X130800291Y-83429669D01*
X129898443Y-83429669D01*
X129898300Y-86178453D01*
X129898057Y-86608647D01*
X129897389Y-87011818D01*
X129896312Y-87385790D01*
X129894846Y-87728388D01*
X129893008Y-88037435D01*
X129890816Y-88310756D01*
X129888289Y-88546175D01*
X129885445Y-88741516D01*
X129882302Y-88894603D01*
X129878879Y-89003261D01*
X129875193Y-89065313D01*
X129874071Y-89074320D01*
X129845154Y-89190813D01*
X129799493Y-89266934D01*
X129730262Y-89310721D01*
X129659451Y-89327087D01*
X129560334Y-89322682D01*
X129485619Y-89278143D01*
X129433343Y-89191540D01*
X129403770Y-89075486D01*
X129400095Y-89027674D01*
X129396660Y-88932768D01*
X129393485Y-88793088D01*
X129390590Y-88610955D01*
X129387992Y-88388690D01*
X129385713Y-88128614D01*
X129383770Y-87833048D01*
X129382184Y-87504314D01*
X129380973Y-87144732D01*
X129380157Y-86756623D01*
X129379754Y-86342308D01*
X129379714Y-86178453D01*
X129379571Y-83429669D01*
X128477723Y-83429669D01*
X127575875Y-83429669D01*
X127497817Y-83429669D01*
X127497519Y-83355544D01*
X128475607Y-83355544D01*
X129453696Y-83355544D01*
X129453696Y-85864732D01*
X129453696Y-88373919D01*
X129639007Y-88244535D01*
X129824318Y-88115150D01*
X129824318Y-85735347D01*
X129824318Y-83355544D01*
X130800121Y-83355544D01*
X131775923Y-83355544D01*
X131782270Y-85049726D01*
X131788618Y-86743908D01*
X132017168Y-86580409D01*
X132245719Y-86416909D01*
X132245719Y-84885894D01*
X132245719Y-83429669D01*
X132319843Y-83429669D01*
X132319843Y-86888813D01*
X132319843Y-90347957D01*
X133073258Y-90347957D01*
X133826673Y-90347957D01*
X133833035Y-88794025D01*
X133839396Y-87240094D01*
X134233657Y-88565475D01*
X134309393Y-88819942D01*
X134382905Y-89066688D01*
X134452619Y-89300441D01*
X134516958Y-89515933D01*
X134574349Y-89707893D01*
X134623217Y-89871051D01*
X134661985Y-90000138D01*
X134689080Y-90089883D01*
X134698080Y-90119406D01*
X134768242Y-90347957D01*
X135557845Y-90347957D01*
X136347448Y-90347957D01*
X136341184Y-86894990D01*
X136341038Y-86814688D01*
X136952780Y-86814688D01*
X136952924Y-87189298D01*
X136953577Y-87518356D01*
X136954961Y-87805728D01*
X136957302Y-88055278D01*
X136960823Y-88270871D01*
X136965750Y-88456372D01*
X136972305Y-88615645D01*
X136980714Y-88752555D01*
X136991200Y-88870966D01*
X137003989Y-88974743D01*
X137019304Y-89067751D01*
X137037369Y-89153854D01*
X137058410Y-89236917D01*
X137082650Y-89320805D01*
X137101818Y-89382647D01*
X137202798Y-89622515D01*
X137345186Y-89837068D01*
X137526873Y-90024403D01*
X137745751Y-90182621D01*
X137999710Y-90309821D01*
X138212564Y-90383904D01*
X138461295Y-90440386D01*
X138736935Y-90475727D01*
X139024599Y-90489636D01*
X139309401Y-90481819D01*
X139576457Y-90451985D01*
X139758929Y-90414267D01*
X139958657Y-90347955D01*
X141770719Y-90347955D01*
X142666390Y-90347956D01*
X143562061Y-90347957D01*
X143562061Y-88888525D01*
X143562061Y-87429093D01*
X143833851Y-87435338D01*
X144105641Y-87441583D01*
X144105641Y-88894770D01*
X144105641Y-90347957D01*
X145007489Y-90347957D01*
X145909338Y-90347957D01*
X145909338Y-86888813D01*
X145909338Y-83429669D01*
X145007489Y-83429669D01*
X144105641Y-83429669D01*
X144105641Y-84665078D01*
X144105641Y-85900486D01*
X143833851Y-85900486D01*
X143562061Y-85900486D01*
X143562061Y-84665078D01*
X143562061Y-83429669D01*
X142672567Y-83429669D01*
X142429162Y-83430025D01*
X142231292Y-83431182D01*
X142075080Y-83433275D01*
X141956649Y-83436439D01*
X141872123Y-83440808D01*
X141817625Y-83446517D01*
X141789279Y-83453700D01*
X141782825Y-83460554D01*
X141782754Y-83488516D01*
X141782602Y-83563052D01*
X141782376Y-83681320D01*
X141782081Y-83840477D01*
X141781721Y-84037683D01*
X141781301Y-84270094D01*
X141780827Y-84534869D01*
X141780304Y-84829165D01*
X141779736Y-85150141D01*
X141779130Y-85494953D01*
X141778489Y-85860761D01*
X141777819Y-86244722D01*
X141777125Y-86643993D01*
X141776648Y-86919697D01*
X141770719Y-90347955D01*
X139958657Y-90347955D01*
X140023269Y-90326503D01*
X140272736Y-90206218D01*
X140500382Y-90058509D01*
X140699257Y-89888472D01*
X140862413Y-89701204D01*
X140971556Y-89524956D01*
X141033558Y-89369403D01*
X141086021Y-89169224D01*
X141128405Y-88928386D01*
X141160169Y-88650852D01*
X141180774Y-88340587D01*
X141189680Y-88001557D01*
X141190017Y-87920379D01*
X141190077Y-87580642D01*
X140290113Y-87580642D01*
X139390150Y-87580642D01*
X139382088Y-88340418D01*
X139379636Y-88555454D01*
X139377079Y-88726834D01*
X139374020Y-88860315D01*
X139370059Y-88961658D01*
X139364796Y-89036620D01*
X139357834Y-89090962D01*
X139348772Y-89130440D01*
X139337212Y-89160815D01*
X139323442Y-89186673D01*
X139246784Y-89272730D01*
X139145266Y-89320238D01*
X139028666Y-89325891D01*
X138960164Y-89309452D01*
X138878973Y-89269935D01*
X138824788Y-89208956D01*
X138805738Y-89174319D01*
X138796962Y-89155538D01*
X138789274Y-89134415D01*
X138782590Y-89107686D01*
X138776825Y-89072087D01*
X138771894Y-89024355D01*
X138767712Y-88961225D01*
X138764195Y-88879433D01*
X138761258Y-88775716D01*
X138758815Y-88646810D01*
X138756783Y-88489451D01*
X138755076Y-88300375D01*
X138753610Y-88076319D01*
X138752300Y-87814017D01*
X138751061Y-87510207D01*
X138749808Y-87161625D01*
X138749254Y-87000000D01*
X138748225Y-86606166D01*
X138747915Y-86244539D01*
X138748308Y-85917146D01*
X138749388Y-85626014D01*
X138751140Y-85373170D01*
X138753546Y-85160641D01*
X138756592Y-84990454D01*
X138760262Y-84864637D01*
X138764538Y-84785216D01*
X138766842Y-84763910D01*
X138786046Y-84666019D01*
X138811950Y-84600249D01*
X138852125Y-84549312D01*
X138866956Y-84535360D01*
X138923292Y-84493227D01*
X138983741Y-84472930D01*
X139070026Y-84467426D01*
X139076540Y-84467412D01*
X139199571Y-84483633D01*
X139287922Y-84533902D01*
X139344875Y-84620631D01*
X139362376Y-84677432D01*
X139367867Y-84725518D01*
X139372918Y-84816391D01*
X139377363Y-84943422D01*
X139381036Y-85099982D01*
X139383771Y-85279441D01*
X139385401Y-85475172D01*
X139385791Y-85610165D01*
X139386380Y-86444066D01*
X140291399Y-86444066D01*
X141196418Y-86444066D01*
X141183170Y-85746060D01*
X141173796Y-85413440D01*
X141158319Y-85125111D01*
X141135406Y-84876178D01*
X141103728Y-84661748D01*
X141061954Y-84476926D01*
X141008754Y-84316817D01*
X140942797Y-84176528D01*
X140862753Y-84051165D01*
X140767291Y-83935832D01*
X140663091Y-83832905D01*
X140438688Y-83656985D01*
X140189824Y-83517504D01*
X139912887Y-83413062D01*
X139604263Y-83342260D01*
X139304125Y-83306711D01*
X138941480Y-83298450D01*
X138601326Y-83328627D01*
X138285932Y-83396328D01*
X137997563Y-83500642D01*
X137738486Y-83640655D01*
X137510967Y-83815456D01*
X137317274Y-84024130D01*
X137234266Y-84140201D01*
X137171032Y-84246617D01*
X137112411Y-84361724D01*
X137069899Y-84462716D01*
X137066108Y-84473761D01*
X137045536Y-84538121D01*
X137027611Y-84600980D01*
X137012152Y-84666092D01*
X136998976Y-84737213D01*
X136987902Y-84818098D01*
X136978749Y-84912500D01*
X136971334Y-85024176D01*
X136965475Y-85156879D01*
X136960991Y-85314364D01*
X136957701Y-85500388D01*
X136955421Y-85718703D01*
X136953971Y-85973065D01*
X136953169Y-86267230D01*
X136952832Y-86604951D01*
X136952780Y-86814688D01*
X136341038Y-86814688D01*
X136334921Y-83442023D01*
X135587499Y-83435484D01*
X134840077Y-83428944D01*
X134837555Y-84979744D01*
X134835034Y-86530544D01*
X134555160Y-85678113D01*
X134477424Y-85441054D01*
X134392831Y-85182579D01*
X134305565Y-84915504D01*
X134219809Y-84652644D01*
X134139746Y-84406816D01*
X134069560Y-84190836D01*
X134049077Y-84127675D01*
X133822868Y-83429669D01*
X133071356Y-83429669D01*
X132319843Y-83429669D01*
X132245719Y-83429669D01*
X132245719Y-83354878D01*
X133066630Y-83361388D01*
X133887541Y-83367899D01*
X134133698Y-84133852D01*
X134193242Y-84318827D01*
X134247966Y-84488246D01*
X134296045Y-84636504D01*
X134335655Y-84757996D01*
X134364969Y-84847117D01*
X134382163Y-84898263D01*
X134385937Y-84908445D01*
X134407357Y-84899102D01*
X134459782Y-84866874D01*
X134533994Y-84817583D01*
X134578986Y-84786546D01*
X134765952Y-84656006D01*
X134765952Y-84005775D01*
X134765952Y-83355544D01*
X135593676Y-83355544D01*
X136421400Y-83355544D01*
X136421400Y-83417315D01*
X136425682Y-83463799D01*
X136433876Y-83479085D01*
X136455120Y-83465150D01*
X136514755Y-83424312D01*
X136610696Y-83358024D01*
X136740863Y-83267737D01*
X136903173Y-83154906D01*
X137095544Y-83020981D01*
X137315894Y-82867416D01*
X137562140Y-82695663D01*
X137832200Y-82507174D01*
X138123993Y-82303401D01*
X138435435Y-82085797D01*
X138764446Y-81855815D01*
X139108941Y-81614906D01*
X139466841Y-81364524D01*
X139836061Y-81106120D01*
X139905252Y-81057685D01*
X140276316Y-80797966D01*
X140636429Y-80546001D01*
X140983510Y-80303242D01*
X141315478Y-80071140D01*
X141630252Y-79851147D01*
X141925750Y-79644717D01*
X142199891Y-79453301D01*
X142450593Y-79278352D01*
X142675777Y-79121322D01*
X142873359Y-78983663D01*
X143041260Y-78866828D01*
X143177398Y-78772268D01*
X143279691Y-78701437D01*
X143346059Y-78655786D01*
X143374420Y-78636767D01*
X143375334Y-78636284D01*
X143378986Y-78659189D01*
G37*
D13*
%TO.C,C1*%
X127554775Y-67475000D02*
X127054775Y-67475000D01*
X127304775Y-67725000D02*
X127304775Y-67225000D01*
X124750000Y-68580000D02*
X124750000Y-63420000D01*
X124710000Y-68580000D02*
X124710000Y-63420000D01*
X124670000Y-68579000D02*
X124670000Y-63421000D01*
X124630000Y-68578000D02*
X124630000Y-63422000D01*
X124590000Y-68576000D02*
X124590000Y-63424000D01*
X124550000Y-68573000D02*
X124550000Y-63427000D01*
X124510000Y-68569000D02*
X124510000Y-67040000D01*
X124510000Y-64960000D02*
X124510000Y-63431000D01*
X124470000Y-68565000D02*
X124470000Y-67040000D01*
X124470000Y-64960000D02*
X124470000Y-63435000D01*
X124430000Y-68561000D02*
X124430000Y-67040000D01*
X124430000Y-64960000D02*
X124430000Y-63439000D01*
X124390000Y-68556000D02*
X124390000Y-67040000D01*
X124390000Y-64960000D02*
X124390000Y-63444000D01*
X124350000Y-68550000D02*
X124350000Y-67040000D01*
X124350000Y-64960000D02*
X124350000Y-63450000D01*
X124310000Y-68543000D02*
X124310000Y-67040000D01*
X124310000Y-64960000D02*
X124310000Y-63457000D01*
X124270000Y-68536000D02*
X124270000Y-67040000D01*
X124270000Y-64960000D02*
X124270000Y-63464000D01*
X124230000Y-68528000D02*
X124230000Y-67040000D01*
X124230000Y-64960000D02*
X124230000Y-63472000D01*
X124190000Y-68520000D02*
X124190000Y-67040000D01*
X124190000Y-64960000D02*
X124190000Y-63480000D01*
X124150000Y-68511000D02*
X124150000Y-67040000D01*
X124150000Y-64960000D02*
X124150000Y-63489000D01*
X124110000Y-68501000D02*
X124110000Y-67040000D01*
X124110000Y-64960000D02*
X124110000Y-63499000D01*
X124070000Y-68491000D02*
X124070000Y-67040000D01*
X124070000Y-64960000D02*
X124070000Y-63509000D01*
X124029000Y-68480000D02*
X124029000Y-67040000D01*
X124029000Y-64960000D02*
X124029000Y-63520000D01*
X123989000Y-68468000D02*
X123989000Y-67040000D01*
X123989000Y-64960000D02*
X123989000Y-63532000D01*
X123949000Y-68455000D02*
X123949000Y-67040000D01*
X123949000Y-64960000D02*
X123949000Y-63545000D01*
X123909000Y-68442000D02*
X123909000Y-67040000D01*
X123909000Y-64960000D02*
X123909000Y-63558000D01*
X123869000Y-68428000D02*
X123869000Y-67040000D01*
X123869000Y-64960000D02*
X123869000Y-63572000D01*
X123829000Y-68414000D02*
X123829000Y-67040000D01*
X123829000Y-64960000D02*
X123829000Y-63586000D01*
X123789000Y-68398000D02*
X123789000Y-67040000D01*
X123789000Y-64960000D02*
X123789000Y-63602000D01*
X123749000Y-68382000D02*
X123749000Y-67040000D01*
X123749000Y-64960000D02*
X123749000Y-63618000D01*
X123709000Y-68365000D02*
X123709000Y-67040000D01*
X123709000Y-64960000D02*
X123709000Y-63635000D01*
X123669000Y-68348000D02*
X123669000Y-67040000D01*
X123669000Y-64960000D02*
X123669000Y-63652000D01*
X123629000Y-68329000D02*
X123629000Y-67040000D01*
X123629000Y-64960000D02*
X123629000Y-63671000D01*
X123589000Y-68310000D02*
X123589000Y-67040000D01*
X123589000Y-64960000D02*
X123589000Y-63690000D01*
X123549000Y-68290000D02*
X123549000Y-67040000D01*
X123549000Y-64960000D02*
X123549000Y-63710000D01*
X123509000Y-68268000D02*
X123509000Y-67040000D01*
X123509000Y-64960000D02*
X123509000Y-63732000D01*
X123469000Y-68247000D02*
X123469000Y-67040000D01*
X123469000Y-64960000D02*
X123469000Y-63753000D01*
X123429000Y-68224000D02*
X123429000Y-67040000D01*
X123429000Y-64960000D02*
X123429000Y-63776000D01*
X123389000Y-68200000D02*
X123389000Y-67040000D01*
X123389000Y-64960000D02*
X123389000Y-63800000D01*
X123349000Y-68175000D02*
X123349000Y-67040000D01*
X123349000Y-64960000D02*
X123349000Y-63825000D01*
X123309000Y-68149000D02*
X123309000Y-67040000D01*
X123309000Y-64960000D02*
X123309000Y-63851000D01*
X123269000Y-68122000D02*
X123269000Y-67040000D01*
X123269000Y-64960000D02*
X123269000Y-63878000D01*
X123229000Y-68095000D02*
X123229000Y-67040000D01*
X123229000Y-64960000D02*
X123229000Y-63905000D01*
X123189000Y-68065000D02*
X123189000Y-67040000D01*
X123189000Y-64960000D02*
X123189000Y-63935000D01*
X123149000Y-68035000D02*
X123149000Y-67040000D01*
X123149000Y-64960000D02*
X123149000Y-63965000D01*
X123109000Y-68004000D02*
X123109000Y-67040000D01*
X123109000Y-64960000D02*
X123109000Y-63996000D01*
X123069000Y-67971000D02*
X123069000Y-67040000D01*
X123069000Y-64960000D02*
X123069000Y-64029000D01*
X123029000Y-67937000D02*
X123029000Y-67040000D01*
X123029000Y-64960000D02*
X123029000Y-64063000D01*
X122989000Y-67901000D02*
X122989000Y-67040000D01*
X122989000Y-64960000D02*
X122989000Y-64099000D01*
X122949000Y-67864000D02*
X122949000Y-67040000D01*
X122949000Y-64960000D02*
X122949000Y-64136000D01*
X122909000Y-67826000D02*
X122909000Y-67040000D01*
X122909000Y-64960000D02*
X122909000Y-64174000D01*
X122869000Y-67785000D02*
X122869000Y-67040000D01*
X122869000Y-64960000D02*
X122869000Y-64215000D01*
X122829000Y-67743000D02*
X122829000Y-67040000D01*
X122829000Y-64960000D02*
X122829000Y-64257000D01*
X122789000Y-67699000D02*
X122789000Y-67040000D01*
X122789000Y-64960000D02*
X122789000Y-64301000D01*
X122749000Y-67653000D02*
X122749000Y-67040000D01*
X122749000Y-64960000D02*
X122749000Y-64347000D01*
X122709000Y-67605000D02*
X122709000Y-67040000D01*
X122709000Y-64960000D02*
X122709000Y-64395000D01*
X122669000Y-67554000D02*
X122669000Y-67040000D01*
X122669000Y-64960000D02*
X122669000Y-64446000D01*
X122629000Y-67500000D02*
X122629000Y-67040000D01*
X122629000Y-64960000D02*
X122629000Y-64500000D01*
X122589000Y-67443000D02*
X122589000Y-67040000D01*
X122589000Y-64960000D02*
X122589000Y-64557000D01*
X122549000Y-67383000D02*
X122549000Y-67040000D01*
X122549000Y-64960000D02*
X122549000Y-64617000D01*
X122509000Y-67319000D02*
X122509000Y-67040000D01*
X122509000Y-64960000D02*
X122509000Y-64681000D01*
X122469000Y-67251000D02*
X122469000Y-67040000D01*
X122469000Y-64960000D02*
X122469000Y-64749000D01*
X122429000Y-67178000D02*
X122429000Y-64822000D01*
X122389000Y-67098000D02*
X122389000Y-64902000D01*
X122349000Y-67011000D02*
X122349000Y-64989000D01*
X122309000Y-66915000D02*
X122309000Y-65085000D01*
X122269000Y-66805000D02*
X122269000Y-65195000D01*
X122229000Y-66677000D02*
X122229000Y-65323000D01*
X122189000Y-66518000D02*
X122189000Y-65482000D01*
X122149000Y-66284000D02*
X122149000Y-65716000D01*
X127370000Y-66000000D02*
G75*
G02*
X122130000Y-66000000I-2620000J0D01*
G01*
X122130000Y-66000000D02*
G75*
G02*
X127370000Y-66000000I2620000J0D01*
G01*
%TO.C,M1*%
X129870000Y-58670000D02*
X129870000Y-60000000D01*
X128540000Y-58670000D02*
X129870000Y-58670000D01*
X127270000Y-58670000D02*
X122130000Y-58670000D01*
X127270000Y-58670000D02*
X127270000Y-61330000D01*
X122130000Y-58670000D02*
X122130000Y-61330000D01*
X127270000Y-61330000D02*
X122130000Y-61330000D01*
%TO.C,R3*%
X116000000Y-55690000D02*
X116000000Y-56380000D01*
X117720000Y-56380000D02*
X114280000Y-56380000D01*
X114280000Y-56380000D02*
X114280000Y-65620000D01*
X117720000Y-65620000D02*
X117720000Y-56380000D01*
X114280000Y-65620000D02*
X117720000Y-65620000D01*
X116000000Y-66310000D02*
X116000000Y-65620000D01*
%TO.C,R2*%
X110000000Y-55690000D02*
X110000000Y-56380000D01*
X111720000Y-56380000D02*
X108280000Y-56380000D01*
X108280000Y-56380000D02*
X108280000Y-65620000D01*
X111720000Y-65620000D02*
X111720000Y-56380000D01*
X108280000Y-65620000D02*
X111720000Y-65620000D01*
X110000000Y-66310000D02*
X110000000Y-65620000D01*
%TO.C,R1*%
X104000000Y-55690000D02*
X104000000Y-56380000D01*
X105720000Y-56380000D02*
X102280000Y-56380000D01*
X102280000Y-56380000D02*
X102280000Y-65620000D01*
X105720000Y-65620000D02*
X105720000Y-56380000D01*
X102280000Y-65620000D02*
X105720000Y-65620000D01*
X104000000Y-66310000D02*
X104000000Y-65620000D01*
%TO.C,J1*%
X111530000Y-96440000D02*
X112860000Y-96440000D01*
X111530000Y-97770000D02*
X111530000Y-96440000D01*
X114130000Y-96440000D02*
X131970000Y-96440000D01*
X114130000Y-99100000D02*
X114130000Y-96440000D01*
X114130000Y-99100000D02*
X131970000Y-99100000D01*
X131970000Y-99100000D02*
X131970000Y-96440000D01*
%TO.C,J3*%
X134390000Y-96440000D02*
X135720000Y-96440000D01*
X134390000Y-97770000D02*
X134390000Y-96440000D01*
X136990000Y-96440000D02*
X149750000Y-96440000D01*
X136990000Y-99100000D02*
X136990000Y-96440000D01*
X136990000Y-99100000D02*
X149750000Y-99100000D01*
X149750000Y-99100000D02*
X149750000Y-96440000D01*
%TO.C,J2*%
X102386000Y-48180000D02*
X103716000Y-48180000D01*
X102386000Y-49510000D02*
X102386000Y-48180000D01*
X104986000Y-48180000D02*
X127906000Y-48180000D01*
X104986000Y-50840000D02*
X104986000Y-48180000D01*
X104986000Y-50840000D02*
X127906000Y-50840000D01*
X127906000Y-50840000D02*
X127906000Y-48180000D01*
%TO.C,J4*%
X129310000Y-48180000D02*
X130640000Y-48180000D01*
X129310000Y-49510000D02*
X129310000Y-48180000D01*
X131910000Y-48180000D02*
X149750000Y-48180000D01*
X131910000Y-50840000D02*
X131910000Y-48180000D01*
X131910000Y-50840000D02*
X149750000Y-50840000D01*
X149750000Y-50840000D02*
X149750000Y-48180000D01*
D14*
%TO.C,U1*%
X151270000Y-51500000D02*
X152470000Y-51500000D01*
X151270000Y-96500000D02*
X151270000Y-51500000D01*
X152470000Y-51500000D02*
X152470000Y-52500000D01*
X152470000Y-52500000D02*
X152470000Y-68500000D01*
X152470000Y-52500000D02*
X166270000Y-52500000D01*
X152470000Y-68500000D02*
X152470000Y-79500000D01*
X152470000Y-68500000D02*
X166270000Y-68500000D01*
X152470000Y-79500000D02*
X152470000Y-95500000D01*
X152470000Y-79500000D02*
X166270000Y-79500000D01*
X152470000Y-95500000D02*
X152470000Y-96500000D01*
X152470000Y-95500000D02*
X166270000Y-95500000D01*
X152470000Y-96500000D02*
X151270000Y-96500000D01*
X166270000Y-68500000D02*
X166270000Y-52500000D01*
X166270000Y-95500000D02*
X166270000Y-79500000D01*
%TO.C,LS1*%
X147000000Y-60000000D02*
G75*
G02*
X135000000Y-60000000I-6000000J0D01*
G01*
X135000000Y-60000000D02*
G75*
G02*
X147000000Y-60000000I6000000J0D01*
G01*
D13*
%TO.C,D1*%
X106805000Y-73455000D02*
X106805000Y-73920000D01*
X106805000Y-76080000D02*
X106805000Y-76545000D01*
X106805000Y-73455170D02*
G75*
G02*
X112153107Y-73919925I2560000J-1544830D01*
G01*
X107110316Y-73920000D02*
G75*
G02*
X111619656Y-73919941I2254684J-1080000D01*
G01*
X111619656Y-76080059D02*
G75*
G02*
X107110316Y-76080000I-2254656J1080059D01*
G01*
X112153107Y-76080075D02*
G75*
G02*
X106805000Y-76544830I-2788107J1080075D01*
G01*
%TD*%
M02*
