%TF.GenerationSoftware,KiCad,Pcbnew,9.0.0*%
%TF.CreationDate,2025-02-27T00:07:18-07:00*%
%TF.ProjectId,bubble_detector_v2.1,62756262-6c65-45f6-9465-746563746f72,rev?*%
%TF.SameCoordinates,Original*%
%TF.FileFunction,Soldermask,Bot*%
%TF.FilePolarity,Negative*%
%FSLAX46Y46*%
G04 Gerber Fmt 4.6, Leading zero omitted, Abs format (unit mm)*
G04 Created by KiCad (PCBNEW 9.0.0) date 2025-02-27 00:07:18*
%MOMM*%
%LPD*%
G01*
G04 APERTURE LIST*
%ADD10O,1.070000X1.800000*%
%ADD11R,1.070000X1.800000*%
%ADD12C,1.308000*%
%ADD13R,1.700000X1.700000*%
%ADD14O,1.700000X1.700000*%
%ADD15C,1.530000*%
G04 APERTURE END LIST*
D10*
%TO.C,D1*%
X140190000Y-58310000D03*
X138920000Y-58310000D03*
X137650000Y-58310000D03*
D11*
X136380000Y-58310000D03*
%TD*%
D12*
%TO.C,LS1*%
X117670000Y-74810000D03*
X124170000Y-74810000D03*
%TD*%
D13*
%TO.C,J1*%
X112860000Y-97770000D03*
D14*
X115400000Y-97770000D03*
X117940000Y-97770000D03*
X120480000Y-97770000D03*
X123020000Y-97770000D03*
X125560000Y-97770000D03*
X128100000Y-97770000D03*
X130640000Y-97770000D03*
%TD*%
D13*
%TO.C,J3*%
X135720000Y-97770000D03*
D14*
X138260000Y-97770000D03*
X140800000Y-97770000D03*
X143340000Y-97770000D03*
X145880000Y-97770000D03*
X148420000Y-97770000D03*
%TD*%
D13*
%TO.C,J2*%
X103716000Y-49510000D03*
D14*
X106256000Y-49510000D03*
X108796000Y-49510000D03*
X111336000Y-49510000D03*
X113876000Y-49510000D03*
X116416000Y-49510000D03*
X118956000Y-49510000D03*
X121496000Y-49510000D03*
X124036000Y-49510000D03*
X126576000Y-49510000D03*
%TD*%
D13*
%TO.C,J4*%
X130640000Y-49510000D03*
D14*
X133180000Y-49510000D03*
X135720000Y-49510000D03*
X138260000Y-49510000D03*
X140800000Y-49510000D03*
X143340000Y-49510000D03*
X145880000Y-49510000D03*
X148420000Y-49510000D03*
%TD*%
D15*
%TO.C,U1*%
X146920000Y-78390000D03*
X146920000Y-75850000D03*
X146920000Y-73310000D03*
X146920000Y-70770000D03*
%TD*%
M02*
