%TF.GenerationSoftware,KiCad,Pcbnew,9.0.0*%
%TF.CreationDate,2025-03-04T02:14:33-07:00*%
%TF.ProjectId,bubble_detector_v2.1,62756262-6c65-45f6-9465-746563746f72,2.1*%
%TF.SameCoordinates,Original*%
%TF.FileFunction,Legend,Top*%
%TF.FilePolarity,Positive*%
%FSLAX46Y46*%
G04 Gerber Fmt 4.6, Leading zero omitted, Abs format (unit mm)*
G04 Created by KiCad (PCBNEW 9.0.0) date 2025-03-04 02:14:33*
%MOMM*%
%LPD*%
G01*
G04 APERTURE LIST*
%ADD10C,0.125000*%
%ADD11C,0.160000*%
%ADD12C,0.100000*%
%ADD13C,0.200000*%
%ADD14C,0.150000*%
%ADD15C,0.120000*%
%ADD16C,0.000000*%
%ADD17C,0.127000*%
G04 APERTURE END LIST*
D10*
X128513292Y-57671296D02*
X128989483Y-57671296D01*
X127989483Y-58004629D02*
X128513292Y-57671296D01*
X128513292Y-57671296D02*
X127989483Y-57337963D01*
X128465673Y-57004629D02*
X128465673Y-56671296D01*
X128989483Y-56528439D02*
X128989483Y-57004629D01*
X128989483Y-57004629D02*
X127989483Y-57004629D01*
X127989483Y-57004629D02*
X127989483Y-56528439D01*
X128989483Y-55623677D02*
X128989483Y-56099867D01*
X128989483Y-56099867D02*
X127989483Y-56099867D01*
X128989483Y-54814153D02*
X128989483Y-55290343D01*
X128989483Y-55290343D02*
X127989483Y-55290343D01*
X127989483Y-54290343D02*
X127989483Y-54099867D01*
X127989483Y-54099867D02*
X128037102Y-54004629D01*
X128037102Y-54004629D02*
X128132340Y-53909391D01*
X128132340Y-53909391D02*
X128322816Y-53861772D01*
X128322816Y-53861772D02*
X128656149Y-53861772D01*
X128656149Y-53861772D02*
X128846625Y-53909391D01*
X128846625Y-53909391D02*
X128941864Y-54004629D01*
X128941864Y-54004629D02*
X128989483Y-54099867D01*
X128989483Y-54099867D02*
X128989483Y-54290343D01*
X128989483Y-54290343D02*
X128941864Y-54385581D01*
X128941864Y-54385581D02*
X128846625Y-54480819D01*
X128846625Y-54480819D02*
X128656149Y-54528438D01*
X128656149Y-54528438D02*
X128322816Y-54528438D01*
X128322816Y-54528438D02*
X128132340Y-54480819D01*
X128132340Y-54480819D02*
X128037102Y-54385581D01*
X128037102Y-54385581D02*
X127989483Y-54290343D01*
X127989483Y-53528438D02*
X128989483Y-53290343D01*
X128989483Y-53290343D02*
X128275197Y-53099867D01*
X128275197Y-53099867D02*
X128989483Y-52909391D01*
X128989483Y-52909391D02*
X127989483Y-52671296D01*
X126566092Y-57458441D02*
X126089901Y-57791774D01*
X126566092Y-58029869D02*
X125566092Y-58029869D01*
X125566092Y-58029869D02*
X125566092Y-57648917D01*
X125566092Y-57648917D02*
X125613711Y-57553679D01*
X125613711Y-57553679D02*
X125661330Y-57506060D01*
X125661330Y-57506060D02*
X125756568Y-57458441D01*
X125756568Y-57458441D02*
X125899425Y-57458441D01*
X125899425Y-57458441D02*
X125994663Y-57506060D01*
X125994663Y-57506060D02*
X126042282Y-57553679D01*
X126042282Y-57553679D02*
X126089901Y-57648917D01*
X126089901Y-57648917D02*
X126089901Y-58029869D01*
X126042282Y-57029869D02*
X126042282Y-56696536D01*
X126566092Y-56553679D02*
X126566092Y-57029869D01*
X126566092Y-57029869D02*
X125566092Y-57029869D01*
X125566092Y-57029869D02*
X125566092Y-56553679D01*
X126566092Y-56125107D02*
X125566092Y-56125107D01*
X125566092Y-56125107D02*
X125566092Y-55887012D01*
X125566092Y-55887012D02*
X125613711Y-55744155D01*
X125613711Y-55744155D02*
X125708949Y-55648917D01*
X125708949Y-55648917D02*
X125804187Y-55601298D01*
X125804187Y-55601298D02*
X125994663Y-55553679D01*
X125994663Y-55553679D02*
X126137520Y-55553679D01*
X126137520Y-55553679D02*
X126327996Y-55601298D01*
X126327996Y-55601298D02*
X126423234Y-55648917D01*
X126423234Y-55648917D02*
X126518473Y-55744155D01*
X126518473Y-55744155D02*
X126566092Y-55887012D01*
X126566092Y-55887012D02*
X126566092Y-56125107D01*
X123429782Y-57689532D02*
X123477401Y-57546675D01*
X123477401Y-57546675D02*
X123525020Y-57499056D01*
X123525020Y-57499056D02*
X123620258Y-57451437D01*
X123620258Y-57451437D02*
X123763115Y-57451437D01*
X123763115Y-57451437D02*
X123858353Y-57499056D01*
X123858353Y-57499056D02*
X123905973Y-57546675D01*
X123905973Y-57546675D02*
X123953592Y-57641913D01*
X123953592Y-57641913D02*
X123953592Y-58022865D01*
X123953592Y-58022865D02*
X122953592Y-58022865D01*
X122953592Y-58022865D02*
X122953592Y-57689532D01*
X122953592Y-57689532D02*
X123001211Y-57594294D01*
X123001211Y-57594294D02*
X123048830Y-57546675D01*
X123048830Y-57546675D02*
X123144068Y-57499056D01*
X123144068Y-57499056D02*
X123239306Y-57499056D01*
X123239306Y-57499056D02*
X123334544Y-57546675D01*
X123334544Y-57546675D02*
X123382163Y-57594294D01*
X123382163Y-57594294D02*
X123429782Y-57689532D01*
X123429782Y-57689532D02*
X123429782Y-58022865D01*
X123953592Y-56451437D02*
X123477401Y-56784770D01*
X123953592Y-57022865D02*
X122953592Y-57022865D01*
X122953592Y-57022865D02*
X122953592Y-56641913D01*
X122953592Y-56641913D02*
X123001211Y-56546675D01*
X123001211Y-56546675D02*
X123048830Y-56499056D01*
X123048830Y-56499056D02*
X123144068Y-56451437D01*
X123144068Y-56451437D02*
X123286925Y-56451437D01*
X123286925Y-56451437D02*
X123382163Y-56499056D01*
X123382163Y-56499056D02*
X123429782Y-56546675D01*
X123429782Y-56546675D02*
X123477401Y-56641913D01*
X123477401Y-56641913D02*
X123477401Y-57022865D01*
X122953592Y-55832389D02*
X122953592Y-55641913D01*
X122953592Y-55641913D02*
X123001211Y-55546675D01*
X123001211Y-55546675D02*
X123096449Y-55451437D01*
X123096449Y-55451437D02*
X123286925Y-55403818D01*
X123286925Y-55403818D02*
X123620258Y-55403818D01*
X123620258Y-55403818D02*
X123810734Y-55451437D01*
X123810734Y-55451437D02*
X123905973Y-55546675D01*
X123905973Y-55546675D02*
X123953592Y-55641913D01*
X123953592Y-55641913D02*
X123953592Y-55832389D01*
X123953592Y-55832389D02*
X123905973Y-55927627D01*
X123905973Y-55927627D02*
X123810734Y-56022865D01*
X123810734Y-56022865D02*
X123620258Y-56070484D01*
X123620258Y-56070484D02*
X123286925Y-56070484D01*
X123286925Y-56070484D02*
X123096449Y-56022865D01*
X123096449Y-56022865D02*
X123001211Y-55927627D01*
X123001211Y-55927627D02*
X122953592Y-55832389D01*
X122953592Y-55070484D02*
X123953592Y-54832389D01*
X123953592Y-54832389D02*
X123239306Y-54641913D01*
X123239306Y-54641913D02*
X123953592Y-54451437D01*
X123953592Y-54451437D02*
X122953592Y-54213342D01*
X123953592Y-53832389D02*
X122953592Y-53832389D01*
X122953592Y-53832389D02*
X123953592Y-53260961D01*
X123953592Y-53260961D02*
X122953592Y-53260961D01*
D11*
X103383789Y-70600243D02*
X103002836Y-70866910D01*
X103383789Y-71057386D02*
X102583789Y-71057386D01*
X102583789Y-71057386D02*
X102583789Y-70752624D01*
X102583789Y-70752624D02*
X102621884Y-70676434D01*
X102621884Y-70676434D02*
X102659979Y-70638339D01*
X102659979Y-70638339D02*
X102736170Y-70600243D01*
X102736170Y-70600243D02*
X102850455Y-70600243D01*
X102850455Y-70600243D02*
X102926646Y-70638339D01*
X102926646Y-70638339D02*
X102964741Y-70676434D01*
X102964741Y-70676434D02*
X103002836Y-70752624D01*
X103002836Y-70752624D02*
X103002836Y-71057386D01*
X102964741Y-70257386D02*
X102964741Y-69990720D01*
X103383789Y-69876434D02*
X103383789Y-70257386D01*
X103383789Y-70257386D02*
X102583789Y-70257386D01*
X102583789Y-70257386D02*
X102583789Y-69876434D01*
X103383789Y-69533576D02*
X102583789Y-69533576D01*
X102583789Y-69533576D02*
X102583789Y-69343100D01*
X102583789Y-69343100D02*
X102621884Y-69228814D01*
X102621884Y-69228814D02*
X102698074Y-69152624D01*
X102698074Y-69152624D02*
X102774265Y-69114529D01*
X102774265Y-69114529D02*
X102926646Y-69076433D01*
X102926646Y-69076433D02*
X103040932Y-69076433D01*
X103040932Y-69076433D02*
X103193313Y-69114529D01*
X103193313Y-69114529D02*
X103269503Y-69152624D01*
X103269503Y-69152624D02*
X103345694Y-69228814D01*
X103345694Y-69228814D02*
X103383789Y-69343100D01*
X103383789Y-69343100D02*
X103383789Y-69533576D01*
D12*
X105425178Y-63028591D02*
X105425178Y-63485734D01*
X105425178Y-63257162D02*
X104625178Y-63257162D01*
X104625178Y-63257162D02*
X104739463Y-63333353D01*
X104739463Y-63333353D02*
X104815654Y-63409543D01*
X104815654Y-63409543D02*
X104853749Y-63485734D01*
X104625178Y-62304781D02*
X104625178Y-62685733D01*
X104625178Y-62685733D02*
X105006130Y-62723829D01*
X105006130Y-62723829D02*
X104968035Y-62685733D01*
X104968035Y-62685733D02*
X104929940Y-62609543D01*
X104929940Y-62609543D02*
X104929940Y-62419067D01*
X104929940Y-62419067D02*
X104968035Y-62342876D01*
X104968035Y-62342876D02*
X105006130Y-62304781D01*
X105006130Y-62304781D02*
X105082321Y-62266686D01*
X105082321Y-62266686D02*
X105272797Y-62266686D01*
X105272797Y-62266686D02*
X105348987Y-62304781D01*
X105348987Y-62304781D02*
X105387083Y-62342876D01*
X105387083Y-62342876D02*
X105425178Y-62419067D01*
X105425178Y-62419067D02*
X105425178Y-62609543D01*
X105425178Y-62609543D02*
X105387083Y-62685733D01*
X105387083Y-62685733D02*
X105348987Y-62723829D01*
X104625178Y-61771447D02*
X104625178Y-61695257D01*
X104625178Y-61695257D02*
X104663273Y-61619066D01*
X104663273Y-61619066D02*
X104701368Y-61580971D01*
X104701368Y-61580971D02*
X104777559Y-61542876D01*
X104777559Y-61542876D02*
X104929940Y-61504781D01*
X104929940Y-61504781D02*
X105120416Y-61504781D01*
X105120416Y-61504781D02*
X105272797Y-61542876D01*
X105272797Y-61542876D02*
X105348987Y-61580971D01*
X105348987Y-61580971D02*
X105387083Y-61619066D01*
X105387083Y-61619066D02*
X105425178Y-61695257D01*
X105425178Y-61695257D02*
X105425178Y-61771447D01*
X105425178Y-61771447D02*
X105387083Y-61847638D01*
X105387083Y-61847638D02*
X105348987Y-61885733D01*
X105348987Y-61885733D02*
X105272797Y-61923828D01*
X105272797Y-61923828D02*
X105120416Y-61961924D01*
X105120416Y-61961924D02*
X104929940Y-61961924D01*
X104929940Y-61961924D02*
X104777559Y-61923828D01*
X104777559Y-61923828D02*
X104701368Y-61885733D01*
X104701368Y-61885733D02*
X104663273Y-61847638D01*
X104663273Y-61847638D02*
X104625178Y-61771447D01*
X105425178Y-60438114D02*
X105387083Y-60514304D01*
X105387083Y-60514304D02*
X105348987Y-60552399D01*
X105348987Y-60552399D02*
X105272797Y-60590495D01*
X105272797Y-60590495D02*
X105044225Y-60590495D01*
X105044225Y-60590495D02*
X104968035Y-60552399D01*
X104968035Y-60552399D02*
X104929940Y-60514304D01*
X104929940Y-60514304D02*
X104891844Y-60438114D01*
X104891844Y-60438114D02*
X104891844Y-60323828D01*
X104891844Y-60323828D02*
X104929940Y-60247637D01*
X104929940Y-60247637D02*
X104968035Y-60209542D01*
X104968035Y-60209542D02*
X105044225Y-60171447D01*
X105044225Y-60171447D02*
X105272797Y-60171447D01*
X105272797Y-60171447D02*
X105348987Y-60209542D01*
X105348987Y-60209542D02*
X105387083Y-60247637D01*
X105387083Y-60247637D02*
X105425178Y-60323828D01*
X105425178Y-60323828D02*
X105425178Y-60438114D01*
X105425178Y-59828589D02*
X104625178Y-59828589D01*
X105425178Y-59485732D02*
X105006130Y-59485732D01*
X105006130Y-59485732D02*
X104929940Y-59523827D01*
X104929940Y-59523827D02*
X104891844Y-59600018D01*
X104891844Y-59600018D02*
X104891844Y-59714304D01*
X104891844Y-59714304D02*
X104929940Y-59790494D01*
X104929940Y-59790494D02*
X104968035Y-59828589D01*
X105425178Y-59104779D02*
X104891844Y-59104779D01*
X104968035Y-59104779D02*
X104929940Y-59066684D01*
X104929940Y-59066684D02*
X104891844Y-58990494D01*
X104891844Y-58990494D02*
X104891844Y-58876208D01*
X104891844Y-58876208D02*
X104929940Y-58800017D01*
X104929940Y-58800017D02*
X105006130Y-58761922D01*
X105006130Y-58761922D02*
X105425178Y-58761922D01*
X105006130Y-58761922D02*
X104929940Y-58723827D01*
X104929940Y-58723827D02*
X104891844Y-58647636D01*
X104891844Y-58647636D02*
X104891844Y-58533351D01*
X104891844Y-58533351D02*
X104929940Y-58457160D01*
X104929940Y-58457160D02*
X105006130Y-58419065D01*
X105006130Y-58419065D02*
X105425178Y-58419065D01*
D11*
X108662852Y-71384267D02*
X108624757Y-71460457D01*
X108624757Y-71460457D02*
X108624757Y-71574743D01*
X108624757Y-71574743D02*
X108662852Y-71689029D01*
X108662852Y-71689029D02*
X108739042Y-71765219D01*
X108739042Y-71765219D02*
X108815233Y-71803314D01*
X108815233Y-71803314D02*
X108967614Y-71841410D01*
X108967614Y-71841410D02*
X109081900Y-71841410D01*
X109081900Y-71841410D02*
X109234281Y-71803314D01*
X109234281Y-71803314D02*
X109310471Y-71765219D01*
X109310471Y-71765219D02*
X109386662Y-71689029D01*
X109386662Y-71689029D02*
X109424757Y-71574743D01*
X109424757Y-71574743D02*
X109424757Y-71498552D01*
X109424757Y-71498552D02*
X109386662Y-71384267D01*
X109386662Y-71384267D02*
X109348566Y-71346171D01*
X109348566Y-71346171D02*
X109081900Y-71346171D01*
X109081900Y-71346171D02*
X109081900Y-71498552D01*
X109424757Y-70546171D02*
X109043804Y-70812838D01*
X109424757Y-71003314D02*
X108624757Y-71003314D01*
X108624757Y-71003314D02*
X108624757Y-70698552D01*
X108624757Y-70698552D02*
X108662852Y-70622362D01*
X108662852Y-70622362D02*
X108700947Y-70584267D01*
X108700947Y-70584267D02*
X108777138Y-70546171D01*
X108777138Y-70546171D02*
X108891423Y-70546171D01*
X108891423Y-70546171D02*
X108967614Y-70584267D01*
X108967614Y-70584267D02*
X109005709Y-70622362D01*
X109005709Y-70622362D02*
X109043804Y-70698552D01*
X109043804Y-70698552D02*
X109043804Y-71003314D01*
X109005709Y-70203314D02*
X109005709Y-69936648D01*
X109424757Y-69822362D02*
X109424757Y-70203314D01*
X109424757Y-70203314D02*
X108624757Y-70203314D01*
X108624757Y-70203314D02*
X108624757Y-69822362D01*
X109005709Y-69479504D02*
X109005709Y-69212838D01*
X109424757Y-69098552D02*
X109424757Y-69479504D01*
X109424757Y-69479504D02*
X108624757Y-69479504D01*
X108624757Y-69479504D02*
X108624757Y-69098552D01*
X109424757Y-68755694D02*
X108624757Y-68755694D01*
X108624757Y-68755694D02*
X109424757Y-68298551D01*
X109424757Y-68298551D02*
X108624757Y-68298551D01*
D12*
X117412562Y-63070615D02*
X117412562Y-63527758D01*
X117412562Y-63299186D02*
X116612562Y-63299186D01*
X116612562Y-63299186D02*
X116726847Y-63375377D01*
X116726847Y-63375377D02*
X116803038Y-63451567D01*
X116803038Y-63451567D02*
X116841133Y-63527758D01*
X116612562Y-62575376D02*
X116612562Y-62499186D01*
X116612562Y-62499186D02*
X116650657Y-62422995D01*
X116650657Y-62422995D02*
X116688752Y-62384900D01*
X116688752Y-62384900D02*
X116764943Y-62346805D01*
X116764943Y-62346805D02*
X116917324Y-62308710D01*
X116917324Y-62308710D02*
X117107800Y-62308710D01*
X117107800Y-62308710D02*
X117260181Y-62346805D01*
X117260181Y-62346805D02*
X117336371Y-62384900D01*
X117336371Y-62384900D02*
X117374467Y-62422995D01*
X117374467Y-62422995D02*
X117412562Y-62499186D01*
X117412562Y-62499186D02*
X117412562Y-62575376D01*
X117412562Y-62575376D02*
X117374467Y-62651567D01*
X117374467Y-62651567D02*
X117336371Y-62689662D01*
X117336371Y-62689662D02*
X117260181Y-62727757D01*
X117260181Y-62727757D02*
X117107800Y-62765853D01*
X117107800Y-62765853D02*
X116917324Y-62765853D01*
X116917324Y-62765853D02*
X116764943Y-62727757D01*
X116764943Y-62727757D02*
X116688752Y-62689662D01*
X116688752Y-62689662D02*
X116650657Y-62651567D01*
X116650657Y-62651567D02*
X116612562Y-62575376D01*
X116612562Y-61813471D02*
X116612562Y-61737281D01*
X116612562Y-61737281D02*
X116650657Y-61661090D01*
X116650657Y-61661090D02*
X116688752Y-61622995D01*
X116688752Y-61622995D02*
X116764943Y-61584900D01*
X116764943Y-61584900D02*
X116917324Y-61546805D01*
X116917324Y-61546805D02*
X117107800Y-61546805D01*
X117107800Y-61546805D02*
X117260181Y-61584900D01*
X117260181Y-61584900D02*
X117336371Y-61622995D01*
X117336371Y-61622995D02*
X117374467Y-61661090D01*
X117374467Y-61661090D02*
X117412562Y-61737281D01*
X117412562Y-61737281D02*
X117412562Y-61813471D01*
X117412562Y-61813471D02*
X117374467Y-61889662D01*
X117374467Y-61889662D02*
X117336371Y-61927757D01*
X117336371Y-61927757D02*
X117260181Y-61965852D01*
X117260181Y-61965852D02*
X117107800Y-62003948D01*
X117107800Y-62003948D02*
X116917324Y-62003948D01*
X116917324Y-62003948D02*
X116764943Y-61965852D01*
X116764943Y-61965852D02*
X116688752Y-61927757D01*
X116688752Y-61927757D02*
X116650657Y-61889662D01*
X116650657Y-61889662D02*
X116612562Y-61813471D01*
X117412562Y-60480138D02*
X117374467Y-60556328D01*
X117374467Y-60556328D02*
X117336371Y-60594423D01*
X117336371Y-60594423D02*
X117260181Y-60632519D01*
X117260181Y-60632519D02*
X117031609Y-60632519D01*
X117031609Y-60632519D02*
X116955419Y-60594423D01*
X116955419Y-60594423D02*
X116917324Y-60556328D01*
X116917324Y-60556328D02*
X116879228Y-60480138D01*
X116879228Y-60480138D02*
X116879228Y-60365852D01*
X116879228Y-60365852D02*
X116917324Y-60289661D01*
X116917324Y-60289661D02*
X116955419Y-60251566D01*
X116955419Y-60251566D02*
X117031609Y-60213471D01*
X117031609Y-60213471D02*
X117260181Y-60213471D01*
X117260181Y-60213471D02*
X117336371Y-60251566D01*
X117336371Y-60251566D02*
X117374467Y-60289661D01*
X117374467Y-60289661D02*
X117412562Y-60365852D01*
X117412562Y-60365852D02*
X117412562Y-60480138D01*
X117412562Y-59870613D02*
X116612562Y-59870613D01*
X117412562Y-59527756D02*
X116993514Y-59527756D01*
X116993514Y-59527756D02*
X116917324Y-59565851D01*
X116917324Y-59565851D02*
X116879228Y-59642042D01*
X116879228Y-59642042D02*
X116879228Y-59756328D01*
X116879228Y-59756328D02*
X116917324Y-59832518D01*
X116917324Y-59832518D02*
X116955419Y-59870613D01*
X117412562Y-59146803D02*
X116879228Y-59146803D01*
X116955419Y-59146803D02*
X116917324Y-59108708D01*
X116917324Y-59108708D02*
X116879228Y-59032518D01*
X116879228Y-59032518D02*
X116879228Y-58918232D01*
X116879228Y-58918232D02*
X116917324Y-58842041D01*
X116917324Y-58842041D02*
X116993514Y-58803946D01*
X116993514Y-58803946D02*
X117412562Y-58803946D01*
X116993514Y-58803946D02*
X116917324Y-58765851D01*
X116917324Y-58765851D02*
X116879228Y-58689660D01*
X116879228Y-58689660D02*
X116879228Y-58575375D01*
X116879228Y-58575375D02*
X116917324Y-58499184D01*
X116917324Y-58499184D02*
X116993514Y-58461089D01*
X116993514Y-58461089D02*
X117412562Y-58461089D01*
X109142625Y-78746221D02*
X109752149Y-78746221D01*
X109447387Y-79050983D02*
X109447387Y-78441459D01*
X110514053Y-78250983D02*
X110133101Y-78250983D01*
X110133101Y-78250983D02*
X110095005Y-78631935D01*
X110095005Y-78631935D02*
X110133101Y-78593840D01*
X110133101Y-78593840D02*
X110209291Y-78555745D01*
X110209291Y-78555745D02*
X110399767Y-78555745D01*
X110399767Y-78555745D02*
X110475958Y-78593840D01*
X110475958Y-78593840D02*
X110514053Y-78631935D01*
X110514053Y-78631935D02*
X110552148Y-78708126D01*
X110552148Y-78708126D02*
X110552148Y-78898602D01*
X110552148Y-78898602D02*
X110514053Y-78974792D01*
X110514053Y-78974792D02*
X110475958Y-79012888D01*
X110475958Y-79012888D02*
X110399767Y-79050983D01*
X110399767Y-79050983D02*
X110209291Y-79050983D01*
X110209291Y-79050983D02*
X110133101Y-79012888D01*
X110133101Y-79012888D02*
X110095005Y-78974792D01*
X110780720Y-78250983D02*
X111047387Y-79050983D01*
X111047387Y-79050983D02*
X111314053Y-78250983D01*
X111413617Y-63070615D02*
X111413617Y-63527758D01*
X111413617Y-63299186D02*
X110613617Y-63299186D01*
X110613617Y-63299186D02*
X110727902Y-63375377D01*
X110727902Y-63375377D02*
X110804093Y-63451567D01*
X110804093Y-63451567D02*
X110842188Y-63527758D01*
X110613617Y-62575376D02*
X110613617Y-62499186D01*
X110613617Y-62499186D02*
X110651712Y-62422995D01*
X110651712Y-62422995D02*
X110689807Y-62384900D01*
X110689807Y-62384900D02*
X110765998Y-62346805D01*
X110765998Y-62346805D02*
X110918379Y-62308710D01*
X110918379Y-62308710D02*
X111108855Y-62308710D01*
X111108855Y-62308710D02*
X111261236Y-62346805D01*
X111261236Y-62346805D02*
X111337426Y-62384900D01*
X111337426Y-62384900D02*
X111375522Y-62422995D01*
X111375522Y-62422995D02*
X111413617Y-62499186D01*
X111413617Y-62499186D02*
X111413617Y-62575376D01*
X111413617Y-62575376D02*
X111375522Y-62651567D01*
X111375522Y-62651567D02*
X111337426Y-62689662D01*
X111337426Y-62689662D02*
X111261236Y-62727757D01*
X111261236Y-62727757D02*
X111108855Y-62765853D01*
X111108855Y-62765853D02*
X110918379Y-62765853D01*
X110918379Y-62765853D02*
X110765998Y-62727757D01*
X110765998Y-62727757D02*
X110689807Y-62689662D01*
X110689807Y-62689662D02*
X110651712Y-62651567D01*
X110651712Y-62651567D02*
X110613617Y-62575376D01*
X110613617Y-61813471D02*
X110613617Y-61737281D01*
X110613617Y-61737281D02*
X110651712Y-61661090D01*
X110651712Y-61661090D02*
X110689807Y-61622995D01*
X110689807Y-61622995D02*
X110765998Y-61584900D01*
X110765998Y-61584900D02*
X110918379Y-61546805D01*
X110918379Y-61546805D02*
X111108855Y-61546805D01*
X111108855Y-61546805D02*
X111261236Y-61584900D01*
X111261236Y-61584900D02*
X111337426Y-61622995D01*
X111337426Y-61622995D02*
X111375522Y-61661090D01*
X111375522Y-61661090D02*
X111413617Y-61737281D01*
X111413617Y-61737281D02*
X111413617Y-61813471D01*
X111413617Y-61813471D02*
X111375522Y-61889662D01*
X111375522Y-61889662D02*
X111337426Y-61927757D01*
X111337426Y-61927757D02*
X111261236Y-61965852D01*
X111261236Y-61965852D02*
X111108855Y-62003948D01*
X111108855Y-62003948D02*
X110918379Y-62003948D01*
X110918379Y-62003948D02*
X110765998Y-61965852D01*
X110765998Y-61965852D02*
X110689807Y-61927757D01*
X110689807Y-61927757D02*
X110651712Y-61889662D01*
X110651712Y-61889662D02*
X110613617Y-61813471D01*
X111413617Y-60480138D02*
X111375522Y-60556328D01*
X111375522Y-60556328D02*
X111337426Y-60594423D01*
X111337426Y-60594423D02*
X111261236Y-60632519D01*
X111261236Y-60632519D02*
X111032664Y-60632519D01*
X111032664Y-60632519D02*
X110956474Y-60594423D01*
X110956474Y-60594423D02*
X110918379Y-60556328D01*
X110918379Y-60556328D02*
X110880283Y-60480138D01*
X110880283Y-60480138D02*
X110880283Y-60365852D01*
X110880283Y-60365852D02*
X110918379Y-60289661D01*
X110918379Y-60289661D02*
X110956474Y-60251566D01*
X110956474Y-60251566D02*
X111032664Y-60213471D01*
X111032664Y-60213471D02*
X111261236Y-60213471D01*
X111261236Y-60213471D02*
X111337426Y-60251566D01*
X111337426Y-60251566D02*
X111375522Y-60289661D01*
X111375522Y-60289661D02*
X111413617Y-60365852D01*
X111413617Y-60365852D02*
X111413617Y-60480138D01*
X111413617Y-59870613D02*
X110613617Y-59870613D01*
X111413617Y-59527756D02*
X110994569Y-59527756D01*
X110994569Y-59527756D02*
X110918379Y-59565851D01*
X110918379Y-59565851D02*
X110880283Y-59642042D01*
X110880283Y-59642042D02*
X110880283Y-59756328D01*
X110880283Y-59756328D02*
X110918379Y-59832518D01*
X110918379Y-59832518D02*
X110956474Y-59870613D01*
X111413617Y-59146803D02*
X110880283Y-59146803D01*
X110956474Y-59146803D02*
X110918379Y-59108708D01*
X110918379Y-59108708D02*
X110880283Y-59032518D01*
X110880283Y-59032518D02*
X110880283Y-58918232D01*
X110880283Y-58918232D02*
X110918379Y-58842041D01*
X110918379Y-58842041D02*
X110994569Y-58803946D01*
X110994569Y-58803946D02*
X111413617Y-58803946D01*
X110994569Y-58803946D02*
X110918379Y-58765851D01*
X110918379Y-58765851D02*
X110880283Y-58689660D01*
X110880283Y-58689660D02*
X110880283Y-58575375D01*
X110880283Y-58575375D02*
X110918379Y-58499184D01*
X110918379Y-58499184D02*
X110994569Y-58461089D01*
X110994569Y-58461089D02*
X111413617Y-58461089D01*
D11*
X114952124Y-71368551D02*
X114990219Y-71254265D01*
X114990219Y-71254265D02*
X115028315Y-71216170D01*
X115028315Y-71216170D02*
X115104505Y-71178074D01*
X115104505Y-71178074D02*
X115218791Y-71178074D01*
X115218791Y-71178074D02*
X115294981Y-71216170D01*
X115294981Y-71216170D02*
X115333077Y-71254265D01*
X115333077Y-71254265D02*
X115371172Y-71330455D01*
X115371172Y-71330455D02*
X115371172Y-71635217D01*
X115371172Y-71635217D02*
X114571172Y-71635217D01*
X114571172Y-71635217D02*
X114571172Y-71368551D01*
X114571172Y-71368551D02*
X114609267Y-71292360D01*
X114609267Y-71292360D02*
X114647362Y-71254265D01*
X114647362Y-71254265D02*
X114723553Y-71216170D01*
X114723553Y-71216170D02*
X114799743Y-71216170D01*
X114799743Y-71216170D02*
X114875934Y-71254265D01*
X114875934Y-71254265D02*
X114914029Y-71292360D01*
X114914029Y-71292360D02*
X114952124Y-71368551D01*
X114952124Y-71368551D02*
X114952124Y-71635217D01*
X115371172Y-70454265D02*
X115371172Y-70835217D01*
X115371172Y-70835217D02*
X114571172Y-70835217D01*
X114571172Y-70187598D02*
X115218791Y-70187598D01*
X115218791Y-70187598D02*
X115294981Y-70149503D01*
X115294981Y-70149503D02*
X115333077Y-70111408D01*
X115333077Y-70111408D02*
X115371172Y-70035217D01*
X115371172Y-70035217D02*
X115371172Y-69882836D01*
X115371172Y-69882836D02*
X115333077Y-69806646D01*
X115333077Y-69806646D02*
X115294981Y-69768551D01*
X115294981Y-69768551D02*
X115218791Y-69730455D01*
X115218791Y-69730455D02*
X114571172Y-69730455D01*
X114952124Y-69349503D02*
X114952124Y-69082837D01*
X115371172Y-68968551D02*
X115371172Y-69349503D01*
X115371172Y-69349503D02*
X114571172Y-69349503D01*
X114571172Y-69349503D02*
X114571172Y-68968551D01*
D12*
X120234606Y-51928326D02*
X120272701Y-51890231D01*
X120272701Y-51890231D02*
X120348892Y-51852135D01*
X120348892Y-51852135D02*
X120501273Y-51928326D01*
X120501273Y-51928326D02*
X120577463Y-51890231D01*
X120577463Y-51890231D02*
X120615558Y-51852135D01*
X121339368Y-52233088D02*
X120882225Y-52233088D01*
X121110797Y-52233088D02*
X121110797Y-51433088D01*
X121110797Y-51433088D02*
X121034606Y-51547373D01*
X121034606Y-51547373D02*
X120958416Y-51623564D01*
X120958416Y-51623564D02*
X120882225Y-51661659D01*
X121834607Y-51433088D02*
X121910797Y-51433088D01*
X121910797Y-51433088D02*
X121986988Y-51471183D01*
X121986988Y-51471183D02*
X122025083Y-51509278D01*
X122025083Y-51509278D02*
X122063178Y-51585469D01*
X122063178Y-51585469D02*
X122101273Y-51737850D01*
X122101273Y-51737850D02*
X122101273Y-51928326D01*
X122101273Y-51928326D02*
X122063178Y-52080707D01*
X122063178Y-52080707D02*
X122025083Y-52156897D01*
X122025083Y-52156897D02*
X121986988Y-52194993D01*
X121986988Y-52194993D02*
X121910797Y-52233088D01*
X121910797Y-52233088D02*
X121834607Y-52233088D01*
X121834607Y-52233088D02*
X121758416Y-52194993D01*
X121758416Y-52194993D02*
X121720321Y-52156897D01*
X121720321Y-52156897D02*
X121682226Y-52080707D01*
X121682226Y-52080707D02*
X121644130Y-51928326D01*
X121644130Y-51928326D02*
X121644130Y-51737850D01*
X121644130Y-51737850D02*
X121682226Y-51585469D01*
X121682226Y-51585469D02*
X121720321Y-51509278D01*
X121720321Y-51509278D02*
X121758416Y-51471183D01*
X121758416Y-51471183D02*
X121834607Y-51433088D01*
X121878807Y-95620149D02*
X122488331Y-95620149D01*
X122183569Y-95924911D02*
X122183569Y-95315387D01*
X123250235Y-95124911D02*
X122869283Y-95124911D01*
X122869283Y-95124911D02*
X122831187Y-95505863D01*
X122831187Y-95505863D02*
X122869283Y-95467768D01*
X122869283Y-95467768D02*
X122945473Y-95429673D01*
X122945473Y-95429673D02*
X123135949Y-95429673D01*
X123135949Y-95429673D02*
X123212140Y-95467768D01*
X123212140Y-95467768D02*
X123250235Y-95505863D01*
X123250235Y-95505863D02*
X123288330Y-95582054D01*
X123288330Y-95582054D02*
X123288330Y-95772530D01*
X123288330Y-95772530D02*
X123250235Y-95848720D01*
X123250235Y-95848720D02*
X123212140Y-95886816D01*
X123212140Y-95886816D02*
X123135949Y-95924911D01*
X123135949Y-95924911D02*
X122945473Y-95924911D01*
X122945473Y-95924911D02*
X122869283Y-95886816D01*
X122869283Y-95886816D02*
X122831187Y-95848720D01*
X123516902Y-95124911D02*
X123783569Y-95924911D01*
X123783569Y-95924911D02*
X124050235Y-95124911D01*
X110785022Y-51458731D02*
X110708832Y-51420636D01*
X110708832Y-51420636D02*
X110594546Y-51420636D01*
X110594546Y-51420636D02*
X110480260Y-51458731D01*
X110480260Y-51458731D02*
X110404070Y-51534921D01*
X110404070Y-51534921D02*
X110365975Y-51611112D01*
X110365975Y-51611112D02*
X110327879Y-51763493D01*
X110327879Y-51763493D02*
X110327879Y-51877779D01*
X110327879Y-51877779D02*
X110365975Y-52030160D01*
X110365975Y-52030160D02*
X110404070Y-52106350D01*
X110404070Y-52106350D02*
X110480260Y-52182541D01*
X110480260Y-52182541D02*
X110594546Y-52220636D01*
X110594546Y-52220636D02*
X110670737Y-52220636D01*
X110670737Y-52220636D02*
X110785022Y-52182541D01*
X110785022Y-52182541D02*
X110823118Y-52144445D01*
X110823118Y-52144445D02*
X110823118Y-51877779D01*
X110823118Y-51877779D02*
X110670737Y-51877779D01*
X111165975Y-52220636D02*
X111165975Y-51420636D01*
X111165975Y-51420636D02*
X111623118Y-52220636D01*
X111623118Y-52220636D02*
X111623118Y-51420636D01*
X112004070Y-52220636D02*
X112004070Y-51420636D01*
X112004070Y-51420636D02*
X112194546Y-51420636D01*
X112194546Y-51420636D02*
X112308832Y-51458731D01*
X112308832Y-51458731D02*
X112385022Y-51534921D01*
X112385022Y-51534921D02*
X112423117Y-51611112D01*
X112423117Y-51611112D02*
X112461213Y-51763493D01*
X112461213Y-51763493D02*
X112461213Y-51877779D01*
X112461213Y-51877779D02*
X112423117Y-52030160D01*
X112423117Y-52030160D02*
X112385022Y-52106350D01*
X112385022Y-52106350D02*
X112308832Y-52182541D01*
X112308832Y-52182541D02*
X112194546Y-52220636D01*
X112194546Y-52220636D02*
X112004070Y-52220636D01*
X123168679Y-51915874D02*
X123206774Y-51877779D01*
X123206774Y-51877779D02*
X123282965Y-51839683D01*
X123282965Y-51839683D02*
X123435346Y-51915874D01*
X123435346Y-51915874D02*
X123511536Y-51877779D01*
X123511536Y-51877779D02*
X123549631Y-51839683D01*
X123892489Y-52220636D02*
X124044870Y-52220636D01*
X124044870Y-52220636D02*
X124121060Y-52182541D01*
X124121060Y-52182541D02*
X124159156Y-52144445D01*
X124159156Y-52144445D02*
X124235346Y-52030160D01*
X124235346Y-52030160D02*
X124273441Y-51877779D01*
X124273441Y-51877779D02*
X124273441Y-51573017D01*
X124273441Y-51573017D02*
X124235346Y-51496826D01*
X124235346Y-51496826D02*
X124197251Y-51458731D01*
X124197251Y-51458731D02*
X124121060Y-51420636D01*
X124121060Y-51420636D02*
X123968679Y-51420636D01*
X123968679Y-51420636D02*
X123892489Y-51458731D01*
X123892489Y-51458731D02*
X123854394Y-51496826D01*
X123854394Y-51496826D02*
X123816298Y-51573017D01*
X123816298Y-51573017D02*
X123816298Y-51763493D01*
X123816298Y-51763493D02*
X123854394Y-51839683D01*
X123854394Y-51839683D02*
X123892489Y-51877779D01*
X123892489Y-51877779D02*
X123968679Y-51915874D01*
X123968679Y-51915874D02*
X124121060Y-51915874D01*
X124121060Y-51915874D02*
X124197251Y-51877779D01*
X124197251Y-51877779D02*
X124235346Y-51839683D01*
X124235346Y-51839683D02*
X124273441Y-51763493D01*
X127504177Y-95153667D02*
X127427987Y-95115572D01*
X127427987Y-95115572D02*
X127313701Y-95115572D01*
X127313701Y-95115572D02*
X127199415Y-95153667D01*
X127199415Y-95153667D02*
X127123225Y-95229857D01*
X127123225Y-95229857D02*
X127085130Y-95306048D01*
X127085130Y-95306048D02*
X127047034Y-95458429D01*
X127047034Y-95458429D02*
X127047034Y-95572715D01*
X127047034Y-95572715D02*
X127085130Y-95725096D01*
X127085130Y-95725096D02*
X127123225Y-95801286D01*
X127123225Y-95801286D02*
X127199415Y-95877477D01*
X127199415Y-95877477D02*
X127313701Y-95915572D01*
X127313701Y-95915572D02*
X127389892Y-95915572D01*
X127389892Y-95915572D02*
X127504177Y-95877477D01*
X127504177Y-95877477D02*
X127542273Y-95839381D01*
X127542273Y-95839381D02*
X127542273Y-95572715D01*
X127542273Y-95572715D02*
X127389892Y-95572715D01*
X127885130Y-95915572D02*
X127885130Y-95115572D01*
X127885130Y-95115572D02*
X128342273Y-95915572D01*
X128342273Y-95915572D02*
X128342273Y-95115572D01*
X128723225Y-95915572D02*
X128723225Y-95115572D01*
X128723225Y-95115572D02*
X128913701Y-95115572D01*
X128913701Y-95115572D02*
X129027987Y-95153667D01*
X129027987Y-95153667D02*
X129104177Y-95229857D01*
X129104177Y-95229857D02*
X129142272Y-95306048D01*
X129142272Y-95306048D02*
X129180368Y-95458429D01*
X129180368Y-95458429D02*
X129180368Y-95572715D01*
X129180368Y-95572715D02*
X129142272Y-95725096D01*
X129142272Y-95725096D02*
X129104177Y-95801286D01*
X129104177Y-95801286D02*
X129027987Y-95877477D01*
X129027987Y-95877477D02*
X128913701Y-95915572D01*
X128913701Y-95915572D02*
X128723225Y-95915572D01*
X124903350Y-95139659D02*
X124827160Y-95101564D01*
X124827160Y-95101564D02*
X124712874Y-95101564D01*
X124712874Y-95101564D02*
X124598588Y-95139659D01*
X124598588Y-95139659D02*
X124522398Y-95215849D01*
X124522398Y-95215849D02*
X124484303Y-95292040D01*
X124484303Y-95292040D02*
X124446207Y-95444421D01*
X124446207Y-95444421D02*
X124446207Y-95558707D01*
X124446207Y-95558707D02*
X124484303Y-95711088D01*
X124484303Y-95711088D02*
X124522398Y-95787278D01*
X124522398Y-95787278D02*
X124598588Y-95863469D01*
X124598588Y-95863469D02*
X124712874Y-95901564D01*
X124712874Y-95901564D02*
X124789065Y-95901564D01*
X124789065Y-95901564D02*
X124903350Y-95863469D01*
X124903350Y-95863469D02*
X124941446Y-95825373D01*
X124941446Y-95825373D02*
X124941446Y-95558707D01*
X124941446Y-95558707D02*
X124789065Y-95558707D01*
X125284303Y-95901564D02*
X125284303Y-95101564D01*
X125284303Y-95101564D02*
X125741446Y-95901564D01*
X125741446Y-95901564D02*
X125741446Y-95101564D01*
X126122398Y-95901564D02*
X126122398Y-95101564D01*
X126122398Y-95101564D02*
X126312874Y-95101564D01*
X126312874Y-95101564D02*
X126427160Y-95139659D01*
X126427160Y-95139659D02*
X126503350Y-95215849D01*
X126503350Y-95215849D02*
X126541445Y-95292040D01*
X126541445Y-95292040D02*
X126579541Y-95444421D01*
X126579541Y-95444421D02*
X126579541Y-95558707D01*
X126579541Y-95558707D02*
X126541445Y-95711088D01*
X126541445Y-95711088D02*
X126503350Y-95787278D01*
X126503350Y-95787278D02*
X126427160Y-95863469D01*
X126427160Y-95863469D02*
X126312874Y-95901564D01*
X126312874Y-95901564D02*
X126122398Y-95901564D01*
X132324251Y-51487072D02*
X132362346Y-51448977D01*
X132362346Y-51448977D02*
X132438537Y-51410881D01*
X132438537Y-51410881D02*
X132590918Y-51487072D01*
X132590918Y-51487072D02*
X132667108Y-51448977D01*
X132667108Y-51448977D02*
X132705203Y-51410881D01*
X133352823Y-50991834D02*
X133200442Y-50991834D01*
X133200442Y-50991834D02*
X133124251Y-51029929D01*
X133124251Y-51029929D02*
X133086156Y-51068024D01*
X133086156Y-51068024D02*
X133009966Y-51182310D01*
X133009966Y-51182310D02*
X132971870Y-51334691D01*
X132971870Y-51334691D02*
X132971870Y-51639453D01*
X132971870Y-51639453D02*
X133009966Y-51715643D01*
X133009966Y-51715643D02*
X133048061Y-51753739D01*
X133048061Y-51753739D02*
X133124251Y-51791834D01*
X133124251Y-51791834D02*
X133276632Y-51791834D01*
X133276632Y-51791834D02*
X133352823Y-51753739D01*
X133352823Y-51753739D02*
X133390918Y-51715643D01*
X133390918Y-51715643D02*
X133429013Y-51639453D01*
X133429013Y-51639453D02*
X133429013Y-51448977D01*
X133429013Y-51448977D02*
X133390918Y-51372786D01*
X133390918Y-51372786D02*
X133352823Y-51334691D01*
X133352823Y-51334691D02*
X133276632Y-51296596D01*
X133276632Y-51296596D02*
X133124251Y-51296596D01*
X133124251Y-51296596D02*
X133048061Y-51334691D01*
X133048061Y-51334691D02*
X133009966Y-51372786D01*
X133009966Y-51372786D02*
X132971870Y-51448977D01*
X117722497Y-51914318D02*
X117760592Y-51876223D01*
X117760592Y-51876223D02*
X117836783Y-51838127D01*
X117836783Y-51838127D02*
X117989164Y-51914318D01*
X117989164Y-51914318D02*
X118065354Y-51876223D01*
X118065354Y-51876223D02*
X118103449Y-51838127D01*
X118827259Y-52219080D02*
X118370116Y-52219080D01*
X118598688Y-52219080D02*
X118598688Y-51419080D01*
X118598688Y-51419080D02*
X118522497Y-51533365D01*
X118522497Y-51533365D02*
X118446307Y-51609556D01*
X118446307Y-51609556D02*
X118370116Y-51647651D01*
X119589164Y-52219080D02*
X119132021Y-52219080D01*
X119360593Y-52219080D02*
X119360593Y-51419080D01*
X119360593Y-51419080D02*
X119284402Y-51533365D01*
X119284402Y-51533365D02*
X119208212Y-51609556D01*
X119208212Y-51609556D02*
X119132021Y-51647651D01*
D13*
X100770681Y-80506756D02*
X100818300Y-80459137D01*
X100818300Y-80459137D02*
X100913538Y-80411518D01*
X100913538Y-80411518D02*
X101151633Y-80411518D01*
X101151633Y-80411518D02*
X101246871Y-80459137D01*
X101246871Y-80459137D02*
X101294490Y-80506756D01*
X101294490Y-80506756D02*
X101342109Y-80601994D01*
X101342109Y-80601994D02*
X101342109Y-80697232D01*
X101342109Y-80697232D02*
X101294490Y-80840089D01*
X101294490Y-80840089D02*
X100723062Y-81411518D01*
X100723062Y-81411518D02*
X101342109Y-81411518D01*
X101961157Y-80411518D02*
X102056395Y-80411518D01*
X102056395Y-80411518D02*
X102151633Y-80459137D01*
X102151633Y-80459137D02*
X102199252Y-80506756D01*
X102199252Y-80506756D02*
X102246871Y-80601994D01*
X102246871Y-80601994D02*
X102294490Y-80792470D01*
X102294490Y-80792470D02*
X102294490Y-81030565D01*
X102294490Y-81030565D02*
X102246871Y-81221041D01*
X102246871Y-81221041D02*
X102199252Y-81316279D01*
X102199252Y-81316279D02*
X102151633Y-81363899D01*
X102151633Y-81363899D02*
X102056395Y-81411518D01*
X102056395Y-81411518D02*
X101961157Y-81411518D01*
X101961157Y-81411518D02*
X101865919Y-81363899D01*
X101865919Y-81363899D02*
X101818300Y-81316279D01*
X101818300Y-81316279D02*
X101770681Y-81221041D01*
X101770681Y-81221041D02*
X101723062Y-81030565D01*
X101723062Y-81030565D02*
X101723062Y-80792470D01*
X101723062Y-80792470D02*
X101770681Y-80601994D01*
X101770681Y-80601994D02*
X101818300Y-80506756D01*
X101818300Y-80506756D02*
X101865919Y-80459137D01*
X101865919Y-80459137D02*
X101961157Y-80411518D01*
X102675443Y-80506756D02*
X102723062Y-80459137D01*
X102723062Y-80459137D02*
X102818300Y-80411518D01*
X102818300Y-80411518D02*
X103056395Y-80411518D01*
X103056395Y-80411518D02*
X103151633Y-80459137D01*
X103151633Y-80459137D02*
X103199252Y-80506756D01*
X103199252Y-80506756D02*
X103246871Y-80601994D01*
X103246871Y-80601994D02*
X103246871Y-80697232D01*
X103246871Y-80697232D02*
X103199252Y-80840089D01*
X103199252Y-80840089D02*
X102627824Y-81411518D01*
X102627824Y-81411518D02*
X103246871Y-81411518D01*
X104151633Y-80411518D02*
X103675443Y-80411518D01*
X103675443Y-80411518D02*
X103627824Y-80887708D01*
X103627824Y-80887708D02*
X103675443Y-80840089D01*
X103675443Y-80840089D02*
X103770681Y-80792470D01*
X103770681Y-80792470D02*
X104008776Y-80792470D01*
X104008776Y-80792470D02*
X104104014Y-80840089D01*
X104104014Y-80840089D02*
X104151633Y-80887708D01*
X104151633Y-80887708D02*
X104199252Y-80982946D01*
X104199252Y-80982946D02*
X104199252Y-81221041D01*
X104199252Y-81221041D02*
X104151633Y-81316279D01*
X104151633Y-81316279D02*
X104104014Y-81363899D01*
X104104014Y-81363899D02*
X104008776Y-81411518D01*
X104008776Y-81411518D02*
X103770681Y-81411518D01*
X103770681Y-81411518D02*
X103675443Y-81363899D01*
X103675443Y-81363899D02*
X103627824Y-81316279D01*
X104675443Y-81363899D02*
X104675443Y-81411518D01*
X104675443Y-81411518D02*
X104627824Y-81506756D01*
X104627824Y-81506756D02*
X104580205Y-81554375D01*
X105723062Y-80411518D02*
X106056395Y-81411518D01*
X106056395Y-81411518D02*
X106389728Y-80411518D01*
X107104014Y-81363899D02*
X107008776Y-81411518D01*
X107008776Y-81411518D02*
X106818300Y-81411518D01*
X106818300Y-81411518D02*
X106723062Y-81363899D01*
X106723062Y-81363899D02*
X106675443Y-81268660D01*
X106675443Y-81268660D02*
X106675443Y-80887708D01*
X106675443Y-80887708D02*
X106723062Y-80792470D01*
X106723062Y-80792470D02*
X106818300Y-80744851D01*
X106818300Y-80744851D02*
X107008776Y-80744851D01*
X107008776Y-80744851D02*
X107104014Y-80792470D01*
X107104014Y-80792470D02*
X107151633Y-80887708D01*
X107151633Y-80887708D02*
X107151633Y-80982946D01*
X107151633Y-80982946D02*
X106675443Y-81078184D01*
X107580205Y-81411518D02*
X107580205Y-80744851D01*
X107580205Y-80935327D02*
X107627824Y-80840089D01*
X107627824Y-80840089D02*
X107675443Y-80792470D01*
X107675443Y-80792470D02*
X107770681Y-80744851D01*
X107770681Y-80744851D02*
X107865919Y-80744851D01*
X108151634Y-81363899D02*
X108246872Y-81411518D01*
X108246872Y-81411518D02*
X108437348Y-81411518D01*
X108437348Y-81411518D02*
X108532586Y-81363899D01*
X108532586Y-81363899D02*
X108580205Y-81268660D01*
X108580205Y-81268660D02*
X108580205Y-81221041D01*
X108580205Y-81221041D02*
X108532586Y-81125803D01*
X108532586Y-81125803D02*
X108437348Y-81078184D01*
X108437348Y-81078184D02*
X108294491Y-81078184D01*
X108294491Y-81078184D02*
X108199253Y-81030565D01*
X108199253Y-81030565D02*
X108151634Y-80935327D01*
X108151634Y-80935327D02*
X108151634Y-80887708D01*
X108151634Y-80887708D02*
X108199253Y-80792470D01*
X108199253Y-80792470D02*
X108294491Y-80744851D01*
X108294491Y-80744851D02*
X108437348Y-80744851D01*
X108437348Y-80744851D02*
X108532586Y-80792470D01*
X109008777Y-81411518D02*
X109008777Y-80744851D01*
X109008777Y-80411518D02*
X108961158Y-80459137D01*
X108961158Y-80459137D02*
X109008777Y-80506756D01*
X109008777Y-80506756D02*
X109056396Y-80459137D01*
X109056396Y-80459137D02*
X109008777Y-80411518D01*
X109008777Y-80411518D02*
X109008777Y-80506756D01*
X109627824Y-81411518D02*
X109532586Y-81363899D01*
X109532586Y-81363899D02*
X109484967Y-81316279D01*
X109484967Y-81316279D02*
X109437348Y-81221041D01*
X109437348Y-81221041D02*
X109437348Y-80935327D01*
X109437348Y-80935327D02*
X109484967Y-80840089D01*
X109484967Y-80840089D02*
X109532586Y-80792470D01*
X109532586Y-80792470D02*
X109627824Y-80744851D01*
X109627824Y-80744851D02*
X109770681Y-80744851D01*
X109770681Y-80744851D02*
X109865919Y-80792470D01*
X109865919Y-80792470D02*
X109913538Y-80840089D01*
X109913538Y-80840089D02*
X109961157Y-80935327D01*
X109961157Y-80935327D02*
X109961157Y-81221041D01*
X109961157Y-81221041D02*
X109913538Y-81316279D01*
X109913538Y-81316279D02*
X109865919Y-81363899D01*
X109865919Y-81363899D02*
X109770681Y-81411518D01*
X109770681Y-81411518D02*
X109627824Y-81411518D01*
X110389729Y-80744851D02*
X110389729Y-81411518D01*
X110389729Y-80840089D02*
X110437348Y-80792470D01*
X110437348Y-80792470D02*
X110532586Y-80744851D01*
X110532586Y-80744851D02*
X110675443Y-80744851D01*
X110675443Y-80744851D02*
X110770681Y-80792470D01*
X110770681Y-80792470D02*
X110818300Y-80887708D01*
X110818300Y-80887708D02*
X110818300Y-81411518D01*
X111294491Y-81316279D02*
X111342110Y-81363899D01*
X111342110Y-81363899D02*
X111294491Y-81411518D01*
X111294491Y-81411518D02*
X111246872Y-81363899D01*
X111246872Y-81363899D02*
X111294491Y-81316279D01*
X111294491Y-81316279D02*
X111294491Y-81411518D01*
X111294491Y-80792470D02*
X111342110Y-80840089D01*
X111342110Y-80840089D02*
X111294491Y-80887708D01*
X111294491Y-80887708D02*
X111246872Y-80840089D01*
X111246872Y-80840089D02*
X111294491Y-80792470D01*
X111294491Y-80792470D02*
X111294491Y-80887708D01*
X112484967Y-80506756D02*
X112532586Y-80459137D01*
X112532586Y-80459137D02*
X112627824Y-80411518D01*
X112627824Y-80411518D02*
X112865919Y-80411518D01*
X112865919Y-80411518D02*
X112961157Y-80459137D01*
X112961157Y-80459137D02*
X113008776Y-80506756D01*
X113008776Y-80506756D02*
X113056395Y-80601994D01*
X113056395Y-80601994D02*
X113056395Y-80697232D01*
X113056395Y-80697232D02*
X113008776Y-80840089D01*
X113008776Y-80840089D02*
X112437348Y-81411518D01*
X112437348Y-81411518D02*
X113056395Y-81411518D01*
X113484967Y-81316279D02*
X113532586Y-81363899D01*
X113532586Y-81363899D02*
X113484967Y-81411518D01*
X113484967Y-81411518D02*
X113437348Y-81363899D01*
X113437348Y-81363899D02*
X113484967Y-81316279D01*
X113484967Y-81316279D02*
X113484967Y-81411518D01*
X114484966Y-81411518D02*
X113913538Y-81411518D01*
X114199252Y-81411518D02*
X114199252Y-80411518D01*
X114199252Y-80411518D02*
X114104014Y-80554375D01*
X114104014Y-80554375D02*
X114008776Y-80649613D01*
X114008776Y-80649613D02*
X113913538Y-80697232D01*
D10*
X100979202Y-87642246D02*
X101455392Y-87642246D01*
X100883964Y-87927961D02*
X101217297Y-86927961D01*
X101217297Y-86927961D02*
X101550630Y-87927961D01*
X101883964Y-87927961D02*
X101883964Y-86927961D01*
X101883964Y-87308913D02*
X101979202Y-87261294D01*
X101979202Y-87261294D02*
X102169678Y-87261294D01*
X102169678Y-87261294D02*
X102264916Y-87308913D01*
X102264916Y-87308913D02*
X102312535Y-87356532D01*
X102312535Y-87356532D02*
X102360154Y-87451770D01*
X102360154Y-87451770D02*
X102360154Y-87737484D01*
X102360154Y-87737484D02*
X102312535Y-87832722D01*
X102312535Y-87832722D02*
X102264916Y-87880342D01*
X102264916Y-87880342D02*
X102169678Y-87927961D01*
X102169678Y-87927961D02*
X101979202Y-87927961D01*
X101979202Y-87927961D02*
X101883964Y-87880342D01*
X102788726Y-87927961D02*
X102788726Y-87261294D01*
X102788726Y-86927961D02*
X102741107Y-86975580D01*
X102741107Y-86975580D02*
X102788726Y-87023199D01*
X102788726Y-87023199D02*
X102836345Y-86975580D01*
X102836345Y-86975580D02*
X102788726Y-86927961D01*
X102788726Y-86927961D02*
X102788726Y-87023199D01*
X103693487Y-87261294D02*
X103693487Y-88070818D01*
X103693487Y-88070818D02*
X103645868Y-88166056D01*
X103645868Y-88166056D02*
X103598249Y-88213675D01*
X103598249Y-88213675D02*
X103503011Y-88261294D01*
X103503011Y-88261294D02*
X103360154Y-88261294D01*
X103360154Y-88261294D02*
X103264916Y-88213675D01*
X103693487Y-87880342D02*
X103598249Y-87927961D01*
X103598249Y-87927961D02*
X103407773Y-87927961D01*
X103407773Y-87927961D02*
X103312535Y-87880342D01*
X103312535Y-87880342D02*
X103264916Y-87832722D01*
X103264916Y-87832722D02*
X103217297Y-87737484D01*
X103217297Y-87737484D02*
X103217297Y-87451770D01*
X103217297Y-87451770D02*
X103264916Y-87356532D01*
X103264916Y-87356532D02*
X103312535Y-87308913D01*
X103312535Y-87308913D02*
X103407773Y-87261294D01*
X103407773Y-87261294D02*
X103598249Y-87261294D01*
X103598249Y-87261294D02*
X103693487Y-87308913D01*
X104598249Y-87927961D02*
X104598249Y-87404151D01*
X104598249Y-87404151D02*
X104550630Y-87308913D01*
X104550630Y-87308913D02*
X104455392Y-87261294D01*
X104455392Y-87261294D02*
X104264916Y-87261294D01*
X104264916Y-87261294D02*
X104169678Y-87308913D01*
X104598249Y-87880342D02*
X104503011Y-87927961D01*
X104503011Y-87927961D02*
X104264916Y-87927961D01*
X104264916Y-87927961D02*
X104169678Y-87880342D01*
X104169678Y-87880342D02*
X104122059Y-87785103D01*
X104122059Y-87785103D02*
X104122059Y-87689865D01*
X104122059Y-87689865D02*
X104169678Y-87594627D01*
X104169678Y-87594627D02*
X104264916Y-87547008D01*
X104264916Y-87547008D02*
X104503011Y-87547008D01*
X104503011Y-87547008D02*
X104598249Y-87499389D01*
X105074440Y-87927961D02*
X105074440Y-87261294D01*
X105074440Y-86927961D02*
X105026821Y-86975580D01*
X105026821Y-86975580D02*
X105074440Y-87023199D01*
X105074440Y-87023199D02*
X105122059Y-86975580D01*
X105122059Y-86975580D02*
X105074440Y-86927961D01*
X105074440Y-86927961D02*
X105074440Y-87023199D01*
X105693487Y-87927961D02*
X105598249Y-87880342D01*
X105598249Y-87880342D02*
X105550630Y-87785103D01*
X105550630Y-87785103D02*
X105550630Y-86927961D01*
X106788726Y-87880342D02*
X106931583Y-87927961D01*
X106931583Y-87927961D02*
X107169678Y-87927961D01*
X107169678Y-87927961D02*
X107264916Y-87880342D01*
X107264916Y-87880342D02*
X107312535Y-87832722D01*
X107312535Y-87832722D02*
X107360154Y-87737484D01*
X107360154Y-87737484D02*
X107360154Y-87642246D01*
X107360154Y-87642246D02*
X107312535Y-87547008D01*
X107312535Y-87547008D02*
X107264916Y-87499389D01*
X107264916Y-87499389D02*
X107169678Y-87451770D01*
X107169678Y-87451770D02*
X106979202Y-87404151D01*
X106979202Y-87404151D02*
X106883964Y-87356532D01*
X106883964Y-87356532D02*
X106836345Y-87308913D01*
X106836345Y-87308913D02*
X106788726Y-87213675D01*
X106788726Y-87213675D02*
X106788726Y-87118437D01*
X106788726Y-87118437D02*
X106836345Y-87023199D01*
X106836345Y-87023199D02*
X106883964Y-86975580D01*
X106883964Y-86975580D02*
X106979202Y-86927961D01*
X106979202Y-86927961D02*
X107217297Y-86927961D01*
X107217297Y-86927961D02*
X107360154Y-86975580D01*
X107645869Y-87261294D02*
X108026821Y-87261294D01*
X107788726Y-86927961D02*
X107788726Y-87785103D01*
X107788726Y-87785103D02*
X107836345Y-87880342D01*
X107836345Y-87880342D02*
X107931583Y-87927961D01*
X107931583Y-87927961D02*
X108026821Y-87927961D01*
X108741107Y-87880342D02*
X108645869Y-87927961D01*
X108645869Y-87927961D02*
X108455393Y-87927961D01*
X108455393Y-87927961D02*
X108360155Y-87880342D01*
X108360155Y-87880342D02*
X108312536Y-87785103D01*
X108312536Y-87785103D02*
X108312536Y-87404151D01*
X108312536Y-87404151D02*
X108360155Y-87308913D01*
X108360155Y-87308913D02*
X108455393Y-87261294D01*
X108455393Y-87261294D02*
X108645869Y-87261294D01*
X108645869Y-87261294D02*
X108741107Y-87308913D01*
X108741107Y-87308913D02*
X108788726Y-87404151D01*
X108788726Y-87404151D02*
X108788726Y-87499389D01*
X108788726Y-87499389D02*
X108312536Y-87594627D01*
X109360155Y-87927961D02*
X109264917Y-87880342D01*
X109264917Y-87880342D02*
X109217298Y-87785103D01*
X109217298Y-87785103D02*
X109217298Y-86927961D01*
X109741108Y-87927961D02*
X109741108Y-87261294D01*
X109741108Y-87356532D02*
X109788727Y-87308913D01*
X109788727Y-87308913D02*
X109883965Y-87261294D01*
X109883965Y-87261294D02*
X110026822Y-87261294D01*
X110026822Y-87261294D02*
X110122060Y-87308913D01*
X110122060Y-87308913D02*
X110169679Y-87404151D01*
X110169679Y-87404151D02*
X110169679Y-87927961D01*
X110169679Y-87404151D02*
X110217298Y-87308913D01*
X110217298Y-87308913D02*
X110312536Y-87261294D01*
X110312536Y-87261294D02*
X110455393Y-87261294D01*
X110455393Y-87261294D02*
X110550632Y-87308913D01*
X110550632Y-87308913D02*
X110598251Y-87404151D01*
X110598251Y-87404151D02*
X110598251Y-87927961D01*
X111503012Y-87927961D02*
X111503012Y-87404151D01*
X111503012Y-87404151D02*
X111455393Y-87308913D01*
X111455393Y-87308913D02*
X111360155Y-87261294D01*
X111360155Y-87261294D02*
X111169679Y-87261294D01*
X111169679Y-87261294D02*
X111074441Y-87308913D01*
X111503012Y-87880342D02*
X111407774Y-87927961D01*
X111407774Y-87927961D02*
X111169679Y-87927961D01*
X111169679Y-87927961D02*
X111074441Y-87880342D01*
X111074441Y-87880342D02*
X111026822Y-87785103D01*
X111026822Y-87785103D02*
X111026822Y-87689865D01*
X111026822Y-87689865D02*
X111074441Y-87594627D01*
X111074441Y-87594627D02*
X111169679Y-87547008D01*
X111169679Y-87547008D02*
X111407774Y-87547008D01*
X111407774Y-87547008D02*
X111503012Y-87499389D01*
X111979203Y-87261294D02*
X111979203Y-87927961D01*
X111979203Y-87356532D02*
X112026822Y-87308913D01*
X112026822Y-87308913D02*
X112122060Y-87261294D01*
X112122060Y-87261294D02*
X112264917Y-87261294D01*
X112264917Y-87261294D02*
X112360155Y-87308913D01*
X112360155Y-87308913D02*
X112407774Y-87404151D01*
X112407774Y-87404151D02*
X112407774Y-87927961D01*
X101312535Y-88537905D02*
X101312535Y-89252190D01*
X101312535Y-89252190D02*
X101264916Y-89395047D01*
X101264916Y-89395047D02*
X101169678Y-89490286D01*
X101169678Y-89490286D02*
X101026821Y-89537905D01*
X101026821Y-89537905D02*
X100931583Y-89537905D01*
X102217297Y-89537905D02*
X102217297Y-89014095D01*
X102217297Y-89014095D02*
X102169678Y-88918857D01*
X102169678Y-88918857D02*
X102074440Y-88871238D01*
X102074440Y-88871238D02*
X101883964Y-88871238D01*
X101883964Y-88871238D02*
X101788726Y-88918857D01*
X102217297Y-89490286D02*
X102122059Y-89537905D01*
X102122059Y-89537905D02*
X101883964Y-89537905D01*
X101883964Y-89537905D02*
X101788726Y-89490286D01*
X101788726Y-89490286D02*
X101741107Y-89395047D01*
X101741107Y-89395047D02*
X101741107Y-89299809D01*
X101741107Y-89299809D02*
X101788726Y-89204571D01*
X101788726Y-89204571D02*
X101883964Y-89156952D01*
X101883964Y-89156952D02*
X102122059Y-89156952D01*
X102122059Y-89156952D02*
X102217297Y-89109333D01*
X103122059Y-89490286D02*
X103026821Y-89537905D01*
X103026821Y-89537905D02*
X102836345Y-89537905D01*
X102836345Y-89537905D02*
X102741107Y-89490286D01*
X102741107Y-89490286D02*
X102693488Y-89442666D01*
X102693488Y-89442666D02*
X102645869Y-89347428D01*
X102645869Y-89347428D02*
X102645869Y-89061714D01*
X102645869Y-89061714D02*
X102693488Y-88966476D01*
X102693488Y-88966476D02*
X102741107Y-88918857D01*
X102741107Y-88918857D02*
X102836345Y-88871238D01*
X102836345Y-88871238D02*
X103026821Y-88871238D01*
X103026821Y-88871238D02*
X103122059Y-88918857D01*
X103931583Y-89490286D02*
X103836345Y-89537905D01*
X103836345Y-89537905D02*
X103645869Y-89537905D01*
X103645869Y-89537905D02*
X103550631Y-89490286D01*
X103550631Y-89490286D02*
X103503012Y-89395047D01*
X103503012Y-89395047D02*
X103503012Y-89014095D01*
X103503012Y-89014095D02*
X103550631Y-88918857D01*
X103550631Y-88918857D02*
X103645869Y-88871238D01*
X103645869Y-88871238D02*
X103836345Y-88871238D01*
X103836345Y-88871238D02*
X103931583Y-88918857D01*
X103931583Y-88918857D02*
X103979202Y-89014095D01*
X103979202Y-89014095D02*
X103979202Y-89109333D01*
X103979202Y-89109333D02*
X103503012Y-89204571D01*
X104312536Y-88871238D02*
X104550631Y-89537905D01*
X104788726Y-88871238D02*
X104550631Y-89537905D01*
X104550631Y-89537905D02*
X104455393Y-89776000D01*
X104455393Y-89776000D02*
X104407774Y-89823619D01*
X104407774Y-89823619D02*
X104312536Y-89871238D01*
X105931584Y-89537905D02*
X105931584Y-88537905D01*
X105931584Y-88537905D02*
X106264917Y-89252190D01*
X106264917Y-89252190D02*
X106598250Y-88537905D01*
X106598250Y-88537905D02*
X106598250Y-89537905D01*
X107503012Y-88871238D02*
X107503012Y-89537905D01*
X107074441Y-88871238D02*
X107074441Y-89395047D01*
X107074441Y-89395047D02*
X107122060Y-89490286D01*
X107122060Y-89490286D02*
X107217298Y-89537905D01*
X107217298Y-89537905D02*
X107360155Y-89537905D01*
X107360155Y-89537905D02*
X107455393Y-89490286D01*
X107455393Y-89490286D02*
X107503012Y-89442666D01*
X107979203Y-89537905D02*
X107979203Y-88871238D01*
X107979203Y-89061714D02*
X108026822Y-88966476D01*
X108026822Y-88966476D02*
X108074441Y-88918857D01*
X108074441Y-88918857D02*
X108169679Y-88871238D01*
X108169679Y-88871238D02*
X108264917Y-88871238D01*
X108598251Y-88871238D02*
X108598251Y-89871238D01*
X108598251Y-88918857D02*
X108693489Y-88871238D01*
X108693489Y-88871238D02*
X108883965Y-88871238D01*
X108883965Y-88871238D02*
X108979203Y-88918857D01*
X108979203Y-88918857D02*
X109026822Y-88966476D01*
X109026822Y-88966476D02*
X109074441Y-89061714D01*
X109074441Y-89061714D02*
X109074441Y-89347428D01*
X109074441Y-89347428D02*
X109026822Y-89442666D01*
X109026822Y-89442666D02*
X108979203Y-89490286D01*
X108979203Y-89490286D02*
X108883965Y-89537905D01*
X108883965Y-89537905D02*
X108693489Y-89537905D01*
X108693489Y-89537905D02*
X108598251Y-89490286D01*
X109503013Y-89537905D02*
X109503013Y-88537905D01*
X109931584Y-89537905D02*
X109931584Y-89014095D01*
X109931584Y-89014095D02*
X109883965Y-88918857D01*
X109883965Y-88918857D02*
X109788727Y-88871238D01*
X109788727Y-88871238D02*
X109645870Y-88871238D01*
X109645870Y-88871238D02*
X109550632Y-88918857D01*
X109550632Y-88918857D02*
X109503013Y-88966476D01*
X110312537Y-88871238D02*
X110550632Y-89537905D01*
X110788727Y-88871238D02*
X110550632Y-89537905D01*
X110550632Y-89537905D02*
X110455394Y-89776000D01*
X110455394Y-89776000D02*
X110407775Y-89823619D01*
X110407775Y-89823619D02*
X110312537Y-89871238D01*
X101026821Y-91147849D02*
X101026821Y-90147849D01*
X101026821Y-90147849D02*
X101360154Y-90862134D01*
X101360154Y-90862134D02*
X101693487Y-90147849D01*
X101693487Y-90147849D02*
X101693487Y-91147849D01*
X102598249Y-91147849D02*
X102598249Y-90624039D01*
X102598249Y-90624039D02*
X102550630Y-90528801D01*
X102550630Y-90528801D02*
X102455392Y-90481182D01*
X102455392Y-90481182D02*
X102264916Y-90481182D01*
X102264916Y-90481182D02*
X102169678Y-90528801D01*
X102598249Y-91100230D02*
X102503011Y-91147849D01*
X102503011Y-91147849D02*
X102264916Y-91147849D01*
X102264916Y-91147849D02*
X102169678Y-91100230D01*
X102169678Y-91100230D02*
X102122059Y-91004991D01*
X102122059Y-91004991D02*
X102122059Y-90909753D01*
X102122059Y-90909753D02*
X102169678Y-90814515D01*
X102169678Y-90814515D02*
X102264916Y-90766896D01*
X102264916Y-90766896D02*
X102503011Y-90766896D01*
X102503011Y-90766896D02*
X102598249Y-90719277D01*
X103074440Y-91147849D02*
X103074440Y-90481182D01*
X103074440Y-90671658D02*
X103122059Y-90576420D01*
X103122059Y-90576420D02*
X103169678Y-90528801D01*
X103169678Y-90528801D02*
X103264916Y-90481182D01*
X103264916Y-90481182D02*
X103360154Y-90481182D01*
X103693488Y-91147849D02*
X103693488Y-90147849D01*
X103788726Y-90766896D02*
X104074440Y-91147849D01*
X104074440Y-90481182D02*
X103693488Y-90862134D01*
X104503012Y-91147849D02*
X104503012Y-90481182D01*
X104503012Y-90147849D02*
X104455393Y-90195468D01*
X104455393Y-90195468D02*
X104503012Y-90243087D01*
X104503012Y-90243087D02*
X104550631Y-90195468D01*
X104550631Y-90195468D02*
X104503012Y-90147849D01*
X104503012Y-90147849D02*
X104503012Y-90243087D01*
X105360154Y-91100230D02*
X105264916Y-91147849D01*
X105264916Y-91147849D02*
X105074440Y-91147849D01*
X105074440Y-91147849D02*
X104979202Y-91100230D01*
X104979202Y-91100230D02*
X104931583Y-91004991D01*
X104931583Y-91004991D02*
X104931583Y-90624039D01*
X104931583Y-90624039D02*
X104979202Y-90528801D01*
X104979202Y-90528801D02*
X105074440Y-90481182D01*
X105074440Y-90481182D02*
X105264916Y-90481182D01*
X105264916Y-90481182D02*
X105360154Y-90528801D01*
X105360154Y-90528801D02*
X105407773Y-90624039D01*
X105407773Y-90624039D02*
X105407773Y-90719277D01*
X105407773Y-90719277D02*
X104931583Y-90814515D01*
X106931583Y-90624039D02*
X107074440Y-90671658D01*
X107074440Y-90671658D02*
X107122059Y-90719277D01*
X107122059Y-90719277D02*
X107169678Y-90814515D01*
X107169678Y-90814515D02*
X107169678Y-90957372D01*
X107169678Y-90957372D02*
X107122059Y-91052610D01*
X107122059Y-91052610D02*
X107074440Y-91100230D01*
X107074440Y-91100230D02*
X106979202Y-91147849D01*
X106979202Y-91147849D02*
X106598250Y-91147849D01*
X106598250Y-91147849D02*
X106598250Y-90147849D01*
X106598250Y-90147849D02*
X106931583Y-90147849D01*
X106931583Y-90147849D02*
X107026821Y-90195468D01*
X107026821Y-90195468D02*
X107074440Y-90243087D01*
X107074440Y-90243087D02*
X107122059Y-90338325D01*
X107122059Y-90338325D02*
X107122059Y-90433563D01*
X107122059Y-90433563D02*
X107074440Y-90528801D01*
X107074440Y-90528801D02*
X107026821Y-90576420D01*
X107026821Y-90576420D02*
X106931583Y-90624039D01*
X106931583Y-90624039D02*
X106598250Y-90624039D01*
X107741107Y-91147849D02*
X107645869Y-91100230D01*
X107645869Y-91100230D02*
X107598250Y-91052610D01*
X107598250Y-91052610D02*
X107550631Y-90957372D01*
X107550631Y-90957372D02*
X107550631Y-90671658D01*
X107550631Y-90671658D02*
X107598250Y-90576420D01*
X107598250Y-90576420D02*
X107645869Y-90528801D01*
X107645869Y-90528801D02*
X107741107Y-90481182D01*
X107741107Y-90481182D02*
X107883964Y-90481182D01*
X107883964Y-90481182D02*
X107979202Y-90528801D01*
X107979202Y-90528801D02*
X108026821Y-90576420D01*
X108026821Y-90576420D02*
X108074440Y-90671658D01*
X108074440Y-90671658D02*
X108074440Y-90957372D01*
X108074440Y-90957372D02*
X108026821Y-91052610D01*
X108026821Y-91052610D02*
X107979202Y-91100230D01*
X107979202Y-91100230D02*
X107883964Y-91147849D01*
X107883964Y-91147849D02*
X107741107Y-91147849D01*
X108645869Y-91147849D02*
X108550631Y-91100230D01*
X108550631Y-91100230D02*
X108503012Y-91004991D01*
X108503012Y-91004991D02*
X108503012Y-90147849D01*
X109407774Y-91100230D02*
X109312536Y-91147849D01*
X109312536Y-91147849D02*
X109122060Y-91147849D01*
X109122060Y-91147849D02*
X109026822Y-91100230D01*
X109026822Y-91100230D02*
X108979203Y-91004991D01*
X108979203Y-91004991D02*
X108979203Y-90624039D01*
X108979203Y-90624039D02*
X109026822Y-90528801D01*
X109026822Y-90528801D02*
X109122060Y-90481182D01*
X109122060Y-90481182D02*
X109312536Y-90481182D01*
X109312536Y-90481182D02*
X109407774Y-90528801D01*
X109407774Y-90528801D02*
X109455393Y-90624039D01*
X109455393Y-90624039D02*
X109455393Y-90719277D01*
X109455393Y-90719277D02*
X108979203Y-90814515D01*
X109788727Y-90481182D02*
X110026822Y-91147849D01*
X110264917Y-90481182D02*
X110026822Y-91147849D01*
X110026822Y-91147849D02*
X109931584Y-91385944D01*
X109931584Y-91385944D02*
X109883965Y-91433563D01*
X109883965Y-91433563D02*
X109788727Y-91481182D01*
X101217297Y-92281602D02*
X101217297Y-92757793D01*
X100883964Y-91757793D02*
X101217297Y-92281602D01*
X101217297Y-92281602D02*
X101550630Y-91757793D01*
X101788726Y-92091126D02*
X102312535Y-92091126D01*
X102312535Y-92091126D02*
X101788726Y-92757793D01*
X101788726Y-92757793D02*
X102312535Y-92757793D01*
X103122059Y-92757793D02*
X103122059Y-92233983D01*
X103122059Y-92233983D02*
X103074440Y-92138745D01*
X103074440Y-92138745D02*
X102979202Y-92091126D01*
X102979202Y-92091126D02*
X102788726Y-92091126D01*
X102788726Y-92091126D02*
X102693488Y-92138745D01*
X103122059Y-92710174D02*
X103026821Y-92757793D01*
X103026821Y-92757793D02*
X102788726Y-92757793D01*
X102788726Y-92757793D02*
X102693488Y-92710174D01*
X102693488Y-92710174D02*
X102645869Y-92614935D01*
X102645869Y-92614935D02*
X102645869Y-92519697D01*
X102645869Y-92519697D02*
X102693488Y-92424459D01*
X102693488Y-92424459D02*
X102788726Y-92376840D01*
X102788726Y-92376840D02*
X103026821Y-92376840D01*
X103026821Y-92376840D02*
X103122059Y-92329221D01*
X103598250Y-92757793D02*
X103598250Y-91757793D01*
X103598250Y-92138745D02*
X103693488Y-92091126D01*
X103693488Y-92091126D02*
X103883964Y-92091126D01*
X103883964Y-92091126D02*
X103979202Y-92138745D01*
X103979202Y-92138745D02*
X104026821Y-92186364D01*
X104026821Y-92186364D02*
X104074440Y-92281602D01*
X104074440Y-92281602D02*
X104074440Y-92567316D01*
X104074440Y-92567316D02*
X104026821Y-92662554D01*
X104026821Y-92662554D02*
X103979202Y-92710174D01*
X103979202Y-92710174D02*
X103883964Y-92757793D01*
X103883964Y-92757793D02*
X103693488Y-92757793D01*
X103693488Y-92757793D02*
X103598250Y-92710174D01*
X104883964Y-92710174D02*
X104788726Y-92757793D01*
X104788726Y-92757793D02*
X104598250Y-92757793D01*
X104598250Y-92757793D02*
X104503012Y-92710174D01*
X104503012Y-92710174D02*
X104455393Y-92614935D01*
X104455393Y-92614935D02*
X104455393Y-92233983D01*
X104455393Y-92233983D02*
X104503012Y-92138745D01*
X104503012Y-92138745D02*
X104598250Y-92091126D01*
X104598250Y-92091126D02*
X104788726Y-92091126D01*
X104788726Y-92091126D02*
X104883964Y-92138745D01*
X104883964Y-92138745D02*
X104931583Y-92233983D01*
X104931583Y-92233983D02*
X104931583Y-92329221D01*
X104931583Y-92329221D02*
X104455393Y-92424459D01*
X105503012Y-92757793D02*
X105407774Y-92710174D01*
X105407774Y-92710174D02*
X105360155Y-92614935D01*
X105360155Y-92614935D02*
X105360155Y-91757793D01*
X106026822Y-92757793D02*
X105931584Y-92710174D01*
X105931584Y-92710174D02*
X105883965Y-92614935D01*
X105883965Y-92614935D02*
X105883965Y-91757793D01*
X106836346Y-92757793D02*
X106836346Y-92233983D01*
X106836346Y-92233983D02*
X106788727Y-92138745D01*
X106788727Y-92138745D02*
X106693489Y-92091126D01*
X106693489Y-92091126D02*
X106503013Y-92091126D01*
X106503013Y-92091126D02*
X106407775Y-92138745D01*
X106836346Y-92710174D02*
X106741108Y-92757793D01*
X106741108Y-92757793D02*
X106503013Y-92757793D01*
X106503013Y-92757793D02*
X106407775Y-92710174D01*
X106407775Y-92710174D02*
X106360156Y-92614935D01*
X106360156Y-92614935D02*
X106360156Y-92519697D01*
X106360156Y-92519697D02*
X106407775Y-92424459D01*
X106407775Y-92424459D02*
X106503013Y-92376840D01*
X106503013Y-92376840D02*
X106741108Y-92376840D01*
X106741108Y-92376840D02*
X106836346Y-92329221D01*
X108026823Y-92710174D02*
X108169680Y-92757793D01*
X108169680Y-92757793D02*
X108407775Y-92757793D01*
X108407775Y-92757793D02*
X108503013Y-92710174D01*
X108503013Y-92710174D02*
X108550632Y-92662554D01*
X108550632Y-92662554D02*
X108598251Y-92567316D01*
X108598251Y-92567316D02*
X108598251Y-92472078D01*
X108598251Y-92472078D02*
X108550632Y-92376840D01*
X108550632Y-92376840D02*
X108503013Y-92329221D01*
X108503013Y-92329221D02*
X108407775Y-92281602D01*
X108407775Y-92281602D02*
X108217299Y-92233983D01*
X108217299Y-92233983D02*
X108122061Y-92186364D01*
X108122061Y-92186364D02*
X108074442Y-92138745D01*
X108074442Y-92138745D02*
X108026823Y-92043507D01*
X108026823Y-92043507D02*
X108026823Y-91948269D01*
X108026823Y-91948269D02*
X108074442Y-91853031D01*
X108074442Y-91853031D02*
X108122061Y-91805412D01*
X108122061Y-91805412D02*
X108217299Y-91757793D01*
X108217299Y-91757793D02*
X108455394Y-91757793D01*
X108455394Y-91757793D02*
X108598251Y-91805412D01*
X109455394Y-92757793D02*
X109455394Y-92233983D01*
X109455394Y-92233983D02*
X109407775Y-92138745D01*
X109407775Y-92138745D02*
X109312537Y-92091126D01*
X109312537Y-92091126D02*
X109122061Y-92091126D01*
X109122061Y-92091126D02*
X109026823Y-92138745D01*
X109455394Y-92710174D02*
X109360156Y-92757793D01*
X109360156Y-92757793D02*
X109122061Y-92757793D01*
X109122061Y-92757793D02*
X109026823Y-92710174D01*
X109026823Y-92710174D02*
X108979204Y-92614935D01*
X108979204Y-92614935D02*
X108979204Y-92519697D01*
X108979204Y-92519697D02*
X109026823Y-92424459D01*
X109026823Y-92424459D02*
X109122061Y-92376840D01*
X109122061Y-92376840D02*
X109360156Y-92376840D01*
X109360156Y-92376840D02*
X109455394Y-92329221D01*
X109931585Y-92091126D02*
X109931585Y-92757793D01*
X109931585Y-92186364D02*
X109979204Y-92138745D01*
X109979204Y-92138745D02*
X110074442Y-92091126D01*
X110074442Y-92091126D02*
X110217299Y-92091126D01*
X110217299Y-92091126D02*
X110312537Y-92138745D01*
X110312537Y-92138745D02*
X110360156Y-92233983D01*
X110360156Y-92233983D02*
X110360156Y-92757793D01*
X110693490Y-92091126D02*
X111074442Y-92091126D01*
X110836347Y-91757793D02*
X110836347Y-92614935D01*
X110836347Y-92614935D02*
X110883966Y-92710174D01*
X110883966Y-92710174D02*
X110979204Y-92757793D01*
X110979204Y-92757793D02*
X111074442Y-92757793D01*
X111550633Y-92757793D02*
X111455395Y-92710174D01*
X111455395Y-92710174D02*
X111407776Y-92662554D01*
X111407776Y-92662554D02*
X111360157Y-92567316D01*
X111360157Y-92567316D02*
X111360157Y-92281602D01*
X111360157Y-92281602D02*
X111407776Y-92186364D01*
X111407776Y-92186364D02*
X111455395Y-92138745D01*
X111455395Y-92138745D02*
X111550633Y-92091126D01*
X111550633Y-92091126D02*
X111693490Y-92091126D01*
X111693490Y-92091126D02*
X111788728Y-92138745D01*
X111788728Y-92138745D02*
X111836347Y-92186364D01*
X111836347Y-92186364D02*
X111883966Y-92281602D01*
X111883966Y-92281602D02*
X111883966Y-92567316D01*
X111883966Y-92567316D02*
X111836347Y-92662554D01*
X111836347Y-92662554D02*
X111788728Y-92710174D01*
X111788728Y-92710174D02*
X111693490Y-92757793D01*
X111693490Y-92757793D02*
X111550633Y-92757793D01*
X112264919Y-92710174D02*
X112360157Y-92757793D01*
X112360157Y-92757793D02*
X112550633Y-92757793D01*
X112550633Y-92757793D02*
X112645871Y-92710174D01*
X112645871Y-92710174D02*
X112693490Y-92614935D01*
X112693490Y-92614935D02*
X112693490Y-92567316D01*
X112693490Y-92567316D02*
X112645871Y-92472078D01*
X112645871Y-92472078D02*
X112550633Y-92424459D01*
X112550633Y-92424459D02*
X112407776Y-92424459D01*
X112407776Y-92424459D02*
X112312538Y-92376840D01*
X112312538Y-92376840D02*
X112264919Y-92281602D01*
X112264919Y-92281602D02*
X112264919Y-92233983D01*
X112264919Y-92233983D02*
X112312538Y-92138745D01*
X112312538Y-92138745D02*
X112407776Y-92091126D01*
X112407776Y-92091126D02*
X112550633Y-92091126D01*
X112550633Y-92091126D02*
X112645871Y-92138745D01*
X113883967Y-92757793D02*
X113883967Y-91757793D01*
X113883967Y-91757793D02*
X114122062Y-91757793D01*
X114122062Y-91757793D02*
X114264919Y-91805412D01*
X114264919Y-91805412D02*
X114360157Y-91900650D01*
X114360157Y-91900650D02*
X114407776Y-91995888D01*
X114407776Y-91995888D02*
X114455395Y-92186364D01*
X114455395Y-92186364D02*
X114455395Y-92329221D01*
X114455395Y-92329221D02*
X114407776Y-92519697D01*
X114407776Y-92519697D02*
X114360157Y-92614935D01*
X114360157Y-92614935D02*
X114264919Y-92710174D01*
X114264919Y-92710174D02*
X114122062Y-92757793D01*
X114122062Y-92757793D02*
X113883967Y-92757793D01*
X114788729Y-92091126D02*
X115312538Y-92091126D01*
X115312538Y-92091126D02*
X114788729Y-92757793D01*
X114788729Y-92757793D02*
X115312538Y-92757793D01*
X116122062Y-92091126D02*
X116122062Y-92757793D01*
X115693491Y-92091126D02*
X115693491Y-92614935D01*
X115693491Y-92614935D02*
X115741110Y-92710174D01*
X115741110Y-92710174D02*
X115836348Y-92757793D01*
X115836348Y-92757793D02*
X115979205Y-92757793D01*
X115979205Y-92757793D02*
X116074443Y-92710174D01*
X116074443Y-92710174D02*
X116122062Y-92662554D01*
X116741110Y-92757793D02*
X116645872Y-92710174D01*
X116645872Y-92710174D02*
X116598253Y-92614935D01*
X116598253Y-92614935D02*
X116598253Y-91757793D01*
D13*
X138322054Y-59819600D02*
X138464911Y-59867219D01*
X138464911Y-59867219D02*
X138703006Y-59867219D01*
X138703006Y-59867219D02*
X138798244Y-59819600D01*
X138798244Y-59819600D02*
X138845863Y-59771980D01*
X138845863Y-59771980D02*
X138893482Y-59676742D01*
X138893482Y-59676742D02*
X138893482Y-59581504D01*
X138893482Y-59581504D02*
X138845863Y-59486266D01*
X138845863Y-59486266D02*
X138798244Y-59438647D01*
X138798244Y-59438647D02*
X138703006Y-59391028D01*
X138703006Y-59391028D02*
X138512530Y-59343409D01*
X138512530Y-59343409D02*
X138417292Y-59295790D01*
X138417292Y-59295790D02*
X138369673Y-59248171D01*
X138369673Y-59248171D02*
X138322054Y-59152933D01*
X138322054Y-59152933D02*
X138322054Y-59057695D01*
X138322054Y-59057695D02*
X138369673Y-58962457D01*
X138369673Y-58962457D02*
X138417292Y-58914838D01*
X138417292Y-58914838D02*
X138512530Y-58867219D01*
X138512530Y-58867219D02*
X138750625Y-58867219D01*
X138750625Y-58867219D02*
X138893482Y-58914838D01*
X139322054Y-59200552D02*
X139322054Y-60200552D01*
X139322054Y-59248171D02*
X139417292Y-59200552D01*
X139417292Y-59200552D02*
X139607768Y-59200552D01*
X139607768Y-59200552D02*
X139703006Y-59248171D01*
X139703006Y-59248171D02*
X139750625Y-59295790D01*
X139750625Y-59295790D02*
X139798244Y-59391028D01*
X139798244Y-59391028D02*
X139798244Y-59676742D01*
X139798244Y-59676742D02*
X139750625Y-59771980D01*
X139750625Y-59771980D02*
X139703006Y-59819600D01*
X139703006Y-59819600D02*
X139607768Y-59867219D01*
X139607768Y-59867219D02*
X139417292Y-59867219D01*
X139417292Y-59867219D02*
X139322054Y-59819600D01*
X140607768Y-59819600D02*
X140512530Y-59867219D01*
X140512530Y-59867219D02*
X140322054Y-59867219D01*
X140322054Y-59867219D02*
X140226816Y-59819600D01*
X140226816Y-59819600D02*
X140179197Y-59724361D01*
X140179197Y-59724361D02*
X140179197Y-59343409D01*
X140179197Y-59343409D02*
X140226816Y-59248171D01*
X140226816Y-59248171D02*
X140322054Y-59200552D01*
X140322054Y-59200552D02*
X140512530Y-59200552D01*
X140512530Y-59200552D02*
X140607768Y-59248171D01*
X140607768Y-59248171D02*
X140655387Y-59343409D01*
X140655387Y-59343409D02*
X140655387Y-59438647D01*
X140655387Y-59438647D02*
X140179197Y-59533885D01*
X141512530Y-59867219D02*
X141512530Y-59343409D01*
X141512530Y-59343409D02*
X141464911Y-59248171D01*
X141464911Y-59248171D02*
X141369673Y-59200552D01*
X141369673Y-59200552D02*
X141179197Y-59200552D01*
X141179197Y-59200552D02*
X141083959Y-59248171D01*
X141512530Y-59819600D02*
X141417292Y-59867219D01*
X141417292Y-59867219D02*
X141179197Y-59867219D01*
X141179197Y-59867219D02*
X141083959Y-59819600D01*
X141083959Y-59819600D02*
X141036340Y-59724361D01*
X141036340Y-59724361D02*
X141036340Y-59629123D01*
X141036340Y-59629123D02*
X141083959Y-59533885D01*
X141083959Y-59533885D02*
X141179197Y-59486266D01*
X141179197Y-59486266D02*
X141417292Y-59486266D01*
X141417292Y-59486266D02*
X141512530Y-59438647D01*
X141988721Y-59867219D02*
X141988721Y-58867219D01*
X142083959Y-59486266D02*
X142369673Y-59867219D01*
X142369673Y-59200552D02*
X141988721Y-59581504D01*
X143179197Y-59819600D02*
X143083959Y-59867219D01*
X143083959Y-59867219D02*
X142893483Y-59867219D01*
X142893483Y-59867219D02*
X142798245Y-59819600D01*
X142798245Y-59819600D02*
X142750626Y-59724361D01*
X142750626Y-59724361D02*
X142750626Y-59343409D01*
X142750626Y-59343409D02*
X142798245Y-59248171D01*
X142798245Y-59248171D02*
X142893483Y-59200552D01*
X142893483Y-59200552D02*
X143083959Y-59200552D01*
X143083959Y-59200552D02*
X143179197Y-59248171D01*
X143179197Y-59248171D02*
X143226816Y-59343409D01*
X143226816Y-59343409D02*
X143226816Y-59438647D01*
X143226816Y-59438647D02*
X142750626Y-59533885D01*
X143655388Y-59867219D02*
X143655388Y-59200552D01*
X143655388Y-59391028D02*
X143703007Y-59295790D01*
X143703007Y-59295790D02*
X143750626Y-59248171D01*
X143750626Y-59248171D02*
X143845864Y-59200552D01*
X143845864Y-59200552D02*
X143941102Y-59200552D01*
D12*
X116252679Y-52223749D02*
X115795536Y-52223749D01*
X116024108Y-52223749D02*
X116024108Y-51423749D01*
X116024108Y-51423749D02*
X115947917Y-51538034D01*
X115947917Y-51538034D02*
X115871727Y-51614225D01*
X115871727Y-51614225D02*
X115795536Y-51652320D01*
X116557441Y-51499939D02*
X116595537Y-51461844D01*
X116595537Y-51461844D02*
X116671727Y-51423749D01*
X116671727Y-51423749D02*
X116862203Y-51423749D01*
X116862203Y-51423749D02*
X116938394Y-51461844D01*
X116938394Y-51461844D02*
X116976489Y-51499939D01*
X116976489Y-51499939D02*
X117014584Y-51576130D01*
X117014584Y-51576130D02*
X117014584Y-51652320D01*
X117014584Y-51652320D02*
X116976489Y-51766606D01*
X116976489Y-51766606D02*
X116519346Y-52223749D01*
X116519346Y-52223749D02*
X117014584Y-52223749D01*
X134863615Y-51465819D02*
X134901710Y-51427724D01*
X134901710Y-51427724D02*
X134977901Y-51389628D01*
X134977901Y-51389628D02*
X135130282Y-51465819D01*
X135130282Y-51465819D02*
X135206472Y-51427724D01*
X135206472Y-51427724D02*
X135244567Y-51389628D01*
X135930282Y-50970581D02*
X135549330Y-50970581D01*
X135549330Y-50970581D02*
X135511234Y-51351533D01*
X135511234Y-51351533D02*
X135549330Y-51313438D01*
X135549330Y-51313438D02*
X135625520Y-51275343D01*
X135625520Y-51275343D02*
X135815996Y-51275343D01*
X135815996Y-51275343D02*
X135892187Y-51313438D01*
X135892187Y-51313438D02*
X135930282Y-51351533D01*
X135930282Y-51351533D02*
X135968377Y-51427724D01*
X135968377Y-51427724D02*
X135968377Y-51618200D01*
X135968377Y-51618200D02*
X135930282Y-51694390D01*
X135930282Y-51694390D02*
X135892187Y-51732486D01*
X135892187Y-51732486D02*
X135815996Y-51770581D01*
X135815996Y-51770581D02*
X135625520Y-51770581D01*
X135625520Y-51770581D02*
X135549330Y-51732486D01*
X135549330Y-51732486D02*
X135511234Y-51694390D01*
X140161528Y-51475399D02*
X140199623Y-51437304D01*
X140199623Y-51437304D02*
X140275814Y-51399208D01*
X140275814Y-51399208D02*
X140428195Y-51475399D01*
X140428195Y-51475399D02*
X140504385Y-51437304D01*
X140504385Y-51437304D02*
X140542480Y-51399208D01*
X140771052Y-50980161D02*
X141266290Y-50980161D01*
X141266290Y-50980161D02*
X140999624Y-51284923D01*
X140999624Y-51284923D02*
X141113909Y-51284923D01*
X141113909Y-51284923D02*
X141190100Y-51323018D01*
X141190100Y-51323018D02*
X141228195Y-51361113D01*
X141228195Y-51361113D02*
X141266290Y-51437304D01*
X141266290Y-51437304D02*
X141266290Y-51627780D01*
X141266290Y-51627780D02*
X141228195Y-51703970D01*
X141228195Y-51703970D02*
X141190100Y-51742066D01*
X141190100Y-51742066D02*
X141113909Y-51780161D01*
X141113909Y-51780161D02*
X140885338Y-51780161D01*
X140885338Y-51780161D02*
X140809147Y-51742066D01*
X140809147Y-51742066D02*
X140771052Y-51703970D01*
X149057382Y-69629828D02*
X148981192Y-69591733D01*
X148981192Y-69591733D02*
X148866906Y-69591733D01*
X148866906Y-69591733D02*
X148752620Y-69629828D01*
X148752620Y-69629828D02*
X148676430Y-69706018D01*
X148676430Y-69706018D02*
X148638335Y-69782209D01*
X148638335Y-69782209D02*
X148600239Y-69934590D01*
X148600239Y-69934590D02*
X148600239Y-70048876D01*
X148600239Y-70048876D02*
X148638335Y-70201257D01*
X148638335Y-70201257D02*
X148676430Y-70277447D01*
X148676430Y-70277447D02*
X148752620Y-70353638D01*
X148752620Y-70353638D02*
X148866906Y-70391733D01*
X148866906Y-70391733D02*
X148943097Y-70391733D01*
X148943097Y-70391733D02*
X149057382Y-70353638D01*
X149057382Y-70353638D02*
X149095478Y-70315542D01*
X149095478Y-70315542D02*
X149095478Y-70048876D01*
X149095478Y-70048876D02*
X148943097Y-70048876D01*
X149438335Y-70391733D02*
X149438335Y-69591733D01*
X149438335Y-69591733D02*
X149895478Y-70391733D01*
X149895478Y-70391733D02*
X149895478Y-69591733D01*
X150276430Y-70391733D02*
X150276430Y-69591733D01*
X150276430Y-69591733D02*
X150466906Y-69591733D01*
X150466906Y-69591733D02*
X150581192Y-69629828D01*
X150581192Y-69629828D02*
X150657382Y-69706018D01*
X150657382Y-69706018D02*
X150695477Y-69782209D01*
X150695477Y-69782209D02*
X150733573Y-69934590D01*
X150733573Y-69934590D02*
X150733573Y-70048876D01*
X150733573Y-70048876D02*
X150695477Y-70201257D01*
X150695477Y-70201257D02*
X150657382Y-70277447D01*
X150657382Y-70277447D02*
X150581192Y-70353638D01*
X150581192Y-70353638D02*
X150466906Y-70391733D01*
X150466906Y-70391733D02*
X150276430Y-70391733D01*
X148606817Y-72557169D02*
X148873483Y-72557169D01*
X148987769Y-72976217D02*
X148606817Y-72976217D01*
X148606817Y-72976217D02*
X148606817Y-72176217D01*
X148606817Y-72176217D02*
X148987769Y-72176217D01*
X149673484Y-72938122D02*
X149597293Y-72976217D01*
X149597293Y-72976217D02*
X149444912Y-72976217D01*
X149444912Y-72976217D02*
X149368722Y-72938122D01*
X149368722Y-72938122D02*
X149330627Y-72900026D01*
X149330627Y-72900026D02*
X149292531Y-72823836D01*
X149292531Y-72823836D02*
X149292531Y-72595264D01*
X149292531Y-72595264D02*
X149330627Y-72519074D01*
X149330627Y-72519074D02*
X149368722Y-72480979D01*
X149368722Y-72480979D02*
X149444912Y-72442883D01*
X149444912Y-72442883D02*
X149597293Y-72442883D01*
X149597293Y-72442883D02*
X149673484Y-72480979D01*
X150016341Y-72976217D02*
X150016341Y-72176217D01*
X150359198Y-72976217D02*
X150359198Y-72557169D01*
X150359198Y-72557169D02*
X150321103Y-72480979D01*
X150321103Y-72480979D02*
X150244912Y-72442883D01*
X150244912Y-72442883D02*
X150130626Y-72442883D01*
X150130626Y-72442883D02*
X150054436Y-72480979D01*
X150054436Y-72480979D02*
X150016341Y-72519074D01*
X150854436Y-72976217D02*
X150778246Y-72938122D01*
X150778246Y-72938122D02*
X150740151Y-72900026D01*
X150740151Y-72900026D02*
X150702055Y-72823836D01*
X150702055Y-72823836D02*
X150702055Y-72595264D01*
X150702055Y-72595264D02*
X150740151Y-72519074D01*
X150740151Y-72519074D02*
X150778246Y-72480979D01*
X150778246Y-72480979D02*
X150854436Y-72442883D01*
X150854436Y-72442883D02*
X150968722Y-72442883D01*
X150968722Y-72442883D02*
X151044913Y-72480979D01*
X151044913Y-72480979D02*
X151083008Y-72519074D01*
X151083008Y-72519074D02*
X151121103Y-72595264D01*
X151121103Y-72595264D02*
X151121103Y-72823836D01*
X151121103Y-72823836D02*
X151083008Y-72900026D01*
X151083008Y-72900026D02*
X151044913Y-72938122D01*
X151044913Y-72938122D02*
X150968722Y-72976217D01*
X150968722Y-72976217D02*
X150854436Y-72976217D01*
X148596311Y-77651315D02*
X149205835Y-77651315D01*
X148901073Y-77956077D02*
X148901073Y-77346553D01*
X149967739Y-77156077D02*
X149586787Y-77156077D01*
X149586787Y-77156077D02*
X149548691Y-77537029D01*
X149548691Y-77537029D02*
X149586787Y-77498934D01*
X149586787Y-77498934D02*
X149662977Y-77460839D01*
X149662977Y-77460839D02*
X149853453Y-77460839D01*
X149853453Y-77460839D02*
X149929644Y-77498934D01*
X149929644Y-77498934D02*
X149967739Y-77537029D01*
X149967739Y-77537029D02*
X150005834Y-77613220D01*
X150005834Y-77613220D02*
X150005834Y-77803696D01*
X150005834Y-77803696D02*
X149967739Y-77879886D01*
X149967739Y-77879886D02*
X149929644Y-77917982D01*
X149929644Y-77917982D02*
X149853453Y-77956077D01*
X149853453Y-77956077D02*
X149662977Y-77956077D01*
X149662977Y-77956077D02*
X149586787Y-77917982D01*
X149586787Y-77917982D02*
X149548691Y-77879886D01*
X150234406Y-77156077D02*
X150501073Y-77956077D01*
X150501073Y-77956077D02*
X150767739Y-77156077D01*
X148503037Y-74697665D02*
X148960180Y-74697665D01*
X148731608Y-75497665D02*
X148731608Y-74697665D01*
X149226847Y-75497665D02*
X149226847Y-74964331D01*
X149226847Y-75116712D02*
X149264942Y-75040522D01*
X149264942Y-75040522D02*
X149303037Y-75002427D01*
X149303037Y-75002427D02*
X149379228Y-74964331D01*
X149379228Y-74964331D02*
X149455418Y-74964331D01*
X149722085Y-75497665D02*
X149722085Y-74964331D01*
X149722085Y-74697665D02*
X149683989Y-74735760D01*
X149683989Y-74735760D02*
X149722085Y-74773855D01*
X149722085Y-74773855D02*
X149760180Y-74735760D01*
X149760180Y-74735760D02*
X149722085Y-74697665D01*
X149722085Y-74697665D02*
X149722085Y-74773855D01*
X150445894Y-74964331D02*
X150445894Y-75611950D01*
X150445894Y-75611950D02*
X150407799Y-75688141D01*
X150407799Y-75688141D02*
X150369703Y-75726236D01*
X150369703Y-75726236D02*
X150293513Y-75764331D01*
X150293513Y-75764331D02*
X150179227Y-75764331D01*
X150179227Y-75764331D02*
X150103037Y-75726236D01*
X150445894Y-75459570D02*
X150369703Y-75497665D01*
X150369703Y-75497665D02*
X150217322Y-75497665D01*
X150217322Y-75497665D02*
X150141132Y-75459570D01*
X150141132Y-75459570D02*
X150103037Y-75421474D01*
X150103037Y-75421474D02*
X150064941Y-75345284D01*
X150064941Y-75345284D02*
X150064941Y-75116712D01*
X150064941Y-75116712D02*
X150103037Y-75040522D01*
X150103037Y-75040522D02*
X150141132Y-75002427D01*
X150141132Y-75002427D02*
X150217322Y-74964331D01*
X150217322Y-74964331D02*
X150369703Y-74964331D01*
X150369703Y-74964331D02*
X150445894Y-75002427D01*
D14*
X132404819Y-98103333D02*
X133119104Y-98103333D01*
X133119104Y-98103333D02*
X133261961Y-98150952D01*
X133261961Y-98150952D02*
X133357200Y-98246190D01*
X133357200Y-98246190D02*
X133404819Y-98389047D01*
X133404819Y-98389047D02*
X133404819Y-98484285D01*
X132404819Y-97722380D02*
X132404819Y-97103333D01*
X132404819Y-97103333D02*
X132785771Y-97436666D01*
X132785771Y-97436666D02*
X132785771Y-97293809D01*
X132785771Y-97293809D02*
X132833390Y-97198571D01*
X132833390Y-97198571D02*
X132881009Y-97150952D01*
X132881009Y-97150952D02*
X132976247Y-97103333D01*
X132976247Y-97103333D02*
X133214342Y-97103333D01*
X133214342Y-97103333D02*
X133309580Y-97150952D01*
X133309580Y-97150952D02*
X133357200Y-97198571D01*
X133357200Y-97198571D02*
X133404819Y-97293809D01*
X133404819Y-97293809D02*
X133404819Y-97579523D01*
X133404819Y-97579523D02*
X133357200Y-97674761D01*
X133357200Y-97674761D02*
X133309580Y-97722380D01*
X116454819Y-61166666D02*
X115978628Y-61499999D01*
X116454819Y-61738094D02*
X115454819Y-61738094D01*
X115454819Y-61738094D02*
X115454819Y-61357142D01*
X115454819Y-61357142D02*
X115502438Y-61261904D01*
X115502438Y-61261904D02*
X115550057Y-61214285D01*
X115550057Y-61214285D02*
X115645295Y-61166666D01*
X115645295Y-61166666D02*
X115788152Y-61166666D01*
X115788152Y-61166666D02*
X115883390Y-61214285D01*
X115883390Y-61214285D02*
X115931009Y-61261904D01*
X115931009Y-61261904D02*
X115978628Y-61357142D01*
X115978628Y-61357142D02*
X115978628Y-61738094D01*
X115454819Y-60833332D02*
X115454819Y-60214285D01*
X115454819Y-60214285D02*
X115835771Y-60547618D01*
X115835771Y-60547618D02*
X115835771Y-60404761D01*
X115835771Y-60404761D02*
X115883390Y-60309523D01*
X115883390Y-60309523D02*
X115931009Y-60261904D01*
X115931009Y-60261904D02*
X116026247Y-60214285D01*
X116026247Y-60214285D02*
X116264342Y-60214285D01*
X116264342Y-60214285D02*
X116359580Y-60261904D01*
X116359580Y-60261904D02*
X116407200Y-60309523D01*
X116407200Y-60309523D02*
X116454819Y-60404761D01*
X116454819Y-60404761D02*
X116454819Y-60690475D01*
X116454819Y-60690475D02*
X116407200Y-60785713D01*
X116407200Y-60785713D02*
X116359580Y-60833332D01*
X124583333Y-70109580D02*
X124535714Y-70157200D01*
X124535714Y-70157200D02*
X124392857Y-70204819D01*
X124392857Y-70204819D02*
X124297619Y-70204819D01*
X124297619Y-70204819D02*
X124154762Y-70157200D01*
X124154762Y-70157200D02*
X124059524Y-70061961D01*
X124059524Y-70061961D02*
X124011905Y-69966723D01*
X124011905Y-69966723D02*
X123964286Y-69776247D01*
X123964286Y-69776247D02*
X123964286Y-69633390D01*
X123964286Y-69633390D02*
X124011905Y-69442914D01*
X124011905Y-69442914D02*
X124059524Y-69347676D01*
X124059524Y-69347676D02*
X124154762Y-69252438D01*
X124154762Y-69252438D02*
X124297619Y-69204819D01*
X124297619Y-69204819D02*
X124392857Y-69204819D01*
X124392857Y-69204819D02*
X124535714Y-69252438D01*
X124535714Y-69252438D02*
X124583333Y-69300057D01*
X125535714Y-70204819D02*
X124964286Y-70204819D01*
X125250000Y-70204819D02*
X125250000Y-69204819D01*
X125250000Y-69204819D02*
X125154762Y-69347676D01*
X125154762Y-69347676D02*
X125059524Y-69442914D01*
X125059524Y-69442914D02*
X124964286Y-69490533D01*
X140015372Y-53595467D02*
X140015372Y-52832039D01*
X140397086Y-53213753D02*
X139633657Y-53213753D01*
X139618451Y-66559078D02*
X140381550Y-66559078D01*
X104069997Y-75421374D02*
X104069997Y-74421374D01*
X104069997Y-74421374D02*
X104308092Y-74421374D01*
X104308092Y-74421374D02*
X104450949Y-74468993D01*
X104450949Y-74468993D02*
X104546187Y-74564231D01*
X104546187Y-74564231D02*
X104593806Y-74659469D01*
X104593806Y-74659469D02*
X104641425Y-74849945D01*
X104641425Y-74849945D02*
X104641425Y-74992802D01*
X104641425Y-74992802D02*
X104593806Y-75183278D01*
X104593806Y-75183278D02*
X104546187Y-75278516D01*
X104546187Y-75278516D02*
X104450949Y-75373755D01*
X104450949Y-75373755D02*
X104308092Y-75421374D01*
X104308092Y-75421374D02*
X104069997Y-75421374D01*
X105593806Y-75421374D02*
X105022378Y-75421374D01*
X105308092Y-75421374D02*
X105308092Y-74421374D01*
X105308092Y-74421374D02*
X105212854Y-74564231D01*
X105212854Y-74564231D02*
X105117616Y-74659469D01*
X105117616Y-74659469D02*
X105022378Y-74707088D01*
X110454819Y-61166666D02*
X109978628Y-61499999D01*
X110454819Y-61738094D02*
X109454819Y-61738094D01*
X109454819Y-61738094D02*
X109454819Y-61357142D01*
X109454819Y-61357142D02*
X109502438Y-61261904D01*
X109502438Y-61261904D02*
X109550057Y-61214285D01*
X109550057Y-61214285D02*
X109645295Y-61166666D01*
X109645295Y-61166666D02*
X109788152Y-61166666D01*
X109788152Y-61166666D02*
X109883390Y-61214285D01*
X109883390Y-61214285D02*
X109931009Y-61261904D01*
X109931009Y-61261904D02*
X109978628Y-61357142D01*
X109978628Y-61357142D02*
X109978628Y-61738094D01*
X109550057Y-60785713D02*
X109502438Y-60738094D01*
X109502438Y-60738094D02*
X109454819Y-60642856D01*
X109454819Y-60642856D02*
X109454819Y-60404761D01*
X109454819Y-60404761D02*
X109502438Y-60309523D01*
X109502438Y-60309523D02*
X109550057Y-60261904D01*
X109550057Y-60261904D02*
X109645295Y-60214285D01*
X109645295Y-60214285D02*
X109740533Y-60214285D01*
X109740533Y-60214285D02*
X109883390Y-60261904D01*
X109883390Y-60261904D02*
X110454819Y-60833332D01*
X110454819Y-60833332D02*
X110454819Y-60214285D01*
X104454819Y-61166666D02*
X103978628Y-61499999D01*
X104454819Y-61738094D02*
X103454819Y-61738094D01*
X103454819Y-61738094D02*
X103454819Y-61357142D01*
X103454819Y-61357142D02*
X103502438Y-61261904D01*
X103502438Y-61261904D02*
X103550057Y-61214285D01*
X103550057Y-61214285D02*
X103645295Y-61166666D01*
X103645295Y-61166666D02*
X103788152Y-61166666D01*
X103788152Y-61166666D02*
X103883390Y-61214285D01*
X103883390Y-61214285D02*
X103931009Y-61261904D01*
X103931009Y-61261904D02*
X103978628Y-61357142D01*
X103978628Y-61357142D02*
X103978628Y-61738094D01*
X104454819Y-60214285D02*
X104454819Y-60785713D01*
X104454819Y-60499999D02*
X103454819Y-60499999D01*
X103454819Y-60499999D02*
X103597676Y-60595237D01*
X103597676Y-60595237D02*
X103692914Y-60690475D01*
X103692914Y-60690475D02*
X103740533Y-60785713D01*
X131324819Y-60809523D02*
X130324819Y-60809523D01*
X130324819Y-60809523D02*
X131039104Y-60476190D01*
X131039104Y-60476190D02*
X130324819Y-60142857D01*
X130324819Y-60142857D02*
X131324819Y-60142857D01*
X131324819Y-59142857D02*
X131324819Y-59714285D01*
X131324819Y-59428571D02*
X130324819Y-59428571D01*
X130324819Y-59428571D02*
X130467676Y-59523809D01*
X130467676Y-59523809D02*
X130562914Y-59619047D01*
X130562914Y-59619047D02*
X130610533Y-59714285D01*
X149771249Y-94247350D02*
X150581194Y-94247350D01*
X150581194Y-94247350D02*
X150676482Y-94199707D01*
X150676482Y-94199707D02*
X150724126Y-94152063D01*
X150724126Y-94152063D02*
X150771769Y-94056775D01*
X150771769Y-94056775D02*
X150771769Y-93866200D01*
X150771769Y-93866200D02*
X150724126Y-93770912D01*
X150724126Y-93770912D02*
X150676482Y-93723269D01*
X150676482Y-93723269D02*
X150581194Y-93675625D01*
X150581194Y-93675625D02*
X149771249Y-93675625D01*
X150771769Y-92675105D02*
X150771769Y-93246830D01*
X150771769Y-92960967D02*
X149771249Y-92960967D01*
X149771249Y-92960967D02*
X149914181Y-93056255D01*
X149914181Y-93056255D02*
X150009468Y-93151543D01*
X150009468Y-93151543D02*
X150057112Y-93246830D01*
D15*
%TO.C,J1*%
X131970000Y-99100000D02*
X131970000Y-96440000D01*
X114130000Y-99100000D02*
X131970000Y-99100000D01*
X114130000Y-99100000D02*
X114130000Y-96440000D01*
X114130000Y-96440000D02*
X131970000Y-96440000D01*
X111530000Y-97770000D02*
X111530000Y-96440000D01*
X111530000Y-96440000D02*
X112860000Y-96440000D01*
%TO.C,J3*%
X149750000Y-99100000D02*
X149750000Y-96440000D01*
X136990000Y-99100000D02*
X149750000Y-99100000D01*
X136990000Y-99100000D02*
X136990000Y-96440000D01*
X136990000Y-96440000D02*
X149750000Y-96440000D01*
X134390000Y-97770000D02*
X134390000Y-96440000D01*
X134390000Y-96440000D02*
X135720000Y-96440000D01*
D16*
%TO.C,G\u002A\u002A\u002A*%
G36*
X118647353Y-84081249D02*
G01*
X118647353Y-85930369D01*
X109645593Y-85930369D01*
X100643833Y-85930369D01*
X100643833Y-85158209D01*
X102310073Y-85158209D01*
X102533593Y-85158209D01*
X102757113Y-85158209D01*
X102757113Y-84711169D01*
X102757113Y-84264129D01*
X103224473Y-84264129D01*
X103691833Y-84264129D01*
X103691833Y-84711169D01*
X103691833Y-85158209D01*
X103915353Y-85158209D01*
X104138873Y-85158209D01*
X105073593Y-85158209D01*
X105299141Y-85158209D01*
X105524689Y-85158209D01*
X106455353Y-85158209D01*
X106678873Y-85158209D01*
X106902393Y-85158209D01*
X107792416Y-85158209D01*
X108017964Y-85158209D01*
X108243513Y-85158209D01*
X108243513Y-84912245D01*
X108243513Y-84670529D01*
X109625273Y-84670529D01*
X109869113Y-84670529D01*
X110112953Y-84670529D01*
X110112953Y-84914369D01*
X110112953Y-85158209D01*
X110338501Y-85158209D01*
X110564049Y-85158209D01*
X112388793Y-85158209D01*
X112614341Y-85158209D01*
X112839889Y-85158209D01*
X112827701Y-84924529D01*
X112815513Y-84690849D01*
X112602153Y-84678565D01*
X112388793Y-84666281D01*
X112388793Y-84912245D01*
X112388793Y-85158209D01*
X110564049Y-85158209D01*
X110551861Y-84924529D01*
X110551220Y-84912245D01*
X110539673Y-84690849D01*
X110326313Y-84678565D01*
X110186736Y-84670529D01*
X110559993Y-84670529D01*
X110783513Y-84670529D01*
X111007033Y-84670529D01*
X111007033Y-84243809D01*
X113770553Y-84243809D01*
X113770553Y-85158209D01*
X113994073Y-85158209D01*
X114217593Y-85158209D01*
X114217593Y-84711169D01*
X114217593Y-84264129D01*
X114664633Y-84264129D01*
X115111673Y-84264129D01*
X115111673Y-84711169D01*
X115111673Y-85158209D01*
X115355513Y-85158209D01*
X115599353Y-85158209D01*
X116489376Y-85158209D01*
X116714924Y-85158209D01*
X116940473Y-85158209D01*
X116940473Y-84912245D01*
X116940473Y-84666281D01*
X116727113Y-84678565D01*
X116513753Y-84690849D01*
X116501564Y-84924529D01*
X116489376Y-85158209D01*
X115599353Y-85158209D01*
X115599353Y-84243809D01*
X115599353Y-83329409D01*
X115355513Y-83329409D01*
X115111673Y-83329409D01*
X115111673Y-83105889D01*
X115111673Y-82882369D01*
X114664633Y-82882369D01*
X114217593Y-82882369D01*
X114217593Y-83105889D01*
X114217593Y-83329409D01*
X113994073Y-83329409D01*
X113770553Y-83329409D01*
X113770553Y-84243809D01*
X111007033Y-84243809D01*
X111007033Y-83817089D01*
X110783513Y-83817089D01*
X110559993Y-83817089D01*
X110559993Y-84243809D01*
X110559993Y-84670529D01*
X110186736Y-84670529D01*
X110112953Y-84666281D01*
X110112953Y-84243809D01*
X110112953Y-84241685D01*
X110112953Y-83817089D01*
X109869113Y-83817089D01*
X109625273Y-83817089D01*
X109625273Y-84243809D01*
X109625273Y-84670529D01*
X108243513Y-84670529D01*
X108243513Y-84666281D01*
X108030153Y-84678565D01*
X107816793Y-84690849D01*
X107804604Y-84924529D01*
X107792416Y-85158209D01*
X106902393Y-85158209D01*
X106902393Y-84243809D01*
X106902393Y-84020289D01*
X106902393Y-83776449D01*
X109178233Y-83776449D01*
X109401753Y-83776449D01*
X109625273Y-83776449D01*
X111007033Y-83776449D01*
X111230553Y-83776449D01*
X111454073Y-83776449D01*
X111454073Y-83329409D01*
X111454073Y-82882369D01*
X111230553Y-82882369D01*
X111007033Y-82882369D01*
X111007033Y-83329409D01*
X111007033Y-83776449D01*
X109625273Y-83776449D01*
X109625273Y-83329409D01*
X109625273Y-82882369D01*
X109401753Y-82882369D01*
X109178233Y-82882369D01*
X109178233Y-83329409D01*
X109178233Y-83776449D01*
X106902393Y-83776449D01*
X106902393Y-83329409D01*
X106902393Y-82882369D01*
X106678873Y-82882369D01*
X106455353Y-82882369D01*
X106455353Y-84020289D01*
X106455353Y-85158209D01*
X105524689Y-85158209D01*
X105512501Y-84924529D01*
X105500313Y-84690849D01*
X105286953Y-84678565D01*
X105073593Y-84666281D01*
X105073593Y-84912245D01*
X105073593Y-85158209D01*
X104138873Y-85158209D01*
X104138873Y-84912245D01*
X104138873Y-84020289D01*
X104138873Y-82882369D01*
X103915353Y-82882369D01*
X103691833Y-82882369D01*
X103691833Y-83329409D01*
X103691833Y-83776449D01*
X103224473Y-83776449D01*
X102757113Y-83776449D01*
X102757113Y-83329409D01*
X102757113Y-82882369D01*
X102533593Y-82882369D01*
X102310073Y-82882369D01*
X102310073Y-84020289D01*
X102310073Y-85158209D01*
X100643833Y-85158209D01*
X100643833Y-84081249D01*
X100643833Y-84020289D01*
X100643833Y-82232129D01*
X109645593Y-82232129D01*
X118647353Y-82232129D01*
X118647353Y-84081249D01*
G37*
G36*
X115111673Y-83573249D02*
G01*
X115111673Y-83776449D01*
X114664633Y-83776449D01*
X114217593Y-83776449D01*
X114217593Y-83573249D01*
X114217593Y-83370049D01*
X114664633Y-83370049D01*
X115111673Y-83370049D01*
X115111673Y-83573249D01*
G37*
D15*
%TO.C,R3*%
X117720000Y-65620000D02*
X117720000Y-56380000D01*
X117720000Y-56380000D02*
X114280000Y-56380000D01*
X116000000Y-66310000D02*
X116000000Y-65620000D01*
X116000000Y-55690000D02*
X116000000Y-56380000D01*
X114280000Y-65620000D02*
X117720000Y-65620000D01*
X114280000Y-56380000D02*
X114280000Y-65620000D01*
%TO.C,C1*%
X127370000Y-66000000D02*
G75*
G02*
X122130000Y-66000000I-2620000J0D01*
G01*
X122130000Y-66000000D02*
G75*
G02*
X127370000Y-66000000I2620000J0D01*
G01*
X127554775Y-67475000D02*
X127054775Y-67475000D01*
X127304775Y-67725000D02*
X127304775Y-67225000D01*
X124750000Y-68580000D02*
X124750000Y-63420000D01*
X124710000Y-68580000D02*
X124710000Y-63420000D01*
X124670000Y-68579000D02*
X124670000Y-63421000D01*
X124630000Y-68578000D02*
X124630000Y-63422000D01*
X124590000Y-68576000D02*
X124590000Y-63424000D01*
X124550000Y-68573000D02*
X124550000Y-63427000D01*
X124510000Y-68569000D02*
X124510000Y-67040000D01*
X124510000Y-64960000D02*
X124510000Y-63431000D01*
X124470000Y-68565000D02*
X124470000Y-67040000D01*
X124470000Y-64960000D02*
X124470000Y-63435000D01*
X124430000Y-68561000D02*
X124430000Y-67040000D01*
X124430000Y-64960000D02*
X124430000Y-63439000D01*
X124390000Y-68556000D02*
X124390000Y-67040000D01*
X124390000Y-64960000D02*
X124390000Y-63444000D01*
X124350000Y-68550000D02*
X124350000Y-67040000D01*
X124350000Y-64960000D02*
X124350000Y-63450000D01*
X124310000Y-68543000D02*
X124310000Y-67040000D01*
X124310000Y-64960000D02*
X124310000Y-63457000D01*
X124270000Y-68536000D02*
X124270000Y-67040000D01*
X124270000Y-64960000D02*
X124270000Y-63464000D01*
X124230000Y-68528000D02*
X124230000Y-67040000D01*
X124230000Y-64960000D02*
X124230000Y-63472000D01*
X124190000Y-68520000D02*
X124190000Y-67040000D01*
X124190000Y-64960000D02*
X124190000Y-63480000D01*
X124150000Y-68511000D02*
X124150000Y-67040000D01*
X124150000Y-64960000D02*
X124150000Y-63489000D01*
X124110000Y-68501000D02*
X124110000Y-67040000D01*
X124110000Y-64960000D02*
X124110000Y-63499000D01*
X124070000Y-68491000D02*
X124070000Y-67040000D01*
X124070000Y-64960000D02*
X124070000Y-63509000D01*
X124029000Y-68480000D02*
X124029000Y-67040000D01*
X124029000Y-64960000D02*
X124029000Y-63520000D01*
X123989000Y-68468000D02*
X123989000Y-67040000D01*
X123989000Y-64960000D02*
X123989000Y-63532000D01*
X123949000Y-68455000D02*
X123949000Y-67040000D01*
X123949000Y-64960000D02*
X123949000Y-63545000D01*
X123909000Y-68442000D02*
X123909000Y-67040000D01*
X123909000Y-64960000D02*
X123909000Y-63558000D01*
X123869000Y-68428000D02*
X123869000Y-67040000D01*
X123869000Y-64960000D02*
X123869000Y-63572000D01*
X123829000Y-68414000D02*
X123829000Y-67040000D01*
X123829000Y-64960000D02*
X123829000Y-63586000D01*
X123789000Y-68398000D02*
X123789000Y-67040000D01*
X123789000Y-64960000D02*
X123789000Y-63602000D01*
X123749000Y-68382000D02*
X123749000Y-67040000D01*
X123749000Y-64960000D02*
X123749000Y-63618000D01*
X123709000Y-68365000D02*
X123709000Y-67040000D01*
X123709000Y-64960000D02*
X123709000Y-63635000D01*
X123669000Y-68348000D02*
X123669000Y-67040000D01*
X123669000Y-64960000D02*
X123669000Y-63652000D01*
X123629000Y-68329000D02*
X123629000Y-67040000D01*
X123629000Y-64960000D02*
X123629000Y-63671000D01*
X123589000Y-68310000D02*
X123589000Y-67040000D01*
X123589000Y-64960000D02*
X123589000Y-63690000D01*
X123549000Y-68290000D02*
X123549000Y-67040000D01*
X123549000Y-64960000D02*
X123549000Y-63710000D01*
X123509000Y-68268000D02*
X123509000Y-67040000D01*
X123509000Y-64960000D02*
X123509000Y-63732000D01*
X123469000Y-68247000D02*
X123469000Y-67040000D01*
X123469000Y-64960000D02*
X123469000Y-63753000D01*
X123429000Y-68224000D02*
X123429000Y-67040000D01*
X123429000Y-64960000D02*
X123429000Y-63776000D01*
X123389000Y-68200000D02*
X123389000Y-67040000D01*
X123389000Y-64960000D02*
X123389000Y-63800000D01*
X123349000Y-68175000D02*
X123349000Y-67040000D01*
X123349000Y-64960000D02*
X123349000Y-63825000D01*
X123309000Y-68149000D02*
X123309000Y-67040000D01*
X123309000Y-64960000D02*
X123309000Y-63851000D01*
X123269000Y-68122000D02*
X123269000Y-67040000D01*
X123269000Y-64960000D02*
X123269000Y-63878000D01*
X123229000Y-68095000D02*
X123229000Y-67040000D01*
X123229000Y-64960000D02*
X123229000Y-63905000D01*
X123189000Y-68065000D02*
X123189000Y-67040000D01*
X123189000Y-64960000D02*
X123189000Y-63935000D01*
X123149000Y-68035000D02*
X123149000Y-67040000D01*
X123149000Y-64960000D02*
X123149000Y-63965000D01*
X123109000Y-68004000D02*
X123109000Y-67040000D01*
X123109000Y-64960000D02*
X123109000Y-63996000D01*
X123069000Y-67971000D02*
X123069000Y-67040000D01*
X123069000Y-64960000D02*
X123069000Y-64029000D01*
X123029000Y-67937000D02*
X123029000Y-67040000D01*
X123029000Y-64960000D02*
X123029000Y-64063000D01*
X122989000Y-67901000D02*
X122989000Y-67040000D01*
X122989000Y-64960000D02*
X122989000Y-64099000D01*
X122949000Y-67864000D02*
X122949000Y-67040000D01*
X122949000Y-64960000D02*
X122949000Y-64136000D01*
X122909000Y-67826000D02*
X122909000Y-67040000D01*
X122909000Y-64960000D02*
X122909000Y-64174000D01*
X122869000Y-67785000D02*
X122869000Y-67040000D01*
X122869000Y-64960000D02*
X122869000Y-64215000D01*
X122829000Y-67743000D02*
X122829000Y-67040000D01*
X122829000Y-64960000D02*
X122829000Y-64257000D01*
X122789000Y-67699000D02*
X122789000Y-67040000D01*
X122789000Y-64960000D02*
X122789000Y-64301000D01*
X122749000Y-67653000D02*
X122749000Y-67040000D01*
X122749000Y-64960000D02*
X122749000Y-64347000D01*
X122709000Y-67605000D02*
X122709000Y-67040000D01*
X122709000Y-64960000D02*
X122709000Y-64395000D01*
X122669000Y-67554000D02*
X122669000Y-67040000D01*
X122669000Y-64960000D02*
X122669000Y-64446000D01*
X122629000Y-67500000D02*
X122629000Y-67040000D01*
X122629000Y-64960000D02*
X122629000Y-64500000D01*
X122589000Y-67443000D02*
X122589000Y-67040000D01*
X122589000Y-64960000D02*
X122589000Y-64557000D01*
X122549000Y-67383000D02*
X122549000Y-67040000D01*
X122549000Y-64960000D02*
X122549000Y-64617000D01*
X122509000Y-67319000D02*
X122509000Y-67040000D01*
X122509000Y-64960000D02*
X122509000Y-64681000D01*
X122469000Y-67251000D02*
X122469000Y-67040000D01*
X122469000Y-64960000D02*
X122469000Y-64749000D01*
X122429000Y-67178000D02*
X122429000Y-64822000D01*
X122389000Y-67098000D02*
X122389000Y-64902000D01*
X122349000Y-67011000D02*
X122349000Y-64989000D01*
X122309000Y-66915000D02*
X122309000Y-65085000D01*
X122269000Y-66805000D02*
X122269000Y-65195000D01*
X122229000Y-66677000D02*
X122229000Y-65323000D01*
X122189000Y-66518000D02*
X122189000Y-65482000D01*
X122149000Y-66284000D02*
X122149000Y-65716000D01*
D17*
%TO.C,LS1*%
X147000000Y-60000000D02*
G75*
G02*
X135000000Y-60000000I-6000000J0D01*
G01*
X135000000Y-60000000D02*
G75*
G02*
X147000000Y-60000000I6000000J0D01*
G01*
D15*
%TO.C,D1*%
X112153107Y-76080075D02*
G75*
G02*
X106805000Y-76544830I-2788107J1080075D01*
G01*
X111619656Y-76080059D02*
G75*
G02*
X107110316Y-76080000I-2254656J1080059D01*
G01*
X107110316Y-73920000D02*
G75*
G02*
X111619656Y-73919941I2254684J-1080000D01*
G01*
X106805000Y-73455170D02*
G75*
G02*
X112153107Y-73919925I2560000J-1544830D01*
G01*
X106805000Y-76080000D02*
X106805000Y-76545000D01*
X106805000Y-73455000D02*
X106805000Y-73920000D01*
%TO.C,J2*%
X127906000Y-50840000D02*
X127906000Y-48180000D01*
X104986000Y-50840000D02*
X127906000Y-50840000D01*
X104986000Y-50840000D02*
X104986000Y-48180000D01*
X104986000Y-48180000D02*
X127906000Y-48180000D01*
X102386000Y-49510000D02*
X102386000Y-48180000D01*
X102386000Y-48180000D02*
X103716000Y-48180000D01*
%TO.C,J4*%
X149750000Y-50840000D02*
X149750000Y-48180000D01*
X131910000Y-50840000D02*
X149750000Y-50840000D01*
X131910000Y-50840000D02*
X131910000Y-48180000D01*
X131910000Y-48180000D02*
X149750000Y-48180000D01*
X129310000Y-49510000D02*
X129310000Y-48180000D01*
X129310000Y-48180000D02*
X130640000Y-48180000D01*
%TO.C,R2*%
X111720000Y-65620000D02*
X111720000Y-56380000D01*
X111720000Y-56380000D02*
X108280000Y-56380000D01*
X110000000Y-66310000D02*
X110000000Y-65620000D01*
X110000000Y-55690000D02*
X110000000Y-56380000D01*
X108280000Y-65620000D02*
X111720000Y-65620000D01*
X108280000Y-56380000D02*
X108280000Y-65620000D01*
%TO.C,R1*%
X105720000Y-65620000D02*
X105720000Y-56380000D01*
X105720000Y-56380000D02*
X102280000Y-56380000D01*
X104000000Y-66310000D02*
X104000000Y-65620000D01*
X104000000Y-55690000D02*
X104000000Y-56380000D01*
X102280000Y-65620000D02*
X105720000Y-65620000D01*
X102280000Y-56380000D02*
X102280000Y-65620000D01*
%TO.C,M1*%
X129870000Y-58670000D02*
X129870000Y-60000000D01*
X128540000Y-58670000D02*
X129870000Y-58670000D01*
X127270000Y-61330000D02*
X122130000Y-61330000D01*
X127270000Y-58670000D02*
X127270000Y-61330000D01*
X127270000Y-58670000D02*
X122130000Y-58670000D01*
X122130000Y-58670000D02*
X122130000Y-61330000D01*
D16*
%TO.C,G\u002A\u002A\u002A*%
G36*
X143378986Y-77659189D02*
G01*
X143379789Y-77720861D01*
X143377757Y-77810731D01*
X143375022Y-77877188D01*
X143372099Y-77948680D01*
X143368006Y-78063883D01*
X143362918Y-78217114D01*
X143357013Y-78402685D01*
X143350469Y-78614912D01*
X143343461Y-78848109D01*
X143336167Y-79096589D01*
X143328765Y-79354669D01*
X143326356Y-79439980D01*
X143318369Y-79721159D01*
X143309966Y-80011850D01*
X143301399Y-80303605D01*
X143292923Y-80587972D01*
X143284792Y-80856503D01*
X143277258Y-81100747D01*
X143270577Y-81312254D01*
X143265141Y-81478404D01*
X143258943Y-81665729D01*
X143253328Y-81840386D01*
X143248513Y-81995288D01*
X143244711Y-82123346D01*
X143242138Y-82217472D01*
X143241010Y-82270578D01*
X143240976Y-82275243D01*
X143240855Y-82355544D01*
X143438521Y-82355544D01*
X143636186Y-82355544D01*
X143636186Y-83590953D01*
X143636186Y-84826362D01*
X143833851Y-84826362D01*
X144031517Y-84826362D01*
X144031517Y-83590953D01*
X144031517Y-82355544D01*
X145007489Y-82355544D01*
X145983462Y-82355544D01*
X145983462Y-85888813D01*
X145983462Y-89422081D01*
X145007489Y-89422081D01*
X144031517Y-89422081D01*
X144031517Y-87976653D01*
X144031517Y-86531225D01*
X143833851Y-86531225D01*
X143636186Y-86531225D01*
X143636186Y-87975893D01*
X143636186Y-89420560D01*
X143333511Y-89427498D01*
X143030836Y-89434435D01*
X142990363Y-90793385D01*
X142981999Y-91075145D01*
X142973476Y-91363898D01*
X142965026Y-91651743D01*
X142956878Y-91930775D01*
X142949262Y-92193093D01*
X142942409Y-92430793D01*
X142936548Y-92635972D01*
X142931909Y-92800727D01*
X142931388Y-92819455D01*
X142925681Y-93015120D01*
X142919444Y-93211620D01*
X142913049Y-93398361D01*
X142906870Y-93564749D01*
X142901280Y-93700187D01*
X142897736Y-93774389D01*
X142882587Y-94062201D01*
X142659463Y-93848513D01*
X142243153Y-93480137D01*
X141785480Y-93131270D01*
X141291485Y-92804432D01*
X140766212Y-92502145D01*
X140214701Y-92226932D01*
X139641996Y-91981314D01*
X139053138Y-91767813D01*
X138453169Y-91588950D01*
X137865924Y-91451050D01*
X137515525Y-91384270D01*
X137173835Y-91328859D01*
X136833793Y-91284361D01*
X136488337Y-91250315D01*
X136130406Y-91226263D01*
X135752938Y-91211747D01*
X135348873Y-91206308D01*
X134911148Y-91209486D01*
X134432703Y-91220824D01*
X134358268Y-91223158D01*
X133437879Y-91260176D01*
X132499621Y-91312097D01*
X131548847Y-91378246D01*
X130590912Y-91457948D01*
X129631170Y-91550529D01*
X128674977Y-91655314D01*
X127727686Y-91771627D01*
X126794653Y-91898794D01*
X125881232Y-92036140D01*
X124992778Y-92182990D01*
X124134645Y-92338670D01*
X123312188Y-92502504D01*
X122530761Y-92673817D01*
X122167061Y-92759658D01*
X122016304Y-92795304D01*
X121882139Y-92825446D01*
X121771837Y-92848580D01*
X121692667Y-92863202D01*
X121651901Y-92867810D01*
X121648190Y-92866962D01*
X121644686Y-92864511D01*
X121641621Y-92862261D01*
X121641080Y-92858727D01*
X121645144Y-92852426D01*
X121655895Y-92841875D01*
X121675417Y-92825588D01*
X121705791Y-92802083D01*
X121749101Y-92769876D01*
X121807427Y-92727483D01*
X121882852Y-92673420D01*
X121977459Y-92606203D01*
X122093330Y-92524348D01*
X122232547Y-92426372D01*
X122397192Y-92310791D01*
X122589349Y-92176121D01*
X122811098Y-92020878D01*
X123064523Y-91843579D01*
X123351706Y-91642739D01*
X123674729Y-91416875D01*
X124035674Y-91164503D01*
X124124724Y-91102237D01*
X126509934Y-89434435D01*
X125795142Y-89427885D01*
X125080349Y-89421335D01*
X125080349Y-87976280D01*
X125080349Y-86531225D01*
X124882684Y-86531225D01*
X124685019Y-86531225D01*
X124685019Y-87976653D01*
X124685019Y-89422081D01*
X123709069Y-89422081D01*
X122733119Y-89422081D01*
X122733129Y-89347957D01*
X122831906Y-89347957D01*
X123721202Y-89347957D01*
X124610499Y-89347957D01*
X124616874Y-87896352D01*
X124623248Y-86444747D01*
X124888861Y-86437734D01*
X125154474Y-86430721D01*
X125154474Y-87889339D01*
X125154474Y-89347957D01*
X126056322Y-89347957D01*
X126958170Y-89347957D01*
X126958170Y-85888813D01*
X126958170Y-82429669D01*
X126056322Y-82429669D01*
X125154474Y-82429669D01*
X125154474Y-83665078D01*
X125154474Y-84900486D01*
X124882684Y-84900486D01*
X124610894Y-84900486D01*
X124610894Y-83665078D01*
X124610894Y-82429669D01*
X123721400Y-82429669D01*
X122831906Y-82429669D01*
X122831906Y-85888813D01*
X122831906Y-89347957D01*
X122733129Y-89347957D01*
X122733576Y-85888813D01*
X122734033Y-82355544D01*
X123709526Y-82355544D01*
X124685019Y-82355544D01*
X124685019Y-83590953D01*
X124685019Y-84826362D01*
X124882684Y-84826362D01*
X125080349Y-84826362D01*
X125080349Y-83590953D01*
X125080349Y-82355544D01*
X126056322Y-82355544D01*
X127032295Y-82355544D01*
X127032295Y-85703502D01*
X127032373Y-86105976D01*
X127032600Y-86494628D01*
X127032968Y-86866614D01*
X127033468Y-87219094D01*
X127034089Y-87549226D01*
X127034824Y-87854167D01*
X127035663Y-88131076D01*
X127036596Y-88377111D01*
X127037616Y-88589431D01*
X127038711Y-88765193D01*
X127039875Y-88901556D01*
X127041097Y-88995678D01*
X127042367Y-89044718D01*
X127043051Y-89051459D01*
X127066069Y-89038227D01*
X127120729Y-89002387D01*
X127198702Y-88949723D01*
X127291660Y-88886021D01*
X127391272Y-88817065D01*
X127489209Y-88748639D01*
X127577142Y-88686529D01*
X127646743Y-88636518D01*
X127689682Y-88604391D01*
X127699415Y-88595618D01*
X127691380Y-88570412D01*
X127670277Y-88511576D01*
X127640615Y-88431669D01*
X127639555Y-88428852D01*
X127621762Y-88380764D01*
X127605825Y-88334254D01*
X127591628Y-88286444D01*
X127579059Y-88234458D01*
X127568002Y-88175418D01*
X127558344Y-88106447D01*
X127549970Y-88024668D01*
X127542767Y-87927203D01*
X127536619Y-87811176D01*
X127531414Y-87673710D01*
X127527037Y-87511926D01*
X127523374Y-87322949D01*
X127520311Y-87103900D01*
X127517733Y-86851903D01*
X127515527Y-86564080D01*
X127513578Y-86237555D01*
X127511772Y-85869449D01*
X127509995Y-85456886D01*
X127508663Y-85129037D01*
X127497817Y-82429669D01*
X127575875Y-82429669D01*
X127577006Y-84634873D01*
X127577628Y-85152164D01*
X127578967Y-85621990D01*
X127581070Y-86046296D01*
X127583982Y-86427030D01*
X127587749Y-86766138D01*
X127592416Y-87065565D01*
X127598028Y-87327260D01*
X127604632Y-87553167D01*
X127612272Y-87745233D01*
X127620996Y-87905405D01*
X127630847Y-88035629D01*
X127641872Y-88137851D01*
X127654115Y-88214018D01*
X127661562Y-88246165D01*
X127753794Y-88496836D01*
X127888093Y-88724082D01*
X128062037Y-88925998D01*
X128273206Y-89100677D01*
X128519182Y-89246213D01*
X128797543Y-89360700D01*
X129105870Y-89442230D01*
X129202010Y-89459678D01*
X129370535Y-89478673D01*
X129568301Y-89487278D01*
X129780133Y-89485972D01*
X129990856Y-89475237D01*
X130185296Y-89455553D01*
X130348277Y-89427399D01*
X130367898Y-89422766D01*
X130493267Y-89385655D01*
X130634789Y-89334285D01*
X130765527Y-89278591D01*
X130787937Y-89267844D01*
X131006309Y-89134411D01*
X131205065Y-88961757D01*
X131376954Y-88758502D01*
X131514727Y-88533269D01*
X131611136Y-88294680D01*
X131613875Y-88285506D01*
X131627293Y-88231628D01*
X131639345Y-88164163D01*
X131650098Y-88080553D01*
X131659617Y-87978241D01*
X131667968Y-87854670D01*
X131675217Y-87707282D01*
X131681431Y-87533521D01*
X131686676Y-87330829D01*
X131691017Y-87096649D01*
X131694520Y-86828424D01*
X131697253Y-86523596D01*
X131699280Y-86179609D01*
X131700668Y-85793906D01*
X131701482Y-85363929D01*
X131701790Y-84887121D01*
X131701790Y-84881955D01*
X131702139Y-82429669D01*
X130800291Y-82429669D01*
X129898443Y-82429669D01*
X129898300Y-85178453D01*
X129898057Y-85608647D01*
X129897389Y-86011818D01*
X129896312Y-86385790D01*
X129894846Y-86728388D01*
X129893008Y-87037435D01*
X129890816Y-87310756D01*
X129888289Y-87546175D01*
X129885445Y-87741516D01*
X129882302Y-87894603D01*
X129878879Y-88003261D01*
X129875193Y-88065313D01*
X129874071Y-88074320D01*
X129845154Y-88190813D01*
X129799493Y-88266934D01*
X129730262Y-88310721D01*
X129659451Y-88327087D01*
X129560334Y-88322682D01*
X129485619Y-88278143D01*
X129433343Y-88191540D01*
X129403770Y-88075486D01*
X129400095Y-88027674D01*
X129396660Y-87932768D01*
X129393485Y-87793088D01*
X129390590Y-87610955D01*
X129387992Y-87388690D01*
X129385713Y-87128614D01*
X129383770Y-86833048D01*
X129382184Y-86504314D01*
X129380973Y-86144732D01*
X129380157Y-85756623D01*
X129379754Y-85342308D01*
X129379714Y-85178453D01*
X129379571Y-82429669D01*
X128477723Y-82429669D01*
X127575875Y-82429669D01*
X127497817Y-82429669D01*
X127497519Y-82355544D01*
X128475607Y-82355544D01*
X129453696Y-82355544D01*
X129453696Y-84864732D01*
X129453696Y-87373919D01*
X129639007Y-87244535D01*
X129824318Y-87115150D01*
X129824318Y-84735347D01*
X129824318Y-82355544D01*
X130800121Y-82355544D01*
X131775923Y-82355544D01*
X131782270Y-84049726D01*
X131788618Y-85743908D01*
X132017168Y-85580409D01*
X132245719Y-85416909D01*
X132245719Y-83885894D01*
X132245719Y-82429669D01*
X132319843Y-82429669D01*
X132319843Y-85888813D01*
X132319843Y-89347957D01*
X133073258Y-89347957D01*
X133826673Y-89347957D01*
X133833035Y-87794025D01*
X133839396Y-86240094D01*
X134233657Y-87565475D01*
X134309393Y-87819942D01*
X134382905Y-88066688D01*
X134452619Y-88300441D01*
X134516958Y-88515933D01*
X134574349Y-88707893D01*
X134623217Y-88871051D01*
X134661985Y-89000138D01*
X134689080Y-89089883D01*
X134698080Y-89119406D01*
X134768242Y-89347957D01*
X135557845Y-89347957D01*
X136347448Y-89347957D01*
X136341184Y-85894990D01*
X136341038Y-85814688D01*
X136952780Y-85814688D01*
X136952924Y-86189298D01*
X136953577Y-86518356D01*
X136954961Y-86805728D01*
X136957302Y-87055278D01*
X136960823Y-87270871D01*
X136965750Y-87456372D01*
X136972305Y-87615645D01*
X136980714Y-87752555D01*
X136991200Y-87870966D01*
X137003989Y-87974743D01*
X137019304Y-88067751D01*
X137037369Y-88153854D01*
X137058410Y-88236917D01*
X137082650Y-88320805D01*
X137101818Y-88382647D01*
X137202798Y-88622515D01*
X137345186Y-88837068D01*
X137526873Y-89024403D01*
X137745751Y-89182621D01*
X137999710Y-89309821D01*
X138212564Y-89383904D01*
X138461295Y-89440386D01*
X138736935Y-89475727D01*
X139024599Y-89489636D01*
X139309401Y-89481819D01*
X139576457Y-89451985D01*
X139758929Y-89414267D01*
X139958657Y-89347955D01*
X141770719Y-89347955D01*
X142666390Y-89347956D01*
X143562061Y-89347957D01*
X143562061Y-87888525D01*
X143562061Y-86429093D01*
X143833851Y-86435338D01*
X144105641Y-86441583D01*
X144105641Y-87894770D01*
X144105641Y-89347957D01*
X145007489Y-89347957D01*
X145909338Y-89347957D01*
X145909338Y-85888813D01*
X145909338Y-82429669D01*
X145007489Y-82429669D01*
X144105641Y-82429669D01*
X144105641Y-83665078D01*
X144105641Y-84900486D01*
X143833851Y-84900486D01*
X143562061Y-84900486D01*
X143562061Y-83665078D01*
X143562061Y-82429669D01*
X142672567Y-82429669D01*
X142429162Y-82430025D01*
X142231292Y-82431182D01*
X142075080Y-82433275D01*
X141956649Y-82436439D01*
X141872123Y-82440808D01*
X141817625Y-82446517D01*
X141789279Y-82453700D01*
X141782825Y-82460554D01*
X141782754Y-82488516D01*
X141782602Y-82563052D01*
X141782376Y-82681320D01*
X141782081Y-82840477D01*
X141781721Y-83037683D01*
X141781301Y-83270094D01*
X141780827Y-83534869D01*
X141780304Y-83829165D01*
X141779736Y-84150141D01*
X141779130Y-84494953D01*
X141778489Y-84860761D01*
X141777819Y-85244722D01*
X141777125Y-85643993D01*
X141776648Y-85919697D01*
X141770719Y-89347955D01*
X139958657Y-89347955D01*
X140023269Y-89326503D01*
X140272736Y-89206218D01*
X140500382Y-89058509D01*
X140699257Y-88888472D01*
X140862413Y-88701204D01*
X140971556Y-88524956D01*
X141033558Y-88369403D01*
X141086021Y-88169224D01*
X141128405Y-87928386D01*
X141160169Y-87650852D01*
X141180774Y-87340587D01*
X141189680Y-87001557D01*
X141190017Y-86920379D01*
X141190077Y-86580642D01*
X140290113Y-86580642D01*
X139390150Y-86580642D01*
X139382088Y-87340418D01*
X139379636Y-87555454D01*
X139377079Y-87726834D01*
X139374020Y-87860315D01*
X139370059Y-87961658D01*
X139364796Y-88036620D01*
X139357834Y-88090962D01*
X139348772Y-88130440D01*
X139337212Y-88160815D01*
X139323442Y-88186673D01*
X139246784Y-88272730D01*
X139145266Y-88320238D01*
X139028666Y-88325891D01*
X138960164Y-88309452D01*
X138878973Y-88269935D01*
X138824788Y-88208956D01*
X138805738Y-88174319D01*
X138796962Y-88155538D01*
X138789274Y-88134415D01*
X138782590Y-88107686D01*
X138776825Y-88072087D01*
X138771894Y-88024355D01*
X138767712Y-87961225D01*
X138764195Y-87879433D01*
X138761258Y-87775716D01*
X138758815Y-87646810D01*
X138756783Y-87489451D01*
X138755076Y-87300375D01*
X138753610Y-87076319D01*
X138752300Y-86814017D01*
X138751061Y-86510207D01*
X138749808Y-86161625D01*
X138749254Y-86000000D01*
X138748225Y-85606166D01*
X138747915Y-85244539D01*
X138748308Y-84917146D01*
X138749388Y-84626014D01*
X138751140Y-84373170D01*
X138753546Y-84160641D01*
X138756592Y-83990454D01*
X138760262Y-83864637D01*
X138764538Y-83785216D01*
X138766842Y-83763910D01*
X138786046Y-83666019D01*
X138811950Y-83600249D01*
X138852125Y-83549312D01*
X138866956Y-83535360D01*
X138923292Y-83493227D01*
X138983741Y-83472930D01*
X139070026Y-83467426D01*
X139076540Y-83467412D01*
X139199571Y-83483633D01*
X139287922Y-83533902D01*
X139344875Y-83620631D01*
X139362376Y-83677432D01*
X139367867Y-83725518D01*
X139372918Y-83816391D01*
X139377363Y-83943422D01*
X139381036Y-84099982D01*
X139383771Y-84279441D01*
X139385401Y-84475172D01*
X139385791Y-84610165D01*
X139386380Y-85444066D01*
X140291399Y-85444066D01*
X141196418Y-85444066D01*
X141183170Y-84746060D01*
X141173796Y-84413440D01*
X141158319Y-84125111D01*
X141135406Y-83876178D01*
X141103728Y-83661748D01*
X141061954Y-83476926D01*
X141008754Y-83316817D01*
X140942797Y-83176528D01*
X140862753Y-83051165D01*
X140767291Y-82935832D01*
X140663091Y-82832905D01*
X140438688Y-82656985D01*
X140189824Y-82517504D01*
X139912887Y-82413062D01*
X139604263Y-82342260D01*
X139304125Y-82306711D01*
X138941480Y-82298450D01*
X138601326Y-82328627D01*
X138285932Y-82396328D01*
X137997563Y-82500642D01*
X137738486Y-82640655D01*
X137510967Y-82815456D01*
X137317274Y-83024130D01*
X137234266Y-83140201D01*
X137171032Y-83246617D01*
X137112411Y-83361724D01*
X137069899Y-83462716D01*
X137066108Y-83473761D01*
X137045536Y-83538121D01*
X137027611Y-83600980D01*
X137012152Y-83666092D01*
X136998976Y-83737213D01*
X136987902Y-83818098D01*
X136978749Y-83912500D01*
X136971334Y-84024176D01*
X136965475Y-84156879D01*
X136960991Y-84314364D01*
X136957701Y-84500388D01*
X136955421Y-84718703D01*
X136953971Y-84973065D01*
X136953169Y-85267230D01*
X136952832Y-85604951D01*
X136952780Y-85814688D01*
X136341038Y-85814688D01*
X136334921Y-82442023D01*
X135587499Y-82435484D01*
X134840077Y-82428944D01*
X134837555Y-83979744D01*
X134835034Y-85530544D01*
X134555160Y-84678113D01*
X134477424Y-84441054D01*
X134392831Y-84182579D01*
X134305565Y-83915504D01*
X134219809Y-83652644D01*
X134139746Y-83406816D01*
X134069560Y-83190836D01*
X134049077Y-83127675D01*
X133822868Y-82429669D01*
X133071356Y-82429669D01*
X132319843Y-82429669D01*
X132245719Y-82429669D01*
X132245719Y-82354878D01*
X133066630Y-82361388D01*
X133887541Y-82367899D01*
X134133698Y-83133852D01*
X134193242Y-83318827D01*
X134247966Y-83488246D01*
X134296045Y-83636504D01*
X134335655Y-83757996D01*
X134364969Y-83847117D01*
X134382163Y-83898263D01*
X134385937Y-83908445D01*
X134407357Y-83899102D01*
X134459782Y-83866874D01*
X134533994Y-83817583D01*
X134578986Y-83786546D01*
X134765952Y-83656006D01*
X134765952Y-83005775D01*
X134765952Y-82355544D01*
X135593676Y-82355544D01*
X136421400Y-82355544D01*
X136421400Y-82417315D01*
X136425682Y-82463799D01*
X136433876Y-82479085D01*
X136455120Y-82465150D01*
X136514755Y-82424312D01*
X136610696Y-82358024D01*
X136740863Y-82267737D01*
X136903173Y-82154906D01*
X137095544Y-82020981D01*
X137315894Y-81867416D01*
X137562140Y-81695663D01*
X137832200Y-81507174D01*
X138123993Y-81303401D01*
X138435435Y-81085797D01*
X138764446Y-80855815D01*
X139108941Y-80614906D01*
X139466841Y-80364524D01*
X139836061Y-80106120D01*
X139905252Y-80057685D01*
X140276316Y-79797966D01*
X140636429Y-79546001D01*
X140983510Y-79303242D01*
X141315478Y-79071140D01*
X141630252Y-78851147D01*
X141925750Y-78644717D01*
X142199891Y-78453301D01*
X142450593Y-78278352D01*
X142675777Y-78121322D01*
X142873359Y-77983663D01*
X143041260Y-77866828D01*
X143177398Y-77772268D01*
X143279691Y-77701437D01*
X143346059Y-77655786D01*
X143374420Y-77636767D01*
X143375334Y-77636284D01*
X143378986Y-77659189D01*
G37*
G36*
X128542905Y-79502270D02*
G01*
X128721337Y-79529637D01*
X128883443Y-79573357D01*
X129021349Y-79633012D01*
X129127184Y-79708186D01*
X129189393Y-79790555D01*
X129214621Y-79863247D01*
X129236286Y-79962543D01*
X129248570Y-80056168D01*
X129263197Y-80230642D01*
X128876637Y-80230642D01*
X128490077Y-80230642D01*
X128490077Y-80105476D01*
X128482996Y-79995974D01*
X128459016Y-79927322D01*
X128414026Y-79892642D01*
X128358254Y-79884727D01*
X128285696Y-79894342D01*
X128242390Y-79928784D01*
X128222117Y-79996450D01*
X128218287Y-80073723D01*
X128221514Y-80153497D01*
X128236651Y-80203340D01*
X128271881Y-80242593D01*
X128298589Y-80263546D01*
X128358298Y-80300862D01*
X128447834Y-80348199D01*
X128551135Y-80397239D01*
X128588522Y-80413676D01*
X128760660Y-80493215D01*
X128917059Y-80576290D01*
X129049146Y-80657763D01*
X129148350Y-80732494D01*
X129191075Y-80774942D01*
X129253324Y-80875656D01*
X129292272Y-81005374D01*
X129309684Y-81171039D01*
X129311019Y-81246490D01*
X129299127Y-81411128D01*
X129260775Y-81541995D01*
X129191123Y-81644813D01*
X129085329Y-81725303D01*
X128938551Y-81789187D01*
X128822773Y-81823506D01*
X128707456Y-81843802D01*
X128559997Y-81855819D01*
X128396555Y-81859593D01*
X128233286Y-81855157D01*
X128086348Y-81842549D01*
X127971897Y-81821802D01*
X127971304Y-81821644D01*
X127794029Y-81761581D01*
X127660442Y-81685514D01*
X127565933Y-81587891D01*
X127505891Y-81463162D01*
X127475706Y-81305773D01*
X127470512Y-81218591D01*
X127464688Y-81008949D01*
X127841487Y-81002129D01*
X128218287Y-80995308D01*
X128218287Y-81167300D01*
X128221682Y-81264430D01*
X128230554Y-81349803D01*
X128242121Y-81401981D01*
X128287437Y-81458492D01*
X128359495Y-81486346D01*
X128435128Y-81480160D01*
X128490572Y-81438668D01*
X128525343Y-81363794D01*
X128537047Y-81268067D01*
X128523288Y-81164017D01*
X128505590Y-81111532D01*
X128487862Y-81078799D01*
X128459272Y-81047144D01*
X128413169Y-81012157D01*
X128342900Y-80969431D01*
X128241813Y-80914557D01*
X128103255Y-80843126D01*
X128091729Y-80837264D01*
X127960123Y-80769273D01*
X127838310Y-80704322D01*
X127735606Y-80647531D01*
X127661327Y-80604018D01*
X127631240Y-80584206D01*
X127534840Y-80487136D01*
X127473517Y-80363142D01*
X127445124Y-80207077D01*
X127442502Y-80131809D01*
X127451250Y-79970128D01*
X127479406Y-79846069D01*
X127529624Y-79750762D01*
X127570269Y-79704816D01*
X127681354Y-79625314D01*
X127823344Y-79564665D01*
X127988365Y-79522453D01*
X128168547Y-79498261D01*
X128356018Y-79491673D01*
X128542905Y-79502270D01*
G37*
G36*
X131244747Y-79594406D02*
G01*
X131252391Y-79629921D01*
X131268873Y-79708496D01*
X131293086Y-79824788D01*
X131323922Y-79973451D01*
X131360274Y-80149143D01*
X131401034Y-80346518D01*
X131445094Y-80560232D01*
X131468806Y-80675389D01*
X131514157Y-80895459D01*
X131556816Y-81101953D01*
X131595671Y-81289526D01*
X131629609Y-81452834D01*
X131657519Y-81586532D01*
X131678289Y-81685274D01*
X131690808Y-81743718D01*
X131693678Y-81756371D01*
X131707496Y-81811965D01*
X131286557Y-81811965D01*
X130865617Y-81811965D01*
X130850186Y-81669893D01*
X130837603Y-81556385D01*
X130825271Y-81483082D01*
X130806826Y-81441219D01*
X130775906Y-81422027D01*
X130726146Y-81416741D01*
X130666351Y-81416634D01*
X130520999Y-81416634D01*
X130504441Y-81571060D01*
X130496003Y-81657730D01*
X130487350Y-81720814D01*
X130471399Y-81764026D01*
X130441070Y-81791079D01*
X130389280Y-81805686D01*
X130308948Y-81811562D01*
X130192993Y-81812418D01*
X130045027Y-81811965D01*
X129907474Y-81811308D01*
X129788942Y-81809490D01*
X129697468Y-81806736D01*
X129641091Y-81803271D01*
X129626653Y-81800216D01*
X129630998Y-81773509D01*
X129643298Y-81704183D01*
X129662451Y-81598198D01*
X129687357Y-81461515D01*
X129716913Y-81300093D01*
X129750019Y-81119892D01*
X129778139Y-80967224D01*
X130516147Y-80967224D01*
X130525032Y-80991775D01*
X130558896Y-81004531D01*
X130628552Y-81008813D01*
X130652042Y-81008949D01*
X130733454Y-81005748D01*
X130775105Y-80994426D01*
X130786339Y-80972405D01*
X130786320Y-80971887D01*
X130780774Y-80899936D01*
X130769947Y-80802499D01*
X130755183Y-80688204D01*
X130737826Y-80565677D01*
X130719219Y-80443546D01*
X130700706Y-80330438D01*
X130683632Y-80234980D01*
X130669339Y-80165798D01*
X130659172Y-80131521D01*
X130655469Y-80131809D01*
X130644412Y-80183770D01*
X130628158Y-80270516D01*
X130608459Y-80381528D01*
X130587070Y-80506288D01*
X130565745Y-80634280D01*
X130546238Y-80754986D01*
X130530304Y-80857888D01*
X130519695Y-80932468D01*
X130516147Y-80967224D01*
X129778139Y-80967224D01*
X129785571Y-80926874D01*
X129822469Y-80726998D01*
X129859611Y-80526223D01*
X129895896Y-80330512D01*
X129930221Y-80145823D01*
X129961486Y-79978117D01*
X129988588Y-79833354D01*
X130010427Y-79717494D01*
X130025900Y-79636498D01*
X130033906Y-79596325D01*
X130034342Y-79594406D01*
X130047633Y-79538813D01*
X130639688Y-79538813D01*
X131231742Y-79538813D01*
X131244747Y-79594406D01*
G37*
G36*
X126683866Y-79655743D02*
G01*
X126694835Y-79705834D01*
X126714433Y-79798335D01*
X126741413Y-79927238D01*
X126774527Y-80086534D01*
X126812525Y-80270215D01*
X126854161Y-80472271D01*
X126898186Y-80686695D01*
X126908524Y-80737159D01*
X126952253Y-80950499D01*
X126993275Y-81150230D01*
X127030444Y-81330813D01*
X127062617Y-81486709D01*
X127088651Y-81612377D01*
X127107401Y-81702280D01*
X127117725Y-81750876D01*
X127118960Y-81756371D01*
X127132069Y-81811965D01*
X126713073Y-81811965D01*
X126294078Y-81811965D01*
X126279123Y-81694601D01*
X126264094Y-81574554D01*
X126251808Y-81494984D01*
X126236793Y-81447640D01*
X126213572Y-81424271D01*
X126176672Y-81416626D01*
X126120618Y-81416455D01*
X126094691Y-81416634D01*
X125949987Y-81416634D01*
X125933429Y-81571060D01*
X125924992Y-81657730D01*
X125916338Y-81720814D01*
X125900388Y-81764026D01*
X125870058Y-81791079D01*
X125818268Y-81805686D01*
X125737936Y-81811562D01*
X125621981Y-81812418D01*
X125474015Y-81811965D01*
X125336463Y-81811204D01*
X125217931Y-81809095D01*
X125126457Y-81805901D01*
X125070080Y-81801882D01*
X125055641Y-81798339D01*
X125059954Y-81771291D01*
X125072088Y-81702341D01*
X125090834Y-81598174D01*
X125114982Y-81465472D01*
X125143324Y-81310920D01*
X125168496Y-81174458D01*
X125206698Y-80967573D01*
X125217949Y-80906500D01*
X125950775Y-80906500D01*
X125950883Y-80960729D01*
X125962239Y-80991688D01*
X125985842Y-81005780D01*
X126022688Y-81009406D01*
X126073778Y-81008970D01*
X126081030Y-81008949D01*
X126157303Y-81004739D01*
X126206081Y-80993726D01*
X126216925Y-80983529D01*
X126213606Y-80950985D01*
X126204492Y-80879122D01*
X126190854Y-80777531D01*
X126173960Y-80655801D01*
X126167895Y-80612906D01*
X126149657Y-80478514D01*
X126134176Y-80353131D01*
X126122875Y-80249115D01*
X126117173Y-80178818D01*
X126116807Y-80168871D01*
X126112355Y-80111040D01*
X126102381Y-80101517D01*
X126086841Y-80140459D01*
X126065688Y-80228022D01*
X126038877Y-80364360D01*
X126007962Y-80540164D01*
X125980312Y-80702620D01*
X125960917Y-80822597D01*
X125950775Y-80906500D01*
X125217949Y-80906500D01*
X125248512Y-80740603D01*
X125290973Y-80509672D01*
X125331118Y-80290904D01*
X125365982Y-80100424D01*
X125373787Y-80057685D01*
X125466222Y-79551167D01*
X126061379Y-79544557D01*
X126656535Y-79537946D01*
X126683866Y-79655743D01*
G37*
G36*
X123180404Y-79544312D02*
G01*
X123528902Y-79551167D01*
X123754869Y-80056966D01*
X123980836Y-80562766D01*
X123987514Y-80050789D01*
X123994192Y-79538813D01*
X124338661Y-79538813D01*
X124683130Y-79538813D01*
X124684527Y-80675389D01*
X124685924Y-81811965D01*
X124317154Y-81811965D01*
X123948385Y-81811965D01*
X123868131Y-81620476D01*
X123827253Y-81522374D01*
X123774376Y-81394664D01*
X123716171Y-81253493D01*
X123659306Y-81115008D01*
X123656347Y-81107782D01*
X123524816Y-80786576D01*
X123524275Y-81299270D01*
X123523735Y-81811965D01*
X123177820Y-81811965D01*
X122831906Y-81811965D01*
X122831906Y-80674710D01*
X122831906Y-79537456D01*
X123180404Y-79544312D01*
G37*
D17*
%TO.C,U1*%
X152470000Y-79500000D02*
X153000000Y-79500000D01*
X153000000Y-95500000D02*
X153000000Y-79500000D01*
X153000000Y-68500000D02*
X153000000Y-52500000D01*
X152470000Y-96500000D02*
X151270000Y-96500000D01*
X152470000Y-95500000D02*
X153000000Y-95500000D01*
X152470000Y-95500000D02*
X152470000Y-96500000D01*
X152470000Y-79500000D02*
X152470000Y-95500000D01*
X152470000Y-68500000D02*
X153000000Y-68500000D01*
X152470000Y-68500000D02*
X152470000Y-79500000D01*
X152470000Y-52500000D02*
X153000000Y-52500000D01*
X152470000Y-52500000D02*
X152470000Y-68500000D01*
X152470000Y-51500000D02*
X152470000Y-52500000D01*
X151270000Y-96500000D02*
X151270000Y-51500000D01*
X151270000Y-51500000D02*
X152470000Y-51500000D01*
%TD*%
M02*
