%TF.GenerationSoftware,KiCad,Pcbnew,9.0.0*%
%TF.CreationDate,2025-02-27T00:07:18-07:00*%
%TF.ProjectId,bubble_detector_v2.1,62756262-6c65-45f6-9465-746563746f72,rev?*%
%TF.SameCoordinates,Original*%
%TF.FileFunction,AssemblyDrawing,Top*%
%FSLAX46Y46*%
G04 Gerber Fmt 4.6, Leading zero omitted, Abs format (unit mm)*
G04 Created by KiCad (PCBNEW 9.0.0) date 2025-02-27 00:07:18*
%MOMM*%
%LPD*%
G01*
G04 APERTURE LIST*
%ADD10C,0.150000*%
%ADD11C,0.120000*%
%ADD12C,0.100000*%
%ADD13C,0.127000*%
G04 APERTURE END LIST*
D10*
X135332618Y-62724819D02*
X134856428Y-62724819D01*
X134856428Y-62724819D02*
X134856428Y-61724819D01*
X135665952Y-62201009D02*
X135999285Y-62201009D01*
X136142142Y-62724819D02*
X135665952Y-62724819D01*
X135665952Y-62724819D02*
X135665952Y-61724819D01*
X135665952Y-61724819D02*
X136142142Y-61724819D01*
X136570714Y-62724819D02*
X136570714Y-61724819D01*
X136570714Y-61724819D02*
X136808809Y-61724819D01*
X136808809Y-61724819D02*
X136951666Y-61772438D01*
X136951666Y-61772438D02*
X137046904Y-61867676D01*
X137046904Y-61867676D02*
X137094523Y-61962914D01*
X137094523Y-61962914D02*
X137142142Y-62153390D01*
X137142142Y-62153390D02*
X137142142Y-62296247D01*
X137142142Y-62296247D02*
X137094523Y-62486723D01*
X137094523Y-62486723D02*
X137046904Y-62581961D01*
X137046904Y-62581961D02*
X136951666Y-62677200D01*
X136951666Y-62677200D02*
X136808809Y-62724819D01*
X136808809Y-62724819D02*
X136570714Y-62724819D01*
X137332619Y-62820057D02*
X138094523Y-62820057D01*
X138904047Y-62724819D02*
X138570714Y-62248628D01*
X138332619Y-62724819D02*
X138332619Y-61724819D01*
X138332619Y-61724819D02*
X138713571Y-61724819D01*
X138713571Y-61724819D02*
X138808809Y-61772438D01*
X138808809Y-61772438D02*
X138856428Y-61820057D01*
X138856428Y-61820057D02*
X138904047Y-61915295D01*
X138904047Y-61915295D02*
X138904047Y-62058152D01*
X138904047Y-62058152D02*
X138856428Y-62153390D01*
X138856428Y-62153390D02*
X138808809Y-62201009D01*
X138808809Y-62201009D02*
X138713571Y-62248628D01*
X138713571Y-62248628D02*
X138332619Y-62248628D01*
X139285000Y-62439104D02*
X139761190Y-62439104D01*
X139189762Y-62724819D02*
X139523095Y-61724819D01*
X139523095Y-61724819D02*
X139856428Y-62724819D01*
X140713571Y-61772438D02*
X140618333Y-61724819D01*
X140618333Y-61724819D02*
X140475476Y-61724819D01*
X140475476Y-61724819D02*
X140332619Y-61772438D01*
X140332619Y-61772438D02*
X140237381Y-61867676D01*
X140237381Y-61867676D02*
X140189762Y-61962914D01*
X140189762Y-61962914D02*
X140142143Y-62153390D01*
X140142143Y-62153390D02*
X140142143Y-62296247D01*
X140142143Y-62296247D02*
X140189762Y-62486723D01*
X140189762Y-62486723D02*
X140237381Y-62581961D01*
X140237381Y-62581961D02*
X140332619Y-62677200D01*
X140332619Y-62677200D02*
X140475476Y-62724819D01*
X140475476Y-62724819D02*
X140570714Y-62724819D01*
X140570714Y-62724819D02*
X140713571Y-62677200D01*
X140713571Y-62677200D02*
X140761190Y-62629580D01*
X140761190Y-62629580D02*
X140761190Y-62296247D01*
X140761190Y-62296247D02*
X140570714Y-62296247D01*
X141523095Y-62201009D02*
X141665952Y-62248628D01*
X141665952Y-62248628D02*
X141713571Y-62296247D01*
X141713571Y-62296247D02*
X141761190Y-62391485D01*
X141761190Y-62391485D02*
X141761190Y-62534342D01*
X141761190Y-62534342D02*
X141713571Y-62629580D01*
X141713571Y-62629580D02*
X141665952Y-62677200D01*
X141665952Y-62677200D02*
X141570714Y-62724819D01*
X141570714Y-62724819D02*
X141189762Y-62724819D01*
X141189762Y-62724819D02*
X141189762Y-61724819D01*
X141189762Y-61724819D02*
X141523095Y-61724819D01*
X141523095Y-61724819D02*
X141618333Y-61772438D01*
X141618333Y-61772438D02*
X141665952Y-61820057D01*
X141665952Y-61820057D02*
X141713571Y-61915295D01*
X141713571Y-61915295D02*
X141713571Y-62010533D01*
X141713571Y-62010533D02*
X141665952Y-62105771D01*
X141665952Y-62105771D02*
X141618333Y-62153390D01*
X141618333Y-62153390D02*
X141523095Y-62201009D01*
X141523095Y-62201009D02*
X141189762Y-62201009D01*
D11*
X137694524Y-58673855D02*
X137694524Y-57873855D01*
X137694524Y-57873855D02*
X137885000Y-57873855D01*
X137885000Y-57873855D02*
X137999286Y-57911950D01*
X137999286Y-57911950D02*
X138075476Y-57988140D01*
X138075476Y-57988140D02*
X138113571Y-58064331D01*
X138113571Y-58064331D02*
X138151667Y-58216712D01*
X138151667Y-58216712D02*
X138151667Y-58330998D01*
X138151667Y-58330998D02*
X138113571Y-58483379D01*
X138113571Y-58483379D02*
X138075476Y-58559569D01*
X138075476Y-58559569D02*
X137999286Y-58635760D01*
X137999286Y-58635760D02*
X137885000Y-58673855D01*
X137885000Y-58673855D02*
X137694524Y-58673855D01*
X138913571Y-58673855D02*
X138456428Y-58673855D01*
X138685000Y-58673855D02*
X138685000Y-57873855D01*
X138685000Y-57873855D02*
X138608809Y-57988140D01*
X138608809Y-57988140D02*
X138532619Y-58064331D01*
X138532619Y-58064331D02*
X138456428Y-58102426D01*
D10*
X109068263Y-67881640D02*
X109020485Y-67929418D01*
X109020485Y-67929418D02*
X108877152Y-67977195D01*
X108877152Y-67977195D02*
X108781597Y-67977195D01*
X108781597Y-67977195D02*
X108638264Y-67929418D01*
X108638264Y-67929418D02*
X108542709Y-67833862D01*
X108542709Y-67833862D02*
X108494931Y-67738307D01*
X108494931Y-67738307D02*
X108447153Y-67547196D01*
X108447153Y-67547196D02*
X108447153Y-67403863D01*
X108447153Y-67403863D02*
X108494931Y-67212753D01*
X108494931Y-67212753D02*
X108542709Y-67117197D01*
X108542709Y-67117197D02*
X108638264Y-67021642D01*
X108638264Y-67021642D02*
X108781597Y-66973864D01*
X108781597Y-66973864D02*
X108877152Y-66973864D01*
X108877152Y-66973864D02*
X109020485Y-67021642D01*
X109020485Y-67021642D02*
X109068263Y-67069420D01*
X109498262Y-67451641D02*
X109832706Y-67451641D01*
X109976039Y-67977195D02*
X109498262Y-67977195D01*
X109498262Y-67977195D02*
X109498262Y-66973864D01*
X109498262Y-66973864D02*
X109976039Y-66973864D01*
X110406038Y-67977195D02*
X110406038Y-66973864D01*
X110406038Y-66973864D02*
X110740482Y-67690529D01*
X110740482Y-67690529D02*
X111074925Y-66973864D01*
X111074925Y-66973864D02*
X111074925Y-67977195D01*
X111552702Y-67594974D02*
X112317145Y-67594974D01*
X113320475Y-67977195D02*
X112747143Y-67977195D01*
X113033809Y-67977195D02*
X113033809Y-66973864D01*
X113033809Y-66973864D02*
X112938254Y-67117197D01*
X112938254Y-67117197D02*
X112842699Y-67212753D01*
X112842699Y-67212753D02*
X112747143Y-67260530D01*
X113702696Y-67069420D02*
X113750474Y-67021642D01*
X113750474Y-67021642D02*
X113846029Y-66973864D01*
X113846029Y-66973864D02*
X114084918Y-66973864D01*
X114084918Y-66973864D02*
X114180473Y-67021642D01*
X114180473Y-67021642D02*
X114228251Y-67069420D01*
X114228251Y-67069420D02*
X114276028Y-67164975D01*
X114276028Y-67164975D02*
X114276028Y-67260530D01*
X114276028Y-67260530D02*
X114228251Y-67403863D01*
X114228251Y-67403863D02*
X113654919Y-67977195D01*
X113654919Y-67977195D02*
X114276028Y-67977195D01*
X114897138Y-66973864D02*
X114992693Y-66973864D01*
X114992693Y-66973864D02*
X115088248Y-67021642D01*
X115088248Y-67021642D02*
X115136026Y-67069420D01*
X115136026Y-67069420D02*
X115183804Y-67164975D01*
X115183804Y-67164975D02*
X115231581Y-67356086D01*
X115231581Y-67356086D02*
X115231581Y-67594974D01*
X115231581Y-67594974D02*
X115183804Y-67786085D01*
X115183804Y-67786085D02*
X115136026Y-67881640D01*
X115136026Y-67881640D02*
X115088248Y-67929418D01*
X115088248Y-67929418D02*
X114992693Y-67977195D01*
X114992693Y-67977195D02*
X114897138Y-67977195D01*
X114897138Y-67977195D02*
X114801582Y-67929418D01*
X114801582Y-67929418D02*
X114753805Y-67881640D01*
X114753805Y-67881640D02*
X114706027Y-67786085D01*
X114706027Y-67786085D02*
X114658249Y-67594974D01*
X114658249Y-67594974D02*
X114658249Y-67356086D01*
X114658249Y-67356086D02*
X114706027Y-67164975D01*
X114706027Y-67164975D02*
X114753805Y-67069420D01*
X114753805Y-67069420D02*
X114801582Y-67021642D01*
X114801582Y-67021642D02*
X114897138Y-66973864D01*
X115566025Y-66973864D02*
X116187134Y-66973864D01*
X116187134Y-66973864D02*
X115852691Y-67356086D01*
X115852691Y-67356086D02*
X115996024Y-67356086D01*
X115996024Y-67356086D02*
X116091579Y-67403863D01*
X116091579Y-67403863D02*
X116139357Y-67451641D01*
X116139357Y-67451641D02*
X116187134Y-67547196D01*
X116187134Y-67547196D02*
X116187134Y-67786085D01*
X116187134Y-67786085D02*
X116139357Y-67881640D01*
X116139357Y-67881640D02*
X116091579Y-67929418D01*
X116091579Y-67929418D02*
X115996024Y-67977195D01*
X115996024Y-67977195D02*
X115709358Y-67977195D01*
X115709358Y-67977195D02*
X115613802Y-67929418D01*
X115613802Y-67929418D02*
X115566025Y-67881640D01*
X116378245Y-68072751D02*
X117142687Y-68072751D01*
X117811575Y-67308308D02*
X117811575Y-67977195D01*
X117572687Y-66926087D02*
X117333798Y-67642752D01*
X117333798Y-67642752D02*
X117954908Y-67642752D01*
X118289351Y-67069420D02*
X118337129Y-67021642D01*
X118337129Y-67021642D02*
X118432684Y-66973864D01*
X118432684Y-66973864D02*
X118671573Y-66973864D01*
X118671573Y-66973864D02*
X118767128Y-67021642D01*
X118767128Y-67021642D02*
X118814906Y-67069420D01*
X118814906Y-67069420D02*
X118862683Y-67164975D01*
X118862683Y-67164975D02*
X118862683Y-67260530D01*
X118862683Y-67260530D02*
X118814906Y-67403863D01*
X118814906Y-67403863D02*
X118241574Y-67977195D01*
X118241574Y-67977195D02*
X118862683Y-67977195D01*
X119053794Y-68072751D02*
X119818236Y-68072751D01*
X119773809Y-102034819D02*
X119773809Y-101034819D01*
X119773809Y-101034819D02*
X120154761Y-101034819D01*
X120154761Y-101034819D02*
X120249999Y-101082438D01*
X120249999Y-101082438D02*
X120297618Y-101130057D01*
X120297618Y-101130057D02*
X120345237Y-101225295D01*
X120345237Y-101225295D02*
X120345237Y-101368152D01*
X120345237Y-101368152D02*
X120297618Y-101463390D01*
X120297618Y-101463390D02*
X120249999Y-101511009D01*
X120249999Y-101511009D02*
X120154761Y-101558628D01*
X120154761Y-101558628D02*
X119773809Y-101558628D01*
X120916666Y-102034819D02*
X120821428Y-101987200D01*
X120821428Y-101987200D02*
X120773809Y-101939580D01*
X120773809Y-101939580D02*
X120726190Y-101844342D01*
X120726190Y-101844342D02*
X120726190Y-101558628D01*
X120726190Y-101558628D02*
X120773809Y-101463390D01*
X120773809Y-101463390D02*
X120821428Y-101415771D01*
X120821428Y-101415771D02*
X120916666Y-101368152D01*
X120916666Y-101368152D02*
X121059523Y-101368152D01*
X121059523Y-101368152D02*
X121154761Y-101415771D01*
X121154761Y-101415771D02*
X121202380Y-101463390D01*
X121202380Y-101463390D02*
X121249999Y-101558628D01*
X121249999Y-101558628D02*
X121249999Y-101844342D01*
X121249999Y-101844342D02*
X121202380Y-101939580D01*
X121202380Y-101939580D02*
X121154761Y-101987200D01*
X121154761Y-101987200D02*
X121059523Y-102034819D01*
X121059523Y-102034819D02*
X120916666Y-102034819D01*
X121583333Y-101368152D02*
X121773809Y-102034819D01*
X121773809Y-102034819D02*
X121964285Y-101558628D01*
X121964285Y-101558628D02*
X122154761Y-102034819D01*
X122154761Y-102034819D02*
X122345237Y-101368152D01*
X123107142Y-101987200D02*
X123011904Y-102034819D01*
X123011904Y-102034819D02*
X122821428Y-102034819D01*
X122821428Y-102034819D02*
X122726190Y-101987200D01*
X122726190Y-101987200D02*
X122678571Y-101891961D01*
X122678571Y-101891961D02*
X122678571Y-101511009D01*
X122678571Y-101511009D02*
X122726190Y-101415771D01*
X122726190Y-101415771D02*
X122821428Y-101368152D01*
X122821428Y-101368152D02*
X123011904Y-101368152D01*
X123011904Y-101368152D02*
X123107142Y-101415771D01*
X123107142Y-101415771D02*
X123154761Y-101511009D01*
X123154761Y-101511009D02*
X123154761Y-101606247D01*
X123154761Y-101606247D02*
X122678571Y-101701485D01*
X123583333Y-102034819D02*
X123583333Y-101368152D01*
X123583333Y-101558628D02*
X123630952Y-101463390D01*
X123630952Y-101463390D02*
X123678571Y-101415771D01*
X123678571Y-101415771D02*
X123773809Y-101368152D01*
X123773809Y-101368152D02*
X123869047Y-101368152D01*
X112526666Y-101034819D02*
X112526666Y-101749104D01*
X112526666Y-101749104D02*
X112479047Y-101891961D01*
X112479047Y-101891961D02*
X112383809Y-101987200D01*
X112383809Y-101987200D02*
X112240952Y-102034819D01*
X112240952Y-102034819D02*
X112145714Y-102034819D01*
X113526666Y-102034819D02*
X112955238Y-102034819D01*
X113240952Y-102034819D02*
X113240952Y-101034819D01*
X113240952Y-101034819D02*
X113145714Y-101177676D01*
X113145714Y-101177676D02*
X113050476Y-101272914D01*
X113050476Y-101272914D02*
X112955238Y-101320533D01*
X139760476Y-101749104D02*
X140236666Y-101749104D01*
X139665238Y-102034819D02*
X139998571Y-101034819D01*
X139998571Y-101034819D02*
X140331904Y-102034819D01*
X140665238Y-101368152D02*
X140665238Y-102034819D01*
X140665238Y-101463390D02*
X140712857Y-101415771D01*
X140712857Y-101415771D02*
X140808095Y-101368152D01*
X140808095Y-101368152D02*
X140950952Y-101368152D01*
X140950952Y-101368152D02*
X141046190Y-101415771D01*
X141046190Y-101415771D02*
X141093809Y-101511009D01*
X141093809Y-101511009D02*
X141093809Y-102034819D01*
X141998571Y-102034819D02*
X141998571Y-101511009D01*
X141998571Y-101511009D02*
X141950952Y-101415771D01*
X141950952Y-101415771D02*
X141855714Y-101368152D01*
X141855714Y-101368152D02*
X141665238Y-101368152D01*
X141665238Y-101368152D02*
X141570000Y-101415771D01*
X141998571Y-101987200D02*
X141903333Y-102034819D01*
X141903333Y-102034819D02*
X141665238Y-102034819D01*
X141665238Y-102034819D02*
X141570000Y-101987200D01*
X141570000Y-101987200D02*
X141522381Y-101891961D01*
X141522381Y-101891961D02*
X141522381Y-101796723D01*
X141522381Y-101796723D02*
X141570000Y-101701485D01*
X141570000Y-101701485D02*
X141665238Y-101653866D01*
X141665238Y-101653866D02*
X141903333Y-101653866D01*
X141903333Y-101653866D02*
X141998571Y-101606247D01*
X142617619Y-102034819D02*
X142522381Y-101987200D01*
X142522381Y-101987200D02*
X142474762Y-101891961D01*
X142474762Y-101891961D02*
X142474762Y-101034819D01*
X143141429Y-102034819D02*
X143046191Y-101987200D01*
X143046191Y-101987200D02*
X142998572Y-101939580D01*
X142998572Y-101939580D02*
X142950953Y-101844342D01*
X142950953Y-101844342D02*
X142950953Y-101558628D01*
X142950953Y-101558628D02*
X142998572Y-101463390D01*
X142998572Y-101463390D02*
X143046191Y-101415771D01*
X143046191Y-101415771D02*
X143141429Y-101368152D01*
X143141429Y-101368152D02*
X143284286Y-101368152D01*
X143284286Y-101368152D02*
X143379524Y-101415771D01*
X143379524Y-101415771D02*
X143427143Y-101463390D01*
X143427143Y-101463390D02*
X143474762Y-101558628D01*
X143474762Y-101558628D02*
X143474762Y-101844342D01*
X143474762Y-101844342D02*
X143427143Y-101939580D01*
X143427143Y-101939580D02*
X143379524Y-101987200D01*
X143379524Y-101987200D02*
X143284286Y-102034819D01*
X143284286Y-102034819D02*
X143141429Y-102034819D01*
X144331905Y-101368152D02*
X144331905Y-102177676D01*
X144331905Y-102177676D02*
X144284286Y-102272914D01*
X144284286Y-102272914D02*
X144236667Y-102320533D01*
X144236667Y-102320533D02*
X144141429Y-102368152D01*
X144141429Y-102368152D02*
X143998572Y-102368152D01*
X143998572Y-102368152D02*
X143903334Y-102320533D01*
X144331905Y-101987200D02*
X144236667Y-102034819D01*
X144236667Y-102034819D02*
X144046191Y-102034819D01*
X144046191Y-102034819D02*
X143950953Y-101987200D01*
X143950953Y-101987200D02*
X143903334Y-101939580D01*
X143903334Y-101939580D02*
X143855715Y-101844342D01*
X143855715Y-101844342D02*
X143855715Y-101558628D01*
X143855715Y-101558628D02*
X143903334Y-101463390D01*
X143903334Y-101463390D02*
X143950953Y-101415771D01*
X143950953Y-101415771D02*
X144046191Y-101368152D01*
X144046191Y-101368152D02*
X144236667Y-101368152D01*
X144236667Y-101368152D02*
X144331905Y-101415771D01*
X135386666Y-101034819D02*
X135386666Y-101749104D01*
X135386666Y-101749104D02*
X135339047Y-101891961D01*
X135339047Y-101891961D02*
X135243809Y-101987200D01*
X135243809Y-101987200D02*
X135100952Y-102034819D01*
X135100952Y-102034819D02*
X135005714Y-102034819D01*
X135767619Y-101034819D02*
X136386666Y-101034819D01*
X136386666Y-101034819D02*
X136053333Y-101415771D01*
X136053333Y-101415771D02*
X136196190Y-101415771D01*
X136196190Y-101415771D02*
X136291428Y-101463390D01*
X136291428Y-101463390D02*
X136339047Y-101511009D01*
X136339047Y-101511009D02*
X136386666Y-101606247D01*
X136386666Y-101606247D02*
X136386666Y-101844342D01*
X136386666Y-101844342D02*
X136339047Y-101939580D01*
X136339047Y-101939580D02*
X136291428Y-101987200D01*
X136291428Y-101987200D02*
X136196190Y-102034819D01*
X136196190Y-102034819D02*
X135910476Y-102034819D01*
X135910476Y-102034819D02*
X135815238Y-101987200D01*
X135815238Y-101987200D02*
X135767619Y-101939580D01*
X110788857Y-46154819D02*
X110788857Y-45154819D01*
X110788857Y-45154819D02*
X111026952Y-45154819D01*
X111026952Y-45154819D02*
X111169809Y-45202438D01*
X111169809Y-45202438D02*
X111265047Y-45297676D01*
X111265047Y-45297676D02*
X111312666Y-45392914D01*
X111312666Y-45392914D02*
X111360285Y-45583390D01*
X111360285Y-45583390D02*
X111360285Y-45726247D01*
X111360285Y-45726247D02*
X111312666Y-45916723D01*
X111312666Y-45916723D02*
X111265047Y-46011961D01*
X111265047Y-46011961D02*
X111169809Y-46107200D01*
X111169809Y-46107200D02*
X111026952Y-46154819D01*
X111026952Y-46154819D02*
X110788857Y-46154819D01*
X111788857Y-46154819D02*
X111788857Y-45488152D01*
X111788857Y-45154819D02*
X111741238Y-45202438D01*
X111741238Y-45202438D02*
X111788857Y-45250057D01*
X111788857Y-45250057D02*
X111836476Y-45202438D01*
X111836476Y-45202438D02*
X111788857Y-45154819D01*
X111788857Y-45154819D02*
X111788857Y-45250057D01*
X112693618Y-45488152D02*
X112693618Y-46297676D01*
X112693618Y-46297676D02*
X112645999Y-46392914D01*
X112645999Y-46392914D02*
X112598380Y-46440533D01*
X112598380Y-46440533D02*
X112503142Y-46488152D01*
X112503142Y-46488152D02*
X112360285Y-46488152D01*
X112360285Y-46488152D02*
X112265047Y-46440533D01*
X112693618Y-46107200D02*
X112598380Y-46154819D01*
X112598380Y-46154819D02*
X112407904Y-46154819D01*
X112407904Y-46154819D02*
X112312666Y-46107200D01*
X112312666Y-46107200D02*
X112265047Y-46059580D01*
X112265047Y-46059580D02*
X112217428Y-45964342D01*
X112217428Y-45964342D02*
X112217428Y-45678628D01*
X112217428Y-45678628D02*
X112265047Y-45583390D01*
X112265047Y-45583390D02*
X112312666Y-45535771D01*
X112312666Y-45535771D02*
X112407904Y-45488152D01*
X112407904Y-45488152D02*
X112598380Y-45488152D01*
X112598380Y-45488152D02*
X112693618Y-45535771D01*
X113169809Y-46154819D02*
X113169809Y-45488152D01*
X113169809Y-45154819D02*
X113122190Y-45202438D01*
X113122190Y-45202438D02*
X113169809Y-45250057D01*
X113169809Y-45250057D02*
X113217428Y-45202438D01*
X113217428Y-45202438D02*
X113169809Y-45154819D01*
X113169809Y-45154819D02*
X113169809Y-45250057D01*
X113503142Y-45488152D02*
X113884094Y-45488152D01*
X113645999Y-45154819D02*
X113645999Y-46011961D01*
X113645999Y-46011961D02*
X113693618Y-46107200D01*
X113693618Y-46107200D02*
X113788856Y-46154819D01*
X113788856Y-46154819D02*
X113884094Y-46154819D01*
X114645999Y-46154819D02*
X114645999Y-45631009D01*
X114645999Y-45631009D02*
X114598380Y-45535771D01*
X114598380Y-45535771D02*
X114503142Y-45488152D01*
X114503142Y-45488152D02*
X114312666Y-45488152D01*
X114312666Y-45488152D02*
X114217428Y-45535771D01*
X114645999Y-46107200D02*
X114550761Y-46154819D01*
X114550761Y-46154819D02*
X114312666Y-46154819D01*
X114312666Y-46154819D02*
X114217428Y-46107200D01*
X114217428Y-46107200D02*
X114169809Y-46011961D01*
X114169809Y-46011961D02*
X114169809Y-45916723D01*
X114169809Y-45916723D02*
X114217428Y-45821485D01*
X114217428Y-45821485D02*
X114312666Y-45773866D01*
X114312666Y-45773866D02*
X114550761Y-45773866D01*
X114550761Y-45773866D02*
X114645999Y-45726247D01*
X115265047Y-46154819D02*
X115169809Y-46107200D01*
X115169809Y-46107200D02*
X115122190Y-46011961D01*
X115122190Y-46011961D02*
X115122190Y-45154819D01*
X116360285Y-45107200D02*
X115503143Y-46392914D01*
X116693619Y-46154819D02*
X116693619Y-45154819D01*
X116693619Y-45154819D02*
X117074571Y-45154819D01*
X117074571Y-45154819D02*
X117169809Y-45202438D01*
X117169809Y-45202438D02*
X117217428Y-45250057D01*
X117217428Y-45250057D02*
X117265047Y-45345295D01*
X117265047Y-45345295D02*
X117265047Y-45488152D01*
X117265047Y-45488152D02*
X117217428Y-45583390D01*
X117217428Y-45583390D02*
X117169809Y-45631009D01*
X117169809Y-45631009D02*
X117074571Y-45678628D01*
X117074571Y-45678628D02*
X116693619Y-45678628D01*
X117598381Y-45154819D02*
X117836476Y-46154819D01*
X117836476Y-46154819D02*
X118026952Y-45440533D01*
X118026952Y-45440533D02*
X118217428Y-46154819D01*
X118217428Y-46154819D02*
X118455524Y-45154819D01*
X118836476Y-46154819D02*
X118836476Y-45154819D01*
X118836476Y-45154819D02*
X119169809Y-45869104D01*
X119169809Y-45869104D02*
X119503142Y-45154819D01*
X119503142Y-45154819D02*
X119503142Y-46154819D01*
X103382666Y-45154819D02*
X103382666Y-45869104D01*
X103382666Y-45869104D02*
X103335047Y-46011961D01*
X103335047Y-46011961D02*
X103239809Y-46107200D01*
X103239809Y-46107200D02*
X103096952Y-46154819D01*
X103096952Y-46154819D02*
X103001714Y-46154819D01*
X103811238Y-45250057D02*
X103858857Y-45202438D01*
X103858857Y-45202438D02*
X103954095Y-45154819D01*
X103954095Y-45154819D02*
X104192190Y-45154819D01*
X104192190Y-45154819D02*
X104287428Y-45202438D01*
X104287428Y-45202438D02*
X104335047Y-45250057D01*
X104335047Y-45250057D02*
X104382666Y-45345295D01*
X104382666Y-45345295D02*
X104382666Y-45440533D01*
X104382666Y-45440533D02*
X104335047Y-45583390D01*
X104335047Y-45583390D02*
X103763619Y-46154819D01*
X103763619Y-46154819D02*
X104382666Y-46154819D01*
X135172857Y-46154819D02*
X135172857Y-45154819D01*
X135172857Y-45154819D02*
X135410952Y-45154819D01*
X135410952Y-45154819D02*
X135553809Y-45202438D01*
X135553809Y-45202438D02*
X135649047Y-45297676D01*
X135649047Y-45297676D02*
X135696666Y-45392914D01*
X135696666Y-45392914D02*
X135744285Y-45583390D01*
X135744285Y-45583390D02*
X135744285Y-45726247D01*
X135744285Y-45726247D02*
X135696666Y-45916723D01*
X135696666Y-45916723D02*
X135649047Y-46011961D01*
X135649047Y-46011961D02*
X135553809Y-46107200D01*
X135553809Y-46107200D02*
X135410952Y-46154819D01*
X135410952Y-46154819D02*
X135172857Y-46154819D01*
X136172857Y-46154819D02*
X136172857Y-45488152D01*
X136172857Y-45154819D02*
X136125238Y-45202438D01*
X136125238Y-45202438D02*
X136172857Y-45250057D01*
X136172857Y-45250057D02*
X136220476Y-45202438D01*
X136220476Y-45202438D02*
X136172857Y-45154819D01*
X136172857Y-45154819D02*
X136172857Y-45250057D01*
X137077618Y-45488152D02*
X137077618Y-46297676D01*
X137077618Y-46297676D02*
X137029999Y-46392914D01*
X137029999Y-46392914D02*
X136982380Y-46440533D01*
X136982380Y-46440533D02*
X136887142Y-46488152D01*
X136887142Y-46488152D02*
X136744285Y-46488152D01*
X136744285Y-46488152D02*
X136649047Y-46440533D01*
X137077618Y-46107200D02*
X136982380Y-46154819D01*
X136982380Y-46154819D02*
X136791904Y-46154819D01*
X136791904Y-46154819D02*
X136696666Y-46107200D01*
X136696666Y-46107200D02*
X136649047Y-46059580D01*
X136649047Y-46059580D02*
X136601428Y-45964342D01*
X136601428Y-45964342D02*
X136601428Y-45678628D01*
X136601428Y-45678628D02*
X136649047Y-45583390D01*
X136649047Y-45583390D02*
X136696666Y-45535771D01*
X136696666Y-45535771D02*
X136791904Y-45488152D01*
X136791904Y-45488152D02*
X136982380Y-45488152D01*
X136982380Y-45488152D02*
X137077618Y-45535771D01*
X137553809Y-46154819D02*
X137553809Y-45488152D01*
X137553809Y-45154819D02*
X137506190Y-45202438D01*
X137506190Y-45202438D02*
X137553809Y-45250057D01*
X137553809Y-45250057D02*
X137601428Y-45202438D01*
X137601428Y-45202438D02*
X137553809Y-45154819D01*
X137553809Y-45154819D02*
X137553809Y-45250057D01*
X137887142Y-45488152D02*
X138268094Y-45488152D01*
X138029999Y-45154819D02*
X138029999Y-46011961D01*
X138029999Y-46011961D02*
X138077618Y-46107200D01*
X138077618Y-46107200D02*
X138172856Y-46154819D01*
X138172856Y-46154819D02*
X138268094Y-46154819D01*
X139029999Y-46154819D02*
X139029999Y-45631009D01*
X139029999Y-45631009D02*
X138982380Y-45535771D01*
X138982380Y-45535771D02*
X138887142Y-45488152D01*
X138887142Y-45488152D02*
X138696666Y-45488152D01*
X138696666Y-45488152D02*
X138601428Y-45535771D01*
X139029999Y-46107200D02*
X138934761Y-46154819D01*
X138934761Y-46154819D02*
X138696666Y-46154819D01*
X138696666Y-46154819D02*
X138601428Y-46107200D01*
X138601428Y-46107200D02*
X138553809Y-46011961D01*
X138553809Y-46011961D02*
X138553809Y-45916723D01*
X138553809Y-45916723D02*
X138601428Y-45821485D01*
X138601428Y-45821485D02*
X138696666Y-45773866D01*
X138696666Y-45773866D02*
X138934761Y-45773866D01*
X138934761Y-45773866D02*
X139029999Y-45726247D01*
X139649047Y-46154819D02*
X139553809Y-46107200D01*
X139553809Y-46107200D02*
X139506190Y-46011961D01*
X139506190Y-46011961D02*
X139506190Y-45154819D01*
X140744285Y-45107200D02*
X139887143Y-46392914D01*
X141077619Y-46154819D02*
X141077619Y-45154819D01*
X141077619Y-45154819D02*
X141458571Y-45154819D01*
X141458571Y-45154819D02*
X141553809Y-45202438D01*
X141553809Y-45202438D02*
X141601428Y-45250057D01*
X141601428Y-45250057D02*
X141649047Y-45345295D01*
X141649047Y-45345295D02*
X141649047Y-45488152D01*
X141649047Y-45488152D02*
X141601428Y-45583390D01*
X141601428Y-45583390D02*
X141553809Y-45631009D01*
X141553809Y-45631009D02*
X141458571Y-45678628D01*
X141458571Y-45678628D02*
X141077619Y-45678628D01*
X141982381Y-45154819D02*
X142220476Y-46154819D01*
X142220476Y-46154819D02*
X142410952Y-45440533D01*
X142410952Y-45440533D02*
X142601428Y-46154819D01*
X142601428Y-46154819D02*
X142839524Y-45154819D01*
X143220476Y-46154819D02*
X143220476Y-45154819D01*
X143220476Y-45154819D02*
X143553809Y-45869104D01*
X143553809Y-45869104D02*
X143887142Y-45154819D01*
X143887142Y-45154819D02*
X143887142Y-46154819D01*
X130306666Y-45154819D02*
X130306666Y-45869104D01*
X130306666Y-45869104D02*
X130259047Y-46011961D01*
X130259047Y-46011961D02*
X130163809Y-46107200D01*
X130163809Y-46107200D02*
X130020952Y-46154819D01*
X130020952Y-46154819D02*
X129925714Y-46154819D01*
X131211428Y-45488152D02*
X131211428Y-46154819D01*
X130973333Y-45107200D02*
X130735238Y-45821485D01*
X130735238Y-45821485D02*
X131354285Y-45821485D01*
X150746297Y-54108775D02*
X149744604Y-54108775D01*
X150221601Y-54108775D02*
X150221601Y-53536379D01*
X150746297Y-53536379D02*
X149744604Y-53536379D01*
X150650898Y-52486986D02*
X150698598Y-52534686D01*
X150698598Y-52534686D02*
X150746297Y-52677785D01*
X150746297Y-52677785D02*
X150746297Y-52773184D01*
X150746297Y-52773184D02*
X150698598Y-52916283D01*
X150698598Y-52916283D02*
X150603198Y-53011683D01*
X150603198Y-53011683D02*
X150507799Y-53059382D01*
X150507799Y-53059382D02*
X150317000Y-53107082D01*
X150317000Y-53107082D02*
X150173901Y-53107082D01*
X150173901Y-53107082D02*
X149983103Y-53059382D01*
X149983103Y-53059382D02*
X149887703Y-53011683D01*
X149887703Y-53011683D02*
X149792304Y-52916283D01*
X149792304Y-52916283D02*
X149744604Y-52773184D01*
X149744604Y-52773184D02*
X149744604Y-52677785D01*
X149744604Y-52677785D02*
X149792304Y-52534686D01*
X149792304Y-52534686D02*
X149840004Y-52486986D01*
X150364700Y-52057689D02*
X150364700Y-51294495D01*
X150698598Y-50865198D02*
X150746297Y-50722099D01*
X150746297Y-50722099D02*
X150746297Y-50483601D01*
X150746297Y-50483601D02*
X150698598Y-50388201D01*
X150698598Y-50388201D02*
X150650898Y-50340502D01*
X150650898Y-50340502D02*
X150555499Y-50292802D01*
X150555499Y-50292802D02*
X150460099Y-50292802D01*
X150460099Y-50292802D02*
X150364700Y-50340502D01*
X150364700Y-50340502D02*
X150317000Y-50388201D01*
X150317000Y-50388201D02*
X150269301Y-50483601D01*
X150269301Y-50483601D02*
X150221601Y-50674399D01*
X150221601Y-50674399D02*
X150173901Y-50769799D01*
X150173901Y-50769799D02*
X150126202Y-50817498D01*
X150126202Y-50817498D02*
X150030802Y-50865198D01*
X150030802Y-50865198D02*
X149935403Y-50865198D01*
X149935403Y-50865198D02*
X149840004Y-50817498D01*
X149840004Y-50817498D02*
X149792304Y-50769799D01*
X149792304Y-50769799D02*
X149744604Y-50674399D01*
X149744604Y-50674399D02*
X149744604Y-50435901D01*
X149744604Y-50435901D02*
X149792304Y-50292802D01*
X150746297Y-49291109D02*
X150269301Y-49625007D01*
X150746297Y-49863505D02*
X149744604Y-49863505D01*
X149744604Y-49863505D02*
X149744604Y-49481908D01*
X149744604Y-49481908D02*
X149792304Y-49386509D01*
X149792304Y-49386509D02*
X149840004Y-49338809D01*
X149840004Y-49338809D02*
X149935403Y-49291109D01*
X149935403Y-49291109D02*
X150078502Y-49291109D01*
X150078502Y-49291109D02*
X150173901Y-49338809D01*
X150173901Y-49338809D02*
X150221601Y-49386509D01*
X150221601Y-49386509D02*
X150269301Y-49481908D01*
X150269301Y-49481908D02*
X150269301Y-49863505D01*
X149744604Y-48671014D02*
X149744604Y-48575614D01*
X149744604Y-48575614D02*
X149792304Y-48480215D01*
X149792304Y-48480215D02*
X149840004Y-48432515D01*
X149840004Y-48432515D02*
X149935403Y-48384816D01*
X149935403Y-48384816D02*
X150126202Y-48337116D01*
X150126202Y-48337116D02*
X150364700Y-48337116D01*
X150364700Y-48337116D02*
X150555499Y-48384816D01*
X150555499Y-48384816D02*
X150650898Y-48432515D01*
X150650898Y-48432515D02*
X150698598Y-48480215D01*
X150698598Y-48480215D02*
X150746297Y-48575614D01*
X150746297Y-48575614D02*
X150746297Y-48671014D01*
X150746297Y-48671014D02*
X150698598Y-48766413D01*
X150698598Y-48766413D02*
X150650898Y-48814113D01*
X150650898Y-48814113D02*
X150555499Y-48861812D01*
X150555499Y-48861812D02*
X150364700Y-48909512D01*
X150364700Y-48909512D02*
X150126202Y-48909512D01*
X150126202Y-48909512D02*
X149935403Y-48861812D01*
X149935403Y-48861812D02*
X149840004Y-48814113D01*
X149840004Y-48814113D02*
X149792304Y-48766413D01*
X149792304Y-48766413D02*
X149744604Y-48671014D01*
X150078502Y-47478522D02*
X150746297Y-47478522D01*
X149696905Y-47717021D02*
X150412400Y-47955519D01*
X150412400Y-47955519D02*
X150412400Y-47335423D01*
D12*
%TO.C,D1*%
X140785000Y-58310000D02*
G75*
G02*
X135785000Y-58310000I-2500000J0D01*
G01*
X135785000Y-58310000D02*
G75*
G02*
X140785000Y-58310000I2500000J0D01*
G01*
X135785000Y-56840306D02*
G75*
G02*
X135785046Y-59779772I2500000J-1469694D01*
G01*
X135785000Y-56840306D02*
X135785000Y-59779694D01*
D13*
%TO.C,LS1*%
X126920000Y-74810000D02*
G75*
G02*
X114920000Y-74810000I-6000000J0D01*
G01*
X114920000Y-74810000D02*
G75*
G02*
X126920000Y-74810000I6000000J0D01*
G01*
D12*
%TO.C,J1*%
X111590000Y-97135000D02*
X112225000Y-96500000D01*
X111590000Y-99040000D02*
X111590000Y-97135000D01*
X112225000Y-96500000D02*
X131910000Y-96500000D01*
X131910000Y-96500000D02*
X131910000Y-99040000D01*
X131910000Y-99040000D02*
X111590000Y-99040000D01*
%TO.C,J3*%
X134450000Y-97135000D02*
X135085000Y-96500000D01*
X134450000Y-99040000D02*
X134450000Y-97135000D01*
X135085000Y-96500000D02*
X149690000Y-96500000D01*
X149690000Y-96500000D02*
X149690000Y-99040000D01*
X149690000Y-99040000D02*
X134450000Y-99040000D01*
%TO.C,J2*%
X102446000Y-48875000D02*
X103081000Y-48240000D01*
X102446000Y-50780000D02*
X102446000Y-48875000D01*
X103081000Y-48240000D02*
X127846000Y-48240000D01*
X127846000Y-48240000D02*
X127846000Y-50780000D01*
X127846000Y-50780000D02*
X102446000Y-50780000D01*
%TO.C,J4*%
X129370000Y-48875000D02*
X130005000Y-48240000D01*
X129370000Y-50780000D02*
X129370000Y-48875000D01*
X130005000Y-48240000D02*
X149690000Y-48240000D01*
X149690000Y-48240000D02*
X149690000Y-50780000D01*
X149690000Y-50780000D02*
X129370000Y-50780000D01*
%TD*%
M02*
