%TF.GenerationSoftware,KiCad,Pcbnew,9.0.0*%
%TF.CreationDate,2025-02-27T00:07:18-07:00*%
%TF.ProjectId,bubble_detector_v2.1,62756262-6c65-45f6-9465-746563746f72,rev?*%
%TF.SameCoordinates,Original*%
%TF.FileFunction,Copper,L2,Bot*%
%TF.FilePolarity,Positive*%
%FSLAX46Y46*%
G04 Gerber Fmt 4.6, Leading zero omitted, Abs format (unit mm)*
G04 Created by KiCad (PCBNEW 9.0.0) date 2025-02-27 00:07:18*
%MOMM*%
%LPD*%
G01*
G04 APERTURE LIST*
%TA.AperFunction,ComponentPad*%
%ADD10O,1.070000X1.800000*%
%TD*%
%TA.AperFunction,ComponentPad*%
%ADD11R,1.070000X1.800000*%
%TD*%
%TA.AperFunction,ComponentPad*%
%ADD12C,1.308000*%
%TD*%
%TA.AperFunction,ComponentPad*%
%ADD13R,1.700000X1.700000*%
%TD*%
%TA.AperFunction,ComponentPad*%
%ADD14O,1.700000X1.700000*%
%TD*%
%TA.AperFunction,ComponentPad*%
%ADD15C,1.530000*%
%TD*%
%TA.AperFunction,ViaPad*%
%ADD16C,0.600000*%
%TD*%
%TA.AperFunction,Conductor*%
%ADD17C,0.250000*%
%TD*%
G04 APERTURE END LIST*
D10*
%TO.P,D1,4,BK*%
%TO.N,/\u002A3*%
X140190000Y-58310000D03*
%TO.P,D1,3,GK*%
%TO.N,/4*%
X138920000Y-58310000D03*
%TO.P,D1,2,A*%
%TO.N,+5V*%
X137650000Y-58310000D03*
D11*
%TO.P,D1,1,RK*%
%TO.N,/\u002A5*%
X136380000Y-58310000D03*
%TD*%
D12*
%TO.P,LS1,N*%
%TO.N,GND1*%
X117670000Y-74810000D03*
%TO.P,LS1,P*%
%TO.N,/\u002A9*%
X124170000Y-74810000D03*
%TD*%
D13*
%TO.P,J1,1,Pin_1*%
%TO.N,unconnected-(J1-Pin_1-Pad1)*%
X112860000Y-97770000D03*
D14*
%TO.P,J1,2,Pin_2*%
%TO.N,/IOREF*%
X115400000Y-97770000D03*
%TO.P,J1,3,Pin_3*%
%TO.N,/~{RESET}*%
X117940000Y-97770000D03*
%TO.P,J1,4,Pin_4*%
%TO.N,+3V3*%
X120480000Y-97770000D03*
%TO.P,J1,5,Pin_5*%
%TO.N,+5V*%
X123020000Y-97770000D03*
%TO.P,J1,6,Pin_6*%
%TO.N,GND1*%
X125560000Y-97770000D03*
%TO.P,J1,7,Pin_7*%
X128100000Y-97770000D03*
%TO.P,J1,8,Pin_8*%
%TO.N,VCC*%
X130640000Y-97770000D03*
%TD*%
D13*
%TO.P,J3,1,Pin_1*%
%TO.N,/A0*%
X135720000Y-97770000D03*
D14*
%TO.P,J3,2,Pin_2*%
%TO.N,/A1*%
X138260000Y-97770000D03*
%TO.P,J3,3,Pin_3*%
%TO.N,/A2*%
X140800000Y-97770000D03*
%TO.P,J3,4,Pin_4*%
%TO.N,/A3*%
X143340000Y-97770000D03*
%TO.P,J3,5,Pin_5*%
%TO.N,/SDA{slash}A4_1*%
X145880000Y-97770000D03*
%TO.P,J3,6,Pin_6*%
%TO.N,/SCL{slash}A5_1*%
X148420000Y-97770000D03*
%TD*%
D13*
%TO.P,J2,1,Pin_1*%
%TO.N,/SCL{slash}A5_2*%
X103716000Y-49510000D03*
D14*
%TO.P,J2,2,Pin_2*%
%TO.N,/SDA{slash}A4_2*%
X106256000Y-49510000D03*
%TO.P,J2,3,Pin_3*%
%TO.N,/AREF*%
X108796000Y-49510000D03*
%TO.P,J2,4,Pin_4*%
%TO.N,GND2*%
X111336000Y-49510000D03*
%TO.P,J2,5,Pin_5*%
%TO.N,/13*%
X113876000Y-49510000D03*
%TO.P,J2,6,Pin_6*%
%TO.N,/12*%
X116416000Y-49510000D03*
%TO.P,J2,7,Pin_7*%
%TO.N,/\u002A11*%
X118956000Y-49510000D03*
%TO.P,J2,8,Pin_8*%
%TO.N,/\u002A10*%
X121496000Y-49510000D03*
%TO.P,J2,9,Pin_9*%
%TO.N,/\u002A9*%
X124036000Y-49510000D03*
%TO.P,J2,10,Pin_10*%
%TO.N,/8*%
X126576000Y-49510000D03*
%TD*%
D13*
%TO.P,J4,1,Pin_1*%
%TO.N,/7*%
X130640000Y-49510000D03*
D14*
%TO.P,J4,2,Pin_2*%
%TO.N,/\u002A6*%
X133180000Y-49510000D03*
%TO.P,J4,3,Pin_3*%
%TO.N,/\u002A5*%
X135720000Y-49510000D03*
%TO.P,J4,4,Pin_4*%
%TO.N,/4*%
X138260000Y-49510000D03*
%TO.P,J4,5,Pin_5*%
%TO.N,/\u002A3*%
X140800000Y-49510000D03*
%TO.P,J4,6,Pin_6*%
%TO.N,/2*%
X143340000Y-49510000D03*
%TO.P,J4,7,Pin_7*%
%TO.N,/TX{slash}1*%
X145880000Y-49510000D03*
%TO.P,J4,8,Pin_8*%
%TO.N,/RX{slash}0*%
X148420000Y-49510000D03*
%TD*%
D15*
%TO.P,U1,1,VCC*%
%TO.N,+5V*%
X146920000Y-78390000D03*
%TO.P,U1,2,TRIG*%
%TO.N,/12*%
X146920000Y-75850000D03*
%TO.P,U1,3,ECHO*%
%TO.N,/\u002A11*%
X146920000Y-73310000D03*
%TO.P,U1,4,GND*%
%TO.N,GND1*%
X146920000Y-70770000D03*
%TD*%
D16*
%TO.N,GND1*%
X136420000Y-70811000D03*
X125560000Y-82450000D03*
%TD*%
D17*
%TO.N,GND1*%
X125560000Y-97770000D02*
X128100000Y-97770000D01*
X136461000Y-70770000D02*
X146920000Y-70770000D01*
X136420000Y-70811000D02*
X136461000Y-70770000D01*
%TO.N,/\u002A11*%
X118956000Y-54846000D02*
X137420000Y-73310000D01*
X118956000Y-49510000D02*
X118956000Y-54846000D01*
X137420000Y-73310000D02*
X146920000Y-73310000D01*
%TO.N,/12*%
X138960000Y-75850000D02*
X146920000Y-75850000D01*
X116416000Y-53306000D02*
X138960000Y-75850000D01*
X116416000Y-49510000D02*
X116416000Y-53306000D01*
%TO.N,GND1*%
X125560000Y-82450000D02*
X118371000Y-75261000D01*
X118371000Y-75261000D02*
X117670000Y-75261000D01*
X125560000Y-97770000D02*
X125560000Y-82450000D01*
%TO.N,/\u002A3*%
X140800000Y-52930000D02*
X140800000Y-49510000D01*
X140190000Y-53540000D02*
X140800000Y-52930000D01*
X140190000Y-58310000D02*
X140190000Y-53540000D01*
%TO.N,/4*%
X138260000Y-52650000D02*
X138260000Y-49510000D01*
X138920000Y-53310000D02*
X138260000Y-52650000D01*
X138920000Y-58310000D02*
X138920000Y-53310000D01*
%TO.N,/\u002A5*%
X136420000Y-52810000D02*
X136380000Y-52850000D01*
X135720000Y-52110000D02*
X136420000Y-52810000D01*
X136380000Y-52850000D02*
X136380000Y-58310000D01*
X135720000Y-49510000D02*
X135720000Y-52110000D01*
%TD*%
M02*
