%TF.GenerationSoftware,KiCad,Pcbnew,9.0.0*%
%TF.CreationDate,2025-03-04T02:14:33-07:00*%
%TF.ProjectId,bubble_detector_v2.1,62756262-6c65-45f6-9465-746563746f72,2.1*%
%TF.SameCoordinates,Original*%
%TF.FileFunction,Legend,Bot*%
%TF.FilePolarity,Positive*%
%FSLAX46Y46*%
G04 Gerber Fmt 4.6, Leading zero omitted, Abs format (unit mm)*
G04 Created by KiCad (PCBNEW 9.0.0) date 2025-03-04 02:14:33*
%MOMM*%
%LPD*%
G01*
G04 APERTURE LIST*
%ADD10C,0.000000*%
G04 APERTURE END LIST*
D10*
%TO.C,G\u002A\u002A\u002A*%
G36*
X126088854Y-63580817D02*
G01*
X126364855Y-63585927D01*
X126624123Y-63595313D01*
X126846650Y-63608814D01*
X127026874Y-63624117D01*
X127881556Y-63730418D01*
X128699947Y-63890869D01*
X129491291Y-64107927D01*
X130264830Y-64384053D01*
X131029807Y-64721705D01*
X131794140Y-65124649D01*
X132554273Y-65599870D01*
X133268488Y-66127515D01*
X133937346Y-66708072D01*
X134561409Y-67342031D01*
X135141239Y-68029883D01*
X135677397Y-68772115D01*
X136043589Y-69358880D01*
X136450993Y-70127009D01*
X136796958Y-70922132D01*
X137081053Y-71740071D01*
X137302844Y-72576644D01*
X137461899Y-73427672D01*
X137557783Y-74288972D01*
X137590065Y-75156367D01*
X137558311Y-76025674D01*
X137462088Y-76892713D01*
X137300963Y-77753304D01*
X137074502Y-78603267D01*
X136782274Y-79438421D01*
X136628309Y-79829589D01*
X136793792Y-79979217D01*
X136860666Y-80039811D01*
X137400516Y-80539601D01*
X137886999Y-81011013D01*
X138325977Y-81460666D01*
X138723312Y-81895177D01*
X139084868Y-82321167D01*
X139416505Y-82745252D01*
X139724086Y-83174051D01*
X140013474Y-83614184D01*
X140056395Y-83683445D01*
X140185931Y-83904089D01*
X140320241Y-84147725D01*
X140453531Y-84402510D01*
X140580004Y-84656603D01*
X140693864Y-84898162D01*
X140789317Y-85115346D01*
X140860565Y-85296314D01*
X140901815Y-85429222D01*
X140904010Y-85439057D01*
X140907400Y-85476938D01*
X140888906Y-85473755D01*
X140841854Y-85424596D01*
X140759570Y-85324552D01*
X140657759Y-85199429D01*
X140094789Y-84559294D01*
X139474230Y-83935821D01*
X138793704Y-83326975D01*
X138050832Y-82730721D01*
X137243238Y-82145027D01*
X136368543Y-81567857D01*
X136241144Y-81488043D01*
X136089307Y-81395839D01*
X135981918Y-81335979D01*
X135910853Y-81304467D01*
X135867986Y-81297309D01*
X135845192Y-81310508D01*
X135838161Y-81320579D01*
X135794348Y-81383681D01*
X135721915Y-81488213D01*
X135629067Y-81622332D01*
X135524007Y-81774193D01*
X135499791Y-81809055D01*
X134990074Y-82481682D01*
X134423998Y-83121798D01*
X133808580Y-83723437D01*
X133150839Y-84280633D01*
X132457791Y-84787419D01*
X131736453Y-85237830D01*
X130993844Y-85625898D01*
X130598330Y-85804270D01*
X129780326Y-86119583D01*
X128947419Y-86368845D01*
X128095338Y-86553063D01*
X127219813Y-86673248D01*
X126316572Y-86730406D01*
X125824496Y-86734193D01*
X124929978Y-86688640D01*
X124050439Y-86576278D01*
X123188796Y-86398518D01*
X122347970Y-86156773D01*
X121530878Y-85852454D01*
X120740441Y-85486973D01*
X119979577Y-85061743D01*
X119251206Y-84578176D01*
X118558247Y-84037684D01*
X117903618Y-83441678D01*
X117290239Y-82791571D01*
X116721029Y-82088775D01*
X116667713Y-82017329D01*
X116439413Y-81701842D01*
X116241390Y-81408537D01*
X116059965Y-81115527D01*
X115881456Y-80800929D01*
X115692185Y-80442857D01*
X115617709Y-80295637D01*
X115251958Y-79483459D01*
X114953447Y-78653256D01*
X114722025Y-77804397D01*
X114557541Y-76936249D01*
X114459845Y-76048181D01*
X114428787Y-75139560D01*
X114429875Y-74979989D01*
X114436283Y-74760163D01*
X114807204Y-74760163D01*
X114807470Y-75657111D01*
X114873284Y-76537402D01*
X115004008Y-77398593D01*
X115199002Y-78238242D01*
X115457625Y-79053906D01*
X115779239Y-79843141D01*
X116163205Y-80603505D01*
X116608881Y-81332555D01*
X116757500Y-81551960D01*
X116938437Y-81808127D01*
X117112893Y-82039480D01*
X117292576Y-82260276D01*
X117489195Y-82484768D01*
X117714461Y-82727212D01*
X117980081Y-83001861D01*
X118434479Y-83448377D01*
X118890334Y-83857706D01*
X119343683Y-84222358D01*
X119807494Y-84552129D01*
X120294731Y-84856813D01*
X120818361Y-85146208D01*
X121560662Y-85497415D01*
X122361386Y-85801676D01*
X123187595Y-86043006D01*
X124035712Y-86220803D01*
X124902158Y-86334465D01*
X125783355Y-86383388D01*
X126675724Y-86366970D01*
X127575687Y-86284607D01*
X128366626Y-86152985D01*
X129201227Y-85946709D01*
X130017351Y-85674744D01*
X130811071Y-85338763D01*
X131578461Y-84940441D01*
X132315594Y-84481452D01*
X133018544Y-83963471D01*
X133028502Y-83955488D01*
X133224892Y-83789546D01*
X133451941Y-83584540D01*
X133697625Y-83352445D01*
X133949915Y-83105238D01*
X134196785Y-82854894D01*
X134426209Y-82613390D01*
X134626159Y-82392703D01*
X134784610Y-82204808D01*
X134906241Y-82048735D01*
X135035017Y-81877076D01*
X135162961Y-81701117D01*
X135283155Y-81530819D01*
X135388681Y-81376144D01*
X135472622Y-81247053D01*
X135528060Y-81153507D01*
X135548077Y-81105468D01*
X135517496Y-81068841D01*
X135429390Y-81005600D01*
X135289442Y-80918769D01*
X135103336Y-80811342D01*
X134876754Y-80686314D01*
X134615380Y-80546683D01*
X134324896Y-80395441D01*
X134010987Y-80235586D01*
X133679335Y-80070113D01*
X133335623Y-79902016D01*
X132985534Y-79734292D01*
X132634753Y-79569936D01*
X132226954Y-79382674D01*
X131553194Y-79080975D01*
X130898752Y-78798587D01*
X130238171Y-78524617D01*
X129545993Y-78248169D01*
X129412866Y-78194943D01*
X129248867Y-78126420D01*
X129117206Y-78067896D01*
X129028849Y-78024297D01*
X128994760Y-78000549D01*
X128994523Y-77991271D01*
X129020628Y-77930304D01*
X129080037Y-77837983D01*
X129160840Y-77729091D01*
X129251125Y-77618411D01*
X129338980Y-77520726D01*
X129412493Y-77450819D01*
X129459753Y-77423473D01*
X129526322Y-77413873D01*
X129636940Y-77390678D01*
X129766660Y-77359009D01*
X130003788Y-77297178D01*
X130218323Y-77448246D01*
X130236183Y-77460765D01*
X130339775Y-77531036D01*
X130418470Y-77580569D01*
X130456426Y-77599313D01*
X130457091Y-77599221D01*
X130472103Y-77564275D01*
X130488782Y-77478402D01*
X130503641Y-77359335D01*
X130527288Y-77119357D01*
X130918108Y-77273413D01*
X131235606Y-77400859D01*
X132035531Y-77742362D01*
X132813025Y-78103280D01*
X133556278Y-78477761D01*
X134253482Y-78859948D01*
X134892829Y-79243989D01*
X134918324Y-79260016D01*
X135061915Y-79347435D01*
X135183505Y-79416839D01*
X135270939Y-79461533D01*
X135312063Y-79474825D01*
X135314363Y-79470800D01*
X135286325Y-79431184D01*
X135208421Y-79353014D01*
X135084477Y-79239653D01*
X134918318Y-79094463D01*
X134713770Y-78920807D01*
X134474658Y-78722048D01*
X134204807Y-78501547D01*
X133707512Y-78103305D01*
X132858768Y-77448288D01*
X132023193Y-76835909D01*
X131186195Y-76255310D01*
X131129209Y-76216845D01*
X130950795Y-76096053D01*
X130794212Y-75989502D01*
X130668478Y-75903362D01*
X130582615Y-75843807D01*
X130545644Y-75817009D01*
X130537578Y-75789850D01*
X130556342Y-75736171D01*
X130606877Y-75646163D01*
X130693980Y-75509892D01*
X130702189Y-75504540D01*
X130736057Y-75509728D01*
X130797972Y-75537463D01*
X130892774Y-75590671D01*
X131025307Y-75672283D01*
X131200412Y-75785223D01*
X131422931Y-75932422D01*
X131697707Y-76116806D01*
X131700890Y-76118952D01*
X132093724Y-76384489D01*
X132439742Y-76620105D01*
X132750466Y-76833972D01*
X133037418Y-77034266D01*
X133312117Y-77229157D01*
X133586086Y-77426822D01*
X133870845Y-77635432D01*
X134177915Y-77863161D01*
X134518818Y-78118183D01*
X134963366Y-78456572D01*
X135514541Y-78891953D01*
X136030251Y-79318930D01*
X136038389Y-79325828D01*
X136162720Y-79429500D01*
X136265795Y-79512381D01*
X136337090Y-79566206D01*
X136366081Y-79582706D01*
X136366950Y-79581328D01*
X136385693Y-79537518D01*
X136423156Y-79442878D01*
X136474375Y-79310112D01*
X136534387Y-79151923D01*
X136713594Y-78635052D01*
X136874129Y-78072539D01*
X137008942Y-77477255D01*
X137122461Y-76831731D01*
X137122759Y-76829802D01*
X137145525Y-76674131D01*
X137163506Y-76528489D01*
X137177274Y-76381473D01*
X137187401Y-76221684D01*
X137194459Y-76037722D01*
X137199018Y-75818185D01*
X137201651Y-75551673D01*
X137202928Y-75226786D01*
X137202952Y-74949374D01*
X137200387Y-74614164D01*
X137193856Y-74326727D01*
X137182323Y-74074272D01*
X137164750Y-73844012D01*
X137140101Y-73623158D01*
X137107337Y-73398922D01*
X137065422Y-73158515D01*
X137013319Y-72889148D01*
X136860252Y-72229289D01*
X136605730Y-71401344D01*
X136287813Y-70598925D01*
X135908367Y-69825747D01*
X135469254Y-69085528D01*
X134972340Y-68381983D01*
X134419488Y-67718829D01*
X134342247Y-67634130D01*
X133699233Y-66982985D01*
X133025930Y-66394545D01*
X132322621Y-65868960D01*
X131589589Y-65406380D01*
X130827116Y-65006955D01*
X130035484Y-64670834D01*
X129214976Y-64398168D01*
X128365874Y-64189106D01*
X127488461Y-64043797D01*
X127410009Y-64035108D01*
X127215227Y-64019368D01*
X126973297Y-64005040D01*
X126698815Y-63992535D01*
X126406376Y-63982267D01*
X126110578Y-63974646D01*
X125826017Y-63970084D01*
X125567288Y-63968992D01*
X125348989Y-63971782D01*
X125185714Y-63978866D01*
X124517818Y-64045482D01*
X123652235Y-64189763D01*
X122810406Y-64397001D01*
X121995442Y-64666135D01*
X121210455Y-64996104D01*
X120458556Y-65385847D01*
X119742857Y-65834305D01*
X119606025Y-65930870D01*
X119431231Y-66059591D01*
X119244047Y-66201776D01*
X119055954Y-66348356D01*
X118878432Y-66490259D01*
X118722963Y-66618416D01*
X118601027Y-66723754D01*
X118524105Y-66797205D01*
X118474707Y-66855602D01*
X118462870Y-66896560D01*
X118493007Y-66931916D01*
X118960273Y-67307804D01*
X119591281Y-67810900D01*
X120193616Y-68285094D01*
X120774133Y-68735292D01*
X121339687Y-69166400D01*
X121897133Y-69583324D01*
X122453326Y-69990969D01*
X123015121Y-70394241D01*
X123589373Y-70798045D01*
X124182937Y-71207288D01*
X124802668Y-71626875D01*
X125455420Y-72061711D01*
X126148049Y-72516703D01*
X126887410Y-72996757D01*
X127680357Y-73506777D01*
X127831775Y-73603797D01*
X128298160Y-73902803D01*
X128725753Y-74177210D01*
X129112328Y-74425582D01*
X129455659Y-74646483D01*
X129753517Y-74838477D01*
X130003678Y-75000126D01*
X130203914Y-75129995D01*
X130351998Y-75226648D01*
X130445705Y-75288647D01*
X130482807Y-75314558D01*
X130483182Y-75315808D01*
X130467596Y-75353211D01*
X130428725Y-75425519D01*
X130378786Y-75511586D01*
X130329994Y-75590267D01*
X130294564Y-75640416D01*
X130267020Y-75628577D01*
X130189587Y-75584566D01*
X130071839Y-75513722D01*
X129923246Y-75421752D01*
X129753277Y-75314357D01*
X129742000Y-75307168D01*
X129539421Y-75178859D01*
X129298167Y-75027277D01*
X129037872Y-74864691D01*
X128778172Y-74703365D01*
X128538702Y-74555569D01*
X128517292Y-74542402D01*
X128078068Y-74269494D01*
X127602125Y-73968944D01*
X127097483Y-73646089D01*
X126572165Y-73306264D01*
X126034193Y-72954805D01*
X125491589Y-72597047D01*
X124952374Y-72238325D01*
X124424572Y-71883975D01*
X123916202Y-71539333D01*
X123435289Y-71209734D01*
X122989852Y-70900514D01*
X122587915Y-70617007D01*
X122237500Y-70364551D01*
X122180122Y-70322568D01*
X121520452Y-69828765D01*
X120871228Y-69322820D01*
X120242873Y-68813342D01*
X119645812Y-68308939D01*
X119090467Y-67818220D01*
X118587264Y-67349795D01*
X118478748Y-67248196D01*
X118359109Y-67146131D01*
X118277503Y-67092091D01*
X118229794Y-67082986D01*
X118197126Y-67104451D01*
X118118276Y-67175413D01*
X118007945Y-67286454D01*
X117873490Y-67429325D01*
X117722269Y-67595775D01*
X117561639Y-67777555D01*
X117398959Y-67966417D01*
X117241585Y-68154110D01*
X117096876Y-68332386D01*
X116972190Y-68492995D01*
X116962168Y-68506322D01*
X116470394Y-69214506D01*
X116045225Y-69941177D01*
X115685261Y-70689235D01*
X115389102Y-71461584D01*
X115155350Y-72261126D01*
X115126170Y-72376899D01*
X115098753Y-72483202D01*
X115081854Y-72545769D01*
X115080695Y-72555444D01*
X115096609Y-72583911D01*
X115146639Y-72618889D01*
X115238730Y-72664487D01*
X115380827Y-72724818D01*
X115580876Y-72803993D01*
X115725487Y-72860437D01*
X115883969Y-72924804D01*
X116002298Y-72979092D01*
X116095133Y-73031961D01*
X116177130Y-73092073D01*
X116262946Y-73168088D01*
X116367239Y-73268669D01*
X116438542Y-73339549D01*
X116556909Y-73466562D01*
X116622235Y-73554388D01*
X116636062Y-73605368D01*
X116599931Y-73621841D01*
X116576361Y-73613873D01*
X116496433Y-73578711D01*
X116369714Y-73519415D01*
X116205182Y-73440268D01*
X116011815Y-73345552D01*
X115798590Y-73239551D01*
X115639031Y-73160552D01*
X115442201Y-73065731D01*
X115272828Y-72987154D01*
X115139574Y-72928714D01*
X115051099Y-72894305D01*
X115016067Y-72887821D01*
X115006785Y-72910159D01*
X114984834Y-73001755D01*
X114959735Y-73146232D01*
X114932853Y-73332416D01*
X114905551Y-73549134D01*
X114879195Y-73785212D01*
X114855149Y-74029475D01*
X114834778Y-74270750D01*
X114819446Y-74497863D01*
X114807204Y-74760163D01*
X114436283Y-74760163D01*
X114444706Y-74471211D01*
X114478472Y-73996735D01*
X114533447Y-73530569D01*
X114611906Y-73046719D01*
X114634589Y-72911436D01*
X114652768Y-72776948D01*
X114660595Y-72681123D01*
X114656444Y-72638851D01*
X114633042Y-72623598D01*
X114555650Y-72579332D01*
X114435223Y-72513041D01*
X114282471Y-72430604D01*
X114108104Y-72337899D01*
X113888927Y-72221390D01*
X113619876Y-72075285D01*
X113412273Y-71958131D01*
X113265167Y-71869368D01*
X113177602Y-71808436D01*
X113148626Y-71774776D01*
X113172097Y-71749123D01*
X113238737Y-71722723D01*
X113272534Y-71718331D01*
X113346850Y-71731073D01*
X113450214Y-71774656D01*
X113596361Y-71854125D01*
X113697515Y-71910891D01*
X113844358Y-71990275D01*
X114008944Y-72076931D01*
X114179941Y-72165133D01*
X114346015Y-72249156D01*
X114495833Y-72323277D01*
X114618061Y-72381770D01*
X114701365Y-72418911D01*
X114734413Y-72428975D01*
X114734759Y-72428372D01*
X114747901Y-72387455D01*
X114775066Y-72293500D01*
X114812495Y-72159751D01*
X114856423Y-71999451D01*
X115005397Y-71509011D01*
X115206138Y-70955345D01*
X115438547Y-70399818D01*
X115692622Y-69866224D01*
X115958359Y-69378356D01*
X116174638Y-69021823D01*
X116484157Y-68553988D01*
X116813805Y-68106247D01*
X117177131Y-67660473D01*
X117587684Y-67198539D01*
X117992817Y-66758891D01*
X117436161Y-66261915D01*
X117429281Y-66255772D01*
X117239743Y-66085694D01*
X117046462Y-65910856D01*
X116863434Y-65744012D01*
X116704655Y-65597919D01*
X116584120Y-65485334D01*
X116523549Y-65427759D01*
X116415720Y-65321882D01*
X116347060Y-65245195D01*
X116308834Y-65185306D01*
X116292304Y-65129824D01*
X116288736Y-65066357D01*
X116288736Y-64926986D01*
X116733585Y-65354700D01*
X116771470Y-65390955D01*
X116918824Y-65529557D01*
X117084891Y-65682757D01*
X117261888Y-65843682D01*
X117442035Y-66005456D01*
X117617550Y-66161204D01*
X117780649Y-66304052D01*
X117923552Y-66427123D01*
X118038475Y-66523543D01*
X118117638Y-66586436D01*
X118153259Y-66608929D01*
X118157434Y-66607176D01*
X118202860Y-66574647D01*
X118288169Y-66507333D01*
X118403077Y-66413473D01*
X118537303Y-66301301D01*
X119158823Y-65811831D01*
X119897269Y-65312738D01*
X120670013Y-64873478D01*
X121473798Y-64495881D01*
X122305365Y-64181780D01*
X122609019Y-64084346D01*
X123115523Y-63940982D01*
X123621332Y-63823891D01*
X124143769Y-63729696D01*
X124700160Y-63655019D01*
X125307829Y-63596485D01*
X125360553Y-63592744D01*
X125566693Y-63584065D01*
X125816130Y-63580143D01*
X126088854Y-63580817D01*
G37*
G36*
X121757230Y-66451923D02*
G01*
X121805022Y-66541709D01*
X121892440Y-66632276D01*
X121993269Y-66695609D01*
X122026595Y-66709826D01*
X122042802Y-66726028D01*
X121995258Y-66740299D01*
X121975386Y-66747441D01*
X121897845Y-66803825D01*
X121818788Y-66892615D01*
X121760213Y-66990404D01*
X121756958Y-66997724D01*
X121740130Y-67018963D01*
X121734045Y-66974306D01*
X121731561Y-66956182D01*
X121687147Y-66873818D01*
X121604216Y-66795917D01*
X121504807Y-66744569D01*
X121435027Y-66723204D01*
X121504807Y-66695757D01*
X121522689Y-66688113D01*
X121624365Y-66622137D01*
X121702287Y-66537038D01*
X121735640Y-66454564D01*
X121737621Y-66422569D01*
X121743265Y-66403103D01*
X121757230Y-66451923D01*
G37*
G36*
X131395876Y-66916871D02*
G01*
X131424748Y-66986730D01*
X131418244Y-67045295D01*
X131363690Y-67062500D01*
X131362483Y-67062490D01*
X131307329Y-67034490D01*
X131288362Y-66973472D01*
X131315470Y-66910583D01*
X131348029Y-66893898D01*
X131395876Y-66916871D01*
G37*
G36*
X122824986Y-67803051D02*
G01*
X122840666Y-67860239D01*
X122826807Y-67890286D01*
X122769068Y-67928208D01*
X122745663Y-67928759D01*
X122696756Y-67897755D01*
X122679998Y-67843073D01*
X122708991Y-67794899D01*
X122769243Y-67778777D01*
X122824986Y-67803051D01*
G37*
G36*
X121520984Y-68055340D02*
G01*
X121545307Y-68104832D01*
X121524520Y-68157688D01*
X121450413Y-68178984D01*
X121448621Y-68178959D01*
X121397463Y-68150230D01*
X121380082Y-68089100D01*
X121405952Y-68027793D01*
X121409036Y-68024811D01*
X121461247Y-68007710D01*
X121520984Y-68055340D01*
G37*
G36*
X125390142Y-68055468D02*
G01*
X125418304Y-68104353D01*
X125385086Y-68169015D01*
X125328927Y-68201470D01*
X125276777Y-68181395D01*
X125255494Y-68107144D01*
X125266089Y-68065354D01*
X125323215Y-68039423D01*
X125390142Y-68055468D01*
G37*
G36*
X131024138Y-68599488D02*
G01*
X131331478Y-68684008D01*
X131598551Y-68820528D01*
X131821011Y-69007908D01*
X131832507Y-69020282D01*
X131956634Y-69169838D01*
X132052639Y-69325074D01*
X132131730Y-69507283D01*
X132205112Y-69737762D01*
X132216011Y-69777107D01*
X132244301Y-69895839D01*
X132263373Y-70015428D01*
X132274844Y-70153092D01*
X132280328Y-70326047D01*
X132281439Y-70551511D01*
X132280015Y-70677585D01*
X132252354Y-71154804D01*
X132187419Y-71635026D01*
X132082488Y-72134903D01*
X131934838Y-72671085D01*
X131911946Y-72745281D01*
X131873048Y-72858228D01*
X131840506Y-72922829D01*
X131806595Y-72952068D01*
X131763591Y-72958929D01*
X131679699Y-72958929D01*
X131781520Y-72657702D01*
X131800802Y-72599148D01*
X131859574Y-72407515D01*
X131919410Y-72196979D01*
X131969947Y-72003513D01*
X132052974Y-71626946D01*
X132130988Y-71123525D01*
X132161629Y-70662030D01*
X132145311Y-70243981D01*
X132082445Y-69870901D01*
X131973443Y-69544311D01*
X131818718Y-69265733D01*
X131618681Y-69036689D01*
X131373744Y-68858699D01*
X131084320Y-68733286D01*
X130906067Y-68692382D01*
X130659518Y-68665791D01*
X130386447Y-68660594D01*
X130108163Y-68677095D01*
X129845974Y-68715599D01*
X129806255Y-68723403D01*
X129682938Y-68745211D01*
X129593581Y-68757294D01*
X129555321Y-68757198D01*
X129559386Y-68752005D01*
X129611305Y-68733602D01*
X129709225Y-68707671D01*
X129837928Y-68677671D01*
X129982198Y-68647059D01*
X130126817Y-68619294D01*
X130256568Y-68597833D01*
X130306045Y-68591007D01*
X130680878Y-68568108D01*
X131024138Y-68599488D01*
G37*
G36*
X133759454Y-68771327D02*
G01*
X133778024Y-68823828D01*
X133841537Y-68914484D01*
X133925293Y-68987383D01*
X134005987Y-69019101D01*
X134006138Y-69019108D01*
X134043282Y-69025072D01*
X134012912Y-69040899D01*
X133945972Y-69078807D01*
X133861622Y-69153870D01*
X133794056Y-69238911D01*
X133764634Y-69310717D01*
X133762661Y-69342512D01*
X133757025Y-69361985D01*
X133742968Y-69313001D01*
X133740851Y-69305736D01*
X133691037Y-69222145D01*
X133603130Y-69130747D01*
X133498467Y-69054134D01*
X133474848Y-69040088D01*
X133456423Y-69021435D01*
X133499949Y-69017407D01*
X133564642Y-68993542D01*
X133643661Y-68926811D01*
X133708863Y-68840540D01*
X133738542Y-68758298D01*
X133740839Y-68729977D01*
X133747293Y-68717457D01*
X133759454Y-68771327D01*
G37*
G36*
X129460778Y-68774633D02*
G01*
X129465568Y-68795375D01*
X129460454Y-68799551D01*
X129419047Y-68795375D01*
X129413589Y-68784881D01*
X129442307Y-68772115D01*
X129460778Y-68774633D01*
G37*
G36*
X122683441Y-68902707D02*
G01*
X122708516Y-68981995D01*
X122708512Y-68982830D01*
X122680333Y-69045662D01*
X122616747Y-69071213D01*
X122547088Y-69047566D01*
X122515476Y-69012054D01*
X122505181Y-68941102D01*
X122559864Y-68881180D01*
X122622135Y-68867478D01*
X122683441Y-68902707D01*
G37*
G36*
X127614970Y-68853679D02*
G01*
X127651542Y-68899286D01*
X127628474Y-68963465D01*
X127569112Y-68996047D01*
X127513177Y-68974117D01*
X127488461Y-68907943D01*
X127498924Y-68867883D01*
X127556182Y-68841896D01*
X127614970Y-68853679D01*
G37*
G36*
X119188292Y-68926059D02*
G01*
X119233819Y-68968433D01*
X119236736Y-69024558D01*
X119197561Y-69091612D01*
X119129235Y-69121016D01*
X119129045Y-69121016D01*
X119074859Y-69091456D01*
X119037355Y-69025225D01*
X119035232Y-68955288D01*
X119054326Y-68930832D01*
X119117249Y-68912783D01*
X119188292Y-68926059D01*
G37*
G36*
X134363122Y-68994907D02*
G01*
X134414435Y-69036990D01*
X134421784Y-69091845D01*
X134377822Y-69134185D01*
X134339245Y-69144226D01*
X134278426Y-69123859D01*
X134257143Y-69046751D01*
X134273812Y-68994638D01*
X134335289Y-68987752D01*
X134363122Y-68994907D01*
G37*
G36*
X118723381Y-69318821D02*
G01*
X118759389Y-69374476D01*
X118760663Y-69385967D01*
X118736032Y-69440813D01*
X118678778Y-69464396D01*
X118619395Y-69442006D01*
X118603788Y-69415746D01*
X118604190Y-69347569D01*
X118612839Y-69331241D01*
X118664255Y-69302628D01*
X118723381Y-69318821D01*
G37*
G36*
X120682999Y-69390863D02*
G01*
X120713484Y-69463928D01*
X120707510Y-69521790D01*
X120654486Y-69539698D01*
X120592263Y-69527235D01*
X120556964Y-69480976D01*
X120582452Y-69414892D01*
X120630631Y-69378242D01*
X120682999Y-69390863D01*
G37*
G36*
X130969809Y-69423491D02*
G01*
X131005818Y-69479146D01*
X131007091Y-69490637D01*
X130982461Y-69545484D01*
X130925206Y-69569067D01*
X130865824Y-69546676D01*
X130850216Y-69520416D01*
X130850619Y-69452239D01*
X130859268Y-69435911D01*
X130910684Y-69407298D01*
X130969809Y-69423491D01*
G37*
G36*
X133518358Y-69529323D02*
G01*
X133552796Y-69583817D01*
X133553347Y-69607221D01*
X133522343Y-69656128D01*
X133467661Y-69672887D01*
X133419487Y-69643894D01*
X133409690Y-69621261D01*
X133409953Y-69549871D01*
X133415619Y-69538483D01*
X133462497Y-69511803D01*
X133518358Y-69529323D01*
G37*
G36*
X117606897Y-69842172D02*
G01*
X117642906Y-69897828D01*
X117644179Y-69909319D01*
X117619548Y-69964165D01*
X117562294Y-69987748D01*
X117502912Y-69965357D01*
X117487304Y-69939098D01*
X117487706Y-69870920D01*
X117496356Y-69854593D01*
X117547772Y-69825979D01*
X117606897Y-69842172D01*
G37*
G36*
X118897256Y-69955964D02*
G01*
X118933507Y-70014996D01*
X118923070Y-70075915D01*
X118867199Y-70117160D01*
X118783379Y-70110557D01*
X118747633Y-70078054D01*
X118731226Y-70008651D01*
X118755776Y-69945277D01*
X118764692Y-69937843D01*
X118830080Y-69925969D01*
X118897256Y-69955964D01*
G37*
G36*
X126185740Y-70207000D02*
G01*
X126294830Y-70255306D01*
X126375419Y-70342834D01*
X126406868Y-70450246D01*
X126405777Y-70471382D01*
X126381960Y-70550917D01*
X126322429Y-70640206D01*
X126221149Y-70745776D01*
X126072085Y-70874158D01*
X125869201Y-71031880D01*
X125741590Y-71128899D01*
X125566442Y-71264326D01*
X125400485Y-71394862D01*
X125267166Y-71502190D01*
X125017162Y-71707393D01*
X124892529Y-71626636D01*
X124861804Y-71605723D01*
X124794508Y-71550708D01*
X124767465Y-71513144D01*
X124783956Y-71474749D01*
X124838327Y-71391476D01*
X124922070Y-71276855D01*
X125026296Y-71142105D01*
X125142115Y-70998445D01*
X125260639Y-70857094D01*
X125372979Y-70729269D01*
X125470245Y-70626191D01*
X125497633Y-70599259D01*
X125626639Y-70482616D01*
X125757634Y-70377459D01*
X125866071Y-70303785D01*
X125940699Y-70265279D01*
X126055347Y-70220514D01*
X126142943Y-70202937D01*
X126185740Y-70207000D01*
G37*
G36*
X121939203Y-70514527D02*
G01*
X121958379Y-70586401D01*
X121942080Y-70654677D01*
X121879720Y-70684796D01*
X121814072Y-70674332D01*
X121772274Y-70617997D01*
X121780039Y-70531619D01*
X121806123Y-70500679D01*
X121879720Y-70488006D01*
X121939203Y-70514527D01*
G37*
G36*
X134563718Y-70503942D02*
G01*
X134599499Y-70560740D01*
X134600619Y-70569658D01*
X134577345Y-70625380D01*
X134520959Y-70651550D01*
X134462994Y-70631758D01*
X134448815Y-70605321D01*
X134452285Y-70538187D01*
X134457577Y-70526821D01*
X134506312Y-70491089D01*
X134563718Y-70503942D01*
G37*
G36*
X131876377Y-70549096D02*
G01*
X131912627Y-70608128D01*
X131902191Y-70669047D01*
X131846320Y-70710292D01*
X131762500Y-70703689D01*
X131726754Y-70671186D01*
X131710347Y-70601783D01*
X131734896Y-70538409D01*
X131743812Y-70530975D01*
X131809201Y-70519101D01*
X131876377Y-70549096D01*
G37*
G36*
X130985607Y-70731581D02*
G01*
X131012362Y-70799475D01*
X131000998Y-70840999D01*
X130941487Y-70865522D01*
X130918108Y-70862872D01*
X130862658Y-70828201D01*
X130843465Y-70773754D01*
X130873276Y-70725668D01*
X130922279Y-70709228D01*
X130985607Y-70731581D01*
G37*
G36*
X135195505Y-70738984D02*
G01*
X135219441Y-70809574D01*
X135191679Y-70872953D01*
X135124567Y-70900412D01*
X135074332Y-70886687D01*
X135031610Y-70827741D01*
X135037342Y-70743407D01*
X135066137Y-70705615D01*
X135129577Y-70695473D01*
X135195505Y-70738984D01*
G37*
G36*
X134813857Y-71319093D02*
G01*
X134823699Y-71353492D01*
X134879846Y-71455893D01*
X134958929Y-71532956D01*
X135041202Y-71563455D01*
X135075521Y-71566959D01*
X135070070Y-71585434D01*
X135007280Y-71627581D01*
X134940823Y-71671848D01*
X134850810Y-71759309D01*
X134805741Y-71859890D01*
X134798064Y-71890191D01*
X134789047Y-71907218D01*
X134784542Y-71855913D01*
X134780933Y-71837861D01*
X134732607Y-71764055D01*
X134640104Y-71684864D01*
X134499713Y-71587573D01*
X134623552Y-71499461D01*
X134650032Y-71479000D01*
X134728101Y-71398253D01*
X134771137Y-71321608D01*
X134794884Y-71231868D01*
X134813857Y-71319093D01*
G37*
G36*
X131919505Y-71371429D02*
G01*
X131945351Y-71420256D01*
X131919505Y-71476099D01*
X131889561Y-71504001D01*
X131832280Y-71528434D01*
X131779970Y-71510279D01*
X131733388Y-71449313D01*
X131730741Y-71375851D01*
X131778026Y-71328116D01*
X131850523Y-71325849D01*
X131919505Y-71371429D01*
G37*
G36*
X133526775Y-71370626D02*
G01*
X133573363Y-71428397D01*
X133594231Y-71496789D01*
X133594219Y-71498199D01*
X133565557Y-71558802D01*
X133501838Y-71583148D01*
X133432803Y-71559654D01*
X133416373Y-71544195D01*
X133387086Y-71471424D01*
X133426758Y-71395852D01*
X133449807Y-71375469D01*
X133489560Y-71353984D01*
X133526775Y-71370626D01*
G37*
G36*
X124560123Y-72018627D02*
G01*
X124574437Y-72028948D01*
X124636970Y-72077839D01*
X124662362Y-72104556D01*
X124652713Y-72118753D01*
X124605159Y-72181133D01*
X124522436Y-72287120D01*
X124409633Y-72430259D01*
X124271845Y-72604097D01*
X124114164Y-72802177D01*
X123941680Y-73018046D01*
X123793876Y-73202577D01*
X123625915Y-73411358D01*
X123492403Y-73575185D01*
X123388115Y-73699606D01*
X123307825Y-73790169D01*
X123246308Y-73852423D01*
X123198339Y-73891915D01*
X123158693Y-73914193D01*
X123122146Y-73924806D01*
X123083471Y-73929301D01*
X123062158Y-73931092D01*
X123006440Y-73934771D01*
X122976996Y-73927690D01*
X122976450Y-73900480D01*
X123007423Y-73843773D01*
X123072538Y-73748201D01*
X123174417Y-73604396D01*
X123292784Y-73438991D01*
X123411698Y-73276953D01*
X123538963Y-73108185D01*
X123683580Y-72920904D01*
X123854548Y-72703322D01*
X124060869Y-72443655D01*
X124457885Y-71945826D01*
X124560123Y-72018627D01*
G37*
G36*
X133348731Y-71997922D02*
G01*
X133373054Y-72047414D01*
X133352267Y-72100270D01*
X133278160Y-72121566D01*
X133276368Y-72121541D01*
X133225210Y-72092812D01*
X133207829Y-72031683D01*
X133233699Y-71970375D01*
X133236783Y-71967394D01*
X133288995Y-71950292D01*
X133348731Y-71997922D01*
G37*
G36*
X121869556Y-72705496D02*
G01*
X121899748Y-72778488D01*
X121894206Y-72835725D01*
X121842423Y-72854258D01*
X121780098Y-72834259D01*
X121750972Y-72780423D01*
X121776624Y-72718513D01*
X121817101Y-72691981D01*
X121869556Y-72705496D01*
G37*
G36*
X127268180Y-72751815D02*
G01*
X127318256Y-72782529D01*
X127405369Y-72841777D01*
X127515163Y-72919894D01*
X127750137Y-73090200D01*
X128081593Y-73001697D01*
X128098973Y-72997157D01*
X128340237Y-72949826D01*
X128615506Y-72919231D01*
X128904530Y-72905759D01*
X129187061Y-72909792D01*
X129442850Y-72931715D01*
X129651648Y-72971912D01*
X129706099Y-72987687D01*
X130020523Y-73107907D01*
X130299365Y-73264943D01*
X130534292Y-73452335D01*
X130716972Y-73663626D01*
X130839074Y-73892356D01*
X130892947Y-74109924D01*
X130898739Y-74369522D01*
X130850818Y-74630114D01*
X130752671Y-74873752D01*
X130607785Y-75082492D01*
X130464883Y-75240972D01*
X129779145Y-74793726D01*
X129656621Y-74713612D01*
X129475462Y-74594357D01*
X129320462Y-74491334D01*
X129199719Y-74409972D01*
X129121335Y-74355703D01*
X129093406Y-74333957D01*
X129094710Y-74331406D01*
X129132675Y-74304686D01*
X129206799Y-74264221D01*
X129231297Y-74251459D01*
X129382525Y-74148623D01*
X129478505Y-74035327D01*
X129512088Y-73919642D01*
X129508541Y-73865612D01*
X129468782Y-73757102D01*
X129377552Y-73667306D01*
X129225720Y-73585575D01*
X129116539Y-73546884D01*
X128880659Y-73509544D01*
X128597721Y-73516547D01*
X128264262Y-73567829D01*
X128219408Y-73576566D01*
X128087872Y-73597255D01*
X127986259Y-73606021D01*
X127933600Y-73600955D01*
X127901043Y-73580980D01*
X127818368Y-73528871D01*
X127702314Y-73455014D01*
X127566964Y-73368344D01*
X127244231Y-73161095D01*
X127244231Y-72955341D01*
X127246134Y-72863482D01*
X127252654Y-72781266D01*
X127262210Y-72749588D01*
X127268180Y-72751815D01*
G37*
G36*
X116992142Y-72993886D02*
G01*
X117201262Y-72995319D01*
X117381870Y-72998389D01*
X117523648Y-73002798D01*
X117616280Y-73008250D01*
X117649450Y-73014447D01*
X117646130Y-73022267D01*
X117610538Y-73073743D01*
X117544231Y-73159602D01*
X117457555Y-73266264D01*
X117265659Y-73497452D01*
X117265659Y-74623795D01*
X117265832Y-74790062D01*
X117266836Y-75049163D01*
X117268634Y-75279591D01*
X117271112Y-75473123D01*
X117274153Y-75621539D01*
X117277642Y-75716618D01*
X117281465Y-75750137D01*
X117296623Y-75731592D01*
X117342487Y-75661812D01*
X117412615Y-75549365D01*
X117500937Y-75404011D01*
X117601389Y-75235508D01*
X117643538Y-75164191D01*
X117775049Y-74941756D01*
X117913252Y-74708101D01*
X118044088Y-74486992D01*
X118153497Y-74302198D01*
X118267216Y-74109910D01*
X118402971Y-73879876D01*
X118540338Y-73646707D01*
X118662213Y-73439413D01*
X118922939Y-72995309D01*
X119856250Y-72994564D01*
X119858670Y-72994562D01*
X120105479Y-72995355D01*
X120327665Y-72997934D01*
X120516198Y-73002043D01*
X120662045Y-73007427D01*
X120756176Y-73013829D01*
X120789560Y-73020994D01*
X120783712Y-73032915D01*
X120739875Y-73087164D01*
X120662499Y-73171315D01*
X120562774Y-73272940D01*
X120335989Y-73497709D01*
X120335989Y-75189876D01*
X120335989Y-76882043D01*
X120535515Y-77083672D01*
X120735041Y-77285302D01*
X120039339Y-77285302D01*
X119343636Y-77285302D01*
X119560692Y-77066300D01*
X119777747Y-76847298D01*
X119777747Y-75757921D01*
X119777561Y-75635988D01*
X119775819Y-75373779D01*
X119772428Y-75141270D01*
X119767615Y-74946476D01*
X119761607Y-74797413D01*
X119754631Y-74702097D01*
X119746913Y-74668544D01*
X119734741Y-74681646D01*
X119689352Y-74747397D01*
X119614747Y-74863050D01*
X119514704Y-75022512D01*
X119393001Y-75219692D01*
X119253417Y-75448495D01*
X119099730Y-75702831D01*
X118935718Y-75976607D01*
X118155357Y-77284671D01*
X117214416Y-77284987D01*
X116273475Y-77285302D01*
X116473001Y-77083672D01*
X116672527Y-76882043D01*
X116672527Y-75170247D01*
X116672527Y-73458451D01*
X116445742Y-73240680D01*
X116396020Y-73192581D01*
X116305214Y-73102589D01*
X116242411Y-73037310D01*
X116218956Y-73008364D01*
X116221297Y-73007186D01*
X116270965Y-73002933D01*
X116377407Y-72999260D01*
X116530305Y-72996377D01*
X116719342Y-72994493D01*
X116934203Y-72993819D01*
X116992142Y-72993886D01*
G37*
G36*
X126190481Y-73120155D02*
G01*
X126292195Y-73185315D01*
X126369458Y-73235883D01*
X126404483Y-73260238D01*
X126403306Y-73270839D01*
X126369904Y-73319578D01*
X126306248Y-73390876D01*
X126301218Y-73396281D01*
X126270774Y-73436970D01*
X126233535Y-73500282D01*
X126187469Y-73590938D01*
X126130546Y-73713661D01*
X126060735Y-73873172D01*
X125976004Y-74074192D01*
X125874322Y-74321445D01*
X125753658Y-74619651D01*
X125611982Y-74973533D01*
X125447261Y-75387812D01*
X124701569Y-77267857D01*
X123662553Y-77277111D01*
X122623537Y-77286364D01*
X122745277Y-77154995D01*
X122782960Y-77114100D01*
X122872426Y-77015565D01*
X122942877Y-76936169D01*
X123018738Y-76848712D01*
X122534086Y-75177024D01*
X122376553Y-74633654D01*
X122957672Y-74633654D01*
X123025837Y-74869162D01*
X123034918Y-74900574D01*
X123074507Y-75037914D01*
X123125884Y-75216563D01*
X123183409Y-75416889D01*
X123241438Y-75619262D01*
X123270290Y-75718810D01*
X123319528Y-75883127D01*
X123361069Y-76014712D01*
X123391227Y-76102071D01*
X123406318Y-76133710D01*
X123411465Y-76126385D01*
X123438755Y-76068407D01*
X123484738Y-75961917D01*
X123544926Y-75818062D01*
X123614833Y-75647990D01*
X123689974Y-75462849D01*
X123765861Y-75273786D01*
X123838009Y-75091950D01*
X123901931Y-74928488D01*
X123953140Y-74794547D01*
X123987151Y-74701276D01*
X123999477Y-74659821D01*
X123991348Y-74655219D01*
X123928716Y-74646695D01*
X123814315Y-74639855D01*
X123660234Y-74635305D01*
X123478561Y-74633654D01*
X122957672Y-74633654D01*
X122376553Y-74633654D01*
X122049433Y-73505335D01*
X121820733Y-73274869D01*
X121766512Y-73219506D01*
X121676903Y-73124264D01*
X121615081Y-73053370D01*
X121592033Y-73019111D01*
X121592178Y-73018579D01*
X121629425Y-73010756D01*
X121725041Y-73003959D01*
X121868310Y-72998598D01*
X122048516Y-72995082D01*
X122254945Y-72993819D01*
X122268885Y-72993825D01*
X122473940Y-72995433D01*
X122652080Y-72999559D01*
X122792590Y-73005742D01*
X122884754Y-73013520D01*
X122917857Y-73022429D01*
X122910336Y-73041676D01*
X122869101Y-73104532D01*
X122803914Y-73188157D01*
X122765088Y-73235098D01*
X122694774Y-73321182D01*
X122648718Y-73379005D01*
X122636271Y-73401739D01*
X122630609Y-73458829D01*
X122646885Y-73550937D01*
X122686920Y-73693016D01*
X122766376Y-73953297D01*
X123521722Y-73962698D01*
X124277068Y-73972098D01*
X124324822Y-73857807D01*
X124327997Y-73850170D01*
X124374520Y-73733294D01*
X124420015Y-73612324D01*
X124467455Y-73481131D01*
X124225666Y-73237475D01*
X123983877Y-72993819D01*
X124987708Y-72993819D01*
X125991539Y-72993819D01*
X126190481Y-73120155D01*
G37*
G36*
X131964184Y-72993848D02*
G01*
X132171263Y-72995274D01*
X132350632Y-72998593D01*
X132491774Y-73003460D01*
X132584171Y-73009529D01*
X132617307Y-73016454D01*
X132617156Y-73017629D01*
X132593330Y-73057513D01*
X132536757Y-73133988D01*
X132458805Y-73231622D01*
X132452178Y-73239719D01*
X132377448Y-73338621D01*
X132327870Y-73418221D01*
X132313876Y-73461939D01*
X132314019Y-73462342D01*
X132329637Y-73514323D01*
X132357083Y-73612474D01*
X132390508Y-73735887D01*
X132453567Y-73972048D01*
X133219469Y-73962672D01*
X133985370Y-73953297D01*
X134069154Y-73730367D01*
X134081071Y-73698869D01*
X134114809Y-73605534D01*
X134128639Y-73536005D01*
X134117142Y-73475207D01*
X134074899Y-73408064D01*
X133996489Y-73319499D01*
X133876494Y-73194437D01*
X133683640Y-72993819D01*
X135017095Y-72993819D01*
X135072886Y-72993841D01*
X135366523Y-72994707D01*
X135635716Y-72996730D01*
X135872907Y-72999766D01*
X136070542Y-73003671D01*
X136221064Y-73008302D01*
X136316919Y-73013515D01*
X136350549Y-73019166D01*
X136341450Y-73035368D01*
X136293199Y-73094172D01*
X136212760Y-73182891D01*
X136110740Y-73289564D01*
X135870930Y-73534615D01*
X135128158Y-75409959D01*
X134385386Y-77285302D01*
X133927952Y-77285302D01*
X133470518Y-77285302D01*
X133080286Y-77005249D01*
X133038105Y-76974896D01*
X132899780Y-76874136D01*
X132785842Y-76789289D01*
X132707130Y-76728512D01*
X132674486Y-76699961D01*
X132662441Y-76663821D01*
X132633000Y-76567027D01*
X132588183Y-76416344D01*
X132529946Y-76218440D01*
X132460243Y-75979981D01*
X132381029Y-75707633D01*
X132294257Y-75408065D01*
X132201883Y-75087941D01*
X132083598Y-74677266D01*
X132659909Y-74677266D01*
X132662147Y-74684202D01*
X132681124Y-74747409D01*
X132715370Y-74863934D01*
X132761792Y-75023176D01*
X132817296Y-75214533D01*
X132878789Y-75427404D01*
X132899421Y-75498605D01*
X132959324Y-75701181D01*
X133012727Y-75875800D01*
X133056522Y-76012659D01*
X133087600Y-76101957D01*
X133102853Y-76133895D01*
X133107670Y-76127251D01*
X133134625Y-76070168D01*
X133180666Y-75963224D01*
X133241584Y-75816851D01*
X133313168Y-75641478D01*
X133391209Y-75447538D01*
X133471496Y-75245460D01*
X133549820Y-75045676D01*
X133621970Y-74858616D01*
X133683736Y-74694712D01*
X133685859Y-74688446D01*
X133686124Y-74666837D01*
X133665227Y-74651776D01*
X133613443Y-74642095D01*
X133521051Y-74636627D01*
X133378327Y-74634202D01*
X133175549Y-74633654D01*
X133173344Y-74633654D01*
X132962266Y-74634979D01*
X132813120Y-74639349D01*
X132718170Y-74647417D01*
X132669679Y-74659838D01*
X132659909Y-74677266D01*
X132083598Y-74677266D01*
X131744847Y-73501157D01*
X131492871Y-73247488D01*
X131240895Y-72993819D01*
X131929101Y-72993819D01*
X131964184Y-72993848D01*
G37*
G36*
X131607947Y-73397275D02*
G01*
X131621498Y-73410362D01*
X131651507Y-73468437D01*
X131635743Y-73550376D01*
X131625307Y-73577699D01*
X131579829Y-73681973D01*
X131510765Y-73830106D01*
X131424389Y-74009423D01*
X131326977Y-74207252D01*
X131224804Y-74410920D01*
X131124146Y-74607752D01*
X131031279Y-74785077D01*
X130952477Y-74930220D01*
X130910395Y-75005624D01*
X130821995Y-75164105D01*
X130740770Y-75309817D01*
X130680143Y-75418681D01*
X130669598Y-75437465D01*
X130591765Y-75569529D01*
X130495603Y-75724433D01*
X130388033Y-75891928D01*
X130275976Y-76061769D01*
X130166355Y-76223707D01*
X130066091Y-76367496D01*
X129982104Y-76482889D01*
X129921317Y-76559639D01*
X129890650Y-76587500D01*
X129876222Y-76588910D01*
X129867693Y-76605835D01*
X129873082Y-76607100D01*
X129923699Y-76590626D01*
X130011237Y-76549334D01*
X130118520Y-76492574D01*
X130228373Y-76429701D01*
X130323620Y-76370065D01*
X130387088Y-76323019D01*
X130423955Y-76294354D01*
X130469034Y-76273489D01*
X130470903Y-76275940D01*
X130475915Y-76324920D01*
X130478080Y-76426579D01*
X130477755Y-76567484D01*
X130475297Y-76734205D01*
X130471064Y-76913311D01*
X130465412Y-77091371D01*
X130458699Y-77254952D01*
X130451282Y-77390625D01*
X130443519Y-77484957D01*
X130435765Y-77524518D01*
X130434653Y-77525005D01*
X130396902Y-77508549D01*
X130319536Y-77461370D01*
X130217714Y-77392634D01*
X130011982Y-77248321D01*
X129805647Y-77305556D01*
X129802276Y-77306484D01*
X129633287Y-77340153D01*
X129418677Y-77364977D01*
X129181258Y-77380012D01*
X128943847Y-77384318D01*
X128729257Y-77376951D01*
X128560304Y-77356971D01*
X128431555Y-77327014D01*
X128108151Y-77205520D01*
X127808758Y-77027392D01*
X127550592Y-76802090D01*
X127527343Y-76777150D01*
X127361707Y-76572603D01*
X127252678Y-76373986D01*
X127192758Y-76163811D01*
X127174450Y-75924588D01*
X127186898Y-75730136D01*
X127247312Y-75487732D01*
X127361456Y-75272221D01*
X127533284Y-75078327D01*
X127766747Y-74900770D01*
X128065798Y-74734273D01*
X128433249Y-74554798D01*
X128684825Y-74709826D01*
X128739628Y-74743605D01*
X129083942Y-74956284D01*
X129370514Y-75134184D01*
X129601097Y-75278413D01*
X129777444Y-75390081D01*
X129901306Y-75470295D01*
X129974437Y-75520164D01*
X129998588Y-75540797D01*
X129994616Y-75544326D01*
X129943165Y-75570220D01*
X129839662Y-75616511D01*
X129693506Y-75679148D01*
X129514094Y-75754080D01*
X129310825Y-75837256D01*
X129251067Y-75861643D01*
X129045302Y-75948227D01*
X128860754Y-76029766D01*
X128708372Y-76101178D01*
X128599101Y-76157381D01*
X128543887Y-76193294D01*
X128519570Y-76219822D01*
X128466684Y-76328018D01*
X128473046Y-76440095D01*
X128531309Y-76548572D01*
X128634129Y-76645967D01*
X128774158Y-76724798D01*
X128944052Y-76777583D01*
X129136464Y-76796841D01*
X129136806Y-76796841D01*
X129252186Y-76789052D01*
X129384950Y-76768659D01*
X129517774Y-76739944D01*
X129633340Y-76707191D01*
X129714326Y-76674686D01*
X129743412Y-76646713D01*
X129746180Y-76639835D01*
X129791209Y-76639835D01*
X129808654Y-76657280D01*
X129826099Y-76639835D01*
X129808654Y-76622390D01*
X129791209Y-76639835D01*
X129746180Y-76639835D01*
X129757692Y-76611234D01*
X129805581Y-76526368D01*
X129881208Y-76403133D01*
X129978413Y-76251538D01*
X130091040Y-76081593D01*
X130179482Y-75949106D01*
X130302806Y-75761113D01*
X130415725Y-75585450D01*
X130508571Y-75437202D01*
X130571679Y-75331456D01*
X130600571Y-75279792D01*
X130702969Y-75089786D01*
X130823217Y-74858913D01*
X130952873Y-74604050D01*
X131083494Y-74342075D01*
X131206635Y-74089866D01*
X131313855Y-73864300D01*
X131396709Y-73682256D01*
X131420902Y-73627280D01*
X131480485Y-73495959D01*
X131522076Y-73416613D01*
X131552580Y-73379927D01*
X131578903Y-73376586D01*
X131607947Y-73397275D01*
G37*
G36*
X117399984Y-73448281D02*
G01*
X117455245Y-73462713D01*
X117558227Y-73491562D01*
X117694579Y-73530628D01*
X117849949Y-73575710D01*
X118009985Y-73622611D01*
X118160336Y-73667129D01*
X118286650Y-73705064D01*
X118374575Y-73732218D01*
X118409760Y-73744390D01*
X118410122Y-73744767D01*
X118399425Y-73780082D01*
X118359265Y-73855085D01*
X118300190Y-73953325D01*
X118232753Y-74058351D01*
X118167501Y-74153712D01*
X118114986Y-74222955D01*
X118085758Y-74249629D01*
X118049366Y-74239663D01*
X117960052Y-74207569D01*
X117833566Y-74158606D01*
X117684340Y-74098218D01*
X117317994Y-73947040D01*
X117307443Y-73746606D01*
X117305965Y-73674128D01*
X117315243Y-73561884D01*
X117337882Y-73496782D01*
X117362118Y-73470539D01*
X117394839Y-73447390D01*
X117399984Y-73448281D01*
G37*
G36*
X127312192Y-73857583D02*
G01*
X127387884Y-73918875D01*
X127281167Y-74021116D01*
X127174450Y-74123357D01*
X127174450Y-73959824D01*
X127177693Y-73872346D01*
X127196306Y-73810526D01*
X127238502Y-73807562D01*
X127312192Y-73857583D01*
G37*
G36*
X120418809Y-74286410D02*
G01*
X120492279Y-74301573D01*
X120617424Y-74330345D01*
X120783381Y-74369998D01*
X120979286Y-74417800D01*
X121194276Y-74471023D01*
X121417488Y-74526937D01*
X121638058Y-74582811D01*
X121845123Y-74635917D01*
X122027820Y-74683524D01*
X122175285Y-74722903D01*
X122276656Y-74751324D01*
X122321068Y-74766057D01*
X122330946Y-74779649D01*
X122361130Y-74848035D01*
X122403284Y-74961011D01*
X122453007Y-75104778D01*
X122505901Y-75265537D01*
X122557564Y-75429489D01*
X122603597Y-75582836D01*
X122639600Y-75711779D01*
X122661173Y-75802519D01*
X122663916Y-75841258D01*
X122641999Y-75836326D01*
X122560919Y-75812221D01*
X122427362Y-75770444D01*
X122248982Y-75713446D01*
X122033437Y-75643676D01*
X121788383Y-75563585D01*
X121521478Y-75475625D01*
X120388324Y-75100708D01*
X120378494Y-74692731D01*
X120376744Y-74593625D01*
X120378566Y-74422504D01*
X120388219Y-74319309D01*
X120405656Y-74284753D01*
X120418809Y-74286410D01*
G37*
G36*
X119707967Y-74825549D02*
G01*
X119690522Y-74842995D01*
X119673077Y-74825549D01*
X119690522Y-74808104D01*
X119707967Y-74825549D01*
G37*
G36*
X125476788Y-75546459D02*
G01*
X125559979Y-75567859D01*
X125688893Y-75602120D01*
X125851560Y-75645973D01*
X126036013Y-75696147D01*
X126230285Y-75749372D01*
X126422407Y-75802380D01*
X126600411Y-75851899D01*
X126752330Y-75894660D01*
X126866195Y-75927394D01*
X126932476Y-75947052D01*
X127028263Y-75980167D01*
X127081003Y-76013794D01*
X127106950Y-76061131D01*
X127122360Y-76135375D01*
X127143087Y-76226876D01*
X127237494Y-76458140D01*
X127387089Y-76688404D01*
X127583373Y-76903507D01*
X127717488Y-77019234D01*
X127989199Y-77197985D01*
X128292031Y-77325924D01*
X128639835Y-77409686D01*
X128727259Y-77424862D01*
X128855001Y-77448210D01*
X128944794Y-77466174D01*
X128981188Y-77475765D01*
X128978399Y-77489163D01*
X128943073Y-77542783D01*
X128880970Y-77621810D01*
X128805581Y-77710566D01*
X128730399Y-77793374D01*
X128668919Y-77854556D01*
X128634633Y-77878434D01*
X128609543Y-77872056D01*
X128525404Y-77844887D01*
X128392059Y-77799366D01*
X128218876Y-77738747D01*
X128015222Y-77666285D01*
X127790464Y-77585231D01*
X127641892Y-77531610D01*
X127344770Y-77425594D01*
X127014901Y-77309120D01*
X126673456Y-77189617D01*
X126341606Y-77074513D01*
X126040522Y-76971235D01*
X125997029Y-76956415D01*
X125755655Y-76873815D01*
X125536527Y-76798252D01*
X125348415Y-76732792D01*
X125200089Y-76680502D01*
X125100320Y-76644447D01*
X125057879Y-76627694D01*
X125052458Y-76620444D01*
X125055169Y-76566357D01*
X125084315Y-76459353D01*
X125140937Y-76296002D01*
X125226076Y-76072871D01*
X125276071Y-75946665D01*
X125341552Y-75785268D01*
X125395612Y-75656638D01*
X125433690Y-75571554D01*
X125451222Y-75540797D01*
X125476788Y-75546459D01*
G37*
G36*
X121898433Y-75650758D02*
G01*
X121967252Y-75667497D01*
X121998385Y-75678651D01*
X122012951Y-75698602D01*
X122007630Y-75737875D01*
X121979132Y-75807006D01*
X121924170Y-75916529D01*
X121839456Y-76076980D01*
X121654052Y-76437979D01*
X121385770Y-77007642D01*
X121142521Y-77583021D01*
X120928560Y-78152532D01*
X120748142Y-78704592D01*
X120605522Y-79227618D01*
X120504954Y-79710027D01*
X120471130Y-79953576D01*
X120446077Y-80284325D01*
X120442051Y-80615210D01*
X120458596Y-80929425D01*
X120495262Y-81210167D01*
X120551594Y-81440631D01*
X120578394Y-81516948D01*
X120725239Y-81824743D01*
X120915442Y-82078378D01*
X121147427Y-82276974D01*
X121419618Y-82419656D01*
X121730439Y-82505545D01*
X122078312Y-82533764D01*
X122461661Y-82503437D01*
X122765832Y-82445559D01*
X123269414Y-82298816D01*
X123792746Y-82085776D01*
X124335413Y-81806702D01*
X124897000Y-81461857D01*
X125477089Y-81051504D01*
X126075265Y-80575906D01*
X126691113Y-80035325D01*
X127324217Y-79430024D01*
X127490101Y-79262220D01*
X127737912Y-79003622D01*
X128004570Y-78718016D01*
X128276294Y-78420529D01*
X128539304Y-78126286D01*
X128779822Y-77850413D01*
X128984066Y-77608036D01*
X129017790Y-77567848D01*
X129101553Y-77480609D01*
X129169713Y-77436849D01*
X129238531Y-77424863D01*
X129342267Y-77424863D01*
X129176063Y-77636414D01*
X128935445Y-77933843D01*
X128630973Y-78291619D01*
X128300068Y-78664170D01*
X127952420Y-79041359D01*
X127597718Y-79413053D01*
X127245655Y-79769115D01*
X126905920Y-80099410D01*
X126588204Y-80393804D01*
X126302198Y-80642161D01*
X126045504Y-80850773D01*
X125477678Y-81278483D01*
X124912610Y-81658570D01*
X124355726Y-81987947D01*
X123812452Y-82263528D01*
X123288213Y-82482226D01*
X122788436Y-82640954D01*
X122683296Y-82667107D01*
X122269513Y-82738402D01*
X121889523Y-82751068D01*
X121544727Y-82705699D01*
X121236529Y-82602890D01*
X120966332Y-82443233D01*
X120735540Y-82227324D01*
X120545554Y-81955755D01*
X120397779Y-81629121D01*
X120339793Y-81442346D01*
X120262494Y-81041084D01*
X120232559Y-80597915D01*
X120248891Y-80117972D01*
X120310392Y-79606392D01*
X120415966Y-79068310D01*
X120564514Y-78508861D01*
X120754939Y-77933179D01*
X120986145Y-77346401D01*
X121257033Y-76753662D01*
X121566506Y-76160096D01*
X121640013Y-76028644D01*
X121727112Y-75876067D01*
X121798446Y-75754768D01*
X121848118Y-75674731D01*
X121870228Y-75645943D01*
X121898433Y-75650758D01*
G37*
G36*
X128603543Y-76459445D02*
G01*
X128683370Y-76481850D01*
X128808748Y-76522302D01*
X128989895Y-76583124D01*
X129132526Y-76631646D01*
X129249441Y-76673437D01*
X129313570Y-76701188D01*
X129332258Y-76719212D01*
X129312852Y-76731826D01*
X129262700Y-76743343D01*
X129246373Y-76746193D01*
X129092320Y-76749286D01*
X128920576Y-76721386D01*
X128760009Y-76669166D01*
X128639486Y-76599298D01*
X128620209Y-76582529D01*
X128559592Y-76520667D01*
X128535165Y-76479728D01*
X128535187Y-76477277D01*
X128539670Y-76459482D01*
X128559049Y-76452763D01*
X128603543Y-76459445D01*
G37*
G36*
X132493138Y-77234077D02*
G01*
X132504996Y-77243159D01*
X132533183Y-77271539D01*
X132510621Y-77283103D01*
X132427808Y-77285302D01*
X132346873Y-77281940D01*
X132319460Y-77266825D01*
X132338187Y-77232967D01*
X132379073Y-77192552D01*
X132424192Y-77189700D01*
X132493138Y-77234077D01*
G37*
G36*
X122210350Y-80639004D02*
G01*
X122235595Y-80693030D01*
X122212530Y-80749459D01*
X122146542Y-80774313D01*
X122144348Y-80774274D01*
X122094747Y-80745146D01*
X122078150Y-80683930D01*
X122103754Y-80623123D01*
X122151056Y-80601608D01*
X122210350Y-80639004D01*
G37*
G36*
X123012892Y-80704533D02*
G01*
X123030909Y-80759921D01*
X123085807Y-80849303D01*
X123155606Y-80920016D01*
X123220505Y-80948764D01*
X123238970Y-80951682D01*
X123266758Y-80983654D01*
X123263395Y-80996913D01*
X123222177Y-81018544D01*
X123188526Y-81028778D01*
X123121170Y-81084908D01*
X123058034Y-81170407D01*
X123017933Y-81262775D01*
X123003113Y-81318100D01*
X122995661Y-81319170D01*
X122991765Y-81252957D01*
X122976285Y-81185231D01*
X122926579Y-81133625D01*
X122873161Y-81107871D01*
X122792878Y-81055805D01*
X122720233Y-81000273D01*
X122804401Y-80930906D01*
X122887765Y-80860317D01*
X122951785Y-80796882D01*
X122982463Y-80746520D01*
X122992389Y-80693318D01*
X122994997Y-80659697D01*
X123001087Y-80648877D01*
X123012892Y-80704533D01*
G37*
G36*
X121813173Y-81131073D02*
G01*
X121828853Y-81188261D01*
X121814994Y-81218308D01*
X121757255Y-81256230D01*
X121733850Y-81256781D01*
X121684943Y-81225777D01*
X121668184Y-81171095D01*
X121697178Y-81122921D01*
X121757430Y-81106799D01*
X121813173Y-81131073D01*
G37*
G36*
X128375306Y-81807304D02*
G01*
X128416802Y-81844029D01*
X128427279Y-81915303D01*
X128390259Y-81986856D01*
X128358476Y-82006602D01*
X128285589Y-81992606D01*
X128251354Y-81968384D01*
X128223412Y-81902031D01*
X128263022Y-81827995D01*
X128290774Y-81800809D01*
X128321509Y-81789062D01*
X128375306Y-81807304D01*
G37*
G36*
X123964283Y-82652311D02*
G01*
X123993154Y-82722170D01*
X123986651Y-82780734D01*
X123932097Y-82797940D01*
X123930890Y-82797930D01*
X123875735Y-82769930D01*
X123856769Y-82708911D01*
X123883877Y-82646022D01*
X123916436Y-82629337D01*
X123964283Y-82652311D01*
G37*
G36*
X126684391Y-82823627D02*
G01*
X126714583Y-82896620D01*
X126709041Y-82953857D01*
X126657258Y-82972390D01*
X126594934Y-82952391D01*
X126565808Y-82898555D01*
X126591459Y-82836645D01*
X126631937Y-82810113D01*
X126684391Y-82823627D01*
G37*
G36*
X124410384Y-83031599D02*
G01*
X124432754Y-83087377D01*
X124400141Y-83147293D01*
X124352010Y-83170453D01*
X124299768Y-83148838D01*
X124278571Y-83075001D01*
X124288775Y-83033926D01*
X124344619Y-83007280D01*
X124410384Y-83031599D01*
G37*
G36*
X124148409Y-83225343D02*
G01*
X124155401Y-83260713D01*
X124137509Y-83327605D01*
X124085002Y-83356181D01*
X124057844Y-83351819D01*
X124011163Y-83306471D01*
X124012709Y-83232395D01*
X124048801Y-83192084D01*
X124106728Y-83186018D01*
X124148409Y-83225343D01*
G37*
G36*
X123858621Y-83406988D02*
G01*
X123882944Y-83456480D01*
X123862157Y-83509336D01*
X123788051Y-83530632D01*
X123786258Y-83530607D01*
X123735100Y-83501878D01*
X123717719Y-83440749D01*
X123743589Y-83379441D01*
X123746673Y-83376460D01*
X123798885Y-83359358D01*
X123858621Y-83406988D01*
G37*
G36*
X125661845Y-83359482D02*
G01*
X125702850Y-83400256D01*
X125707799Y-83462727D01*
X125670827Y-83515256D01*
X125646865Y-83520860D01*
X125592699Y-83496289D01*
X125551792Y-83445527D01*
X125549991Y-83394420D01*
X125573443Y-83373830D01*
X125641345Y-83356181D01*
X125661845Y-83359482D01*
G37*
G36*
X126685973Y-84132210D02*
G01*
X126733496Y-84176099D01*
X126743278Y-84235188D01*
X126714606Y-84304753D01*
X126646271Y-84333104D01*
X126596036Y-84319379D01*
X126553314Y-84260433D01*
X126559046Y-84176099D01*
X126580787Y-84147679D01*
X126646271Y-84123764D01*
X126685973Y-84132210D01*
G37*
G36*
X128294889Y-84192576D02*
G01*
X128310006Y-84225370D01*
X128408233Y-84350329D01*
X128543469Y-84436533D01*
X128572898Y-84448846D01*
X128595683Y-84465188D01*
X128556611Y-84470453D01*
X128527061Y-84477016D01*
X128446738Y-84527416D01*
X128366618Y-84610142D01*
X128308770Y-84704367D01*
X128296823Y-84731503D01*
X128278826Y-84748242D01*
X128259964Y-84699451D01*
X128251058Y-84674817D01*
X128191216Y-84577439D01*
X128110256Y-84501991D01*
X128030227Y-84470453D01*
X127995277Y-84468776D01*
X127984004Y-84460597D01*
X128036196Y-84437348D01*
X128037519Y-84436812D01*
X128145492Y-84370046D01*
X128225577Y-84278651D01*
X128258255Y-84184821D01*
X128260534Y-84138481D01*
X128269773Y-84134020D01*
X128294889Y-84192576D01*
G37*
G36*
X125358545Y-84294574D02*
G01*
X125411084Y-84359442D01*
X125413779Y-84367784D01*
X125403226Y-84436231D01*
X125351003Y-84484775D01*
X125281831Y-84488694D01*
X125233532Y-84458151D01*
X125205937Y-84390613D01*
X125240541Y-84318152D01*
X125286712Y-84288425D01*
X125358545Y-84294574D01*
G37*
G36*
X126051807Y-85573759D02*
G01*
X126086713Y-85635758D01*
X126087967Y-85648092D01*
X126062310Y-85700846D01*
X126004641Y-85722743D01*
X125945452Y-85699930D01*
X125926641Y-85665606D01*
X125953034Y-85606910D01*
X125994476Y-85572471D01*
X126051807Y-85573759D01*
G37*
G36*
X123155303Y-74960912D02*
G01*
X123160327Y-74962297D01*
X123229599Y-74979710D01*
X123342106Y-75006653D01*
X123476099Y-75037906D01*
X123503124Y-75044172D01*
X123624629Y-75073470D01*
X123713234Y-75096656D01*
X123751340Y-75109175D01*
X123751865Y-75112361D01*
X123739281Y-75161744D01*
X123706545Y-75260738D01*
X123657852Y-75397099D01*
X123597394Y-75558585D01*
X123579500Y-75604886D01*
X123518005Y-75755831D01*
X123464833Y-75874265D01*
X123425165Y-75949166D01*
X123404184Y-75969516D01*
X123387799Y-75934127D01*
X123356349Y-75843576D01*
X123315676Y-75713394D01*
X123270544Y-75558242D01*
X123233172Y-75425527D01*
X123188764Y-75268245D01*
X123152362Y-75139783D01*
X123129394Y-75059322D01*
X123112662Y-74992095D01*
X123118076Y-74958345D01*
X123155303Y-74960912D01*
G37*
%TD*%
M02*
