%TF.GenerationSoftware,KiCad,Pcbnew,9.0.0*%
%TF.CreationDate,2025-03-02T04:05:25-07:00*%
%TF.ProjectId,bubble_detector_v2.1,62756262-6c65-45f6-9465-746563746f72,2.1*%
%TF.SameCoordinates,Original*%
%TF.FileFunction,Other,User*%
%FSLAX46Y46*%
G04 Gerber Fmt 4.6, Leading zero omitted, Abs format (unit mm)*
G04 Created by KiCad (PCBNEW 9.0.0) date 2025-03-02 04:05:25*
%MOMM*%
%LPD*%
G01*
G04 APERTURE LIST*
%ADD10C,0.050000*%
G04 APERTURE END LIST*
D10*
%TO.C,C1*%
X127500000Y-66000000D02*
G75*
G02*
X122000000Y-66000000I-2750000J0D01*
G01*
X122000000Y-66000000D02*
G75*
G02*
X127500000Y-66000000I2750000J0D01*
G01*
%TO.C,M1*%
X130340000Y-58200000D02*
X121690000Y-58200000D01*
X121690000Y-58200000D02*
X121690000Y-61800000D01*
X130340000Y-61800000D02*
X130340000Y-58200000D01*
X121690000Y-61800000D02*
X130340000Y-61800000D01*
%TO.C,R3*%
X117850000Y-53600000D02*
X114150000Y-53600000D01*
X114150000Y-53600000D02*
X114150000Y-68400000D01*
X117850000Y-68400000D02*
X117850000Y-53600000D01*
X114150000Y-68400000D02*
X117850000Y-68400000D01*
%TO.C,R2*%
X111850000Y-53600000D02*
X108150000Y-53600000D01*
X108150000Y-53600000D02*
X108150000Y-68400000D01*
X111850000Y-68400000D02*
X111850000Y-53600000D01*
X108150000Y-68400000D02*
X111850000Y-68400000D01*
%TO.C,R1*%
X105850000Y-53600000D02*
X102150000Y-53600000D01*
X102150000Y-53600000D02*
X102150000Y-68400000D01*
X105850000Y-68400000D02*
X105850000Y-53600000D01*
X102150000Y-68400000D02*
X105850000Y-68400000D01*
%TO.C,J1*%
X111060000Y-96020000D02*
X132410000Y-96020000D01*
X111060000Y-99570000D02*
X111060000Y-96020000D01*
X132410000Y-96020000D02*
X132410000Y-99570000D01*
X132410000Y-99570000D02*
X111060000Y-99570000D01*
%TO.C,J3*%
X133920000Y-96020000D02*
X150170000Y-96020000D01*
X133920000Y-99570000D02*
X133920000Y-96020000D01*
X150170000Y-96020000D02*
X150170000Y-99570000D01*
X150170000Y-99570000D02*
X133920000Y-99570000D01*
%TO.C,J2*%
X101916000Y-47760000D02*
X128316000Y-47760000D01*
X101916000Y-51310000D02*
X101916000Y-47760000D01*
X128316000Y-47760000D02*
X128316000Y-51310000D01*
X128316000Y-51310000D02*
X101916000Y-51310000D01*
%TO.C,J4*%
X128840000Y-47760000D02*
X150190000Y-47760000D01*
X128840000Y-51310000D02*
X128840000Y-47760000D01*
X150190000Y-47760000D02*
X150190000Y-51310000D01*
X150190000Y-51310000D02*
X128840000Y-51310000D01*
%TO.C,U1*%
X145750000Y-69000000D02*
X145750000Y-79000000D01*
X145750000Y-79000000D02*
X151000000Y-79000000D01*
X151000000Y-51250000D02*
X151000000Y-69000000D01*
X151000000Y-69000000D02*
X145750000Y-69000000D01*
X151000000Y-79000000D02*
X151000000Y-96750000D01*
X151000000Y-96750000D02*
X166500000Y-96750000D01*
X166500000Y-51250000D02*
X151000000Y-51250000D01*
X166500000Y-96750000D02*
X166500000Y-51250000D01*
%TO.C,LS1*%
X147250000Y-60000000D02*
G75*
G02*
X134750000Y-60000000I-6250000J0D01*
G01*
X134750000Y-60000000D02*
G75*
G02*
X147250000Y-60000000I6250000J0D01*
G01*
%TO.C,D1*%
X106150000Y-71790000D02*
X106150000Y-78210000D01*
X106150000Y-78210000D02*
X112580000Y-78210000D01*
X112580000Y-71790000D02*
X106150000Y-71790000D01*
X112580000Y-78210000D02*
X112580000Y-71790000D01*
%TD*%
M02*
