%TF.GenerationSoftware,KiCad,Pcbnew,9.0.0*%
%TF.CreationDate,2025-03-02T04:05:25-07:00*%
%TF.ProjectId,bubble_detector_v2.1,62756262-6c65-45f6-9465-746563746f72,2.1*%
%TF.SameCoordinates,Original*%
%TF.FileFunction,Copper,L2,Bot*%
%TF.FilePolarity,Positive*%
%FSLAX46Y46*%
G04 Gerber Fmt 4.6, Leading zero omitted, Abs format (unit mm)*
G04 Created by KiCad (PCBNEW 9.0.0) date 2025-03-02 04:05:25*
%MOMM*%
%LPD*%
G01*
G04 APERTURE LIST*
%TA.AperFunction,ComponentPad*%
%ADD10R,1.600000X1.600000*%
%TD*%
%TA.AperFunction,ComponentPad*%
%ADD11C,1.600000*%
%TD*%
%TA.AperFunction,ComponentPad*%
%ADD12R,1.700000X1.700000*%
%TD*%
%TA.AperFunction,ComponentPad*%
%ADD13O,1.700000X1.700000*%
%TD*%
%TA.AperFunction,ComponentPad*%
%ADD14O,1.600000X1.600000*%
%TD*%
%TA.AperFunction,ComponentPad*%
%ADD15C,1.530000*%
%TD*%
%TA.AperFunction,ComponentPad*%
%ADD16C,1.308000*%
%TD*%
%TA.AperFunction,ComponentPad*%
%ADD17R,1.070000X1.800000*%
%TD*%
%TA.AperFunction,ComponentPad*%
%ADD18O,1.070000X1.800000*%
%TD*%
%TA.AperFunction,ViaPad*%
%ADD19C,0.800000*%
%TD*%
%TA.AperFunction,Conductor*%
%ADD20C,0.600000*%
%TD*%
G04 APERTURE END LIST*
D10*
%TO.P,C1,1*%
%TO.N,+5V*%
X126000000Y-66000000D03*
D11*
%TO.P,C1,2*%
%TO.N,GND2*%
X123500000Y-66000000D03*
%TD*%
D12*
%TO.P,M1,1,PWM*%
%TO.N,/\u002A9*%
X128540000Y-60000000D03*
D13*
%TO.P,M1,2,+*%
%TO.N,+5V*%
X126000000Y-60000000D03*
%TO.P,M1,3,-*%
%TO.N,GND2*%
X123460000Y-60000000D03*
%TD*%
D11*
%TO.P,R3,1*%
%TO.N,/\u002A10*%
X116000000Y-54650000D03*
D14*
%TO.P,R3,2*%
%TO.N,Net-(D1-BK)*%
X116000000Y-67350000D03*
%TD*%
D11*
%TO.P,R2,1*%
%TO.N,/\u002A11*%
X110000000Y-54650000D03*
D14*
%TO.P,R2,2*%
%TO.N,Net-(D1-GK)*%
X110000000Y-67350000D03*
%TD*%
D11*
%TO.P,R1,1*%
%TO.N,/12*%
X104000000Y-54650000D03*
D14*
%TO.P,R1,2*%
%TO.N,Net-(D1-RK)*%
X104000000Y-67350000D03*
%TD*%
D12*
%TO.P,J1,1,Pin_1*%
%TO.N,unconnected-(J1-Pin_1-Pad1)*%
X112860000Y-97770000D03*
D13*
%TO.P,J1,2,Pin_2*%
%TO.N,/IOREF*%
X115400000Y-97770000D03*
%TO.P,J1,3,Pin_3*%
%TO.N,/~{RESET}*%
X117940000Y-97770000D03*
%TO.P,J1,4,Pin_4*%
%TO.N,+3V3*%
X120480000Y-97770000D03*
%TO.P,J1,5,Pin_5*%
%TO.N,+5V*%
X123020000Y-97770000D03*
%TO.P,J1,6,Pin_6*%
%TO.N,GND1*%
X125560000Y-97770000D03*
%TO.P,J1,7,Pin_7*%
X128100000Y-97770000D03*
%TO.P,J1,8,Pin_8*%
%TO.N,/Vin*%
X130640000Y-97770000D03*
%TD*%
D12*
%TO.P,J3,1,Pin_1*%
%TO.N,/A0*%
X135720000Y-97770000D03*
D13*
%TO.P,J3,2,Pin_2*%
%TO.N,/A1*%
X138260000Y-97770000D03*
%TO.P,J3,3,Pin_3*%
%TO.N,/A2*%
X140800000Y-97770000D03*
%TO.P,J3,4,Pin_4*%
%TO.N,/A3*%
X143340000Y-97770000D03*
%TO.P,J3,5,Pin_5*%
%TO.N,/SDA{slash}A4_1*%
X145880000Y-97770000D03*
%TO.P,J3,6,Pin_6*%
%TO.N,/SCL{slash}A5_1*%
X148420000Y-97770000D03*
%TD*%
D12*
%TO.P,J2,1,Pin_1*%
%TO.N,/SCL{slash}A5_2*%
X103716000Y-49510000D03*
D13*
%TO.P,J2,2,Pin_2*%
%TO.N,/SDA{slash}A4_2*%
X106256000Y-49510000D03*
%TO.P,J2,3,Pin_3*%
%TO.N,/AREF*%
X108796000Y-49510000D03*
%TO.P,J2,4,Pin_4*%
%TO.N,GND2*%
X111336000Y-49510000D03*
%TO.P,J2,5,Pin_5*%
%TO.N,/13*%
X113876000Y-49510000D03*
%TO.P,J2,6,Pin_6*%
%TO.N,/12*%
X116416000Y-49510000D03*
%TO.P,J2,7,Pin_7*%
%TO.N,/\u002A11*%
X118956000Y-49510000D03*
%TO.P,J2,8,Pin_8*%
%TO.N,/\u002A10*%
X121496000Y-49510000D03*
%TO.P,J2,9,Pin_9*%
%TO.N,/\u002A9*%
X124036000Y-49510000D03*
%TO.P,J2,10,Pin_10*%
%TO.N,/8*%
X126576000Y-49510000D03*
%TD*%
D12*
%TO.P,J4,1,Pin_1*%
%TO.N,/7*%
X130640000Y-49510000D03*
D13*
%TO.P,J4,2,Pin_2*%
%TO.N,/\u002A6*%
X133180000Y-49510000D03*
%TO.P,J4,3,Pin_3*%
%TO.N,/\u002A5*%
X135720000Y-49510000D03*
%TO.P,J4,4,Pin_4*%
%TO.N,/4*%
X138260000Y-49510000D03*
%TO.P,J4,5,Pin_5*%
%TO.N,/\u002A3*%
X140800000Y-49510000D03*
%TO.P,J4,6,Pin_6*%
%TO.N,/2*%
X143340000Y-49510000D03*
%TO.P,J4,7,Pin_7*%
%TO.N,/TX{slash}1*%
X145880000Y-49510000D03*
%TO.P,J4,8,Pin_8*%
%TO.N,/RX{slash}0*%
X148420000Y-49510000D03*
%TD*%
D15*
%TO.P,U1,1,VCC*%
%TO.N,+5V*%
X147000000Y-77810000D03*
%TO.P,U1,2,TRIG*%
%TO.N,/\u002A5*%
X147000000Y-75270000D03*
%TO.P,U1,3,ECHO*%
%TO.N,/\u002A6*%
X147000000Y-72730000D03*
%TO.P,U1,4,GND*%
%TO.N,GND1*%
X147000000Y-70190000D03*
%TD*%
D16*
%TO.P,LS1,N*%
%TO.N,GND1*%
X141000000Y-63250000D03*
%TO.P,LS1,P*%
%TO.N,/\u002A3*%
X141000000Y-56750000D03*
%TD*%
D17*
%TO.P,D1,1,RK*%
%TO.N,Net-(D1-RK)*%
X107460000Y-75000000D03*
D18*
%TO.P,D1,2,A*%
%TO.N,+5V*%
X108730000Y-75000000D03*
%TO.P,D1,3,GK*%
%TO.N,Net-(D1-GK)*%
X110000000Y-75000000D03*
%TO.P,D1,4,BK*%
%TO.N,Net-(D1-BK)*%
X111270000Y-75000000D03*
%TD*%
D19*
%TO.N,/\u002A6*%
X138000000Y-68000000D03*
%TO.N,GND1*%
X144000000Y-70000000D03*
%TD*%
D20*
%TO.N,GND1*%
X144000000Y-75000000D02*
X144000000Y-70000000D01*
X140000000Y-79000000D02*
X144000000Y-75000000D01*
X140000000Y-85870000D02*
X128100000Y-97770000D01*
X140000000Y-79000000D02*
X140000000Y-85870000D01*
%TO.N,GND2*%
X123460000Y-55460000D02*
X123460000Y-60000000D01*
X112000000Y-53000000D02*
X121000000Y-53000000D01*
X111336000Y-52336000D02*
X112000000Y-53000000D01*
X121000000Y-53000000D02*
X123460000Y-55460000D01*
X111336000Y-49510000D02*
X111336000Y-52336000D01*
%TO.N,/\u002A6*%
X135000000Y-68000000D02*
X133180000Y-66180000D01*
X138000000Y-68000000D02*
X135000000Y-68000000D01*
X133180000Y-66180000D02*
X133180000Y-49510000D01*
%TD*%
M02*
