%TF.GenerationSoftware,KiCad,Pcbnew,9.0.0*%
%TF.CreationDate,2025-03-04T02:14:33-07:00*%
%TF.ProjectId,bubble_detector_v2.1,62756262-6c65-45f6-9465-746563746f72,2.1*%
%TF.SameCoordinates,Original*%
%TF.FileFunction,Soldermask,Bot*%
%TF.FilePolarity,Negative*%
%FSLAX46Y46*%
G04 Gerber Fmt 4.6, Leading zero omitted, Abs format (unit mm)*
G04 Created by KiCad (PCBNEW 9.0.0) date 2025-03-04 02:14:33*
%MOMM*%
%LPD*%
G01*
G04 APERTURE LIST*
%ADD10O,1.700000X1.700000*%
%ADD11R,1.700000X1.700000*%
%ADD12O,1.600000X1.600000*%
%ADD13C,1.600000*%
%ADD14R,1.600000X1.600000*%
%ADD15C,1.308000*%
%ADD16O,1.070000X1.800000*%
%ADD17R,1.070000X1.800000*%
%ADD18C,1.530000*%
G04 APERTURE END LIST*
D10*
%TO.C,J1*%
X130640000Y-97770000D03*
X128100000Y-97770000D03*
X125560000Y-97770000D03*
X123020000Y-97770000D03*
X120480000Y-97770000D03*
X117940000Y-97770000D03*
X115400000Y-97770000D03*
D11*
X112860000Y-97770000D03*
%TD*%
D10*
%TO.C,J3*%
X148420000Y-97770000D03*
X145880000Y-97770000D03*
X143340000Y-97770000D03*
X140800000Y-97770000D03*
X138260000Y-97770000D03*
D11*
X135720000Y-97770000D03*
%TD*%
D12*
%TO.C,R3*%
X116000000Y-67350000D03*
D13*
X116000000Y-54650000D03*
%TD*%
%TO.C,C1*%
X123500000Y-66000000D03*
D14*
X126000000Y-66000000D03*
%TD*%
D15*
%TO.C,LS1*%
X141000000Y-56750000D03*
X141000000Y-63250000D03*
%TD*%
D16*
%TO.C,D1*%
X111270000Y-75000000D03*
X110000000Y-75000000D03*
X108730000Y-75000000D03*
D17*
X107460000Y-75000000D03*
%TD*%
D10*
%TO.C,J2*%
X126576000Y-49510000D03*
X124036000Y-49510000D03*
X121496000Y-49510000D03*
X118956000Y-49510000D03*
X116416000Y-49510000D03*
X113876000Y-49510000D03*
X111336000Y-49510000D03*
X108796000Y-49510000D03*
X106256000Y-49510000D03*
D11*
X103716000Y-49510000D03*
%TD*%
D10*
%TO.C,J4*%
X148420000Y-49510000D03*
X145880000Y-49510000D03*
X143340000Y-49510000D03*
X140800000Y-49510000D03*
X138260000Y-49510000D03*
X135720000Y-49510000D03*
X133180000Y-49510000D03*
D11*
X130640000Y-49510000D03*
%TD*%
D12*
%TO.C,R2*%
X110000000Y-67350000D03*
D13*
X110000000Y-54650000D03*
%TD*%
D12*
%TO.C,R1*%
X104000000Y-67350000D03*
D13*
X104000000Y-54650000D03*
%TD*%
D10*
%TO.C,M1*%
X123460000Y-60000000D03*
X126000000Y-60000000D03*
D11*
X128540000Y-60000000D03*
%TD*%
D18*
%TO.C,U1*%
X147000000Y-70190000D03*
X147000000Y-72730000D03*
X147000000Y-75270000D03*
X147000000Y-77810000D03*
%TD*%
M02*
