%TF.GenerationSoftware,KiCad,Pcbnew,9.0.0*%
%TF.CreationDate,2025-03-04T02:14:33-07:00*%
%TF.ProjectId,bubble_detector_v2.1,62756262-6c65-45f6-9465-746563746f72,2.1*%
%TF.SameCoordinates,Original*%
%TF.FileFunction,AssemblyDrawing,Top*%
%FSLAX46Y46*%
G04 Gerber Fmt 4.6, Leading zero omitted, Abs format (unit mm)*
G04 Created by KiCad (PCBNEW 9.0.0) date 2025-03-04 02:14:33*
%MOMM*%
%LPD*%
G01*
G04 APERTURE LIST*
%ADD10C,0.150000*%
%ADD11C,0.120000*%
%ADD12C,0.100000*%
%ADD13C,0.127000*%
G04 APERTURE END LIST*
D10*
X119773809Y-102034819D02*
X119773809Y-101034819D01*
X119773809Y-101034819D02*
X120154761Y-101034819D01*
X120154761Y-101034819D02*
X120249999Y-101082438D01*
X120249999Y-101082438D02*
X120297618Y-101130057D01*
X120297618Y-101130057D02*
X120345237Y-101225295D01*
X120345237Y-101225295D02*
X120345237Y-101368152D01*
X120345237Y-101368152D02*
X120297618Y-101463390D01*
X120297618Y-101463390D02*
X120249999Y-101511009D01*
X120249999Y-101511009D02*
X120154761Y-101558628D01*
X120154761Y-101558628D02*
X119773809Y-101558628D01*
X120916666Y-102034819D02*
X120821428Y-101987200D01*
X120821428Y-101987200D02*
X120773809Y-101939580D01*
X120773809Y-101939580D02*
X120726190Y-101844342D01*
X120726190Y-101844342D02*
X120726190Y-101558628D01*
X120726190Y-101558628D02*
X120773809Y-101463390D01*
X120773809Y-101463390D02*
X120821428Y-101415771D01*
X120821428Y-101415771D02*
X120916666Y-101368152D01*
X120916666Y-101368152D02*
X121059523Y-101368152D01*
X121059523Y-101368152D02*
X121154761Y-101415771D01*
X121154761Y-101415771D02*
X121202380Y-101463390D01*
X121202380Y-101463390D02*
X121249999Y-101558628D01*
X121249999Y-101558628D02*
X121249999Y-101844342D01*
X121249999Y-101844342D02*
X121202380Y-101939580D01*
X121202380Y-101939580D02*
X121154761Y-101987200D01*
X121154761Y-101987200D02*
X121059523Y-102034819D01*
X121059523Y-102034819D02*
X120916666Y-102034819D01*
X121583333Y-101368152D02*
X121773809Y-102034819D01*
X121773809Y-102034819D02*
X121964285Y-101558628D01*
X121964285Y-101558628D02*
X122154761Y-102034819D01*
X122154761Y-102034819D02*
X122345237Y-101368152D01*
X123107142Y-101987200D02*
X123011904Y-102034819D01*
X123011904Y-102034819D02*
X122821428Y-102034819D01*
X122821428Y-102034819D02*
X122726190Y-101987200D01*
X122726190Y-101987200D02*
X122678571Y-101891961D01*
X122678571Y-101891961D02*
X122678571Y-101511009D01*
X122678571Y-101511009D02*
X122726190Y-101415771D01*
X122726190Y-101415771D02*
X122821428Y-101368152D01*
X122821428Y-101368152D02*
X123011904Y-101368152D01*
X123011904Y-101368152D02*
X123107142Y-101415771D01*
X123107142Y-101415771D02*
X123154761Y-101511009D01*
X123154761Y-101511009D02*
X123154761Y-101606247D01*
X123154761Y-101606247D02*
X122678571Y-101701485D01*
X123583333Y-102034819D02*
X123583333Y-101368152D01*
X123583333Y-101558628D02*
X123630952Y-101463390D01*
X123630952Y-101463390D02*
X123678571Y-101415771D01*
X123678571Y-101415771D02*
X123773809Y-101368152D01*
X123773809Y-101368152D02*
X123869047Y-101368152D01*
X112526666Y-101034819D02*
X112526666Y-101749104D01*
X112526666Y-101749104D02*
X112479047Y-101891961D01*
X112479047Y-101891961D02*
X112383809Y-101987200D01*
X112383809Y-101987200D02*
X112240952Y-102034819D01*
X112240952Y-102034819D02*
X112145714Y-102034819D01*
X113526666Y-102034819D02*
X112955238Y-102034819D01*
X113240952Y-102034819D02*
X113240952Y-101034819D01*
X113240952Y-101034819D02*
X113145714Y-101177676D01*
X113145714Y-101177676D02*
X113050476Y-101272914D01*
X113050476Y-101272914D02*
X112955238Y-101320533D01*
X139760476Y-101749104D02*
X140236666Y-101749104D01*
X139665238Y-102034819D02*
X139998571Y-101034819D01*
X139998571Y-101034819D02*
X140331904Y-102034819D01*
X140665238Y-101368152D02*
X140665238Y-102034819D01*
X140665238Y-101463390D02*
X140712857Y-101415771D01*
X140712857Y-101415771D02*
X140808095Y-101368152D01*
X140808095Y-101368152D02*
X140950952Y-101368152D01*
X140950952Y-101368152D02*
X141046190Y-101415771D01*
X141046190Y-101415771D02*
X141093809Y-101511009D01*
X141093809Y-101511009D02*
X141093809Y-102034819D01*
X141998571Y-102034819D02*
X141998571Y-101511009D01*
X141998571Y-101511009D02*
X141950952Y-101415771D01*
X141950952Y-101415771D02*
X141855714Y-101368152D01*
X141855714Y-101368152D02*
X141665238Y-101368152D01*
X141665238Y-101368152D02*
X141570000Y-101415771D01*
X141998571Y-101987200D02*
X141903333Y-102034819D01*
X141903333Y-102034819D02*
X141665238Y-102034819D01*
X141665238Y-102034819D02*
X141570000Y-101987200D01*
X141570000Y-101987200D02*
X141522381Y-101891961D01*
X141522381Y-101891961D02*
X141522381Y-101796723D01*
X141522381Y-101796723D02*
X141570000Y-101701485D01*
X141570000Y-101701485D02*
X141665238Y-101653866D01*
X141665238Y-101653866D02*
X141903333Y-101653866D01*
X141903333Y-101653866D02*
X141998571Y-101606247D01*
X142617619Y-102034819D02*
X142522381Y-101987200D01*
X142522381Y-101987200D02*
X142474762Y-101891961D01*
X142474762Y-101891961D02*
X142474762Y-101034819D01*
X143141429Y-102034819D02*
X143046191Y-101987200D01*
X143046191Y-101987200D02*
X142998572Y-101939580D01*
X142998572Y-101939580D02*
X142950953Y-101844342D01*
X142950953Y-101844342D02*
X142950953Y-101558628D01*
X142950953Y-101558628D02*
X142998572Y-101463390D01*
X142998572Y-101463390D02*
X143046191Y-101415771D01*
X143046191Y-101415771D02*
X143141429Y-101368152D01*
X143141429Y-101368152D02*
X143284286Y-101368152D01*
X143284286Y-101368152D02*
X143379524Y-101415771D01*
X143379524Y-101415771D02*
X143427143Y-101463390D01*
X143427143Y-101463390D02*
X143474762Y-101558628D01*
X143474762Y-101558628D02*
X143474762Y-101844342D01*
X143474762Y-101844342D02*
X143427143Y-101939580D01*
X143427143Y-101939580D02*
X143379524Y-101987200D01*
X143379524Y-101987200D02*
X143284286Y-102034819D01*
X143284286Y-102034819D02*
X143141429Y-102034819D01*
X144331905Y-101368152D02*
X144331905Y-102177676D01*
X144331905Y-102177676D02*
X144284286Y-102272914D01*
X144284286Y-102272914D02*
X144236667Y-102320533D01*
X144236667Y-102320533D02*
X144141429Y-102368152D01*
X144141429Y-102368152D02*
X143998572Y-102368152D01*
X143998572Y-102368152D02*
X143903334Y-102320533D01*
X144331905Y-101987200D02*
X144236667Y-102034819D01*
X144236667Y-102034819D02*
X144046191Y-102034819D01*
X144046191Y-102034819D02*
X143950953Y-101987200D01*
X143950953Y-101987200D02*
X143903334Y-101939580D01*
X143903334Y-101939580D02*
X143855715Y-101844342D01*
X143855715Y-101844342D02*
X143855715Y-101558628D01*
X143855715Y-101558628D02*
X143903334Y-101463390D01*
X143903334Y-101463390D02*
X143950953Y-101415771D01*
X143950953Y-101415771D02*
X144046191Y-101368152D01*
X144046191Y-101368152D02*
X144236667Y-101368152D01*
X144236667Y-101368152D02*
X144331905Y-101415771D01*
X135386666Y-101034819D02*
X135386666Y-101749104D01*
X135386666Y-101749104D02*
X135339047Y-101891961D01*
X135339047Y-101891961D02*
X135243809Y-101987200D01*
X135243809Y-101987200D02*
X135100952Y-102034819D01*
X135100952Y-102034819D02*
X135005714Y-102034819D01*
X135767619Y-101034819D02*
X136386666Y-101034819D01*
X136386666Y-101034819D02*
X136053333Y-101415771D01*
X136053333Y-101415771D02*
X136196190Y-101415771D01*
X136196190Y-101415771D02*
X136291428Y-101463390D01*
X136291428Y-101463390D02*
X136339047Y-101511009D01*
X136339047Y-101511009D02*
X136386666Y-101606247D01*
X136386666Y-101606247D02*
X136386666Y-101844342D01*
X136386666Y-101844342D02*
X136339047Y-101939580D01*
X136339047Y-101939580D02*
X136291428Y-101987200D01*
X136291428Y-101987200D02*
X136196190Y-102034819D01*
X136196190Y-102034819D02*
X135910476Y-102034819D01*
X135910476Y-102034819D02*
X135815238Y-101987200D01*
X135815238Y-101987200D02*
X135767619Y-101939580D01*
X113734819Y-60690476D02*
X113258628Y-61023809D01*
X113734819Y-61261904D02*
X112734819Y-61261904D01*
X112734819Y-61261904D02*
X112734819Y-60880952D01*
X112734819Y-60880952D02*
X112782438Y-60785714D01*
X112782438Y-60785714D02*
X112830057Y-60738095D01*
X112830057Y-60738095D02*
X112925295Y-60690476D01*
X112925295Y-60690476D02*
X113068152Y-60690476D01*
X113068152Y-60690476D02*
X113163390Y-60738095D01*
X113163390Y-60738095D02*
X113211009Y-60785714D01*
X113211009Y-60785714D02*
X113258628Y-60880952D01*
X113258628Y-60880952D02*
X113258628Y-61261904D01*
X116454819Y-61166666D02*
X115978628Y-61499999D01*
X116454819Y-61738094D02*
X115454819Y-61738094D01*
X115454819Y-61738094D02*
X115454819Y-61357142D01*
X115454819Y-61357142D02*
X115502438Y-61261904D01*
X115502438Y-61261904D02*
X115550057Y-61214285D01*
X115550057Y-61214285D02*
X115645295Y-61166666D01*
X115645295Y-61166666D02*
X115788152Y-61166666D01*
X115788152Y-61166666D02*
X115883390Y-61214285D01*
X115883390Y-61214285D02*
X115931009Y-61261904D01*
X115931009Y-61261904D02*
X115978628Y-61357142D01*
X115978628Y-61357142D02*
X115978628Y-61738094D01*
X115454819Y-60833332D02*
X115454819Y-60214285D01*
X115454819Y-60214285D02*
X115835771Y-60547618D01*
X115835771Y-60547618D02*
X115835771Y-60404761D01*
X115835771Y-60404761D02*
X115883390Y-60309523D01*
X115883390Y-60309523D02*
X115931009Y-60261904D01*
X115931009Y-60261904D02*
X116026247Y-60214285D01*
X116026247Y-60214285D02*
X116264342Y-60214285D01*
X116264342Y-60214285D02*
X116359580Y-60261904D01*
X116359580Y-60261904D02*
X116407200Y-60309523D01*
X116407200Y-60309523D02*
X116454819Y-60404761D01*
X116454819Y-60404761D02*
X116454819Y-60690475D01*
X116454819Y-60690475D02*
X116407200Y-60785713D01*
X116407200Y-60785713D02*
X116359580Y-60833332D01*
X121178570Y-62609580D02*
X121130951Y-62657200D01*
X121130951Y-62657200D02*
X120988094Y-62704819D01*
X120988094Y-62704819D02*
X120892856Y-62704819D01*
X120892856Y-62704819D02*
X120749999Y-62657200D01*
X120749999Y-62657200D02*
X120654761Y-62561961D01*
X120654761Y-62561961D02*
X120607142Y-62466723D01*
X120607142Y-62466723D02*
X120559523Y-62276247D01*
X120559523Y-62276247D02*
X120559523Y-62133390D01*
X120559523Y-62133390D02*
X120607142Y-61942914D01*
X120607142Y-61942914D02*
X120654761Y-61847676D01*
X120654761Y-61847676D02*
X120749999Y-61752438D01*
X120749999Y-61752438D02*
X120892856Y-61704819D01*
X120892856Y-61704819D02*
X120988094Y-61704819D01*
X120988094Y-61704819D02*
X121130951Y-61752438D01*
X121130951Y-61752438D02*
X121178570Y-61800057D01*
X121369047Y-62800057D02*
X122130951Y-62800057D01*
X122369047Y-62704819D02*
X122369047Y-61704819D01*
X122369047Y-61704819D02*
X122749999Y-61704819D01*
X122749999Y-61704819D02*
X122845237Y-61752438D01*
X122845237Y-61752438D02*
X122892856Y-61800057D01*
X122892856Y-61800057D02*
X122940475Y-61895295D01*
X122940475Y-61895295D02*
X122940475Y-62038152D01*
X122940475Y-62038152D02*
X122892856Y-62133390D01*
X122892856Y-62133390D02*
X122845237Y-62181009D01*
X122845237Y-62181009D02*
X122749999Y-62228628D01*
X122749999Y-62228628D02*
X122369047Y-62228628D01*
X123511904Y-62704819D02*
X123416666Y-62657200D01*
X123416666Y-62657200D02*
X123369047Y-62609580D01*
X123369047Y-62609580D02*
X123321428Y-62514342D01*
X123321428Y-62514342D02*
X123321428Y-62228628D01*
X123321428Y-62228628D02*
X123369047Y-62133390D01*
X123369047Y-62133390D02*
X123416666Y-62085771D01*
X123416666Y-62085771D02*
X123511904Y-62038152D01*
X123511904Y-62038152D02*
X123654761Y-62038152D01*
X123654761Y-62038152D02*
X123749999Y-62085771D01*
X123749999Y-62085771D02*
X123797618Y-62133390D01*
X123797618Y-62133390D02*
X123845237Y-62228628D01*
X123845237Y-62228628D02*
X123845237Y-62514342D01*
X123845237Y-62514342D02*
X123797618Y-62609580D01*
X123797618Y-62609580D02*
X123749999Y-62657200D01*
X123749999Y-62657200D02*
X123654761Y-62704819D01*
X123654761Y-62704819D02*
X123511904Y-62704819D01*
X124416666Y-62704819D02*
X124321428Y-62657200D01*
X124321428Y-62657200D02*
X124273809Y-62561961D01*
X124273809Y-62561961D02*
X124273809Y-61704819D01*
X125226190Y-62704819D02*
X125226190Y-62181009D01*
X125226190Y-62181009D02*
X125178571Y-62085771D01*
X125178571Y-62085771D02*
X125083333Y-62038152D01*
X125083333Y-62038152D02*
X124892857Y-62038152D01*
X124892857Y-62038152D02*
X124797619Y-62085771D01*
X125226190Y-62657200D02*
X125130952Y-62704819D01*
X125130952Y-62704819D02*
X124892857Y-62704819D01*
X124892857Y-62704819D02*
X124797619Y-62657200D01*
X124797619Y-62657200D02*
X124750000Y-62561961D01*
X124750000Y-62561961D02*
X124750000Y-62466723D01*
X124750000Y-62466723D02*
X124797619Y-62371485D01*
X124797619Y-62371485D02*
X124892857Y-62323866D01*
X124892857Y-62323866D02*
X125130952Y-62323866D01*
X125130952Y-62323866D02*
X125226190Y-62276247D01*
X125702381Y-62704819D02*
X125702381Y-62038152D01*
X125702381Y-62228628D02*
X125750000Y-62133390D01*
X125750000Y-62133390D02*
X125797619Y-62085771D01*
X125797619Y-62085771D02*
X125892857Y-62038152D01*
X125892857Y-62038152D02*
X125988095Y-62038152D01*
X126321429Y-62704819D02*
X126321429Y-62038152D01*
X126321429Y-61704819D02*
X126273810Y-61752438D01*
X126273810Y-61752438D02*
X126321429Y-61800057D01*
X126321429Y-61800057D02*
X126369048Y-61752438D01*
X126369048Y-61752438D02*
X126321429Y-61704819D01*
X126321429Y-61704819D02*
X126321429Y-61800057D01*
X126702381Y-62038152D02*
X127226190Y-62038152D01*
X127226190Y-62038152D02*
X126702381Y-62704819D01*
X126702381Y-62704819D02*
X127226190Y-62704819D01*
X127988095Y-62657200D02*
X127892857Y-62704819D01*
X127892857Y-62704819D02*
X127702381Y-62704819D01*
X127702381Y-62704819D02*
X127607143Y-62657200D01*
X127607143Y-62657200D02*
X127559524Y-62561961D01*
X127559524Y-62561961D02*
X127559524Y-62181009D01*
X127559524Y-62181009D02*
X127607143Y-62085771D01*
X127607143Y-62085771D02*
X127702381Y-62038152D01*
X127702381Y-62038152D02*
X127892857Y-62038152D01*
X127892857Y-62038152D02*
X127988095Y-62085771D01*
X127988095Y-62085771D02*
X128035714Y-62181009D01*
X128035714Y-62181009D02*
X128035714Y-62276247D01*
X128035714Y-62276247D02*
X127559524Y-62371485D01*
X128892857Y-62704819D02*
X128892857Y-61704819D01*
X128892857Y-62657200D02*
X128797619Y-62704819D01*
X128797619Y-62704819D02*
X128607143Y-62704819D01*
X128607143Y-62704819D02*
X128511905Y-62657200D01*
X128511905Y-62657200D02*
X128464286Y-62609580D01*
X128464286Y-62609580D02*
X128416667Y-62514342D01*
X128416667Y-62514342D02*
X128416667Y-62228628D01*
X128416667Y-62228628D02*
X128464286Y-62133390D01*
X128464286Y-62133390D02*
X128511905Y-62085771D01*
X128511905Y-62085771D02*
X128607143Y-62038152D01*
X128607143Y-62038152D02*
X128797619Y-62038152D01*
X128797619Y-62038152D02*
X128892857Y-62085771D01*
X124583333Y-66359580D02*
X124535714Y-66407200D01*
X124535714Y-66407200D02*
X124392857Y-66454819D01*
X124392857Y-66454819D02*
X124297619Y-66454819D01*
X124297619Y-66454819D02*
X124154762Y-66407200D01*
X124154762Y-66407200D02*
X124059524Y-66311961D01*
X124059524Y-66311961D02*
X124011905Y-66216723D01*
X124011905Y-66216723D02*
X123964286Y-66026247D01*
X123964286Y-66026247D02*
X123964286Y-65883390D01*
X123964286Y-65883390D02*
X124011905Y-65692914D01*
X124011905Y-65692914D02*
X124059524Y-65597676D01*
X124059524Y-65597676D02*
X124154762Y-65502438D01*
X124154762Y-65502438D02*
X124297619Y-65454819D01*
X124297619Y-65454819D02*
X124392857Y-65454819D01*
X124392857Y-65454819D02*
X124535714Y-65502438D01*
X124535714Y-65502438D02*
X124583333Y-65550057D01*
X125535714Y-66454819D02*
X124964286Y-66454819D01*
X125250000Y-66454819D02*
X125250000Y-65454819D01*
X125250000Y-65454819D02*
X125154762Y-65597676D01*
X125154762Y-65597676D02*
X125059524Y-65692914D01*
X125059524Y-65692914D02*
X124964286Y-65740533D01*
X134360805Y-64968876D02*
X134408583Y-65016654D01*
X134408583Y-65016654D02*
X134456360Y-65159987D01*
X134456360Y-65159987D02*
X134456360Y-65255542D01*
X134456360Y-65255542D02*
X134408583Y-65398875D01*
X134408583Y-65398875D02*
X134313027Y-65494431D01*
X134313027Y-65494431D02*
X134217472Y-65542208D01*
X134217472Y-65542208D02*
X134026361Y-65589986D01*
X134026361Y-65589986D02*
X133883028Y-65589986D01*
X133883028Y-65589986D02*
X133691918Y-65542208D01*
X133691918Y-65542208D02*
X133596362Y-65494431D01*
X133596362Y-65494431D02*
X133500807Y-65398875D01*
X133500807Y-65398875D02*
X133453029Y-65255542D01*
X133453029Y-65255542D02*
X133453029Y-65159987D01*
X133453029Y-65159987D02*
X133500807Y-65016654D01*
X133500807Y-65016654D02*
X133548585Y-64968876D01*
X133930806Y-64538877D02*
X133930806Y-64204434D01*
X134456360Y-64061101D02*
X134456360Y-64538877D01*
X134456360Y-64538877D02*
X133453029Y-64538877D01*
X133453029Y-64538877D02*
X133453029Y-64061101D01*
X134456360Y-63631101D02*
X133453029Y-63631101D01*
X133453029Y-63631101D02*
X134169694Y-63296658D01*
X134169694Y-63296658D02*
X133453029Y-62962214D01*
X133453029Y-62962214D02*
X134456360Y-62962214D01*
X134074139Y-62484437D02*
X134074139Y-61719995D01*
X134456360Y-60716664D02*
X134456360Y-61289996D01*
X134456360Y-61003330D02*
X133453029Y-61003330D01*
X133453029Y-61003330D02*
X133596362Y-61098885D01*
X133596362Y-61098885D02*
X133691918Y-61194441D01*
X133691918Y-61194441D02*
X133739695Y-61289996D01*
X133548585Y-60334443D02*
X133500807Y-60286665D01*
X133500807Y-60286665D02*
X133453029Y-60191110D01*
X133453029Y-60191110D02*
X133453029Y-59952222D01*
X133453029Y-59952222D02*
X133500807Y-59856666D01*
X133500807Y-59856666D02*
X133548585Y-59808889D01*
X133548585Y-59808889D02*
X133644140Y-59761111D01*
X133644140Y-59761111D02*
X133739695Y-59761111D01*
X133739695Y-59761111D02*
X133883028Y-59808889D01*
X133883028Y-59808889D02*
X134456360Y-60382221D01*
X134456360Y-60382221D02*
X134456360Y-59761111D01*
X133453029Y-59140002D02*
X133453029Y-59044446D01*
X133453029Y-59044446D02*
X133500807Y-58948891D01*
X133500807Y-58948891D02*
X133548585Y-58901113D01*
X133548585Y-58901113D02*
X133644140Y-58853336D01*
X133644140Y-58853336D02*
X133835251Y-58805558D01*
X133835251Y-58805558D02*
X134074139Y-58805558D01*
X134074139Y-58805558D02*
X134265250Y-58853336D01*
X134265250Y-58853336D02*
X134360805Y-58901113D01*
X134360805Y-58901113D02*
X134408583Y-58948891D01*
X134408583Y-58948891D02*
X134456360Y-59044446D01*
X134456360Y-59044446D02*
X134456360Y-59140002D01*
X134456360Y-59140002D02*
X134408583Y-59235557D01*
X134408583Y-59235557D02*
X134360805Y-59283335D01*
X134360805Y-59283335D02*
X134265250Y-59331112D01*
X134265250Y-59331112D02*
X134074139Y-59378890D01*
X134074139Y-59378890D02*
X133835251Y-59378890D01*
X133835251Y-59378890D02*
X133644140Y-59331112D01*
X133644140Y-59331112D02*
X133548585Y-59283335D01*
X133548585Y-59283335D02*
X133500807Y-59235557D01*
X133500807Y-59235557D02*
X133453029Y-59140002D01*
X133453029Y-58471115D02*
X133453029Y-57850005D01*
X133453029Y-57850005D02*
X133835251Y-58184449D01*
X133835251Y-58184449D02*
X133835251Y-58041116D01*
X133835251Y-58041116D02*
X133883028Y-57945560D01*
X133883028Y-57945560D02*
X133930806Y-57897783D01*
X133930806Y-57897783D02*
X134026361Y-57850005D01*
X134026361Y-57850005D02*
X134265250Y-57850005D01*
X134265250Y-57850005D02*
X134360805Y-57897783D01*
X134360805Y-57897783D02*
X134408583Y-57945560D01*
X134408583Y-57945560D02*
X134456360Y-58041116D01*
X134456360Y-58041116D02*
X134456360Y-58327782D01*
X134456360Y-58327782D02*
X134408583Y-58423337D01*
X134408583Y-58423337D02*
X134360805Y-58471115D01*
X134551916Y-57658895D02*
X134551916Y-56894452D01*
X133787473Y-56225564D02*
X134456360Y-56225564D01*
X133405252Y-56464453D02*
X134121917Y-56703341D01*
X134121917Y-56703341D02*
X134121917Y-56082231D01*
X133548585Y-55747788D02*
X133500807Y-55700010D01*
X133500807Y-55700010D02*
X133453029Y-55604455D01*
X133453029Y-55604455D02*
X133453029Y-55365567D01*
X133453029Y-55365567D02*
X133500807Y-55270011D01*
X133500807Y-55270011D02*
X133548585Y-55222234D01*
X133548585Y-55222234D02*
X133644140Y-55174456D01*
X133644140Y-55174456D02*
X133739695Y-55174456D01*
X133739695Y-55174456D02*
X133883028Y-55222234D01*
X133883028Y-55222234D02*
X134456360Y-55795566D01*
X134456360Y-55795566D02*
X134456360Y-55174456D01*
X134551916Y-54983346D02*
X134551916Y-54218903D01*
X106412585Y-78444818D02*
X105936395Y-78444818D01*
X105936395Y-78444818D02*
X105936395Y-77444818D01*
X106745919Y-77921008D02*
X107079252Y-77921008D01*
X107222109Y-78444818D02*
X106745919Y-78444818D01*
X106745919Y-78444818D02*
X106745919Y-77444818D01*
X106745919Y-77444818D02*
X107222109Y-77444818D01*
X107650681Y-78444818D02*
X107650681Y-77444818D01*
X107650681Y-77444818D02*
X107888776Y-77444818D01*
X107888776Y-77444818D02*
X108031633Y-77492437D01*
X108031633Y-77492437D02*
X108126871Y-77587675D01*
X108126871Y-77587675D02*
X108174490Y-77682913D01*
X108174490Y-77682913D02*
X108222109Y-77873389D01*
X108222109Y-77873389D02*
X108222109Y-78016246D01*
X108222109Y-78016246D02*
X108174490Y-78206722D01*
X108174490Y-78206722D02*
X108126871Y-78301960D01*
X108126871Y-78301960D02*
X108031633Y-78397199D01*
X108031633Y-78397199D02*
X107888776Y-78444818D01*
X107888776Y-78444818D02*
X107650681Y-78444818D01*
X108412586Y-78540056D02*
X109174490Y-78540056D01*
X109984014Y-78444818D02*
X109650681Y-77968627D01*
X109412586Y-78444818D02*
X109412586Y-77444818D01*
X109412586Y-77444818D02*
X109793538Y-77444818D01*
X109793538Y-77444818D02*
X109888776Y-77492437D01*
X109888776Y-77492437D02*
X109936395Y-77540056D01*
X109936395Y-77540056D02*
X109984014Y-77635294D01*
X109984014Y-77635294D02*
X109984014Y-77778151D01*
X109984014Y-77778151D02*
X109936395Y-77873389D01*
X109936395Y-77873389D02*
X109888776Y-77921008D01*
X109888776Y-77921008D02*
X109793538Y-77968627D01*
X109793538Y-77968627D02*
X109412586Y-77968627D01*
X110364967Y-78159103D02*
X110841157Y-78159103D01*
X110269729Y-78444818D02*
X110603062Y-77444818D01*
X110603062Y-77444818D02*
X110936395Y-78444818D01*
X111793538Y-77492437D02*
X111698300Y-77444818D01*
X111698300Y-77444818D02*
X111555443Y-77444818D01*
X111555443Y-77444818D02*
X111412586Y-77492437D01*
X111412586Y-77492437D02*
X111317348Y-77587675D01*
X111317348Y-77587675D02*
X111269729Y-77682913D01*
X111269729Y-77682913D02*
X111222110Y-77873389D01*
X111222110Y-77873389D02*
X111222110Y-78016246D01*
X111222110Y-78016246D02*
X111269729Y-78206722D01*
X111269729Y-78206722D02*
X111317348Y-78301960D01*
X111317348Y-78301960D02*
X111412586Y-78397199D01*
X111412586Y-78397199D02*
X111555443Y-78444818D01*
X111555443Y-78444818D02*
X111650681Y-78444818D01*
X111650681Y-78444818D02*
X111793538Y-78397199D01*
X111793538Y-78397199D02*
X111841157Y-78349579D01*
X111841157Y-78349579D02*
X111841157Y-78016246D01*
X111841157Y-78016246D02*
X111650681Y-78016246D01*
X112603062Y-77921008D02*
X112745919Y-77968627D01*
X112745919Y-77968627D02*
X112793538Y-78016246D01*
X112793538Y-78016246D02*
X112841157Y-78111484D01*
X112841157Y-78111484D02*
X112841157Y-78254341D01*
X112841157Y-78254341D02*
X112793538Y-78349579D01*
X112793538Y-78349579D02*
X112745919Y-78397199D01*
X112745919Y-78397199D02*
X112650681Y-78444818D01*
X112650681Y-78444818D02*
X112269729Y-78444818D01*
X112269729Y-78444818D02*
X112269729Y-77444818D01*
X112269729Y-77444818D02*
X112603062Y-77444818D01*
X112603062Y-77444818D02*
X112698300Y-77492437D01*
X112698300Y-77492437D02*
X112745919Y-77540056D01*
X112745919Y-77540056D02*
X112793538Y-77635294D01*
X112793538Y-77635294D02*
X112793538Y-77730532D01*
X112793538Y-77730532D02*
X112745919Y-77825770D01*
X112745919Y-77825770D02*
X112698300Y-77873389D01*
X112698300Y-77873389D02*
X112603062Y-77921008D01*
X112603062Y-77921008D02*
X112269729Y-77921008D01*
D11*
X108774524Y-75363855D02*
X108774524Y-74563855D01*
X108774524Y-74563855D02*
X108965000Y-74563855D01*
X108965000Y-74563855D02*
X109079286Y-74601950D01*
X109079286Y-74601950D02*
X109155476Y-74678140D01*
X109155476Y-74678140D02*
X109193571Y-74754331D01*
X109193571Y-74754331D02*
X109231667Y-74906712D01*
X109231667Y-74906712D02*
X109231667Y-75020998D01*
X109231667Y-75020998D02*
X109193571Y-75173379D01*
X109193571Y-75173379D02*
X109155476Y-75249569D01*
X109155476Y-75249569D02*
X109079286Y-75325760D01*
X109079286Y-75325760D02*
X108965000Y-75363855D01*
X108965000Y-75363855D02*
X108774524Y-75363855D01*
X109993571Y-75363855D02*
X109536428Y-75363855D01*
X109765000Y-75363855D02*
X109765000Y-74563855D01*
X109765000Y-74563855D02*
X109688809Y-74678140D01*
X109688809Y-74678140D02*
X109612619Y-74754331D01*
X109612619Y-74754331D02*
X109536428Y-74792426D01*
D10*
X110788857Y-46154819D02*
X110788857Y-45154819D01*
X110788857Y-45154819D02*
X111026952Y-45154819D01*
X111026952Y-45154819D02*
X111169809Y-45202438D01*
X111169809Y-45202438D02*
X111265047Y-45297676D01*
X111265047Y-45297676D02*
X111312666Y-45392914D01*
X111312666Y-45392914D02*
X111360285Y-45583390D01*
X111360285Y-45583390D02*
X111360285Y-45726247D01*
X111360285Y-45726247D02*
X111312666Y-45916723D01*
X111312666Y-45916723D02*
X111265047Y-46011961D01*
X111265047Y-46011961D02*
X111169809Y-46107200D01*
X111169809Y-46107200D02*
X111026952Y-46154819D01*
X111026952Y-46154819D02*
X110788857Y-46154819D01*
X111788857Y-46154819D02*
X111788857Y-45488152D01*
X111788857Y-45154819D02*
X111741238Y-45202438D01*
X111741238Y-45202438D02*
X111788857Y-45250057D01*
X111788857Y-45250057D02*
X111836476Y-45202438D01*
X111836476Y-45202438D02*
X111788857Y-45154819D01*
X111788857Y-45154819D02*
X111788857Y-45250057D01*
X112693618Y-45488152D02*
X112693618Y-46297676D01*
X112693618Y-46297676D02*
X112645999Y-46392914D01*
X112645999Y-46392914D02*
X112598380Y-46440533D01*
X112598380Y-46440533D02*
X112503142Y-46488152D01*
X112503142Y-46488152D02*
X112360285Y-46488152D01*
X112360285Y-46488152D02*
X112265047Y-46440533D01*
X112693618Y-46107200D02*
X112598380Y-46154819D01*
X112598380Y-46154819D02*
X112407904Y-46154819D01*
X112407904Y-46154819D02*
X112312666Y-46107200D01*
X112312666Y-46107200D02*
X112265047Y-46059580D01*
X112265047Y-46059580D02*
X112217428Y-45964342D01*
X112217428Y-45964342D02*
X112217428Y-45678628D01*
X112217428Y-45678628D02*
X112265047Y-45583390D01*
X112265047Y-45583390D02*
X112312666Y-45535771D01*
X112312666Y-45535771D02*
X112407904Y-45488152D01*
X112407904Y-45488152D02*
X112598380Y-45488152D01*
X112598380Y-45488152D02*
X112693618Y-45535771D01*
X113169809Y-46154819D02*
X113169809Y-45488152D01*
X113169809Y-45154819D02*
X113122190Y-45202438D01*
X113122190Y-45202438D02*
X113169809Y-45250057D01*
X113169809Y-45250057D02*
X113217428Y-45202438D01*
X113217428Y-45202438D02*
X113169809Y-45154819D01*
X113169809Y-45154819D02*
X113169809Y-45250057D01*
X113503142Y-45488152D02*
X113884094Y-45488152D01*
X113645999Y-45154819D02*
X113645999Y-46011961D01*
X113645999Y-46011961D02*
X113693618Y-46107200D01*
X113693618Y-46107200D02*
X113788856Y-46154819D01*
X113788856Y-46154819D02*
X113884094Y-46154819D01*
X114645999Y-46154819D02*
X114645999Y-45631009D01*
X114645999Y-45631009D02*
X114598380Y-45535771D01*
X114598380Y-45535771D02*
X114503142Y-45488152D01*
X114503142Y-45488152D02*
X114312666Y-45488152D01*
X114312666Y-45488152D02*
X114217428Y-45535771D01*
X114645999Y-46107200D02*
X114550761Y-46154819D01*
X114550761Y-46154819D02*
X114312666Y-46154819D01*
X114312666Y-46154819D02*
X114217428Y-46107200D01*
X114217428Y-46107200D02*
X114169809Y-46011961D01*
X114169809Y-46011961D02*
X114169809Y-45916723D01*
X114169809Y-45916723D02*
X114217428Y-45821485D01*
X114217428Y-45821485D02*
X114312666Y-45773866D01*
X114312666Y-45773866D02*
X114550761Y-45773866D01*
X114550761Y-45773866D02*
X114645999Y-45726247D01*
X115265047Y-46154819D02*
X115169809Y-46107200D01*
X115169809Y-46107200D02*
X115122190Y-46011961D01*
X115122190Y-46011961D02*
X115122190Y-45154819D01*
X116360285Y-45107200D02*
X115503143Y-46392914D01*
X116693619Y-46154819D02*
X116693619Y-45154819D01*
X116693619Y-45154819D02*
X117074571Y-45154819D01*
X117074571Y-45154819D02*
X117169809Y-45202438D01*
X117169809Y-45202438D02*
X117217428Y-45250057D01*
X117217428Y-45250057D02*
X117265047Y-45345295D01*
X117265047Y-45345295D02*
X117265047Y-45488152D01*
X117265047Y-45488152D02*
X117217428Y-45583390D01*
X117217428Y-45583390D02*
X117169809Y-45631009D01*
X117169809Y-45631009D02*
X117074571Y-45678628D01*
X117074571Y-45678628D02*
X116693619Y-45678628D01*
X117598381Y-45154819D02*
X117836476Y-46154819D01*
X117836476Y-46154819D02*
X118026952Y-45440533D01*
X118026952Y-45440533D02*
X118217428Y-46154819D01*
X118217428Y-46154819D02*
X118455524Y-45154819D01*
X118836476Y-46154819D02*
X118836476Y-45154819D01*
X118836476Y-45154819D02*
X119169809Y-45869104D01*
X119169809Y-45869104D02*
X119503142Y-45154819D01*
X119503142Y-45154819D02*
X119503142Y-46154819D01*
X103382666Y-45154819D02*
X103382666Y-45869104D01*
X103382666Y-45869104D02*
X103335047Y-46011961D01*
X103335047Y-46011961D02*
X103239809Y-46107200D01*
X103239809Y-46107200D02*
X103096952Y-46154819D01*
X103096952Y-46154819D02*
X103001714Y-46154819D01*
X103811238Y-45250057D02*
X103858857Y-45202438D01*
X103858857Y-45202438D02*
X103954095Y-45154819D01*
X103954095Y-45154819D02*
X104192190Y-45154819D01*
X104192190Y-45154819D02*
X104287428Y-45202438D01*
X104287428Y-45202438D02*
X104335047Y-45250057D01*
X104335047Y-45250057D02*
X104382666Y-45345295D01*
X104382666Y-45345295D02*
X104382666Y-45440533D01*
X104382666Y-45440533D02*
X104335047Y-45583390D01*
X104335047Y-45583390D02*
X103763619Y-46154819D01*
X103763619Y-46154819D02*
X104382666Y-46154819D01*
X135172857Y-46154819D02*
X135172857Y-45154819D01*
X135172857Y-45154819D02*
X135410952Y-45154819D01*
X135410952Y-45154819D02*
X135553809Y-45202438D01*
X135553809Y-45202438D02*
X135649047Y-45297676D01*
X135649047Y-45297676D02*
X135696666Y-45392914D01*
X135696666Y-45392914D02*
X135744285Y-45583390D01*
X135744285Y-45583390D02*
X135744285Y-45726247D01*
X135744285Y-45726247D02*
X135696666Y-45916723D01*
X135696666Y-45916723D02*
X135649047Y-46011961D01*
X135649047Y-46011961D02*
X135553809Y-46107200D01*
X135553809Y-46107200D02*
X135410952Y-46154819D01*
X135410952Y-46154819D02*
X135172857Y-46154819D01*
X136172857Y-46154819D02*
X136172857Y-45488152D01*
X136172857Y-45154819D02*
X136125238Y-45202438D01*
X136125238Y-45202438D02*
X136172857Y-45250057D01*
X136172857Y-45250057D02*
X136220476Y-45202438D01*
X136220476Y-45202438D02*
X136172857Y-45154819D01*
X136172857Y-45154819D02*
X136172857Y-45250057D01*
X137077618Y-45488152D02*
X137077618Y-46297676D01*
X137077618Y-46297676D02*
X137029999Y-46392914D01*
X137029999Y-46392914D02*
X136982380Y-46440533D01*
X136982380Y-46440533D02*
X136887142Y-46488152D01*
X136887142Y-46488152D02*
X136744285Y-46488152D01*
X136744285Y-46488152D02*
X136649047Y-46440533D01*
X137077618Y-46107200D02*
X136982380Y-46154819D01*
X136982380Y-46154819D02*
X136791904Y-46154819D01*
X136791904Y-46154819D02*
X136696666Y-46107200D01*
X136696666Y-46107200D02*
X136649047Y-46059580D01*
X136649047Y-46059580D02*
X136601428Y-45964342D01*
X136601428Y-45964342D02*
X136601428Y-45678628D01*
X136601428Y-45678628D02*
X136649047Y-45583390D01*
X136649047Y-45583390D02*
X136696666Y-45535771D01*
X136696666Y-45535771D02*
X136791904Y-45488152D01*
X136791904Y-45488152D02*
X136982380Y-45488152D01*
X136982380Y-45488152D02*
X137077618Y-45535771D01*
X137553809Y-46154819D02*
X137553809Y-45488152D01*
X137553809Y-45154819D02*
X137506190Y-45202438D01*
X137506190Y-45202438D02*
X137553809Y-45250057D01*
X137553809Y-45250057D02*
X137601428Y-45202438D01*
X137601428Y-45202438D02*
X137553809Y-45154819D01*
X137553809Y-45154819D02*
X137553809Y-45250057D01*
X137887142Y-45488152D02*
X138268094Y-45488152D01*
X138029999Y-45154819D02*
X138029999Y-46011961D01*
X138029999Y-46011961D02*
X138077618Y-46107200D01*
X138077618Y-46107200D02*
X138172856Y-46154819D01*
X138172856Y-46154819D02*
X138268094Y-46154819D01*
X139029999Y-46154819D02*
X139029999Y-45631009D01*
X139029999Y-45631009D02*
X138982380Y-45535771D01*
X138982380Y-45535771D02*
X138887142Y-45488152D01*
X138887142Y-45488152D02*
X138696666Y-45488152D01*
X138696666Y-45488152D02*
X138601428Y-45535771D01*
X139029999Y-46107200D02*
X138934761Y-46154819D01*
X138934761Y-46154819D02*
X138696666Y-46154819D01*
X138696666Y-46154819D02*
X138601428Y-46107200D01*
X138601428Y-46107200D02*
X138553809Y-46011961D01*
X138553809Y-46011961D02*
X138553809Y-45916723D01*
X138553809Y-45916723D02*
X138601428Y-45821485D01*
X138601428Y-45821485D02*
X138696666Y-45773866D01*
X138696666Y-45773866D02*
X138934761Y-45773866D01*
X138934761Y-45773866D02*
X139029999Y-45726247D01*
X139649047Y-46154819D02*
X139553809Y-46107200D01*
X139553809Y-46107200D02*
X139506190Y-46011961D01*
X139506190Y-46011961D02*
X139506190Y-45154819D01*
X140744285Y-45107200D02*
X139887143Y-46392914D01*
X141077619Y-46154819D02*
X141077619Y-45154819D01*
X141077619Y-45154819D02*
X141458571Y-45154819D01*
X141458571Y-45154819D02*
X141553809Y-45202438D01*
X141553809Y-45202438D02*
X141601428Y-45250057D01*
X141601428Y-45250057D02*
X141649047Y-45345295D01*
X141649047Y-45345295D02*
X141649047Y-45488152D01*
X141649047Y-45488152D02*
X141601428Y-45583390D01*
X141601428Y-45583390D02*
X141553809Y-45631009D01*
X141553809Y-45631009D02*
X141458571Y-45678628D01*
X141458571Y-45678628D02*
X141077619Y-45678628D01*
X141982381Y-45154819D02*
X142220476Y-46154819D01*
X142220476Y-46154819D02*
X142410952Y-45440533D01*
X142410952Y-45440533D02*
X142601428Y-46154819D01*
X142601428Y-46154819D02*
X142839524Y-45154819D01*
X143220476Y-46154819D02*
X143220476Y-45154819D01*
X143220476Y-45154819D02*
X143553809Y-45869104D01*
X143553809Y-45869104D02*
X143887142Y-45154819D01*
X143887142Y-45154819D02*
X143887142Y-46154819D01*
X130306666Y-45154819D02*
X130306666Y-45869104D01*
X130306666Y-45869104D02*
X130259047Y-46011961D01*
X130259047Y-46011961D02*
X130163809Y-46107200D01*
X130163809Y-46107200D02*
X130020952Y-46154819D01*
X130020952Y-46154819D02*
X129925714Y-46154819D01*
X131211428Y-45488152D02*
X131211428Y-46154819D01*
X130973333Y-45107200D02*
X130735238Y-45821485D01*
X130735238Y-45821485D02*
X131354285Y-45821485D01*
X107734819Y-60690476D02*
X107258628Y-61023809D01*
X107734819Y-61261904D02*
X106734819Y-61261904D01*
X106734819Y-61261904D02*
X106734819Y-60880952D01*
X106734819Y-60880952D02*
X106782438Y-60785714D01*
X106782438Y-60785714D02*
X106830057Y-60738095D01*
X106830057Y-60738095D02*
X106925295Y-60690476D01*
X106925295Y-60690476D02*
X107068152Y-60690476D01*
X107068152Y-60690476D02*
X107163390Y-60738095D01*
X107163390Y-60738095D02*
X107211009Y-60785714D01*
X107211009Y-60785714D02*
X107258628Y-60880952D01*
X107258628Y-60880952D02*
X107258628Y-61261904D01*
X110454819Y-61166666D02*
X109978628Y-61499999D01*
X110454819Y-61738094D02*
X109454819Y-61738094D01*
X109454819Y-61738094D02*
X109454819Y-61357142D01*
X109454819Y-61357142D02*
X109502438Y-61261904D01*
X109502438Y-61261904D02*
X109550057Y-61214285D01*
X109550057Y-61214285D02*
X109645295Y-61166666D01*
X109645295Y-61166666D02*
X109788152Y-61166666D01*
X109788152Y-61166666D02*
X109883390Y-61214285D01*
X109883390Y-61214285D02*
X109931009Y-61261904D01*
X109931009Y-61261904D02*
X109978628Y-61357142D01*
X109978628Y-61357142D02*
X109978628Y-61738094D01*
X109550057Y-60785713D02*
X109502438Y-60738094D01*
X109502438Y-60738094D02*
X109454819Y-60642856D01*
X109454819Y-60642856D02*
X109454819Y-60404761D01*
X109454819Y-60404761D02*
X109502438Y-60309523D01*
X109502438Y-60309523D02*
X109550057Y-60261904D01*
X109550057Y-60261904D02*
X109645295Y-60214285D01*
X109645295Y-60214285D02*
X109740533Y-60214285D01*
X109740533Y-60214285D02*
X109883390Y-60261904D01*
X109883390Y-60261904D02*
X110454819Y-60833332D01*
X110454819Y-60833332D02*
X110454819Y-60214285D01*
X101734819Y-60690476D02*
X101258628Y-61023809D01*
X101734819Y-61261904D02*
X100734819Y-61261904D01*
X100734819Y-61261904D02*
X100734819Y-60880952D01*
X100734819Y-60880952D02*
X100782438Y-60785714D01*
X100782438Y-60785714D02*
X100830057Y-60738095D01*
X100830057Y-60738095D02*
X100925295Y-60690476D01*
X100925295Y-60690476D02*
X101068152Y-60690476D01*
X101068152Y-60690476D02*
X101163390Y-60738095D01*
X101163390Y-60738095D02*
X101211009Y-60785714D01*
X101211009Y-60785714D02*
X101258628Y-60880952D01*
X101258628Y-60880952D02*
X101258628Y-61261904D01*
X104454819Y-61166666D02*
X103978628Y-61499999D01*
X104454819Y-61738094D02*
X103454819Y-61738094D01*
X103454819Y-61738094D02*
X103454819Y-61357142D01*
X103454819Y-61357142D02*
X103502438Y-61261904D01*
X103502438Y-61261904D02*
X103550057Y-61214285D01*
X103550057Y-61214285D02*
X103645295Y-61166666D01*
X103645295Y-61166666D02*
X103788152Y-61166666D01*
X103788152Y-61166666D02*
X103883390Y-61214285D01*
X103883390Y-61214285D02*
X103931009Y-61261904D01*
X103931009Y-61261904D02*
X103978628Y-61357142D01*
X103978628Y-61357142D02*
X103978628Y-61738094D01*
X104454819Y-60214285D02*
X104454819Y-60785713D01*
X104454819Y-60499999D02*
X103454819Y-60499999D01*
X103454819Y-60499999D02*
X103597676Y-60595237D01*
X103597676Y-60595237D02*
X103692914Y-60690475D01*
X103692914Y-60690475D02*
X103740533Y-60785713D01*
X120452380Y-57454819D02*
X120452380Y-56454819D01*
X120452380Y-56454819D02*
X120785713Y-57169104D01*
X120785713Y-57169104D02*
X121119046Y-56454819D01*
X121119046Y-56454819D02*
X121119046Y-57454819D01*
X121738094Y-57454819D02*
X121642856Y-57407200D01*
X121642856Y-57407200D02*
X121595237Y-57359580D01*
X121595237Y-57359580D02*
X121547618Y-57264342D01*
X121547618Y-57264342D02*
X121547618Y-56978628D01*
X121547618Y-56978628D02*
X121595237Y-56883390D01*
X121595237Y-56883390D02*
X121642856Y-56835771D01*
X121642856Y-56835771D02*
X121738094Y-56788152D01*
X121738094Y-56788152D02*
X121880951Y-56788152D01*
X121880951Y-56788152D02*
X121976189Y-56835771D01*
X121976189Y-56835771D02*
X122023808Y-56883390D01*
X122023808Y-56883390D02*
X122071427Y-56978628D01*
X122071427Y-56978628D02*
X122071427Y-57264342D01*
X122071427Y-57264342D02*
X122023808Y-57359580D01*
X122023808Y-57359580D02*
X121976189Y-57407200D01*
X121976189Y-57407200D02*
X121880951Y-57454819D01*
X121880951Y-57454819D02*
X121738094Y-57454819D01*
X122357142Y-56788152D02*
X122738094Y-56788152D01*
X122499999Y-56454819D02*
X122499999Y-57311961D01*
X122499999Y-57311961D02*
X122547618Y-57407200D01*
X122547618Y-57407200D02*
X122642856Y-57454819D01*
X122642856Y-57454819D02*
X122738094Y-57454819D01*
X123214285Y-57454819D02*
X123119047Y-57407200D01*
X123119047Y-57407200D02*
X123071428Y-57359580D01*
X123071428Y-57359580D02*
X123023809Y-57264342D01*
X123023809Y-57264342D02*
X123023809Y-56978628D01*
X123023809Y-56978628D02*
X123071428Y-56883390D01*
X123071428Y-56883390D02*
X123119047Y-56835771D01*
X123119047Y-56835771D02*
X123214285Y-56788152D01*
X123214285Y-56788152D02*
X123357142Y-56788152D01*
X123357142Y-56788152D02*
X123452380Y-56835771D01*
X123452380Y-56835771D02*
X123499999Y-56883390D01*
X123499999Y-56883390D02*
X123547618Y-56978628D01*
X123547618Y-56978628D02*
X123547618Y-57264342D01*
X123547618Y-57264342D02*
X123499999Y-57359580D01*
X123499999Y-57359580D02*
X123452380Y-57407200D01*
X123452380Y-57407200D02*
X123357142Y-57454819D01*
X123357142Y-57454819D02*
X123214285Y-57454819D01*
X123976190Y-57454819D02*
X123976190Y-56788152D01*
X123976190Y-56978628D02*
X124023809Y-56883390D01*
X124023809Y-56883390D02*
X124071428Y-56835771D01*
X124071428Y-56835771D02*
X124166666Y-56788152D01*
X124166666Y-56788152D02*
X124261904Y-56788152D01*
X124357143Y-57550057D02*
X125119047Y-57550057D01*
X125309524Y-57407200D02*
X125452381Y-57454819D01*
X125452381Y-57454819D02*
X125690476Y-57454819D01*
X125690476Y-57454819D02*
X125785714Y-57407200D01*
X125785714Y-57407200D02*
X125833333Y-57359580D01*
X125833333Y-57359580D02*
X125880952Y-57264342D01*
X125880952Y-57264342D02*
X125880952Y-57169104D01*
X125880952Y-57169104D02*
X125833333Y-57073866D01*
X125833333Y-57073866D02*
X125785714Y-57026247D01*
X125785714Y-57026247D02*
X125690476Y-56978628D01*
X125690476Y-56978628D02*
X125500000Y-56931009D01*
X125500000Y-56931009D02*
X125404762Y-56883390D01*
X125404762Y-56883390D02*
X125357143Y-56835771D01*
X125357143Y-56835771D02*
X125309524Y-56740533D01*
X125309524Y-56740533D02*
X125309524Y-56645295D01*
X125309524Y-56645295D02*
X125357143Y-56550057D01*
X125357143Y-56550057D02*
X125404762Y-56502438D01*
X125404762Y-56502438D02*
X125500000Y-56454819D01*
X125500000Y-56454819D02*
X125738095Y-56454819D01*
X125738095Y-56454819D02*
X125880952Y-56502438D01*
X126690476Y-57407200D02*
X126595238Y-57454819D01*
X126595238Y-57454819D02*
X126404762Y-57454819D01*
X126404762Y-57454819D02*
X126309524Y-57407200D01*
X126309524Y-57407200D02*
X126261905Y-57311961D01*
X126261905Y-57311961D02*
X126261905Y-56931009D01*
X126261905Y-56931009D02*
X126309524Y-56835771D01*
X126309524Y-56835771D02*
X126404762Y-56788152D01*
X126404762Y-56788152D02*
X126595238Y-56788152D01*
X126595238Y-56788152D02*
X126690476Y-56835771D01*
X126690476Y-56835771D02*
X126738095Y-56931009D01*
X126738095Y-56931009D02*
X126738095Y-57026247D01*
X126738095Y-57026247D02*
X126261905Y-57121485D01*
X127166667Y-57454819D02*
X127166667Y-56788152D01*
X127166667Y-56978628D02*
X127214286Y-56883390D01*
X127214286Y-56883390D02*
X127261905Y-56835771D01*
X127261905Y-56835771D02*
X127357143Y-56788152D01*
X127357143Y-56788152D02*
X127452381Y-56788152D01*
X127690477Y-56788152D02*
X127928572Y-57454819D01*
X127928572Y-57454819D02*
X128166667Y-56788152D01*
X128690477Y-57454819D02*
X128595239Y-57407200D01*
X128595239Y-57407200D02*
X128547620Y-57359580D01*
X128547620Y-57359580D02*
X128500001Y-57264342D01*
X128500001Y-57264342D02*
X128500001Y-56978628D01*
X128500001Y-56978628D02*
X128547620Y-56883390D01*
X128547620Y-56883390D02*
X128595239Y-56835771D01*
X128595239Y-56835771D02*
X128690477Y-56788152D01*
X128690477Y-56788152D02*
X128833334Y-56788152D01*
X128833334Y-56788152D02*
X128928572Y-56835771D01*
X128928572Y-56835771D02*
X128976191Y-56883390D01*
X128976191Y-56883390D02*
X129023810Y-56978628D01*
X129023810Y-56978628D02*
X129023810Y-57264342D01*
X129023810Y-57264342D02*
X128976191Y-57359580D01*
X128976191Y-57359580D02*
X128928572Y-57407200D01*
X128928572Y-57407200D02*
X128833334Y-57454819D01*
X128833334Y-57454819D02*
X128690477Y-57454819D01*
X129214287Y-57550057D02*
X129976191Y-57550057D01*
X130214287Y-57454819D02*
X130214287Y-56454819D01*
X130214287Y-56931009D02*
X130785715Y-56931009D01*
X130785715Y-57454819D02*
X130785715Y-56454819D01*
X131261906Y-57454819D02*
X131261906Y-56788152D01*
X131261906Y-56454819D02*
X131214287Y-56502438D01*
X131214287Y-56502438D02*
X131261906Y-56550057D01*
X131261906Y-56550057D02*
X131309525Y-56502438D01*
X131309525Y-56502438D02*
X131261906Y-56454819D01*
X131261906Y-56454819D02*
X131261906Y-56550057D01*
X131595239Y-56788152D02*
X131976191Y-56788152D01*
X131738096Y-56454819D02*
X131738096Y-57311961D01*
X131738096Y-57311961D02*
X131785715Y-57407200D01*
X131785715Y-57407200D02*
X131880953Y-57454819D01*
X131880953Y-57454819D02*
X131976191Y-57454819D01*
X132690477Y-57407200D02*
X132595239Y-57454819D01*
X132595239Y-57454819D02*
X132404763Y-57454819D01*
X132404763Y-57454819D02*
X132309525Y-57407200D01*
X132309525Y-57407200D02*
X132261906Y-57311961D01*
X132261906Y-57311961D02*
X132261906Y-56931009D01*
X132261906Y-56931009D02*
X132309525Y-56835771D01*
X132309525Y-56835771D02*
X132404763Y-56788152D01*
X132404763Y-56788152D02*
X132595239Y-56788152D01*
X132595239Y-56788152D02*
X132690477Y-56835771D01*
X132690477Y-56835771D02*
X132738096Y-56931009D01*
X132738096Y-56931009D02*
X132738096Y-57026247D01*
X132738096Y-57026247D02*
X132261906Y-57121485D01*
X133595239Y-57407200D02*
X133500001Y-57454819D01*
X133500001Y-57454819D02*
X133309525Y-57454819D01*
X133309525Y-57454819D02*
X133214287Y-57407200D01*
X133214287Y-57407200D02*
X133166668Y-57359580D01*
X133166668Y-57359580D02*
X133119049Y-57264342D01*
X133119049Y-57264342D02*
X133119049Y-56978628D01*
X133119049Y-56978628D02*
X133166668Y-56883390D01*
X133166668Y-56883390D02*
X133214287Y-56835771D01*
X133214287Y-56835771D02*
X133309525Y-56788152D01*
X133309525Y-56788152D02*
X133500001Y-56788152D01*
X133500001Y-56788152D02*
X133595239Y-56835771D01*
X125190476Y-60454819D02*
X125190476Y-59454819D01*
X125190476Y-59454819D02*
X125523809Y-60169104D01*
X125523809Y-60169104D02*
X125857142Y-59454819D01*
X125857142Y-59454819D02*
X125857142Y-60454819D01*
X126857142Y-60454819D02*
X126285714Y-60454819D01*
X126571428Y-60454819D02*
X126571428Y-59454819D01*
X126571428Y-59454819D02*
X126476190Y-59597676D01*
X126476190Y-59597676D02*
X126380952Y-59692914D01*
X126380952Y-59692914D02*
X126285714Y-59740533D01*
X150826297Y-53528775D02*
X149824604Y-53528775D01*
X150301601Y-53528775D02*
X150301601Y-52956379D01*
X150826297Y-52956379D02*
X149824604Y-52956379D01*
X150730898Y-51906986D02*
X150778598Y-51954686D01*
X150778598Y-51954686D02*
X150826297Y-52097785D01*
X150826297Y-52097785D02*
X150826297Y-52193184D01*
X150826297Y-52193184D02*
X150778598Y-52336283D01*
X150778598Y-52336283D02*
X150683198Y-52431683D01*
X150683198Y-52431683D02*
X150587799Y-52479382D01*
X150587799Y-52479382D02*
X150397000Y-52527082D01*
X150397000Y-52527082D02*
X150253901Y-52527082D01*
X150253901Y-52527082D02*
X150063103Y-52479382D01*
X150063103Y-52479382D02*
X149967703Y-52431683D01*
X149967703Y-52431683D02*
X149872304Y-52336283D01*
X149872304Y-52336283D02*
X149824604Y-52193184D01*
X149824604Y-52193184D02*
X149824604Y-52097785D01*
X149824604Y-52097785D02*
X149872304Y-51954686D01*
X149872304Y-51954686D02*
X149920004Y-51906986D01*
X150444700Y-51477689D02*
X150444700Y-50714495D01*
X150778598Y-50285198D02*
X150826297Y-50142099D01*
X150826297Y-50142099D02*
X150826297Y-49903601D01*
X150826297Y-49903601D02*
X150778598Y-49808201D01*
X150778598Y-49808201D02*
X150730898Y-49760502D01*
X150730898Y-49760502D02*
X150635499Y-49712802D01*
X150635499Y-49712802D02*
X150540099Y-49712802D01*
X150540099Y-49712802D02*
X150444700Y-49760502D01*
X150444700Y-49760502D02*
X150397000Y-49808201D01*
X150397000Y-49808201D02*
X150349301Y-49903601D01*
X150349301Y-49903601D02*
X150301601Y-50094399D01*
X150301601Y-50094399D02*
X150253901Y-50189799D01*
X150253901Y-50189799D02*
X150206202Y-50237498D01*
X150206202Y-50237498D02*
X150110802Y-50285198D01*
X150110802Y-50285198D02*
X150015403Y-50285198D01*
X150015403Y-50285198D02*
X149920004Y-50237498D01*
X149920004Y-50237498D02*
X149872304Y-50189799D01*
X149872304Y-50189799D02*
X149824604Y-50094399D01*
X149824604Y-50094399D02*
X149824604Y-49855901D01*
X149824604Y-49855901D02*
X149872304Y-49712802D01*
X150826297Y-48711109D02*
X150349301Y-49045007D01*
X150826297Y-49283505D02*
X149824604Y-49283505D01*
X149824604Y-49283505D02*
X149824604Y-48901908D01*
X149824604Y-48901908D02*
X149872304Y-48806509D01*
X149872304Y-48806509D02*
X149920004Y-48758809D01*
X149920004Y-48758809D02*
X150015403Y-48711109D01*
X150015403Y-48711109D02*
X150158502Y-48711109D01*
X150158502Y-48711109D02*
X150253901Y-48758809D01*
X150253901Y-48758809D02*
X150301601Y-48806509D01*
X150301601Y-48806509D02*
X150349301Y-48901908D01*
X150349301Y-48901908D02*
X150349301Y-49283505D01*
X149824604Y-48091014D02*
X149824604Y-47995614D01*
X149824604Y-47995614D02*
X149872304Y-47900215D01*
X149872304Y-47900215D02*
X149920004Y-47852515D01*
X149920004Y-47852515D02*
X150015403Y-47804816D01*
X150015403Y-47804816D02*
X150206202Y-47757116D01*
X150206202Y-47757116D02*
X150444700Y-47757116D01*
X150444700Y-47757116D02*
X150635499Y-47804816D01*
X150635499Y-47804816D02*
X150730898Y-47852515D01*
X150730898Y-47852515D02*
X150778598Y-47900215D01*
X150778598Y-47900215D02*
X150826297Y-47995614D01*
X150826297Y-47995614D02*
X150826297Y-48091014D01*
X150826297Y-48091014D02*
X150778598Y-48186413D01*
X150778598Y-48186413D02*
X150730898Y-48234113D01*
X150730898Y-48234113D02*
X150635499Y-48281812D01*
X150635499Y-48281812D02*
X150444700Y-48329512D01*
X150444700Y-48329512D02*
X150206202Y-48329512D01*
X150206202Y-48329512D02*
X150015403Y-48281812D01*
X150015403Y-48281812D02*
X149920004Y-48234113D01*
X149920004Y-48234113D02*
X149872304Y-48186413D01*
X149872304Y-48186413D02*
X149824604Y-48091014D01*
X150158502Y-46898522D02*
X150826297Y-46898522D01*
X149776905Y-47137021D02*
X150492400Y-47375519D01*
X150492400Y-47375519D02*
X150492400Y-46755423D01*
D12*
%TO.C,J1*%
X131910000Y-99040000D02*
X111590000Y-99040000D01*
X131910000Y-96500000D02*
X131910000Y-99040000D01*
X112225000Y-96500000D02*
X131910000Y-96500000D01*
X111590000Y-99040000D02*
X111590000Y-97135000D01*
X111590000Y-97135000D02*
X112225000Y-96500000D01*
%TO.C,J3*%
X149690000Y-99040000D02*
X134450000Y-99040000D01*
X149690000Y-96500000D02*
X149690000Y-99040000D01*
X135085000Y-96500000D02*
X149690000Y-96500000D01*
X134450000Y-99040000D02*
X134450000Y-97135000D01*
X134450000Y-97135000D02*
X135085000Y-96500000D01*
%TO.C,R3*%
X117600000Y-65500000D02*
X117600000Y-56500000D01*
X117600000Y-56500000D02*
X114400000Y-56500000D01*
X116000000Y-67350000D02*
X116000000Y-65500000D01*
X116000000Y-54650000D02*
X116000000Y-56500000D01*
X114400000Y-65500000D02*
X117600000Y-65500000D01*
X114400000Y-56500000D02*
X114400000Y-65500000D01*
%TO.C,C1*%
X127250000Y-66000000D02*
G75*
G02*
X122250000Y-66000000I-2500000J0D01*
G01*
X122250000Y-66000000D02*
G75*
G02*
X127250000Y-66000000I2500000J0D01*
G01*
X126883605Y-67087500D02*
X126383605Y-67087500D01*
X126633605Y-67337500D02*
X126633605Y-66837500D01*
D13*
%TO.C,LS1*%
X147000000Y-60000000D02*
G75*
G02*
X135000000Y-60000000I-6000000J0D01*
G01*
X135000000Y-60000000D02*
G75*
G02*
X147000000Y-60000000I6000000J0D01*
G01*
D12*
%TO.C,D1*%
X111865000Y-75000000D02*
G75*
G02*
X106865000Y-75000000I-2500000J0D01*
G01*
X106865000Y-75000000D02*
G75*
G02*
X111865000Y-75000000I2500000J0D01*
G01*
X106865000Y-73530306D02*
G75*
G02*
X106865046Y-76469772I2500000J-1469694D01*
G01*
X106865000Y-73530306D02*
X106865000Y-76469694D01*
%TO.C,J2*%
X127846000Y-50780000D02*
X102446000Y-50780000D01*
X127846000Y-48240000D02*
X127846000Y-50780000D01*
X103081000Y-48240000D02*
X127846000Y-48240000D01*
X102446000Y-50780000D02*
X102446000Y-48875000D01*
X102446000Y-48875000D02*
X103081000Y-48240000D01*
%TO.C,J4*%
X149690000Y-50780000D02*
X129370000Y-50780000D01*
X149690000Y-48240000D02*
X149690000Y-50780000D01*
X130005000Y-48240000D02*
X149690000Y-48240000D01*
X129370000Y-50780000D02*
X129370000Y-48875000D01*
X129370000Y-48875000D02*
X130005000Y-48240000D01*
%TO.C,R2*%
X111600000Y-65500000D02*
X111600000Y-56500000D01*
X111600000Y-56500000D02*
X108400000Y-56500000D01*
X110000000Y-67350000D02*
X110000000Y-65500000D01*
X110000000Y-54650000D02*
X110000000Y-56500000D01*
X108400000Y-65500000D02*
X111600000Y-65500000D01*
X108400000Y-56500000D02*
X108400000Y-65500000D01*
%TO.C,R1*%
X105600000Y-65500000D02*
X105600000Y-56500000D01*
X105600000Y-56500000D02*
X102400000Y-56500000D01*
X104000000Y-67350000D02*
X104000000Y-65500000D01*
X104000000Y-54650000D02*
X104000000Y-56500000D01*
X102400000Y-65500000D02*
X105600000Y-65500000D01*
X102400000Y-56500000D02*
X102400000Y-65500000D01*
%TO.C,M1*%
X129810000Y-61270000D02*
X122190000Y-61270000D01*
X129810000Y-59365000D02*
X129810000Y-61270000D01*
X129175000Y-58730000D02*
X129810000Y-59365000D01*
X122190000Y-61270000D02*
X122190000Y-58730000D01*
X122190000Y-58730000D02*
X129175000Y-58730000D01*
%TD*%
M02*
